<svg width="64" height="70" viewBox="0 0 64 70" fill="none" xmlns="http://www.w3.org/2000/svg">
    <path
        d="M48.959 1.80151H9.58416C5.37744 1.80151 1.96722 5.21173 1.96722 9.41845V60.9862C1.96722 65.1929 5.37744 68.6031 9.58415 68.6031H55.2839C59.4906 68.6031 62.9008 65.1929 62.9008 60.9862V16.3211M48.959 1.80151V8.70421C48.959 12.9109 52.3692 16.3211 56.5759 16.3211H62.9008M48.959 1.80151L62.9008 16.3211"
        stroke="#ffffff" stroke-width="2" stroke-linecap="round" />
    <path d="M28.381 16.3239H44.7289M11.3447 16.3239L14.3455 19.2198L20.4655 13.6296" stroke="#ffffff" stroke-width="2"
        stroke-miterlimit="16" stroke-linecap="round" />
    <path
        d="M27.8474 34.872H53.5234M11.3447 38.9556L15.4178 34.8733M19.6014 30.8975L15.4178 34.8733M15.4178 34.8733L19.6014 38.9556M15.4178 34.8733L11.3448 30.8968"
        stroke="#ffffff" stroke-width="2" stroke-miterlimit="16" stroke-linecap="round" />
    <path
        d="M27.8474 54.6071H53.5234M11.3447 58.6907L15.4178 54.6084M19.6014 50.6326L15.4178 54.6084M15.4178 54.6084L19.6014 58.6907M15.4178 54.6084L11.3448 50.6319"
        stroke="#ffffff" stroke-width="2" stroke-miterlimit="16" stroke-linecap="round" />
</svg>