<svg width="62" height="63" viewBox="0 0 62 63" fill="none" xmlns="http://www.w3.org/2000/svg" class="icon">
    <path
        d="M25.4182 18.9795H18.5416V25.7688M25.4182 18.9795V9.52893H13.5012M25.4182 18.9795H36.8679M13.5012 9.52893C13.5012 11.4002 11.9842 12.9171 10.113 12.9171C8.24176 12.9171 6.72483 11.4002 6.72483 9.52897C6.72483 7.65773 8.24176 6.1408 10.113 6.1408C11.9842 6.1408 13.5012 7.65769 13.5012 9.52893ZM36.8679 18.9795H43.605V25.7688M36.8679 18.9795V7.77646M36.8679 7.77646C38.7392 7.77646 40.2561 6.25941 40.2561 4.38817C40.2561 2.51694 38.7392 1 36.8679 1C34.9967 1 33.4797 2.51694 33.4797 4.38817C33.4797 6.25941 34.9967 7.77646 36.8679 7.77646ZM18.5416 25.7688H7.77636M18.5416 25.7688V37.1017M7.77636 25.7688C7.77636 27.6401 6.25941 29.157 4.38817 29.157C2.51694 29.157 1 27.6401 1 25.7688C1 23.8976 2.51694 22.3807 4.38817 22.3807C6.25941 22.3807 7.77636 23.8976 7.77636 25.7688ZM18.5416 37.1017V44.0429H25.4182M18.5416 37.1017H9.2952V48.785M9.2952 48.785C7.42397 48.785 5.90703 50.302 5.90703 52.1732C5.90703 54.0444 7.42397 55.5614 9.2952 55.5614C11.1664 55.5614 12.6834 54.0444 12.6834 52.1732C12.6834 50.302 11.1664 48.785 9.2952 48.785ZM25.4182 44.0429V54.8604M25.4182 44.0429H36.8679M25.4182 54.8604C23.547 54.8604 22.0301 56.3773 22.0301 58.2485C22.0301 60.1198 23.547 61.6367 25.4182 61.6367C27.2895 61.6367 28.8064 60.1198 28.8064 58.2485C28.8064 56.3773 27.2895 54.8604 25.4182 54.8604ZM36.8679 44.0429H43.605V37.1017M36.8679 44.0429V53.2247H48.4344M48.4344 53.2247C48.4344 55.0959 49.9514 56.6129 51.8226 56.6129C53.6939 56.6129 55.2108 55.0959 55.2108 53.2247C55.2108 51.3535 53.6939 49.8365 51.8226 49.8365C49.9514 49.8365 48.4344 51.3535 48.4344 53.2247ZM43.605 37.1017H53.9256M43.605 37.1017V25.7688M53.9256 37.1017C53.9256 38.9729 55.4426 40.4898 57.3138 40.4898C59.185 40.4898 60.702 38.9729 60.702 37.1017C60.702 35.2304 59.185 33.7135 57.3138 33.7135C55.4426 33.7135 53.9256 35.2304 53.9256 37.1017ZM43.605 25.7688H52.7573V13.2676M52.7573 13.2676C54.6285 13.2676 56.1455 11.7507 56.1455 9.87947C56.1455 8.00823 54.6285 6.4913 52.7573 6.4913C50.886 6.4913 49.3691 8.00823 49.3691 9.87947C49.3691 11.7507 50.886 13.2676 52.7573 13.2676Z"
        stroke="#ffffff" stroke-width="2" />
</svg>