<svg width="180" height="180" viewBox="0 0 180 180" fill="none" xmlns="http://www.w3.org/2000/svg">
    <path d="M180 0H0V180H180V0Z" fill="#FBB800" />
    <path d="M24.0983 20.6574H14.7734V15.6562H30.4931V19.9343L23.245 49.9812H16.8913L24.0983 20.6574Z" fill="white" />
    <path
        d="M49.2769 24.2022L48.3824 18.6989L47.488 24.2022H49.2666H49.2769ZM47.087 15.636H49.647L52.2687 28.7614H50.048L49.5236 25.7286H47.2412L46.7066 28.7614H44.4551L47.0767 15.636H47.087Z"
        fill="white" />
    <path d="M53.2559 15.626H58.6534V17.283H55.6411V21.1091H58.1085V22.7762H55.6411V28.7514H53.2559V15.626Z"
        fill="white" />
    <path d="M59.6309 15.626H65.0181V17.283H62.0058V21.1091H64.4732V22.7762H62.0058V28.7514H59.6309V15.626Z"
        fill="white" />
    <path
        d="M70.6422 26.6624C70.8273 26.331 70.9198 25.8389 70.9198 25.2062V19.1607C70.9198 18.518 70.8273 18.046 70.6525 17.7146C70.4777 17.3932 70.1179 17.2325 69.573 17.2325C69.0281 17.2325 68.6683 17.3932 68.4832 17.7246C68.2982 18.056 68.2056 18.528 68.2056 19.1607V25.2062C68.2056 25.8489 68.2982 26.331 68.4832 26.6624C68.6683 26.9938 69.0281 27.1645 69.573 27.1645C70.1179 27.1645 70.4572 26.9938 70.6422 26.6624ZM66.6532 27.8373C66.0672 27.1042 65.7793 26.0397 65.7793 24.6338V19.703C65.7793 18.3071 66.0672 17.2526 66.6532 16.5396C67.2392 15.8266 68.2056 15.4651 69.573 15.4651C70.9404 15.4651 71.8862 15.8166 72.4722 16.5396C73.0583 17.2526 73.3461 18.3071 73.3461 19.703V24.6338C73.3461 26.0297 73.048 27.0942 72.462 27.8273C71.8759 28.5604 70.9095 28.9319 69.573 28.9319C68.2365 28.9319 67.2392 28.5704 66.6532 27.8373Z"
        fill="white" />
    <path
        d="M77.9311 21.2495C78.6097 21.2495 79.0929 21.0888 79.3808 20.7775C79.6686 20.4662 79.8126 19.954 79.8126 19.241C79.8126 18.528 79.6892 18.0459 79.4322 17.7346C79.1751 17.4233 78.7228 17.2626 78.0648 17.2626H77.1704V21.2495H77.9311ZM74.7852 15.6257H77.9414C79.3294 15.6257 80.3575 15.8868 81.036 16.409C81.7145 16.9312 82.0538 17.8351 82.0538 19.1104C82.0538 19.944 81.9305 20.6168 81.694 21.139C81.4473 21.6612 81.036 22.0428 80.4397 22.2838L82.2697 28.7511H79.8742L78.3012 22.7357H77.1704V28.7511H74.7852V15.6257Z"
        fill="white" />
    <path
        d="M86.6782 27.0841C87.2128 27.0841 87.5932 26.9937 87.8296 26.813C88.0661 26.6322 88.2203 26.3711 88.282 26.0397C88.3437 25.7083 88.3848 25.2263 88.3848 24.5735V19.5523C88.3848 18.9699 88.3437 18.528 88.2717 18.2267C88.1997 17.9254 88.0353 17.7045 87.7988 17.5539C87.5521 17.4032 87.1716 17.3329 86.6576 17.3329H85.9482V27.0841H86.6884H86.6782ZM83.5527 15.6257H86.6473C87.7063 15.6257 88.539 15.7663 89.1456 16.0576C89.7522 16.3488 90.184 16.7806 90.4307 17.3731C90.6878 17.9656 90.8111 18.7389 90.8111 19.713V24.4932C90.8111 25.4874 90.6878 26.2908 90.4307 26.9033C90.1737 27.5159 89.7522 27.9779 89.1559 28.2892C88.5596 28.6005 87.7577 28.7511 86.7399 28.7511H83.5527V15.6257Z"
        fill="white" />
    <path
        d="M96.2202 24.2022L95.3258 18.6989L94.4313 24.2022H96.2099H96.2202ZM94.0304 15.636H96.5903L99.212 28.7614H96.9913L96.467 25.7286H94.1846L93.65 28.7614H91.3984L94.0201 15.636H94.0304Z"
        fill="white" />
    <path
        d="M103.519 27.0643C104.219 27.0643 104.702 26.8935 104.979 26.5621C105.257 26.2308 105.38 25.6784 105.38 24.9052C105.38 24.1319 105.226 23.5394 104.938 23.1779C104.64 22.8163 104.147 22.6356 103.437 22.6356H102.594V27.0542H103.519V27.0643ZM103.417 20.9886C104.105 20.9886 104.578 20.838 104.835 20.5267C105.092 20.2154 105.216 19.7233 105.216 19.0303C105.216 18.3374 105.051 17.9056 104.722 17.6646C104.393 17.4236 103.848 17.3031 103.077 17.3031H102.594V20.9987H103.417V20.9886ZM100.209 15.626H103.447C104.681 15.626 105.627 15.877 106.285 16.3691C106.943 16.8612 107.282 17.7148 107.282 18.9098C107.282 20.5668 106.655 21.4907 105.391 21.6815C106.902 21.9728 107.663 23.0574 107.663 24.9252C107.673 26.1805 107.375 27.1346 106.758 27.7773C106.141 28.43 105.226 28.7514 104.003 28.7514H100.209V15.626Z"
        fill="white" />
    <path d="M108.906 15.626H111.291V27.1145H114.479V28.7514H108.906V15.626Z" fill="white" />
    <path
        d="M115.404 15.626H120.915V17.3131H117.79V21.089H120.247V22.7561H117.79V27.1145H120.946V28.7514H115.404V15.626Z"
        fill="white" />
    <path
        d="M129.778 24.2022L128.884 18.6989L127.989 24.2022H129.768H129.778ZM127.589 15.636H130.148L132.77 28.7614H130.549L130.035 25.7286H127.753L127.218 28.7614H124.967L127.589 15.636Z"
        fill="white" />
    <path
        d="M133.756 15.626H135.432L138.619 23.1176V15.626H140.593V28.7514H139.009L135.802 20.9083V28.7514H133.756V15.626Z"
        fill="white" />
    <path
        d="M145.395 27.0844C145.93 27.0844 146.31 26.994 146.546 26.8132C146.783 26.6324 146.937 26.3713 146.999 26.0399C147.061 25.7085 147.091 25.2265 147.091 24.5738V19.5526C147.091 18.9701 147.05 18.5282 146.978 18.227C146.906 17.9257 146.742 17.7048 146.495 17.5541C146.248 17.4035 145.868 17.3332 145.354 17.3332H144.644V27.0844H145.385H145.395ZM142.27 15.626H145.364C146.423 15.626 147.256 15.7666 147.862 16.0578C148.469 16.349 148.901 16.7809 149.148 17.3734C149.405 17.9659 149.528 18.7391 149.528 19.7132V24.4934C149.528 25.4876 149.405 26.291 149.148 26.9036C148.891 27.5162 148.469 27.9781 147.873 28.2894C147.276 28.6008 146.475 28.7514 145.457 28.7514H142.27V15.626Z"
        fill="white" />
    <path
        d="M45.7713 49.2277C45.2059 48.4645 44.918 47.39 44.918 45.9941V41.3143C44.918 39.8782 45.1956 38.7836 45.761 38.0405C46.3265 37.2974 47.2929 36.9258 48.6603 36.9258C49.9454 36.9258 50.8604 37.2471 51.395 37.8999C51.9296 38.5426 52.2072 39.4866 52.2072 40.7017V41.8064H49.9043V40.6716C49.9043 40.2096 49.8837 39.8381 49.8426 39.577C49.8015 39.3159 49.6884 39.0949 49.5136 38.9242C49.3388 38.7535 49.0612 38.6732 48.6808 38.6732C48.3004 38.6732 48.0023 38.7635 47.807 38.9443C47.6116 39.1251 47.4882 39.356 47.4265 39.6573C47.3649 39.9586 47.334 40.3402 47.334 40.8122V46.4962C47.334 47.2393 47.4265 47.7816 47.6219 48.113C47.8172 48.4444 48.1668 48.6051 48.6808 48.6051C49.0509 48.6051 49.3183 48.5147 49.493 48.344C49.6678 48.1733 49.7809 47.9423 49.8323 47.6511C49.8837 47.3699 49.9043 46.9883 49.9043 46.5062V45.3212H52.2072V46.3757C52.2072 47.641 51.9399 48.6151 51.4156 49.3181C50.881 50.011 49.966 50.3625 48.6603 50.3625C47.3546 50.3625 46.3368 49.9809 45.7713 49.2177"
        fill="white" />
    <path d="M53.5527 37.0664H55.9276V48.5549H59.125V50.1918H53.5527V37.0664Z" fill="white" />
    <path
        d="M60.0508 37.0664H65.5511V38.7535H62.4257V42.5295H64.8932V44.1965H62.4257V48.5549H65.582V50.1918H60.0508V37.0664Z"
        fill="white" />
    <path
        d="M70.8057 45.6326L69.9112 40.1293L69.0168 45.6326H70.7954H70.8057ZM68.6158 37.0664H71.1758L73.7975 50.1918H71.5768L71.0627 47.159H68.7803L68.2457 50.1918H65.9941L68.6158 37.0664Z"
        fill="white" />
    <path
        d="M74.7949 37.0664H76.4604L79.6476 44.548V37.0664H81.6318V50.1918H80.0382L76.8305 42.3487V50.1918H74.7949V37.0664Z"
        fill="white" />
    <path
        d="M86.9043 37.0664H92.4149V38.7535H89.2895V42.5295H91.7466V44.1965H89.2895V48.5549H92.4457V50.1918H86.9043V37.0664Z"
        fill="white" />
    <path
        d="M93.5176 37.0664H95.1831L98.3805 44.548V37.0664H100.354V50.1918H98.7712L95.5635 42.3487V50.1918H93.5176V37.0664Z"
        fill="white" />
    <path
        d="M102.02 37.0664H107.53V38.7535H104.405V42.5295H106.872V44.1965H104.405V48.5549H107.561V50.1918H102.02V37.0664Z"
        fill="white" />
    <path
        d="M111.775 42.6901C112.453 42.6901 112.937 42.5295 113.225 42.2182C113.512 41.9068 113.656 41.3947 113.656 40.6817C113.656 39.9687 113.533 39.4866 113.276 39.1753C113.019 38.864 112.567 38.7033 111.909 38.7033H111.014V42.6901H111.775ZM108.629 37.0664H111.785C113.173 37.0664 114.201 37.3275 114.88 37.8497C115.558 38.3719 115.898 39.2757 115.898 40.5511C115.898 41.3846 115.774 42.0575 115.538 42.5797C115.291 43.1019 114.88 43.4835 114.283 43.7245L116.113 50.1918H113.718L112.145 44.1764H111.014V50.1918H108.629V37.0664Z"
        fill="white" />
    <path
        d="M118.006 49.2077C117.461 48.4344 117.184 47.3197 117.184 45.8635V41.4549C117.184 39.9586 117.461 38.8238 118.027 38.0606C118.592 37.2974 119.558 36.9158 120.926 36.9158C122.221 36.9158 123.147 37.2371 123.712 37.8798C124.277 38.5226 124.555 39.4766 124.555 40.7419V41.4248H122.273V40.6817C122.273 40.2097 122.242 39.8281 122.18 39.5469C122.118 39.2657 121.995 39.0548 121.81 38.8941C121.625 38.7435 121.337 38.6631 120.957 38.6631C120.556 38.6631 120.258 38.7636 120.062 38.9544C119.867 39.1452 119.744 39.3962 119.682 39.6975C119.62 39.9988 119.589 40.3904 119.589 40.8825V46.3757C119.589 47.1188 119.692 47.6812 119.888 48.0427C120.083 48.4043 120.463 48.5951 121.018 48.5951C121.574 48.5951 121.933 48.4043 122.139 48.0126C122.355 47.621 122.458 47.0385 122.458 46.2652V45.03H121.049V43.5237H124.617V50.1818H123.064L122.9 48.9064C122.489 49.8805 121.748 50.3625 120.679 50.3625C119.435 50.3625 118.541 49.9709 117.996 49.2077"
        fill="white" />
    <path
        d="M127.865 45.1807L125.213 37.0664H127.444L129.068 42.2684L130.59 37.0664H132.769L130.148 45.1807V50.1918H127.865V45.1807Z"
        fill="white" />
    <path
        d="M90.0723 127.78C82.4643 127.78 76.2854 121.614 76.2854 114.002C76.2854 107.815 80.3567 102.583 85.9702 100.836V105.968C83.0504 107.464 81.0456 110.497 81.0456 114.002C81.0456 118.983 85.086 123.02 90.0723 123.02C95.0586 123.02 99.099 118.983 99.099 114.002C99.099 110.487 97.0839 107.444 94.1436 105.958V100.826C99.7673 102.563 103.859 107.805 103.859 114.002C103.859 121.614 97.6905 127.78 90.0723 127.78ZM88.1086 98.1647C88.1086 97.2809 88.9928 96.3068 90.0826 96.3068C91.1724 96.3068 92.0463 97.2809 92.0463 98.1647V107.263C92.0463 108.137 91.1724 109.101 90.0826 109.101C88.9928 109.101 88.1086 108.137 88.1086 107.263V98.1647ZM90.0723 87.6904C75.4424 87.6904 63.5781 99.5606 63.5781 114.192C63.5781 128.824 75.4424 140.694 90.0723 140.694C104.702 140.694 116.566 128.834 116.566 114.192C116.566 99.5505 104.702 87.6904 90.0723 87.6904Z"
        fill="white" />
    <path
        d="M59.6503 113.971C59.6503 112.766 58.581 111.792 57.6146 111.792H46.0074C45.0307 111.792 43.9512 112.766 43.9512 113.971C43.9512 115.176 45.0204 116.15 46.0074 116.15H57.6146C58.5913 116.15 59.6503 115.176 59.6503 113.971Z"
        fill="white" />
    <path
        d="M136.191 113.971C136.191 112.766 135.132 111.792 134.156 111.792H122.548C121.572 111.792 120.492 112.766 120.492 113.971C120.492 115.176 121.572 116.15 122.548 116.15H134.156C135.132 116.15 136.191 115.176 136.191 113.971Z"
        fill="white" />
    <path
        d="M90.0819 160.096C91.2848 160.096 92.2512 159.031 92.2512 158.057V146.448C92.2512 145.474 91.2745 144.4 90.0819 144.4C88.8893 144.4 87.9023 145.474 87.9023 146.448V158.057C87.9023 159.031 88.879 160.096 90.0819 160.096Z"
        fill="white" />
    <path
        d="M130.105 136.878C130.702 135.833 130.26 134.458 129.417 133.976L119.341 128.211C118.488 127.729 117.079 128.04 116.483 129.075C115.887 130.119 116.329 131.505 117.182 131.987L127.258 137.751C128.101 138.233 129.509 137.912 130.105 136.868"
        fill="white" />
    <path
        d="M67.167 154C68.2054 154.593 69.5831 154.161 70.0663 153.317L75.8339 143.245C76.3171 142.391 76.0087 140.975 74.96 140.383C73.9217 139.78 72.5337 140.232 72.0505 141.076L66.2829 151.148C65.7997 151.992 66.1184 153.408 67.167 154Z"
        fill="white" />
    <path
        d="M113.071 153.95C114.11 153.348 114.428 151.942 113.945 151.098L108.157 141.036C107.664 140.192 106.286 139.74 105.247 140.343C104.199 140.945 103.89 142.361 104.384 143.215L110.172 153.277C110.655 154.121 112.033 154.553 113.082 153.95"
        fill="white" />
    <path
        d="M50.0899 136.968C50.6862 138.013 52.0946 138.324 52.9377 137.842L62.9925 132.058C63.8458 131.566 64.2879 130.19 63.6916 129.145C63.0953 128.101 61.6765 127.79 60.8232 128.272L50.7581 134.056C49.9151 134.538 49.4833 135.924 50.0796 136.968"
        fill="white" />
    <path
        d="M90.0819 83.5427C91.2848 83.5427 92.2512 82.4782 92.2512 81.5041V69.8951C92.2512 68.921 91.2745 67.8464 90.0819 67.8464C88.8893 67.8464 87.9023 68.921 87.9023 69.8951V81.5041C87.9023 82.4782 88.879 83.5427 90.0819 83.5427Z"
        fill="white" />
    <path
        d="M63.6718 98.8575C64.2681 97.8131 63.826 96.4373 62.9829 95.9553L52.9075 90.1909C52.0542 89.7089 50.6457 90.0202 50.0494 91.0546C49.4531 92.099 49.8952 93.4848 50.7485 93.9669L60.8239 99.7312C61.6669 100.213 63.0755 99.8919 63.6718 98.8475"
        fill="white" />
    <path
        d="M105.196 87.5697C106.235 88.1622 107.612 87.7304 108.096 86.8868L113.863 76.8143C114.346 75.9607 114.038 74.5447 113 73.9522C111.951 73.3497 110.573 73.8016 110.08 74.6552L104.312 84.7277C103.829 85.5713 104.148 86.9772 105.196 87.5797"
        fill="white" />
    <path
        d="M74.9092 87.5899C75.9476 86.9873 76.2663 85.5814 75.7831 84.7378L69.9949 74.6754C69.5014 73.8218 68.1238 73.3799 67.0854 73.9824C66.0367 74.585 65.7283 76.001 66.2218 76.8546L72.01 86.9171C72.4932 87.7606 73.8709 88.1924 74.9195 87.5899"
        fill="white" />
    <path
        d="M116.453 98.8073C117.049 99.8517 118.458 100.163 119.301 99.6809L129.356 93.8965C130.209 93.4044 130.651 92.0286 130.055 90.9842C129.448 89.9398 128.04 89.6285 127.187 90.1105L117.121 95.895C116.278 96.377 115.847 97.7628 116.443 98.8073"
        fill="white" />
</svg>