<svg width="180" height="180" viewBox="0 0 180 180" fill="none" xmlns="http://www.w3.org/2000/svg">
    <path d="M180 0H0V180H180V0Z" fill="#D28D0E" />
    <path
        d="M15.4418 22.4379C15.1334 22.6037 14.2286 22.9665 12.7276 23.495C11.5453 23.8888 10.7948 24.1583 10.4863 24.3034V19.4324C11.4425 19.0696 12.6145 18.4996 13.9819 17.7327C15.3492 16.9658 16.3157 16.2817 16.8811 15.6599H22.0113V49.9851H15.4418V22.4379Z"
        fill="white" />
    <path
        d="M25.6509 45.3628L33.958 32.5219L34.4618 31.755C35.531 30.1486 36.3226 28.8013 36.8367 27.7131C37.3404 26.6249 37.5974 25.433 37.5974 24.1272C37.5974 23.0286 37.3816 22.1891 36.96 21.6088C36.5385 21.0284 35.9319 20.7382 35.1403 20.7382C33.958 20.7382 33.1355 21.1942 32.6831 22.0959C32.2308 22.9975 32.0046 24.2412 32.0046 25.8269V27.3918H25.6509V25.6921C25.6509 22.469 26.4014 19.9195 27.9128 18.0436C29.4241 16.1677 31.7887 15.2246 35.0066 15.2246C37.9779 15.2246 40.2294 16.0123 41.7613 17.5772C43.3034 19.1422 44.0745 21.3704 44.0745 24.2516C44.0745 25.547 43.8792 26.7803 43.4782 27.9411C43.0772 29.1019 42.6146 30.1279 42.08 31.0399C41.5454 31.9416 40.7126 33.2267 39.5817 34.8953L32.971 44.8135H43.1801V49.9851H25.6406V45.3628H25.6509Z"
        fill="white" />
    <path
        d="M60.4214 21.2564C61.0999 21.2564 61.5831 21.1009 61.871 20.79C62.1589 20.4791 62.3028 19.9609 62.3028 19.2562C62.3028 18.5514 62.1794 18.0643 61.9224 17.7534C61.6654 17.4425 61.213 17.287 60.555 17.287H59.6606V21.2771H60.4214V21.2564ZM57.2754 15.6392H60.4317C61.8093 15.6392 62.8477 15.8983 63.5262 16.4268C64.2048 16.9554 64.5441 17.8467 64.5441 19.1214C64.5441 19.9505 64.4207 20.6346 64.1842 21.1527C63.9375 21.6813 63.5262 22.0544 62.9299 22.2928L64.76 28.7598H62.3645L60.7915 22.7488H59.6606V28.7598H57.2754V15.6392Z"
        fill="white" />
    <path
        d="M65.8809 15.6289H71.3915V17.3182H68.2661V21.0907H70.7335V22.7593H68.2661V27.1121H71.4223V28.7496H65.8809V15.6289Z"
        fill="white" />
    <path
        d="M72.9762 27.9306C72.3902 27.2569 72.0612 26.262 72.0098 24.9354L74.066 24.5312C74.0968 25.3603 74.2305 26.0029 74.4669 26.4382C74.6931 26.8734 75.0632 27.0911 75.5567 27.0911C75.9268 27.0911 76.1941 26.9771 76.3792 26.7594C76.554 26.5418 76.6465 26.2412 76.6465 25.8578C76.6465 25.3396 76.5334 24.9043 76.297 24.5416C76.0605 24.1892 75.7007 23.785 75.2072 23.3394L73.5519 21.8988C73.0481 21.4428 72.6678 20.9764 72.4107 20.4997C72.1537 20.0229 72.0303 19.4218 72.0303 18.7274C72.0303 17.691 72.3285 16.893 72.9351 16.3334C73.5416 15.7737 74.3744 15.4939 75.4436 15.4939C76.5643 15.4939 77.3662 15.8152 77.8597 16.4577C78.3429 17.1003 78.6307 17.9709 78.7027 19.0591L76.6465 19.4114C76.6157 18.7067 76.5231 18.1781 76.3586 17.805C76.2044 17.4423 75.896 17.2558 75.4436 17.2558C75.0735 17.2558 74.7856 17.3698 74.58 17.5978C74.3744 17.8258 74.2613 18.1263 74.2613 18.4891C74.2613 18.914 74.3436 19.256 74.5183 19.5462C74.6931 19.826 74.9604 20.1369 75.3305 20.4686L76.9652 21.9091C77.5821 22.4584 78.0653 23.0284 78.4046 23.6295C78.7541 24.2203 78.9186 24.9147 78.9186 25.7231C78.9186 26.3552 78.785 26.9045 78.5074 27.3916C78.2298 27.8787 77.8494 28.2622 77.3456 28.5317C76.8521 28.8115 76.2764 28.9462 75.6287 28.9462C74.4361 28.9462 73.5519 28.6146 72.9659 27.9409"
        fill="white" />
    <path
        d="M83.1542 21.2355C83.8019 21.2355 84.244 21.1008 84.4702 20.821C84.6964 20.5411 84.8095 20.054 84.8095 19.3389C84.8095 18.8207 84.7684 18.4269 84.6964 18.1471C84.6244 17.8673 84.4702 17.66 84.2338 17.5253C83.9973 17.3802 83.6374 17.318 83.1542 17.318H82.229V21.2355H83.1542ZM79.854 15.6287H83.7094C85.9404 15.6287 87.061 16.8723 87.061 19.3493C87.061 21.8263 85.889 22.9145 83.5449 22.9145H82.229V28.7493H79.8438V15.6287H79.854Z"
        fill="white" />
    <path
        d="M92.5504 26.6663C92.7355 26.3346 92.828 25.8475 92.828 25.205V19.1628C92.828 18.5203 92.7355 18.0435 92.5607 17.7222C92.3859 17.401 92.0261 17.2351 91.4812 17.2351C90.9363 17.2351 90.5765 17.401 90.4017 17.7326C90.2166 18.0643 90.1241 18.541 90.1241 19.1628V25.205C90.1241 25.8372 90.2166 26.3243 90.4017 26.6663C90.5868 26.9979 90.9466 27.1637 91.4812 27.1637C92.0158 27.1637 92.3654 26.9979 92.5504 26.6663ZM88.5614 27.8374C87.9754 27.1119 87.6875 26.0444 87.6875 24.635V19.7121C87.6875 18.3233 87.9754 17.2662 88.5614 16.5511C89.1474 15.836 90.1138 15.4836 91.4812 15.4836C92.8486 15.4836 93.7944 15.836 94.3805 16.5511C94.9665 17.2662 95.2543 18.313 95.2543 19.7121V24.635C95.2543 26.0237 94.9562 27.0912 94.3702 27.827C93.7841 28.5629 92.8177 28.9256 91.4812 28.9256C90.1447 28.9256 89.1474 28.5629 88.5614 27.8374Z"
        fill="white" />
    <path
        d="M96.5391 15.6289H98.2046L101.402 23.1116V15.6289H103.376V28.7496H101.782L98.5747 20.9145V28.7496H96.5391V15.6289Z"
        fill="white" />
    <path
        d="M105.525 27.9306C104.939 27.2569 104.61 26.262 104.559 24.9354L106.615 24.5312C106.646 25.3603 106.779 26.0029 107.016 26.4382C107.252 26.8734 107.612 27.0911 108.106 27.0911C108.476 27.0911 108.743 26.9771 108.928 26.7594C109.103 26.5418 109.195 26.2412 109.195 25.8578C109.195 25.3396 109.082 24.9043 108.846 24.5416C108.609 24.1892 108.249 23.785 107.756 23.3394L106.101 21.8988C105.597 21.4428 105.217 20.9764 104.96 20.4997C104.703 20.0229 104.579 19.4218 104.579 18.7274C104.579 17.691 104.877 16.893 105.484 16.3334C106.09 15.7737 106.923 15.4939 107.992 15.4939C109.113 15.4939 109.915 15.8152 110.408 16.4577C110.892 17.1003 111.18 17.9709 111.252 19.0591L109.195 19.4114C109.164 18.7067 109.072 18.1781 108.907 17.805C108.753 17.4423 108.445 17.2558 107.992 17.2558C107.622 17.2558 107.334 17.3698 107.129 17.5978C106.923 17.8258 106.81 18.1263 106.81 18.4891C106.81 18.914 106.892 19.256 107.067 19.5462C107.242 19.826 107.509 20.1369 107.879 20.4686L109.514 21.9091C110.131 22.4584 110.614 23.0284 110.953 23.6295C111.293 24.2307 111.467 24.9147 111.467 25.7231C111.467 26.3552 111.334 26.9045 111.056 27.3916C110.779 27.8787 110.398 28.2622 109.894 28.5317C109.401 28.8115 108.825 28.9462 108.178 28.9462C106.995 28.9462 106.101 28.6146 105.515 27.9409"
        fill="white" />
    <path d="M114.829 15.6289H112.465V28.7496H114.829V15.6289Z" fill="white" />
    <path
        d="M119.671 27.0705C120.37 27.0705 120.864 26.9047 121.131 26.5731C121.399 26.2414 121.532 25.6921 121.532 24.9148C121.532 24.1375 121.388 23.5572 121.09 23.1944C120.792 22.8317 120.288 22.6555 119.589 22.6555H118.746V27.0809H119.671V27.0705ZM119.579 20.9973C120.268 20.9973 120.741 20.8418 120.998 20.5309C121.255 20.22 121.378 19.7225 121.378 19.0282C121.378 18.3338 121.213 17.8985 120.884 17.6601C120.555 17.4217 120.011 17.2974 119.24 17.2974H118.756V20.9869H119.579V20.9973ZM116.371 15.6392H119.61C120.843 15.6392 121.789 15.8879 122.457 16.3854C123.126 16.8828 123.455 17.7327 123.455 18.9245C123.455 20.5827 122.817 21.5051 121.563 21.6917C123.074 21.9819 123.835 23.0597 123.835 24.9356C123.835 26.1896 123.547 27.1431 122.93 27.7856C122.314 28.4386 121.399 28.7598 120.175 28.7598H116.381V15.6392H116.371Z"
        fill="white" />
    <path d="M124.904 15.6289H127.289V27.1121H130.477V28.7496H124.904V15.6289Z" fill="white" />
    <path
        d="M131.238 15.6289H136.749V17.3182H133.623V21.0907H136.081V22.7593H133.623V27.1121H136.78V28.7496H131.238V15.6289Z"
        fill="white" />
    <path
        d="M57.9237 49.2286C57.3582 48.472 57.0703 47.3941 57.0703 45.995V41.3105C57.0703 39.87 57.3479 38.7818 57.9134 38.0356C58.4788 37.2894 59.4452 36.9163 60.8126 36.9163C62.0977 36.9163 63.0128 37.2375 63.5474 37.8905C64.082 38.533 64.3595 39.4761 64.3595 40.6991V41.7976H62.0566V40.6576C62.0566 40.1912 62.0361 39.8285 61.9949 39.5694C61.9538 39.3 61.8407 39.0927 61.6659 38.9268C61.4912 38.761 61.2136 38.6781 60.8332 38.6781C60.4528 38.6781 60.1546 38.7714 59.9593 38.9476C59.7639 39.1238 59.6406 39.3621 59.5789 39.6627C59.5172 39.9632 59.4864 40.3467 59.4864 40.8234V46.5132C59.4864 47.2594 59.5789 47.7983 59.7742 48.1196C59.9696 48.4513 60.3191 48.6171 60.8332 48.6171C61.2033 48.6171 61.4706 48.5342 61.6454 48.358C61.8202 48.1818 61.9332 47.9538 61.9846 47.674C62.036 47.3838 62.0566 47.0107 62.0566 46.5339V45.3525H64.3595V46.4096C64.3595 47.674 64.0923 48.6482 63.5679 49.3529C63.0333 50.0473 62.1183 50.3997 60.8126 50.3997C59.5069 50.3997 58.4891 50.0162 57.9237 49.2596"
        fill="white" />
    <path
        d="M70.1989 48.0989C70.3839 47.7673 70.4764 47.2801 70.4764 46.6376V40.5954C70.4764 39.9529 70.3839 39.4761 70.2091 39.1549C70.0344 38.8336 69.6745 38.6678 69.1296 38.6678C68.5847 38.6678 68.2249 38.8336 68.0501 39.1652C67.8651 39.4969 67.7725 39.9736 67.7725 40.5954V46.6376C67.7725 47.2698 67.8651 47.7569 68.0501 48.0989C68.2352 48.4305 68.595 48.5964 69.1296 48.5964C69.6642 48.5964 70.0138 48.4305 70.1989 48.0989ZM66.2098 49.27C65.6238 48.5445 65.3359 47.4771 65.3359 46.0676V41.1447C65.3359 39.756 65.6238 38.6988 66.2098 37.9837C66.7958 37.2686 67.7623 36.9163 69.1296 36.9163C70.497 36.9163 71.4429 37.2686 72.0289 37.9837C72.6149 38.6988 72.9027 39.7456 72.9027 41.1447V46.0676C72.9027 47.4563 72.6046 48.5238 72.0186 49.2596C71.4326 49.9955 70.4662 50.3582 69.1296 50.3582C67.7931 50.3582 66.7958 49.9955 66.2098 49.27Z"
        fill="white" />
    <path
        d="M74.1777 37.0613H75.8535L79.0406 44.5544V37.0613H81.0146V50.1923H79.4313L76.2236 42.3469V50.1923H74.1777V37.0613Z"
        fill="white" />
    <path
        d="M83.1617 49.3632C82.5757 48.6895 82.2467 47.6946 82.1953 46.368L84.2515 45.9638C84.2824 46.7929 84.416 47.4355 84.6525 47.8708C84.889 48.3061 85.2488 48.5237 85.7423 48.5237C86.1124 48.5237 86.3797 48.4097 86.5647 48.1921C86.7395 47.9744 86.8321 47.6739 86.8321 47.2904C86.8321 46.7722 86.719 46.3369 86.4825 45.9742C86.246 45.6218 85.8862 45.2176 85.3927 44.772L83.7375 43.3314C83.2337 42.8754 82.8533 42.409 82.5963 41.9323C82.3393 41.4555 82.2159 40.8648 82.2159 40.16C82.2159 39.1237 82.514 38.3256 83.1206 37.766C83.7272 37.2063 84.5599 36.9265 85.6292 36.9265C86.7498 36.9265 87.562 37.2478 88.0452 37.8904C88.5284 38.5329 88.8163 39.4035 88.8883 40.4917L86.8321 40.8441C86.8012 40.1393 86.7087 39.6108 86.5442 39.2377C86.39 38.8749 86.0815 38.6884 85.6292 38.6884C85.2591 38.6884 84.9712 38.8024 84.7656 39.0304C84.5599 39.2584 84.4469 39.5589 84.4469 39.9217C84.4469 40.3466 84.5291 40.6886 84.7039 40.9788C84.8787 41.2586 85.146 41.5695 85.5161 41.9012L87.1508 43.3418C87.7676 43.891 88.2508 44.4611 88.5901 45.0622C88.9294 45.6633 89.1144 46.3473 89.1144 47.1557C89.1144 47.7879 88.9808 48.3372 88.7032 48.8243C88.4256 49.3114 88.0452 49.6948 87.5415 49.9643C87.048 50.2441 86.4722 50.3788 85.8245 50.3788C84.6422 50.3788 83.7477 50.0472 83.1617 49.3735"
        fill="white" />
    <path
        d="M91.3955 49.8501C90.8609 49.5081 90.4804 49.0106 90.2645 48.3784C90.0486 47.7462 89.9355 46.9275 89.9355 45.9429V37.061H92.2694V46.2123C92.2694 46.9689 92.3619 47.5493 92.5366 47.9638C92.7114 48.3784 93.0815 48.5753 93.6264 48.5753C94.1713 48.5753 94.562 48.368 94.7368 47.9638C94.9116 47.5596 95.0041 46.9689 95.0041 46.2123V37.061H97.3173V45.9429C97.3173 46.9171 97.2042 47.7255 96.9883 48.368C96.7724 49.0106 96.392 49.5081 95.8574 49.8501C95.3228 50.1921 94.5723 50.3683 93.6264 50.3683C92.6806 50.3683 91.9301 50.1921 91.3955 49.8501Z"
        fill="white" />
    <path
        d="M98.9234 37.0613H101.401L103.262 46.1504L105.185 37.0613H107.601L107.847 50.1923H106.069L105.873 41.0721L104.002 50.1923H102.563L100.671 41.0306L100.486 50.1923H98.6973L98.9234 37.0613Z"
        fill="white" />
    <path
        d="M112.609 42.6681C113.257 42.6681 113.699 42.5334 113.925 42.2536C114.151 41.9738 114.265 41.4867 114.265 40.7715C114.265 40.2534 114.223 39.8595 114.151 39.5797C114.08 39.2999 113.925 39.0926 113.689 38.9579C113.452 38.8128 113.093 38.7506 112.609 38.7506H111.684V42.6681H112.609ZM109.309 37.0613H113.164C115.406 37.0613 116.516 38.3049 116.516 40.7819C116.516 43.2589 115.344 44.3471 113 44.3471H111.684V50.182H109.299V37.0613H109.309Z"
        fill="white" />
    <path d="M118.633 38.8335H116.453V37.0613H123.167V38.8335H121.018V50.1923H118.633V38.8335Z" fill="white" />
    <path d="M126.169 37.0613H123.805V50.182H126.169V37.0613Z" fill="white" />
    <path
        d="M132.357 48.0989C132.542 47.7673 132.635 47.2801 132.635 46.6376V40.5954C132.635 39.9529 132.542 39.4761 132.367 39.1549C132.193 38.8336 131.833 38.6678 131.288 38.6678C130.743 38.6678 130.383 38.8336 130.208 39.1652C130.023 39.4969 129.931 39.9736 129.931 40.5954V46.6376C129.931 47.2698 130.023 47.7569 130.208 48.0989C130.393 48.4305 130.753 48.5964 131.288 48.5964C131.822 48.5964 132.172 48.4305 132.357 48.0989ZM128.368 49.27C127.782 48.5445 127.494 47.4771 127.494 46.0676V41.1447C127.494 39.756 127.782 38.6988 128.368 37.9837C128.954 37.2686 129.92 36.9163 131.288 36.9163C132.655 36.9163 133.601 37.2686 134.187 37.9837C134.773 38.6988 135.061 39.7456 135.061 41.1447V46.0676C135.061 47.4563 134.763 48.5238 134.177 49.2596C133.591 49.9955 132.624 50.3582 131.288 50.3582C129.951 50.3582 128.954 49.9955 128.368 49.27Z"
        fill="white" />
    <path
        d="M136.346 37.0613H138.011L141.198 44.5544V37.0613H143.183V50.1923H141.589L138.381 42.3469V50.1923H136.346V37.0613Z"
        fill="white" />
    <path
        d="M61.4292 67.0751L60.5347 61.5615L59.6403 67.0751H61.4189H61.4292ZM59.2394 58.5042H61.7993L64.421 71.6248H62.2003L61.676 68.5986H59.3936L58.859 71.6248H56.6074L59.2291 58.5042H59.2394Z"
        fill="white" />
    <path
        d="M65.2539 58.5042H66.9194L70.1168 65.9869V58.5042H72.0908V71.6248H70.5075L67.2998 63.7794V71.6248H65.2539V58.5042Z"
        fill="white" />
    <path
        d="M76.727 69.956C77.2513 69.956 77.642 69.8627 77.8785 69.6762C78.1149 69.4896 78.2691 69.2409 78.3308 68.9093C78.3925 68.5776 78.4234 68.0905 78.4234 67.4479V62.4215C78.4234 61.8411 78.3822 61.3954 78.3103 61.0949C78.2383 60.7943 78.0738 60.5663 77.8373 60.4212C77.5906 60.2761 77.2102 60.2036 76.6961 60.2036H75.9867V69.956H76.7373H76.727ZM73.6016 58.5039H76.6961C77.7551 58.5039 78.5879 58.649 79.1944 58.9288C79.801 59.219 80.2328 59.6543 80.4796 60.245C80.7366 60.8358 80.86 61.6131 80.86 62.5873V67.365C80.86 68.36 80.7366 69.158 80.4796 69.7798C80.2225 70.3913 79.801 70.8577 79.2047 71.1686C78.6084 71.4795 77.8065 71.635 76.7887 71.635H73.6016V58.5143V58.5039Z"
        fill="white" />
    <path
        d="M88.8906 64.1108C89.5383 64.1108 89.9804 63.976 90.2065 63.6962C90.4327 63.4164 90.5458 62.9293 90.5458 62.2142C90.5458 61.696 90.5047 61.3022 90.4327 61.0223C90.3608 60.7425 90.2065 60.5352 89.9701 60.4005C89.7336 60.2554 89.3738 60.1932 88.8906 60.1932H87.9653V64.1108H88.8906ZM85.5904 58.5039H89.4458C91.6767 58.5039 92.7973 59.7476 92.7973 62.2245C92.7973 64.7015 91.6253 65.7897 89.2813 65.7897H87.9653V71.6246H85.5801V58.5039H85.5904Z"
        fill="white" />
    <path
        d="M96.7749 64.1211C97.4534 64.1211 97.9367 63.9657 98.2245 63.6548C98.5124 63.3438 98.6563 62.8257 98.6563 62.1209C98.6563 61.4162 98.533 60.9291 98.2759 60.6181C98.0189 60.3072 97.5665 60.1518 96.9086 60.1518H96.0141V64.1419H96.7749V64.1211ZM93.6289 58.5039H96.7852C98.1628 58.5039 99.2012 58.763 99.8798 59.2916C100.558 59.8201 100.898 60.7114 100.898 61.9862C100.898 62.8153 100.774 63.4993 100.538 64.0175C100.291 64.5461 99.8798 64.9192 99.2835 65.1575L101.113 71.6246H98.718L97.145 65.6135H96.0141V71.6246H93.6289V58.5039Z"
        fill="white" />
    <path
        d="M106.892 69.5313C107.077 69.1996 107.17 68.7125 107.17 68.07V62.0278C107.17 61.3852 107.077 60.9085 106.902 60.5872C106.728 60.2659 106.368 60.1001 105.823 60.1001C105.278 60.1001 104.918 60.266 104.743 60.5976C104.558 60.9292 104.466 61.406 104.466 62.0278V68.07C104.466 68.7022 104.558 69.1893 104.743 69.5313C104.929 69.8629 105.288 70.0287 105.823 70.0287C106.358 70.0287 106.707 69.8629 106.892 69.5313ZM102.903 70.7024C102.317 69.9769 102.029 68.9094 102.029 67.4999V62.5771C102.029 61.1883 102.317 60.1312 102.903 59.4161C103.489 58.701 104.456 58.3486 105.823 58.3486C107.19 58.3486 108.136 58.701 108.722 59.4161C109.308 60.1312 109.596 61.178 109.596 62.5771V67.4999C109.596 68.8887 109.298 69.9562 108.712 70.692C108.126 71.4279 107.16 71.7906 105.823 71.7906C104.486 71.7906 103.489 71.4279 102.903 70.7024Z"
        fill="white" />
    <path
        d="M114.006 69.956C114.531 69.956 114.921 69.8627 115.158 69.6762C115.394 69.4896 115.548 69.2409 115.61 68.9093C115.672 68.5776 115.703 68.0905 115.703 67.4479V62.4215C115.703 61.8411 115.662 61.3954 115.59 61.0949C115.518 60.7943 115.353 60.5663 115.106 60.4212C114.86 60.2761 114.479 60.2036 113.965 60.2036H113.256V69.956H114.006ZM110.881 58.5039H113.975C115.034 58.5039 115.867 58.649 116.474 58.9288C117.08 59.219 117.512 59.6543 117.759 60.245C118.016 60.8358 118.139 61.6131 118.139 62.5873V67.365C118.139 68.36 118.016 69.158 117.759 69.7798C117.502 70.3913 117.08 70.8577 116.484 71.1686C115.888 71.4795 115.086 71.635 114.068 71.635H110.881V58.5143V58.5039Z"
        fill="white" />
    <path
        d="M120.772 71.2827C120.227 70.9407 119.857 70.4432 119.641 69.811C119.425 69.1788 119.322 68.3601 119.322 67.3755V58.4937H121.656V67.645C121.656 68.4015 121.749 68.9819 121.923 69.3965C122.098 69.811 122.468 70.0079 123.013 70.0079C123.558 70.0079 123.949 69.8007 124.124 69.3965C124.298 68.9819 124.391 68.4015 124.391 67.645V58.4937H126.704V67.3755C126.704 68.3497 126.591 69.1581 126.375 69.8006C126.159 70.4432 125.779 70.9407 125.244 71.2827C124.699 71.6247 123.959 71.8009 123.013 71.8009C122.067 71.8009 121.317 71.6247 120.782 71.2827"
        fill="white" />
    <path
        d="M128.74 70.6609C128.175 69.9044 127.887 68.8265 127.887 67.4274V62.7429C127.887 61.3023 128.164 60.2141 128.73 59.4679C129.295 58.7217 130.262 58.3486 131.629 58.3486C132.914 58.3486 133.829 58.6699 134.364 59.3228C134.898 59.9654 135.176 60.9085 135.176 62.1314V63.23H132.873V62.09C132.873 61.6236 132.852 61.2609 132.811 61.0018C132.77 60.7323 132.657 60.525 132.482 60.3592C132.308 60.1934 132.03 60.1105 131.65 60.1105C131.269 60.1105 130.971 60.2038 130.776 60.38C130.58 60.5561 130.457 60.7945 130.395 61.0951C130.334 61.3956 130.303 61.7791 130.303 62.2558V67.9456C130.303 68.6918 130.395 69.2307 130.591 69.552C130.786 69.8836 131.136 70.0495 131.639 70.0495C132.009 70.0495 132.277 69.9665 132.462 69.7904C132.637 69.6142 132.75 69.3862 132.801 69.1063C132.852 68.8265 132.873 68.4431 132.873 67.9663V66.7848H135.176V67.8419C135.176 69.1063 134.909 70.0909 134.384 70.7853C133.85 71.4797 132.935 71.832 131.629 71.832C130.323 71.832 129.306 71.4486 128.74 70.692"
        fill="white" />
    <path d="M137.643 60.266H135.453V58.5042H142.177V60.266H140.018V71.6248H137.643V60.266Z" fill="white" />
    <path d="M145.167 58.5042H142.803V71.6248H145.167V58.5042Z" fill="white" />
    <path
        d="M151.357 69.5313C151.542 69.1996 151.635 68.7125 151.635 68.07V62.0278C151.635 61.3852 151.542 60.9085 151.367 60.5872C151.193 60.2659 150.833 60.1001 150.288 60.1001C149.743 60.1001 149.383 60.266 149.208 60.5976C149.023 60.9292 148.931 61.406 148.931 62.0278V68.07C148.931 68.7022 149.023 69.1893 149.208 69.5313C149.393 69.8629 149.753 70.0287 150.288 70.0287C150.822 70.0287 151.172 69.8629 151.357 69.5313ZM147.368 70.7024C146.782 69.9769 146.494 68.9094 146.494 67.4999V62.5771C146.494 61.1883 146.782 60.1312 147.368 59.4161C147.954 58.701 148.92 58.3486 150.288 58.3486C151.655 58.3486 152.601 58.701 153.187 59.4161C153.773 60.1312 154.061 61.178 154.061 62.5771V67.4999C154.061 68.8887 153.763 69.9562 153.177 70.692C152.591 71.4279 151.624 71.7906 150.288 71.7906C148.951 71.7906 147.954 71.4279 147.368 70.7024Z"
        fill="white" />
    <path
        d="M155.346 58.5042H157.011L160.209 65.9869V58.5042H162.183V71.6248H160.599L157.392 63.7794V71.6248H155.346V58.5042Z"
        fill="white" />
    <path
        d="M135.896 93.4097C127.908 87.0981 117.329 86.9737 113.453 87.8961L113 87.9998C108.528 89.0569 101.414 90.8084 93.0963 101.131C93.0552 101.193 93.0037 101.245 92.9626 101.307L92.8598 101.431C92.7776 101.545 92.7159 101.68 92.7159 101.836C92.7159 101.96 92.7467 102.074 92.8084 102.178L93.0038 102.499C94.0524 104.25 95.3684 106.499 96.4787 108.562C96.489 108.582 96.4993 108.603 96.5096 108.624C96.633 108.852 96.8694 109.018 97.147 109.018C97.3423 109.018 97.5171 108.935 97.6405 108.821C97.6919 108.748 97.7433 108.676 97.7947 108.614C105.176 98.4051 110.985 96.9956 114.913 96.0629L115.386 95.9489C117.421 95.4618 125.173 95.4929 130.776 99.9079C135.146 103.359 137.356 108.842 137.356 116.21C137.356 128.574 131.342 133.414 126.294 135.29C118.48 138.213 110.975 134.306 110.924 134.275L110.584 134.109C106.287 132.243 99.8818 128.367 93.8365 116.231C81.6638 91.7826 71.4753 89.4818 64.7413 87.9479L64.3814 87.865C61.3177 87.1707 50.6562 86.6732 42.2875 93.3579C37.9078 96.8505 32.6953 103.639 32.6953 116.138C32.6953 123.755 34.258 128.792 38.2779 134.078C39.1621 135.28 48.1785 146.867 65.6049 143.529C68.391 142.991 72.1744 141.664 76.3279 138.544L80.1628 142.006C80.4095 142.234 80.8105 142.213 81.0469 141.965C81.16 141.851 81.2011 141.695 81.2011 141.55V141.498L83.9667 124.47V124.284C83.9667 124.118 83.8948 123.952 83.7611 123.828C83.648 123.714 83.5041 123.672 83.3499 123.672H83.2368L83.062 123.703L66.7563 128.263L66.4582 128.315C66.3451 128.336 66.232 128.398 66.1497 128.491C65.9133 128.751 65.9338 129.144 66.2011 129.372L66.3965 129.549L70.0462 132.844C67.6919 134.368 65.6254 135.073 64.0627 135.373C51.4479 137.778 45.2279 129.518 44.9914 129.196L44.8989 129.072C41.9688 125.227 40.9818 121.952 40.9818 116.117C40.9818 108.728 43.1614 103.235 47.4588 99.8042C52.9078 95.4514 60.4335 95.4307 62.5617 95.9074L62.9318 95.9903C68.4527 97.2444 76.0195 98.9544 86.4342 119.879C91.842 130.74 98.6275 137.85 107.161 141.602C108.25 142.161 113.432 144.607 120.146 144.607C122.952 144.607 126.037 144.182 129.193 143.001C134.138 141.156 145.643 134.855 145.643 116.158C145.643 103.66 140.348 96.8609 135.906 93.3579"
        fill="white" />
</svg>