<svg width="231" height="196" viewBox="0 0 231 196" fill="none" xmlns="http://www.w3.org/2000/svg">
    <path d="M0.331101 123.585L26.6889 98.3886L53.0466 123.585L53.0466 158.065L0.331123 158.065L0.331101 123.585Z"
        fill="#03222B" />
    <path d="M177.616 123.585L203.973 98.3886L230.331 123.585L230.331 158.065L177.616 158.065L177.616 123.585Z"
        fill="#03222B" />
    <path d="M0.331101 72.968L26.6889 98.1641L53.0466 72.968L53.0466 38.4878L0.331123 38.4878L0.331101 72.968Z"
        fill="#03222B" />
    <path d="M177.616 72.968L203.973 98.1641L230.331 72.968L230.331 38.4878L177.616 38.4878L177.616 72.968Z"
        fill="#03222B" />
    <path d="M53.0292 38.7622L115.314 98.2334L177.598 38.7622L177.598 0.782228L53.0292 0.782217L53.0292 38.7622Z"
        fill="#03222B" />
    <path d="M53.0292 157.67L115.314 98.1987L177.598 157.67L177.598 195.65L53.0292 195.65L53.0292 157.67Z"
        fill="#03222B" />
</svg>