<?xml version="1.0" standalone="no"?>
<!DOCTYPE svg PUBLIC "-//W3C//DTD SVG 1.1//EN" "http://www.w3.org/Graphics/SVG/1.1/DTD/svg11.dtd" >
<svg xmlns="http://www.w3.org/2000/svg" xmlns:xlink="http://www.w3.org/1999/xlink" version="1.1">
<metadata>
Created by FontForge 20170731 at Tue Feb  7 15:52:46 2023
 By Aleksey,,,
Copyright by Pangram Pangram Foundry. All rights reserved.
</metadata>
<defs>
<font id="PPNeueMontreal-BoldItalic" horiz-adv-x="0" >
  <font-face 
    font-family="PP Neue Montreal"
    font-weight="700"
    font-style="italic"
    font-stretch="normal"
    units-per-em="2048"
    panose-1="0 0 8 0 0 0 0 0 0 0"
    ascent="1638"
    descent="-410"
    x-height="1049"
    cap-height="1464"
    bbox="-469 -584 4674 1987"
    underline-thickness="245"
    underline-position="-306"
    slope="-11"
    unicode-range="U+000D-1F150"
  />
<missing-glyph horiz-adv-x="1335" 
 />
    <glyph glyph-name="f_f" unicode="ff" horiz-adv-x="1337" 
d="M406 0h-328l158 803h-144l49 246h142l14 73q37 192 125.5 276.5t255.5 84.5q85 0 194 -23l-47 -233q-34 10 -67 10q-69 0 -98.5 -37.5t-45.5 -128.5l-4 -22h297l15 73q37 192 125.5 276.5t255.5 84.5q85 0 194 -23l-47 -233q-34 10 -68 10q-69 0 -98 -37t-45 -129l-4 -22
h182l-49 -246h-182l-156 -803h-328l158 803h-299z" />
    <glyph glyph-name="f_f_i" unicode="ffi" horiz-adv-x="1847" 
d="M406 0h-328l158 803h-144l49 246h142l14 73q37 192 125.5 276.5t255.5 84.5q85 0 194 -23l-47 -233q-34 10 -67 10q-69 0 -98.5 -37.5t-45.5 -128.5l-4 -22h297l15 73q37 192 125.5 276.5t255.5 84.5q85 0 194 -23l-47 -233q-34 10 -68 10q-69 0 -98 -37t-45 -129l-4 -22
h182l-49 -246h-182l-156 -803h-328l158 803h-299zM1882 1174h-328l58 290h327zM1653 0h-328l205 1049h328z" />
    <glyph glyph-name="f_i" unicode="fi" horiz-adv-x="1218" 
d="M793 1049l-50 -246h-182l-155 -803h-328l158 803h-144l49 246h142l14 73q37 192 125.5 276.5t255.5 84.5q85 0 194 -23l-47 -233q-34 10 -67 10q-68 0 -96.5 -36.5t-47.5 -129.5l-4 -22h183zM926 1174l57 290h328l-58 -290h-327zM1024 0h-328l205 1049h328z" />
    <glyph glyph-name="f_l" unicode="fl" horiz-adv-x="1218" 
d="M793 1049l-50 -246h-182l-155 -803h-328l158 803h-144l49 246h142l14 73q37 192 125.5 276.5t255.5 84.5q85 0 194 -23l-47 -233q-34 10 -67 10q-68 0 -96.5 -36.5t-47.5 -129.5l-4 -22h183zM696 0l285 1464h328l-285 -1464h-328z" />
    <glyph glyph-name=".notdef" horiz-adv-x="1335" 
 />
    <glyph glyph-name=".null" 
 />
    <glyph glyph-name="nonmarkingreturn" horiz-adv-x="682" 
 />
    <glyph glyph-name="CR" unicode="&#xd;" horiz-adv-x="389" 
 />
    <glyph glyph-name="space" unicode=" " horiz-adv-x="389" 
 />
    <glyph glyph-name="exclam" unicode="!" horiz-adv-x="518" 
d="M332 479h-164l37 666l61 319h348l-61 -319zM313 0h-311l61 311h312z" />
    <glyph glyph-name="quotedbl" unicode="&#x22;" horiz-adv-x="819" 
d="M379 913h-205l66 551h286zM788 913h-204l65 551h287z" />
    <glyph glyph-name="numbersign" unicode="#" horiz-adv-x="1208" 
d="M1274 1049l-103 -246h-149l-102 -252h149l-98 -246h-152l-125 -305h-245l124 305h-184l-125 -305h-246l125 305h-153l98 246h156l102 252h-156l103 246h153l150 366h246l-150 -366h185l149 366h246l-150 -366h152zM489 551h185l102 252h-184z" />
    <glyph glyph-name="dollar" unicode="$" horiz-adv-x="1306" 
d="M848 1167l-64 -325q48 -18 74.5 -28.5t68 -28t65 -30t57 -31t52.5 -35.5t43 -39.5t36.5 -46t25 -51.5t17 -60.5t4.5 -69.5q-2 -200 -161 -327.5t-448 -127.5h-4l-32 -172h-138l35 182q-218 32 -336 162.5t-110 331.5h350q-20 -95 20 -152t127 -75l70 350l-20 6
q-78 27 -132.5 51t-109.5 58.5t-88 73.5t-53.5 93.5t-20.5 120.5q0 203 162.5 323t423.5 120h2l27 137h137l-29 -145q207 -30 313 -147.5t109 -303.5h-346q9 145 -127 186zM537 1030q0 -48 28 -78t92 -59l56 287q-82 -6 -129 -44.5t-47 -105.5zM727 545l-59 -309
q93 9 143.5 53.5t50.5 111.5q0 50 -33 83t-102 61z" />
    <glyph glyph-name="percent" unicode="%" horiz-adv-x="1845" 
d="M481 629q-165 0 -257.5 94t-92.5 262q0 91 31.5 174t88 147.5t144 103t191.5 38.5q162 0 256 -100.5t94 -255.5q0 -91 -31.5 -174t-88 -147.5t-144 -103t-191.5 -38.5zM530 0h-219l1059 1415h219zM504 838q75 0 114 83.5t39 190.5q0 67 -22 97t-68 30q-52 0 -89 -43.5
t-52.5 -103.5t-15.5 -127t23 -97t71 -30zM1331 -33q-165 0 -257.5 94.5t-92.5 262.5q0 91 31.5 174t88 147t144 102.5t191.5 38.5q162 0 256 -100.5t94 -255.5q0 -91 -31.5 -174t-88 -147.5t-144 -103t-191.5 -38.5zM1354 176q39 0 69.5 25t48 66t26.5 88t9 96q0 67 -22 97
t-68 30q-40 0 -71 -25t-49.5 -66t-27.5 -88t-9 -96q0 -67 23 -97t71 -30z" />
    <glyph glyph-name="ampersand" unicode="&#x26;" horiz-adv-x="1386" 
d="M1096 733h266q-79 -243 -244 -434l203 -299h-385l-57 90q-202 -123 -430 -123q-211 0 -322 100.5t-111 264.5q0 75 25 139t62.5 108.5t96 85.5t111 67t123.5 54q-60 95 -88.5 165t-28.5 147q0 169 133 284t343 115q186 0 293.5 -93t107.5 -245q0 -64 -21.5 -118.5
t-53.5 -93t-86.5 -77t-101.5 -63t-118 -57.5l162 -240q78 112 121 223zM780 1229q-71 0 -111 -34.5t-40 -98.5q0 -44 19.5 -88.5t60.5 -106.5q192 97 192 219q0 48 -29.5 78.5t-91.5 30.5zM559 248q96 0 186 49l-204 321q-88 -49 -124 -96t-36 -112q0 -74 43.5 -118
t134.5 -44z" />
    <glyph glyph-name="quotesingle" unicode="'" horiz-adv-x="409" 
d="M379 913h-205l66 551h286z" />
    <glyph glyph-name="parenleft" unicode="(" horiz-adv-x="634" 
d="M449 -281h-287q-49 123 -80 290t-31 341q0 314 126 640t345 587h287q-41 -63 -79.5 -128t-105.5 -204t-114.5 -276t-84 -325.5t-36.5 -369.5q0 -274 60 -555z" />
    <glyph glyph-name="parenright" unicode=")" horiz-adv-x="632" 
d="M158 -281h-287q41 63 79.5 128t105.5 204t114.5 276t84 325.5t36.5 369.5q0 274 -60 555h287q49 -123 80 -290t31 -341q0 -314 -126 -640t-345 -587z" />
    <glyph glyph-name="asterisk" unicode="*" horiz-adv-x="905" 
d="M530 940l-176 -207l-141 121l182 197l-215 59l101 195l202 -91l49 250h205l-49 -250l234 91l26 -195l-241 -59l108 -197l-190 -121z" />
    <glyph glyph-name="plus" unicode="+" horiz-adv-x="1183" 
d="M662 162h-283l72 370h-357l56 283h356l72 371h282l-72 -371h357l-55 -283h-357z" />
    <glyph glyph-name="comma" unicode="," horiz-adv-x="471" 
d="M-86 -342l29 143q156 24 192 199h-155l61 311h311l-61 -311q-29 -143 -122.5 -232t-254.5 -110z" />
    <glyph glyph-name="hyphen" unicode="-" horiz-adv-x="722" 
d="M610 377h-557l56 280h557z" />
    <glyph glyph-name="period" unicode="." horiz-adv-x="464" 
d="M287 0h-312l62 311h311z" />
    <glyph glyph-name="slash" unicode="/" horiz-adv-x="894" 
d="M193 0h-267l852 1464h266z" />
    <glyph glyph-name="zero" unicode="0" horiz-adv-x="1406" 
d="M637 -33q-253 0 -398 149.5t-145 426.5q0 136 33.5 268.5t99.5 247t155.5 202t210.5 137.5t257 50q252 0 392 -148.5t140 -425.5q0 -138 -32.5 -270.5t-96.5 -247.5t-152.5 -202t-208 -137t-255.5 -50zM659 254q85 0 156 58.5t115 152t68 204t24 220.5q0 134 -48 203
t-155 69q-84 0 -154.5 -58t-115.5 -150.5t-69.5 -203.5t-24.5 -221q0 -136 49 -205t155 -69z" />
    <glyph glyph-name="one" unicode="1" horiz-adv-x="804" 
d="M221 0l187 950q-86 -59 -312 -59l54 272q104 0 188 26t144 84t77 142h287l-277 -1415h-348z" />
    <glyph glyph-name="two" unicode="2" horiz-adv-x="1241" 
d="M1049 0h-1090q16 90 46.5 164t72 134.5t108 120.5t139.5 112t181 120q196 122 244 157q115 86 140 168q9 29 9 62q0 64 -37 96.5t-117 32.5q-208 0 -262 -260h-336q23 118 74.5 215t131 171t193.5 114.5t253 40.5q226 0 341 -98.5t115 -264.5q0 -62 -17.5 -121.5
t-41.5 -106t-70 -98.5t-80.5 -85t-97.5 -80t-96.5 -70t-101.5 -67q-28 -18 -41 -27q-17 -11 -55.5 -37t-53 -35.5t-38 -26t-36 -26.5t-22.5 -20v-4h600z" />
    <glyph glyph-name="three" unicode="3" horiz-adv-x="1273" 
d="M543 -33q-287 0 -419 141t-81 392h336q-52 -252 194 -252q122 0 190 56t68 151q0 83 -54 117t-171 34h-71l47 240h63q109 0 181.5 52t72.5 142q0 127 -164 127q-92 0 -151 -46.5t-76 -139.5h-336q16 96 67 180t130 148.5t191 101.5t243 37q205 0 334 -92t129 -252
q0 -119 -73.5 -211t-209.5 -150l-2 -4q203 -68 203 -272q0 -220 -174.5 -360t-466.5 -140z" />
    <glyph glyph-name="four" unicode="4" horiz-adv-x="1318" 
d="M950 0h-348l57 299h-641l66 342l793 774h348l-162 -835h209l-55 -281h-209zM803 1020l-455 -440h367z" />
    <glyph glyph-name="five" unicode="5" horiz-adv-x="1269" 
d="M543 -33q-139 0 -246 38.5t-167.5 103.5t-84.5 149.5t-8 179.5h336q-8 -78 41 -134t151 -56q126 0 202.5 82.5t76.5 204.5q0 90 -46 138t-136 48q-64 0 -125 -25.5t-105 -77.5h-336l316 797h895l-56 -280h-647l-106 -271v-4q149 101 313 101q182 0 284.5 -104t102.5 -294
q0 -120 -42.5 -227t-123 -189.5t-207 -131t-282.5 -48.5z" />
    <glyph glyph-name="six" unicode="6" horiz-adv-x="1333" 
d="M627 -33q-262 0 -399.5 147.5t-137.5 401.5q0 140 33.5 275.5t100.5 254t158.5 208.5t216 142t265.5 52q210 0 332.5 -108.5t122.5 -282.5h-352q0 21 -6.5 41t-22.5 41.5t-49.5 35t-81.5 13.5q-121 0 -201.5 -86.5t-107.5 -231.5l-4 -22l8 -6q144 123 336 123
q194 0 308 -110.5t114 -301.5q0 -93 -27 -179.5t-81 -160.5t-129 -129t-177 -86t-219 -31zM637 227q117 0 197.5 84.5t80.5 202.5q0 90 -51.5 140.5t-146.5 50.5q-124 0 -205.5 -80t-81.5 -193q0 -94 57.5 -149.5t149.5 -55.5z" />
    <glyph glyph-name="seven" unicode="7" horiz-adv-x="1105" 
d="M512 0h-369q67 335 254.5 651t411.5 479v5h-670l56 280h1038l-51 -260q-136 -94 -250 -227t-194.5 -286t-136.5 -312.5t-89 -329.5z" />
    <glyph glyph-name="eight" unicode="8" horiz-adv-x="1306" 
d="M563 -33q-153 0 -270 41t-186.5 127.5t-69.5 208.5q0 150 91.5 258t252.5 160v8q-152 92 -152 256q0 126 82.5 223.5t215 148t288.5 50.5q135 0 239.5 -38t167 -116t62.5 -186q0 -117 -75.5 -213.5t-192.5 -140.5v-9q47 -25 78.5 -47.5t62.5 -57t46.5 -82.5t15.5 -109
q0 -147 -90 -258t-237.5 -167.5t-328.5 -56.5zM727 858q114 0 179 63t65 140q0 67 -50 107t-139 40q-118 0 -180.5 -57.5t-62.5 -140.5q0 -69 49.5 -110.5t138.5 -41.5zM596 227q130 0 205.5 69t75.5 175q0 79 -53 126.5t-150 47.5q-118 0 -199.5 -70t-81.5 -169
q0 -83 54.5 -131t148.5 -48z" />
    <glyph glyph-name="nine" unicode="9" horiz-adv-x="1333" 
d="M539 -33q-210 0 -332.5 108.5t-122.5 282.5h352q0 -21 6.5 -41t22.5 -41.5t49.5 -35t81.5 -13.5q121 0 201.5 86.5t107.5 231.5l4 22l-8 6q-143 -122 -336 -122q-194 0 -308 110t-114 301q0 93 27 179.5t81 160.5t129 129t177 86t219 31q262 0 399.5 -147.5t137.5 -401.5
q0 -140 -33.5 -275.5t-100.5 -254t-158.5 -208.5t-216 -142t-265.5 -52zM686 711q124 0 205.5 80t81.5 192q0 94 -57.5 149.5t-149.5 55.5q-117 0 -198 -84.5t-81 -202.5q0 -90 52 -140t147 -50z" />
    <glyph glyph-name="colon" unicode=":" horiz-adv-x="493" 
d="M422 635h-311l61 311h311zM299 0h-311l61 311h311z" />
    <glyph glyph-name="semicolon" unicode=";" horiz-adv-x="493" 
d="M422 635h-311l61 311h311zM-78 -342l29 143q156 24 192 199h-155l61 311h311l-61 -311q-29 -143 -122.5 -232t-254.5 -110z" />
    <glyph glyph-name="less" unicode="&#x3c;" horiz-adv-x="1024" 
d="M903 391l-55 -264l-776 352l61 307l911 353l-55 -297l-610 -224v-4z" />
    <glyph glyph-name="equal" unicode="=" horiz-adv-x="1150" 
d="M1102 750h-967l55 282h965zM1016 315h-967l55 283h965z" />
    <glyph glyph-name="greater" unicode="&#x3e;" horiz-adv-x="1019" 
d="M930 479l-912 -352l56 297l610 223v4l-524 223l55 265l776 -353z" />
    <glyph glyph-name="question" unicode="?" horiz-adv-x="1116" 
d="M639 479h-272q15 121 50.5 202t86 129t135.5 97q120 69 159.5 107t39.5 90q0 53 -34 83t-104 30q-94 0 -153.5 -60t-77.5 -178h-348q25 235 186 376.5t426 141.5q218 0 338.5 -97t120.5 -267q0 -120 -70.5 -208t-226.5 -169q-138 -72 -185.5 -122.5t-70.5 -154.5zM573 0
h-311l62 311h311z" />
    <glyph glyph-name="at" unicode="@" horiz-adv-x="1828" 
d="M793 -221q-186 0 -329 49t-232.5 138.5t-135 211.5t-45.5 273q0 207 84 394t227.5 323t345 216t427.5 80q172 0 306 -46.5t218.5 -130.5t128 -196.5t43.5 -248.5q0 -182 -72.5 -336.5t-199 -245t-277.5 -90.5q-108 0 -170.5 48t-71.5 138h-4q-39 -82 -118 -134t-181 -52
q-115 0 -184.5 78t-69.5 231q0 147 65 281.5t175.5 216.5t234.5 82q156 0 197 -137h4l37 122h266l-164 -514q-56 -176 56 -176q73 0 136 68t98.5 176.5t35.5 226.5q0 220 -133 337.5t-381 117.5q-179 0 -335 -62t-266.5 -169t-173.5 -256.5t-63 -319.5q0 -242 136.5 -376
t414.5 -134q174 0 348 66l54 -164q-182 -86 -432 -86zM850 395q67 0 121 52t81 125.5t27 148.5q0 58 -22.5 85.5t-73.5 27.5q-64 0 -118.5 -49.5t-84.5 -123t-30 -149.5q0 -59 23.5 -88t76.5 -29z" />
    <glyph glyph-name="A" unicode="A" horiz-adv-x="1445" 
d="M279 0h-381l817 1464h375l262 -1464h-383l-35 305h-502zM842 1126l-271 -540h336l-61 540h-4z" />
    <glyph glyph-name="B" unicode="B" horiz-adv-x="1417" 
d="M772 0h-752l285 1464h690q204 0 311 -81.5t107 -231.5q0 -144 -88 -242t-219 -129v-4q242 -54 242 -293q0 -213 -158 -348t-418 -135zM559 872h246q102 0 164.5 45.5t62.5 131.5q0 64 -39.5 89t-124.5 25h-254zM449 301h256q136 0 208 51t72 154q0 82 -48 111.5
t-159 29.5h-264z" />
    <glyph glyph-name="C" unicode="C" horiz-adv-x="1474" 
d="M659 -33q-275 0 -422 158t-147 444q0 189 63.5 359t174.5 295.5t272.5 199.5t347.5 74q295 0 439.5 -157.5t117.5 -419.5h-377q13 276 -221 276q-87 0 -161.5 -34.5t-127.5 -94t-91 -138t-56 -166.5t-18 -179q0 -161 54.5 -238.5t186.5 -77.5q147 0 231.5 73t131.5 208
h377q-37 -128 -105.5 -233t-164.5 -183.5t-225.5 -122t-279.5 -43.5z" />
    <glyph glyph-name="D" unicode="D" horiz-adv-x="1499" 
d="M690 0h-670l285 1464h631q269 0 410 -144.5t141 -412.5q0 -188 -55 -353t-156 -288t-252.5 -194.5t-333.5 -71.5zM449 301h235q123 0 222.5 77t154.5 207.5t55 286.5q0 149 -61.5 220t-214.5 71h-226z" />
    <glyph glyph-name="E" unicode="E" horiz-adv-x="1314" 
d="M1143 0h-1123l285 1464h1110l-59 -301h-742l-49 -260h639l-59 -301h-639l-57 -301h753z" />
    <glyph glyph-name="F" unicode="F" horiz-adv-x="1257" 
d="M389 0h-369l285 1464h1090l-60 -301h-721l-61 -321h588l-60 -301h-587z" />
    <glyph glyph-name="G" unicode="G" horiz-adv-x="1542" 
d="M621 -33q-255 0 -395 159t-140 425q0 198 66.5 374t180.5 301t273 198t338 73q151 0 267 -41t185.5 -113t101.5 -164.5t24 -199.5h-377q-3 43 -13.5 77t-35 68t-75 53t-122.5 19q-129 0 -232.5 -82t-162 -227.5t-58.5 -327.5q0 -291 273 -291q130 0 229.5 69t124.5 175
h-278l51 266h659l-151 -778h-264v186h-5q-156 -219 -464 -219z" />
    <glyph glyph-name="H" unicode="H" horiz-adv-x="1484" 
d="M389 0h-369l285 1464h369l-111 -573h502l111 573h368l-284 -1464h-369l115 590h-502z" />
    <glyph glyph-name="I" unicode="I" horiz-adv-x="614" 
d="M389 0h-369l285 1464h369z" />
    <glyph glyph-name="J" unicode="J" horiz-adv-x="1146" 
d="M444 -33q-97 0 -173 18.5t-125.5 53t-82 80.5t-45 105.5t-11.5 124t16 138.5l24 123h328l-25 -123q-23 -110 1 -164.5t110 -54.5q85 0 130 54t66 165l191 977h369l-191 -977q-15 -75 -35 -137t-51.5 -123t-76 -106.5t-103 -81t-139 -54t-177.5 -18.5z" />
    <glyph glyph-name="K" unicode="K" horiz-adv-x="1423" 
d="M1188 1464h411l-675 -637l446 -827h-430l-287 571l-186 -176l-78 -395h-369l285 1464h369l-115 -594z" />
    <glyph glyph-name="L" unicode="L" horiz-adv-x="1171" 
d="M1040 0h-1020l285 1464h369l-225 -1163h651z" />
    <glyph glyph-name="M" unicode="M" horiz-adv-x="1753" 
d="M365 0h-345l285 1464h447l112 -970h4l480 970h464l-284 -1464h-344l176 911h-8l-453 -911h-250l-100 911h-8z" />
    <glyph glyph-name="N" unicode="N" horiz-adv-x="1499" 
d="M389 0h-369l285 1464h365l342 -870h8l170 870h369l-285 -1464h-365l-342 870h-8z" />
    <glyph glyph-name="O" unicode="O" horiz-adv-x="1581" 
d="M729 -33q-303 0 -470 165t-167 452q0 188 58 354t163.5 290t264.5 196.5t350 72.5q305 0 473 -164t168 -450q0 -186 -58 -351.5t-163.5 -291.5t-265.5 -199.5t-353 -73.5zM745 268q109 0 197.5 52.5t143.5 139.5t84.5 193t29.5 219q0 151 -72.5 237.5t-209.5 86.5
q-108 0 -197 -52.5t-144.5 -139t-85.5 -193.5t-30 -221q0 -150 72.5 -236t211.5 -86z" />
    <glyph glyph-name="P" unicode="P" horiz-adv-x="1363" 
d="M389 0h-369l285 1464h670q459 0 459 -377q0 -156 -75 -282.5t-213 -200.5t-312 -74h-342zM551 831h256q118 0 185 57t67 152q0 67 -42.5 95t-133.5 28h-269z" />
    <glyph glyph-name="Q" unicode="Q" horiz-adv-x="1581" 
d="M1569 883q0 -210 -73.5 -395t-209.5 -312l113 -133l-215 -184l-140 166q-147 -58 -315 -58q-303 0 -470 165t-167 452q0 188 58 354t163.5 290t264.5 196.5t350 72.5q305 0 473 -164t168 -450zM745 268q36 0 89 11l-148 174l213 184l170 -201q63 86 97 200.5t34 235.5
q0 151 -72.5 237.5t-209.5 86.5q-108 0 -197 -52.5t-144.5 -139t-85.5 -193.5t-30 -221q0 -150 72.5 -236t211.5 -86z" />
    <glyph glyph-name="R" unicode="R" horiz-adv-x="1404" 
d="M389 0h-369l285 1464h668q228 0 350.5 -90.5t122.5 -267.5q0 -157 -108 -277.5t-277 -152.5l-2 -4q72 -12 117 -53.5t61.5 -98t20.5 -122.5t-3 -130.5t-13 -118t-4 -89t19 -40.5l-4 -20h-383q-8 11 -9.5 39t6.5 66t13.5 83l11 90t-0.5 87t-21.5 74t-51.5 51.5t-91 19.5
h-240zM547 811h250q127 0 198.5 59.5t71.5 159.5q0 70 -49 101.5t-154 31.5h-250z" />
    <glyph glyph-name="S" unicode="S" horiz-adv-x="1343" 
d="M641 -33q-292 0 -454.5 141.5t-153.5 383.5h373q-24 -113 43 -170.5t198 -57.5q118 0 183 43t65 111q0 45 -35.5 79t-76.5 51.5t-141 52.5q-31 11 -48 17q-66 23 -115 44t-99 48.5t-84.5 58.5t-62.5 70.5t-41.5 88.5t-13.5 108q0 212 169.5 336.5t443.5 124.5
q279 0 422.5 -127t146.5 -350h-367q9 92 -49 139t-176 47q-98 0 -154.5 -35t-56.5 -100q0 -62 50.5 -95.5t191.5 -86.5q204 -76 280 -119q143 -82 182 -201q18 -54 17 -120q-1 -102 -42.5 -189.5t-119.5 -153t-200 -102.5t-275 -37z" />
    <glyph glyph-name="T" unicode="T" horiz-adv-x="1280" 
d="M723 0h-369l226 1163h-426l59 301h1219l-60 -301h-424z" />
    <glyph glyph-name="U" unicode="U" horiz-adv-x="1447" 
d="M637 -33q-125 0 -224 28t-162.5 78.5t-103 121t-46 154.5t9.5 179l182 936h369l-183 -936q-27 -139 21 -199.5t172 -60.5q126 0 197 60t98 200l182 936h369l-183 -936q-28 -141 -78 -242.5t-132 -174.5t-203 -108.5t-285 -35.5z" />
    <glyph glyph-name="V" unicode="V" horiz-adv-x="1370" 
d="M780 0h-389l-203 1464h400l78 -1026h4l477 1026h393z" />
    <glyph glyph-name="W" unicode="W" horiz-adv-x="1959" 
d="M653 0h-368l-88 1464h368l-4 -993h4l420 993h348l35 -993h4l381 993h369l-658 -1464h-368l-41 913h-4z" />
    <glyph glyph-name="X" unicode="X" horiz-adv-x="1361" 
d="M289 0h-410l631 748l-305 716h389l182 -446h4l357 446h389l-588 -719l344 -745h-410l-198 475h-4z" />
    <glyph glyph-name="Y" unicode="Y" horiz-adv-x="1370" 
d="M768 0h-369l105 541l-320 923h394l163 -622h4l408 622h393l-674 -923z" />
    <glyph glyph-name="Z" unicode="Z" horiz-adv-x="1255" 
d="M1092 0h-1141l59 301l836 858v4h-629l59 301h1080l-60 -301l-835 -858v-4h690z" />
    <glyph glyph-name="bracketleft" unicode="[" horiz-adv-x="778" 
d="M586 -281h-629l360 1858h629l-53 -281h-281l-252 -1296h281z" />
    <glyph glyph-name="backslash" unicode="\" horiz-adv-x="872" 
d="M752 0h-267l-282 1464h266z" />
    <glyph glyph-name="bracketright" unicode="]" horiz-adv-x="778" 
d="M508 -281h-629l53 281h281l252 1296h-281l56 281h628z" />
    <glyph glyph-name="asciicircum" unicode="^" horiz-adv-x="989" 
d="M414 901h-308l451 563h246l233 -563h-307l-104 277h-2z" />
    <glyph glyph-name="underscore" unicode="_" horiz-adv-x="1171" 
d="M948 -352h-1063l56 280h1063z" />
    <glyph glyph-name="grave" unicode="`" horiz-adv-x="620" 
d="M537 1174h-246l-232 311h369z" />
    <glyph glyph-name="a" unicode="a" horiz-adv-x="1169" 
d="M301 -33q-141 0 -219 69.5t-78 196.5q0 74 27.5 133.5t70.5 99.5t109 72.5t128.5 51.5t143.5 37q54 12 82 18.5t69 18t61.5 22t42.5 25t31 33t9 40.5q0 80 -125 80q-88 0 -139.5 -38t-75.5 -117h-309q38 168 177 271t384 103q113 0 193 -24t134.5 -78t66.5 -141t-11 -213
l-80 -385q-11 -46 -3 -63t46 -17q7 0 17 2l-33 -168q-111 -19 -170 -19q-188 0 -188 150h-5q-58 -73 -150 -116.5t-206 -43.5zM455 197q203 0 258 233l20 86q-40 -22 -73.5 -33.5t-129.5 -33.5q-100 -23 -146 -56t-46 -94q0 -51 31.5 -76.5t85.5 -25.5z" />
    <glyph glyph-name="b" unicode="b" horiz-adv-x="1232" 
d="M831 1081q172 0 269.5 -112.5t97.5 -311.5q0 -184 -77 -343t-210 -253t-288 -94q-108 0 -181 42.5t-102 94.5h-4l-21 -104h-327l284 1464h328l-100 -520h4q46 52 133 94.5t194 42.5zM573 213q64 0 119 35.5t90.5 94t55.5 131.5t20 149q0 213 -158 213q-85 0 -152.5 -61
t-101.5 -154.5t-34 -196.5q0 -106 42 -158.5t119 -52.5z" />
    <glyph glyph-name="c" unicode="c" horiz-adv-x="1122" 
d="M500 -35q-215 0 -339 117t-124 328q0 107 25.5 206t78 184t126.5 148t177.5 99t225.5 36q227 0 342.5 -120.5t101.5 -309.5h-319q7 81 -28 133t-122 52q-128 0 -207.5 -123.5t-79.5 -292.5q0 -103 42 -157t124 -54q51 0 89.5 14.5t63 42.5t39.5 56.5t29 70.5h320
q-49 -193 -198 -311.5t-367 -118.5z" />
    <glyph glyph-name="d" unicode="d" horiz-adv-x="1232" 
d="M895 944l100 520h328l-285 -1464h-327l20 104h-4q-46 -51 -133.5 -94t-194.5 -43q-172 0 -269 112.5t-97 311.5q0 184 77 343t210 253t288 94q108 0 181 -42.5t102 -94.5h4zM530 213q85 0 152.5 61t102 154.5t34.5 196.5q0 106 -42.5 158.5t-119.5 52.5q-85 0 -151.5 -61
t-99.5 -153.5t-33 -195.5q0 -213 157 -213z" />
    <glyph glyph-name="e" unicode="e" horiz-adv-x="1179" 
d="M1120 436h-766v-16q0 -114 51 -161.5t142 -47.5q86 0 140.5 35.5t64.5 83.5h333q-75 -175 -219 -270t-352 -95q-236 0 -354.5 120.5t-118.5 352.5q0 129 44.5 245t125 205.5t204 142t271.5 52.5q124 0 214 -32.5t141.5 -94.5t75.5 -141.5t24 -183.5q0 -79 -21 -195z
M662 848q-105 0 -175 -56t-102 -153h438q18 101 -25 155t-136 54z" />
    <glyph glyph-name="f" unicode="f" horiz-adv-x="712" 
d="M758 1237q-68 0 -96.5 -36.5t-47.5 -129.5l-4 -22h183l-50 -246h-182l-155 -803h-328l158 803h-144l49 246h142l14 73q37 192 125.5 276.5t255.5 84.5q85 0 194 -23l-47 -233q-34 10 -67 10z" />
    <glyph glyph-name="g" unicode="g" horiz-adv-x="1200" 
d="M866 944l21 105h327l-186 -953q-21 -105 -58.5 -185t-89 -134t-119.5 -88t-144.5 -49t-170.5 -15q-115 0 -208 31.5t-149.5 82.5t-88 109.5t-37.5 120.5h330q18 -108 166 -108q111 0 165 60.5t83 203.5l12 61h-4q-128 -137 -309 -137q-168 0 -263.5 106t-95.5 296
q0 122 40 236t109 201.5t170.5 140t217.5 52.5q75 0 135 -24t89.5 -52t49.5 -61h8zM532 295q81 0 143 53.5t92 133t30 169.5q0 185 -146 185q-84 0 -148 -53t-95 -133t-31 -171q0 -184 155 -184z" />
    <glyph glyph-name="h" unicode="h" horiz-adv-x="1189" 
d="M858 1083q172 0 243 -109.5t27 -338.5l-124 -635h-328l119 604q41 211 -125 211q-95 0 -157.5 -60t-78.5 -149l-119 -606h-327l286 1464h328l-108 -557h4q136 176 360 176z" />
    <glyph glyph-name="i" unicode="i" horiz-adv-x="509" 
d="M545 1174h-328l57 290h328zM315 0h-327l205 1049h327z" />
    <glyph glyph-name="j" unicode="j" horiz-adv-x="512" 
d="M545 1174h-328l57 290h328zM-84 -375q-84 0 -178 21l49 250q54 -7 74 -7q55 0 85 23.5t46 101.5l201 1035h327l-196 -1018q-38 -199 -136.5 -302.5t-271.5 -103.5z" />
    <glyph glyph-name="k" unicode="k" horiz-adv-x="1114" 
d="M842 1049h377l-449 -394l287 -655h-369l-172 432l-139 -123l-62 -309h-327l284 1464h328l-151 -780z" />
    <glyph glyph-name="l" unicode="l" horiz-adv-x="512" 
d="M317 0h-327l284 1464h328z" />
    <glyph glyph-name="m" unicode="m" horiz-adv-x="1800" 
d="M1489 1083q335 0 248 -450l-123 -633h-332l117 604q21 108 -2.5 159.5t-98.5 51.5q-83 0 -140.5 -57t-76.5 -152l-118 -606h-328l117 604q21 108 -1.5 159.5t-99.5 51.5q-83 0 -140.5 -56t-76.5 -153l-119 -606h-327l205 1049h327l-28 -144h2q52 74 151 126t207 52
q105 0 166.5 -52.5t77.5 -145.5h4q84 95 177 146.5t212 51.5z" />
    <glyph glyph-name="n" unicode="n" horiz-adv-x="1189" 
d="M858 1083q172 0 243 -109.5t27 -338.5l-124 -635h-328l119 604q41 211 -125 211q-95 0 -157.5 -60t-78.5 -149l-119 -606h-327l205 1049h327l-26 -142h4q136 176 360 176z" />
    <glyph glyph-name="o" unicode="o" horiz-adv-x="1216" 
d="M535 -35q-236 0 -366 120.5t-130 338.5q0 185 79.5 334.5t228 237t337.5 87.5q235 0 364.5 -120t129.5 -338q0 -185 -79.5 -335t-227.5 -237.5t-336 -87.5zM557 211q136 0 216.5 122t80.5 292q0 106 -51 159.5t-144 53.5q-91 0 -160 -59t-103 -152.5t-34 -202.5
q0 -106 51 -159.5t144 -53.5z" />
    <glyph glyph-name="p" unicode="p" horiz-adv-x="1232" 
d="M831 1081q172 0 269.5 -112.5t97.5 -311.5q0 -184 -77 -343t-210 -253t-288 -94q-108 0 -181 42.5t-102 94.5h-4l-90 -466h-328l275 1411h327l-20 -105h4q46 52 133 94.5t194 42.5zM573 213q64 0 119 35.5t90.5 94t55.5 131.5t20 149q0 213 -158 213q-85 0 -152.5 -61
t-101.5 -154.5t-34 -196.5q0 -106 42 -158.5t119 -52.5z" />
    <glyph glyph-name="q" unicode="q" horiz-adv-x="1230" 
d="M895 944l20 105h328l-274 -1411h-328l90 466h-4q-46 -51 -133.5 -94t-194.5 -43q-172 0 -269 112.5t-97 311.5q0 184 77 343t210 253t288 94q108 0 181 -42.5t102 -94.5h4zM530 213q85 0 152.5 61t102 154.5t34.5 196.5q0 106 -42.5 158.5t-119.5 52.5q-85 0 -151.5 -61
t-99.5 -153.5t-33 -195.5q0 -213 157 -213z" />
    <glyph glyph-name="r" unicode="r" horiz-adv-x="788" 
d="M797 1057q36 0 73 -8l-57 -287q-43 6 -76 6q-132 0 -213.5 -69.5t-115.5 -225.5l-93 -473h-327l205 1049h327l-33 -172h2q62 91 135.5 135.5t172.5 44.5z" />
    <glyph glyph-name="s" unicode="s" horiz-adv-x="1044" 
d="M465 -33q-105 0 -188.5 21.5t-136.5 57.5t-87 86t-46.5 103.5t-8.5 112.5h299q-4 -78 40.5 -116.5t137.5 -38.5q80 0 123 26.5t43 73.5q0 18 -5.5 32.5t-20 26t-27 20t-38.5 18t-41.5 14.5t-49 15t-49.5 15q-55 17 -93.5 32t-83.5 40.5t-72.5 54.5t-46 73t-18.5 97
q0 152 133 251t353 99q119 0 209 -31t140 -82.5t72 -112.5t15 -126h-301q5 67 -32 101t-122 34q-70 0 -108.5 -23.5t-38.5 -66.5q0 -16 5 -29.5t18 -24.5t24 -18.5t35.5 -16.5t39.5 -14t48.5 -15t50.5 -15q76 -23 128.5 -46.5t102.5 -59.5t75.5 -87.5t25.5 -117.5
q0 -70 -29.5 -133t-88 -115.5t-158.5 -83.5t-228 -31z" />
    <glyph glyph-name="t" unicode="t" horiz-adv-x="749" 
d="M739 803h-182l-88 -455q-16 -78 5.5 -100.5t76.5 -22.5q35 0 90 8l-45 -231q-102 -22 -199 -22q-172 0 -233.5 84.5t-24.5 275.5l90 463h-145l47 246h145l58 292h328l-58 -292h182z" />
    <glyph glyph-name="u" unicode="u" horiz-adv-x="1187" 
d="M752 432l118 617h328l-203 -1049h-327l28 152h-4q-57 -81 -148.5 -133t-203.5 -52q-177 0 -251.5 109.5t-29.5 337.5l125 635h328l-119 -605q-41 -211 125 -211q93 0 153 54t81 145z" />
    <glyph glyph-name="v" unicode="v" horiz-adv-x="1093" 
d="M623 0h-361l-158 1049h320l78 -701h4l344 701h344z" />
    <glyph glyph-name="w" unicode="w" horiz-adv-x="1622" 
d="M510 0h-317l-89 1049h324l33 -639h4l311 639h260l62 -639h6l282 639h332l-501 -1049h-318l-63 664h-5z" />
    <glyph glyph-name="x" unicode="x" horiz-adv-x="1062" 
d="M240 0h-369l471 541l-225 508h348l115 -297h4l221 297h348l-428 -519l264 -530h-368l-134 319h-4z" />
    <glyph glyph-name="y" unicode="y" horiz-adv-x="1124" 
d="M139 -362q-95 0 -192 20l49 250q50 -6 96 -6q26 0 42 1t44.5 6.5t48.5 16.5t41.5 33.5t36.5 54.5l-223 1035h330l114 -691h4l347 691h342l-623 -1121q-58 -104 -117 -165t-142 -93t-198 -32z" />
    <glyph glyph-name="z" unicode="z" horiz-adv-x="1024" 
d="M877 0h-940l45 236l620 563v4h-469l49 246h879l-47 -236l-619 -563l-2 -4h531z" />
    <glyph glyph-name="braceleft" unicode="{" horiz-adv-x="788" 
d="M582 -281h-56q-73 0 -128.5 4.5t-107.5 16t-87 31t-62.5 50.5t-39.5 73.5t-11.5 100t14.5 130.5l50 250q15 76 -8.5 103.5t-106.5 27.5l55 282q82 -1 115.5 27t48.5 107l51 258q20 102 56.5 173.5t83.5 115t117.5 68t144 32.5t178.5 8h55l-55 -281h-55q-152 0 -191 -190
l-47 -238q-17 -87 -60 -137.5t-124 -81.5l-2 -4q70 -31 93.5 -81.5t6.5 -139.5l-43 -225q-39 -199 115 -199h55z" />
    <glyph glyph-name="bar" unicode="|" horiz-adv-x="473" 
d="M193 -283h-226l355 1827h225z" />
    <glyph glyph-name="braceright" unicode="}" horiz-adv-x="788" 
d="M-53 -281h-56l56 281h55q152 0 191 190l47 238q17 87 60 137.5t124 81.5l2 4q-70 31 -93.5 81.5t-6.5 139.5l43 226q39 198 -115 198h-55l55 281h55q73 0 128.5 -4.5t107.5 -16t87 -31t62.5 -50.5t39.5 -73.5t11.5 -100t-14.5 -130.5l-49 -249q-15 -76 8.5 -103.5
t106.5 -27.5l-56 -283q-82 1 -115 -26.5t-48 -106.5l-52 -258q-20 -102 -56.5 -173.5t-83 -115t-117 -68t-144 -33t-178.5 -8.5z" />
    <glyph glyph-name="asciitilde" unicode="~" horiz-adv-x="1007" 
d="M291 489h-205q35 182 112 270.5t201 88.5q47 0 88 -14.5t65.5 -31.5t56.5 -31.5t63 -14.5q86 0 102 92h205q-35 -182 -112 -270.5t-201 -88.5q-47 0 -88 14.5t-65.5 32t-56.5 32t-63 14.5q-85 0 -102 -93z" />
    <glyph glyph-name="uni00A0" unicode="&#xa0;" horiz-adv-x="389" 
 />
    <glyph glyph-name="exclamdown" unicode="&#xa1;" horiz-adv-x="522" 
d="M489 887h-311l60 311h311zM281 -266h-349l64 319l221 666h164l-37 -666z" />
    <glyph glyph-name="cent" unicode="&#xa2;" horiz-adv-x="1198" 
d="M1194 874h-320q11 134 -77 173l-117 -605q58 18 89 61t56 113h320q-45 -182 -180.5 -298.5t-333.5 -129.5l-35 -178h-143l34 183q-174 24 -272 137.5t-98 300.5q0 129 38 245.5t109.5 209t184.5 151t253 66.5l29 143h143l-28 -148q121 -17 203 -77.5t117.5 -149
t27.5 -197.5zM438 643q0 -161 99 -199l116 603q-98 -33 -156.5 -147.5t-58.5 -256.5z" />
    <glyph glyph-name="sterling" unicode="&#xa3;" horiz-adv-x="1292" 
d="M1276 918h-348q48 237 -154 237q-103 0 -164 -59.5t-61 -159.5q0 -30 6 -57.5t21 -70t18 -52.5h295l-43 -217h-254q-48 -121 -193 -234v-4q105 41 189 41q62 0 137 -34t143 -34q111 0 215 76l86 -256q-93 -67 -170.5 -97t-177.5 -30q-76 0 -137.5 18.5t-95.5 41t-83 41
t-104 18.5q-113 0 -272 -86l-102 254q179 95 225 285h-154l43 217h113q-4 16 -19 64t-22.5 85.5t-7.5 79.5q0 89 39 169t112.5 143.5t189 101t257.5 37.5q284 0 401.5 -139t71.5 -379z" />
    <glyph glyph-name="currency" unicode="&#xa4;" horiz-adv-x="1124" 
d="M1026 811q0 -159 -92 -295l98 -123l-209 -174l-98 123q-98 -45 -205 -45q-110 0 -192 45l-148 -123l-139 174l147 125q-14 43 -14 105q0 154 92 290l-100 123l209 174l100 -123q100 46 207 46q114 0 190 -43l146 120l139 -174l-145 -121q14 -46 14 -104zM420 633
q0 -70 33 -111t102 -41q96 0 160.5 91t64.5 225q0 71 -32.5 111t-100.5 40q-97 0 -162 -90t-65 -225z" />
    <glyph glyph-name="yen" unicode="&#xa5;" horiz-adv-x="1386" 
d="M1118 1405h400l-584 -778h289l-27 -138h-338l-22 -118h338l-27 -138h-338l-45 -233h-348l45 233h-338l27 138h337l23 118h-338l27 138h290l-282 778h379l157 -555h5z" />
    <glyph glyph-name="brokenbar" unicode="&#xa6;" horiz-adv-x="473" 
d="M399 786h-225l148 758h225zM193 -283h-226l152 785h225z" />
    <glyph glyph-name="section" unicode="&#xa7;" horiz-adv-x="1353" 
d="M1276 545q0 -107 -73.5 -191t-203.5 -127q54 -69 54 -172q0 -82 -32 -156t-92.5 -133t-156.5 -93.5t-215 -34.5q-244 0 -360.5 115t-87.5 296h315q-11 -92 17 -139t118 -47q70 0 113 34.5t43 88.5q0 21 -5 39t-19 34.5t-24.5 28t-35.5 27t-37.5 22.5t-45 24t-44.5 23
l-121 66q-53 29 -79 44t-67 42t-61.5 48.5t-43 52.5t-31.5 67t-9 78q0 107 73.5 190.5t203.5 126.5q-54 69 -54 172q0 82 32 156.5t92.5 133t156.5 93.5t215 35q244 0 361 -115.5t88 -296.5h-316q11 93 -17 140t-118 47q-70 0 -113 -34.5t-43 -88.5q0 -21 5 -39t19.5 -35
t24.5 -28t36 -27t37 -22.5t45 -24.5t44 -23l121 -65q53 -29 79 -44t67 -42t61.5 -48.5t43 -52.5t31.5 -67t9 -78zM606 479l125 -65l74 -39q59 4 96 36.5t37 77.5q0 41 -39 74.5t-137 83.5l-125 66l-74 39q-59 -4 -96 -37t-37 -78q0 -41 39 -74.5t137 -83.5z" />
    <glyph glyph-name="dieresis" unicode="&#xa8;" horiz-adv-x="946" 
d="M547 1174h-328l66 290h327zM973 1174h-328l66 290h327z" />
    <glyph glyph-name="copyright" unicode="&#xa9;" horiz-adv-x="1681" 
d="M795 -33q-307 0 -491.5 182.5t-184.5 477.5q0 183 63.5 344t174.5 276.5t269.5 182.5t342.5 67q307 0 490 -182t183 -479q0 -245 -107 -443t-301 -312t-439 -114zM799 106q202 0 361 98.5t244 264.5t85 369q0 232 -143 376t-379 144q-153 0 -284 -57.5t-220 -156
t-139 -233t-50 -286.5q0 -231 144 -375t381 -144zM813 270q-177 0 -274 99.5t-97 277.5q0 147 62.5 270t183.5 198t277 75q187 0 278.5 -96.5t77.5 -253.5h-264q6 73 -23 110t-88 37q-99 0 -166 -97.5t-67 -238.5q0 -90 32.5 -134t100.5 -44q124 0 168 150h264
q-40 -157 -163 -255t-302 -98z" />
    <glyph glyph-name="ordfeminine" unicode="&#xaa;" horiz-adv-x="1005" 
d="M346 573q-120 0 -184 57.5t-64 164.5q0 62 23.5 111t59 81t93 57t110 39.5t124.5 28.5q65 13 100.5 21.5t72 22.5t52 31.5t15.5 41.5q0 61 -103 61q-73 0 -113.5 -30t-58.5 -89h-270q33 136 157 222t332 86q198 0 276.5 -92.5t37.5 -292.5l-62 -299q-9 -28 -3 -43t40 -15
q4 0 12 2l-28 -145q-94 -16 -146 -16q-85 0 -125.5 32t-40.5 86h-4q-48 -54 -127 -88.5t-176 -34.5zM494 770q83 0 137.5 48.5t68.5 129.5l11 60q-48 -20 -70.5 -26.5t-97.5 -23.5q-84 -19 -118 -43t-34 -65q0 -80 103 -80z" />
    <glyph glyph-name="guillemotleft" unicode="&#xab;" horiz-adv-x="987" 
d="M430 344l-59 -289l-324 316l64 321l446 318l-61 -334l-263 -162v-4zM860 344l-59 -289l-324 316l64 321l446 318l-61 -334l-262 -162v-4z" />
    <glyph glyph-name="logicalnot" unicode="&#xac;" horiz-adv-x="1046" 
d="M891 274h-328l64 326h-551l55 281h879z" />
    <glyph glyph-name="uni00AD" unicode="&#xad;" horiz-adv-x="722" 
d="M610 377h-557l56 280h557z" />
    <glyph glyph-name="registered" unicode="&#xae;" horiz-adv-x="1155" 
d="M592 506q-182 0 -303 116.5t-121 297.5q0 163 69 293.5t201.5 207t306.5 76.5q182 0 304 -116.5t122 -297.5q0 -163 -69.5 -293.5t-202.5 -207t-307 -76.5zM610 602q222 0 337.5 133t115.5 367q0 135 -93.5 217t-242.5 82q-222 0 -336.5 -132.5t-114.5 -367.5
q0 -135 92.5 -217t241.5 -82zM559 737h-156l105 543h235q83 0 129 -36.5t46 -104.5q0 -61 -40.5 -101t-107.5 -51v-2q43 -10 64.5 -38t22 -60t-1.5 -65t-5.5 -52.5t10.5 -24.5v-8h-155q-9 8 -5 28.5t5.5 48.5t1.5 53.5t-16.5 43t-49.5 17.5h-45zM618 1042h54q46 0 72 20.5
t26 55.5q0 51 -74 51h-53z" />
    <glyph glyph-name="macron" unicode="&#xaf;" horiz-adv-x="749" 
d="M795 1174h-586l39 204h586z" />
    <glyph glyph-name="degree" unicode="&#xb0;" horiz-adv-x="802" 
d="M475 868q-127 0 -200.5 78t-73.5 193q0 149 105.5 253.5t271.5 104.5q127 0 200.5 -77.5t73.5 -192.5q0 -149 -105.5 -254t-271.5 -105zM502 1032q67 0 115.5 56.5t48.5 134.5q0 110 -115 110q-67 0 -115.5 -56t-48.5 -134q0 -111 115 -111z" />
    <glyph glyph-name="plusminus" unicode="&#xb1;" horiz-adv-x="1183" 
d="M1157 872l-55 -282h-357l-59 -303h356l-55 -283h-995l55 283h356l60 303h-357l56 282h356l72 371h282l-71 -371h356z" />
    <glyph glyph-name="uni00B2" unicode="&#xb2;" horiz-adv-x="770" 
d="M756 745h-670q6 44 20.5 83t30.5 68.5t44 60t48 48.5t57 43.5t56 37t59 34.5q15 9 43.5 25t41 23.5t34.5 21t32 21.5t25.5 21t22 23.5t14.5 23.5t10.5 27.5t2.5 30.5q0 70 -74 70q-48 0 -79.5 -30.5t-47.5 -112.5h-231q30 161 128.5 248t264.5 87q133 0 207.5 -58
t74.5 -161q0 -41 -9 -78t-21 -64.5t-36.5 -56.5t-42.5 -47t-52.5 -42.5t-53.5 -36.5t-57 -35q-79 -49 -106 -74v-2h303z" />
    <glyph glyph-name="uni00B3" unicode="&#xb3;" horiz-adv-x="792" 
d="M455 737q-177 0 -261.5 84t-54.5 238h236q-25 -131 98 -131q52 0 81.5 26t29.5 72q0 43 -26 61.5t-85 18.5h-39l31 151h45q123 0 123 95q0 67 -80 67q-42 0 -69 -24.5t-35 -63.5h-236q22 128 122.5 204.5t262.5 76.5q130 0 210.5 -59t80.5 -162q0 -70 -48.5 -123
t-121.5 -74v-2q121 -41 121 -162q0 -132 -103 -212.5t-282 -80.5z" />
    <glyph glyph-name="acute" unicode="&#xb4;" horiz-adv-x="620" 
d="M514 1174h-246l170 311h369z" />
    <glyph glyph-name="uni00B5" unicode="&#xb5;" horiz-adv-x="1241" 
d="M782 432l119 617h328l-203 -1049h-328l29 152h-4q-44 -79 -111 -129t-151 -50q-91 0 -127 54l-74 -389h-319l274 1411h328l-119 -605q-21 -106 9.5 -158.5t117.5 -52.5q92 0 151 54t80 145z" />
    <glyph glyph-name="paragraph" unicode="&#xb6;" horiz-adv-x="1236" 
d="M649 0h-205l136 686h-86q-179 0 -272 74t-93 213q0 218 143 354.5t371 136.5h641l-285 -1464h-204l249 1280h-145z" />
    <glyph glyph-name="periodcentered" unicode="&#xb7;" horiz-adv-x="493" 
d="M369 356h-312l62 312h311z" />
    <glyph glyph-name="cedilla" unicode="&#xb8;" horiz-adv-x="661" 
d="M113 -406q-132 0 -217 68l75 72q60 -31 123 -31q49 0 78 20t29 54q0 41 -60 41q-33 0 -80 -15l-24 70l135 127h147l-92 -98l-2 -4q83 9 137 -21.5t54 -89.5q0 -83 -86 -138t-217 -55z" />
    <glyph glyph-name="uni00B9" unicode="&#xb9;" horiz-adv-x="544" 
d="M244 745l100 519q-46 -19 -180 -19l37 189q92 0 165 39t83 104h217l-160 -832h-262z" />
    <glyph glyph-name="ordmasculine" unicode="&#xba;" horiz-adv-x="1030" 
d="M526 571q-195 0 -299 100.5t-98 286.5q8 224 163.5 372.5t401.5 148.5q195 0 299.5 -99.5t98.5 -285.5q-8 -225 -164 -374t-402 -149zM559 786q77 0 133 49.5t80.5 116.5t26.5 140q6 172 -135 172q-58 0 -105 -27.5t-75.5 -72t-44 -95.5t-17.5 -104q-6 -179 137 -179z
" />
    <glyph glyph-name="guillemotright" unicode="&#xbb;" horiz-adv-x="987" 
d="M449 373l-447 -318l61 334l263 162v4l-197 166l59 289l324 -316zM879 373l-447 -318l62 334l262 162v4l-197 166l59 289l324 -316z" />
    <glyph glyph-name="onequarter" unicode="&#xbc;" horiz-adv-x="1820" 
d="M387 0h-287l1213 1464h286zM223 633l101 518q-43 -18 -181 -18l37 188q92 0 165 39t83 104h217l-160 -831h-262zM1567 0h-248l33 166h-367l45 231l451 434h248l-91 -469h123l-39 -196h-123zM1436 559l-213 -197h168z" />
    <glyph glyph-name="onehalf" unicode="&#xbd;" horiz-adv-x="1789" 
d="M387 0h-287l1213 1464h286zM223 633l101 518q-43 -18 -181 -18l37 188q92 0 165 39t83 104h217l-160 -831h-262zM1636 0h-669q6 44 20.5 83t30.5 68.5t44 60t48 48.5t57 43.5t56 37t59 34.5q14 8 43 25t41 24t34.5 21t32 21.5t25 20.5t22 23t14.5 24t10.5 28t2.5 30
q0 70 -73 70q-48 0 -79.5 -31t-47.5 -113h-232q30 162 128.5 249t264.5 87q133 0 208 -58t75 -161q0 -41 -9 -78t-21 -64.5t-36.5 -56.5t-43 -47.5t-52.5 -42.5t-53 -36.5t-57 -35.5q-85 -53 -107 -73v-2h303z" />
    <glyph glyph-name="threequarters" unicode="&#xbe;" horiz-adv-x="1916" 
d="M444 612q-177 0 -261 84t-54 238h236q-25 -131 98 -131q52 0 81 26t29 72q0 43 -25.5 61.5t-84.5 18.5h-39l31 152h45q123 0 123 94q0 67 -80 67q-42 0 -69.5 -24.5t-35.5 -63.5h-235q22 128 122.5 204.5t262.5 76.5q130 0 210.5 -59t80.5 -162q0 -70 -48.5 -123
t-121.5 -74v-2q120 -41 120 -162q0 -132 -103 -212.5t-282 -80.5zM578 0h-287l1212 1464h287zM1655 0h-248l33 166h-367l45 231l451 434h248l-91 -469h123l-39 -196h-122zM1524 559l-213 -197h168z" />
    <glyph glyph-name="questiondown" unicode="&#xbf;" horiz-adv-x="1120" 
d="M823 891h-311l61 311h312zM414 -295q-218 0 -338.5 97.5t-120.5 267.5q0 120 70.5 207.5t226.5 168.5q138 72 185.5 122.5t70.5 154.5h272q-15 -121 -50.5 -202t-86 -129t-135.5 -97q-120 -69 -159.5 -107t-39.5 -90q0 -112 137 -112q94 0 154 59.5t78 177.5h348
q-25 -235 -186 -376.5t-426 -141.5z" />
    <glyph glyph-name="Agrave" unicode="&#xc0;" horiz-adv-x="1445" 
d="M1038 1589h-245l-232 312h369zM279 0h-381l817 1464h375l262 -1464h-383l-35 305h-502zM842 1126l-271 -540h336l-61 540h-4z" />
    <glyph glyph-name="Aacute" unicode="&#xc1;" horiz-adv-x="1445" 
d="M1036 1589h-245l170 312h368zM279 0h-381l817 1464h375l262 -1464h-383l-35 305h-502zM842 1126l-271 -540h336l-61 540h-4z" />
    <glyph glyph-name="Acircumflex" unicode="&#xc2;" horiz-adv-x="1445" 
d="M838 1589h-293l293 312h305l170 -312h-283l-61 166h-4zM279 0h-381l817 1464h375l262 -1464h-383l-35 305h-502zM842 1126l-271 -540h336l-61 540h-4z" />
    <glyph glyph-name="Atilde" unicode="&#xc3;" horiz-adv-x="1445" 
d="M768 1559h-178q58 301 241 301q47 0 95.5 -20.5t91.5 -41t76 -20.5q72 0 88 82h176q-32 -156 -92 -228.5t-150 -72.5q-59 0 -142.5 39.5t-119.5 39.5q-71 0 -86 -79zM279 0h-381l817 1464h375l262 -1464h-383l-35 305h-502zM842 1126l-271 -540h336l-61 540h-4z" />
    <glyph glyph-name="Adieresis" unicode="&#xc4;" horiz-adv-x="1445" 
d="M885 1589h-328l66 291h327zM1311 1589h-328l66 291h327zM279 0h-381l817 1464h375l262 -1464h-383l-35 305h-502zM842 1126l-271 -540h336l-61 540h-4z" />
    <glyph glyph-name="Aring" unicode="&#xc5;" horiz-adv-x="1445" 
d="M940 1550q-98 0 -152.5 52t-54.5 145q0 106 72 173t176 67q98 0 152.5 -52t54.5 -145q0 -106 -72 -173t-176 -67zM944 1673q48 0 79.5 34.5t31.5 82.5q0 37 -21.5 55.5t-56.5 18.5q-48 0 -79.5 -34.5t-31.5 -82.5q0 -37 21.5 -55.5t56.5 -18.5zM279 0h-381l817 1464h375
l262 -1464h-383l-35 305h-502zM842 1126l-271 -540h336l-61 540h-4z" />
    <glyph glyph-name="AE" unicode="&#xc6;" horiz-adv-x="2074" 
d="M2175 1464l-59 -301h-742l-49 -260h639l-59 -301h-639l-58 -301h754l-59 -301h-1123l60 301h-424l-154 -305h-368l837 1468h1444zM1006 1163h-150l-301 -581h338z" />
    <glyph glyph-name="Ccedilla" unicode="&#xc7;" horiz-adv-x="1474" 
d="M1505 920h-377q13 276 -221 276q-87 0 -161.5 -34.5t-127.5 -94t-91 -138t-56 -166.5t-18 -179q0 -161 54.5 -238.5t186.5 -77.5q147 0 231.5 73t131.5 208h377q-48 -164 -143.5 -289.5t-244.5 -203.5t-333 -87l-64 -67l-2 -4q83 9 137 -21.5t54 -89.5q0 -83 -86 -138
t-217 -55q-133 0 -218 68l76 72q60 -31 123 -31q49 0 78 20t29 54q0 41 -60 41q-33 0 -80 -15l-24 70l106 100q-230 26 -352.5 181t-122.5 415q0 189 63.5 359t174.5 295.5t272.5 199.5t347.5 74q295 0 439.5 -157.5t117.5 -419.5z" />
    <glyph glyph-name="Egrave" unicode="&#xc8;" horiz-adv-x="1314" 
d="M991 1589h-246l-231 312h369zM1143 0h-1123l285 1464h1110l-59 -301h-742l-49 -260h639l-59 -301h-639l-57 -301h753z" />
    <glyph glyph-name="Eacute" unicode="&#xc9;" horiz-adv-x="1314" 
d="M989 1589h-246l170 312h369zM1143 0h-1123l285 1464h1110l-59 -301h-742l-49 -260h639l-59 -301h-639l-57 -301h753z" />
    <glyph glyph-name="Ecircumflex" unicode="&#xca;" horiz-adv-x="1314" 
d="M791 1589h-293l293 312h305l170 -312h-283l-61 166h-4zM1143 0h-1123l285 1464h1110l-59 -301h-742l-49 -260h639l-59 -301h-639l-57 -301h753z" />
    <glyph glyph-name="Edieresis" unicode="&#xcb;" horiz-adv-x="1314" 
d="M838 1589h-328l65 291h328zM1264 1589h-328l65 291h328zM1143 0h-1123l285 1464h1110l-59 -301h-742l-49 -260h639l-59 -301h-639l-57 -301h753z" />
    <glyph glyph-name="Igrave" unicode="&#xcc;" horiz-adv-x="614" 
d="M614 1589h-245l-232 312h369zM389 0h-369l285 1464h369z" />
    <glyph glyph-name="Iacute" unicode="&#xcd;" horiz-adv-x="614" 
d="M612 1589h-245l170 312h368zM389 0h-369l285 1464h369z" />
    <glyph glyph-name="Icircumflex" unicode="&#xce;" horiz-adv-x="614" 
d="M414 1589h-293l293 312h305l170 -312h-283l-61 166h-4zM389 0h-369l285 1464h369z" />
    <glyph glyph-name="Idieresis" unicode="&#xcf;" horiz-adv-x="614" 
d="M461 1589h-328l66 291h327zM887 1589h-328l66 291h327zM389 0h-369l285 1464h369z" />
    <glyph glyph-name="Eth" unicode="&#xd0;" horiz-adv-x="1521" 
d="M328 1464h630q269 0 410 -144.5t141 -412.5q0 -188 -55 -353t-155.5 -288t-252 -194.5t-333.5 -71.5h-670l129 666h-117l35 184h119zM471 301h236q123 0 222.5 77t154.5 207.5t55 286.5q0 149 -62 220t-215 71h-225l-59 -313h286l-35 -184h-288z" />
    <glyph glyph-name="Ntilde" unicode="&#xd1;" horiz-adv-x="1499" 
d="M786 1559h-178q58 301 242 301q47 0 95 -20.5t91 -41t76 -20.5q72 0 88 82h176q-32 -156 -91.5 -228.5t-149.5 -72.5q-59 0 -143 39.5t-120 39.5q-71 0 -86 -79zM389 0h-369l285 1464h365l342 -870h8l170 870h369l-285 -1464h-365l-342 870h-8z" />
    <glyph glyph-name="Ograve" unicode="&#xd2;" horiz-adv-x="1581" 
d="M1104 1589h-246l-231 312h368zM729 -33q-303 0 -470 165t-167 452q0 188 58 354t163.5 290t264.5 196.5t350 72.5q305 0 473 -164t168 -450q0 -186 -58 -351.5t-163.5 -291.5t-265.5 -199.5t-353 -73.5zM745 268q109 0 197.5 52.5t143.5 139.5t84.5 193t29.5 219
q0 151 -72.5 237.5t-209.5 86.5q-108 0 -197 -52.5t-144.5 -139t-85.5 -193.5t-30 -221q0 -150 72.5 -236t211.5 -86z" />
    <glyph glyph-name="Oacute" unicode="&#xd3;" horiz-adv-x="1581" 
d="M1102 1589h-246l170 312h369zM729 -33q-303 0 -470 165t-167 452q0 188 58 354t163.5 290t264.5 196.5t350 72.5q305 0 473 -164t168 -450q0 -186 -58 -351.5t-163.5 -291.5t-265.5 -199.5t-353 -73.5zM745 268q109 0 197.5 52.5t143.5 139.5t84.5 193t29.5 219
q0 151 -72.5 237.5t-209.5 86.5q-108 0 -197 -52.5t-144.5 -139t-85.5 -193.5t-30 -221q0 -150 72.5 -236t211.5 -86z" />
    <glyph glyph-name="Ocircumflex" unicode="&#xd4;" horiz-adv-x="1581" 
d="M903 1589h-293l293 312h305l170 -312h-282l-62 166h-4zM729 -33q-303 0 -470 165t-167 452q0 188 58 354t163.5 290t264.5 196.5t350 72.5q305 0 473 -164t168 -450q0 -186 -58 -351.5t-163.5 -291.5t-265.5 -199.5t-353 -73.5zM745 268q109 0 197.5 52.5t143.5 139.5
t84.5 193t29.5 219q0 151 -72.5 237.5t-209.5 86.5q-108 0 -197 -52.5t-144.5 -139t-85.5 -193.5t-30 -221q0 -150 72.5 -236t211.5 -86z" />
    <glyph glyph-name="Otilde" unicode="&#xd5;" horiz-adv-x="1581" 
d="M834 1559h-179q58 301 242 301q47 0 95 -20.5t91 -41t76 -20.5q72 0 88 82h176q-32 -156 -91.5 -228.5t-149.5 -72.5q-59 0 -142.5 39.5t-119.5 39.5q-71 0 -86 -79zM729 -33q-303 0 -470 165t-167 452q0 188 58 354t163.5 290t264.5 196.5t350 72.5q305 0 473 -164
t168 -450q0 -186 -58 -351.5t-163.5 -291.5t-265.5 -199.5t-353 -73.5zM745 268q109 0 197.5 52.5t143.5 139.5t84.5 193t29.5 219q0 151 -72.5 237.5t-209.5 86.5q-108 0 -197 -52.5t-144.5 -139t-85.5 -193.5t-30 -221q0 -150 72.5 -236t211.5 -86z" />
    <glyph glyph-name="Odieresis" unicode="&#xd6;" horiz-adv-x="1581" 
d="M950 1589h-327l65 291h328zM1376 1589h-327l65 291h328zM729 -33q-303 0 -470 165t-167 452q0 188 58 354t163.5 290t264.5 196.5t350 72.5q305 0 473 -164t168 -450q0 -186 -58 -351.5t-163.5 -291.5t-265.5 -199.5t-353 -73.5zM745 268q109 0 197.5 52.5t143.5 139.5
t84.5 193t29.5 219q0 151 -72.5 237.5t-209.5 86.5q-108 0 -197 -52.5t-144.5 -139t-85.5 -193.5t-30 -221q0 -150 72.5 -236t211.5 -86z" />
    <glyph glyph-name="multiply" unicode="&#xd7;" horiz-adv-x="1183" 
d="M582 475l-353 -295l-159 199l352 295l-238 293l238 198l237 -295l353 295l159 -198l-352 -293l238 -295l-238 -199z" />
    <glyph glyph-name="Oslash" unicode="&#xd8;" horiz-adv-x="1585" 
d="M1614 1464l72 -86l-193 -161q78 -141 78 -334q0 -186 -58 -351.5t-163.5 -291.5t-265.5 -199.5t-353 -73.5q-163 0 -289 50t-206 143l-189 -158l-70 88l193 162q-76 143 -76 332q0 188 58 354t163.5 290t264.5 196.5t350 72.5q326 0 497 -190zM463 590q0 -46 6 -86
l684 573q-74 119 -233 119q-108 0 -197 -52.5t-144.5 -139t-85.5 -193.5t-30 -221zM1202 872q0 54 -8 93l-684 -574q71 -123 238 -123q87 0 162 34.5t128 93t90.5 136.5t55.5 164t18 176z" />
    <glyph glyph-name="Ugrave" unicode="&#xd9;" horiz-adv-x="1447" 
d="M1030 1589h-246l-231 312h369zM637 -33q-125 0 -224 28t-162.5 78.5t-103 121t-46 154.5t9.5 179l182 936h369l-183 -936q-27 -139 21 -199.5t172 -60.5q126 0 197 60t98 200l182 936h369l-183 -936q-28 -141 -78 -242.5t-132 -174.5t-203 -108.5t-285 -35.5z" />
    <glyph glyph-name="Uacute" unicode="&#xda;" horiz-adv-x="1447" 
d="M1028 1589h-246l170 312h369zM637 -33q-125 0 -224 28t-162.5 78.5t-103 121t-46 154.5t9.5 179l182 936h369l-183 -936q-27 -139 21 -199.5t172 -60.5q126 0 197 60t98 200l182 936h369l-183 -936q-28 -141 -78 -242.5t-132 -174.5t-203 -108.5t-285 -35.5z" />
    <glyph glyph-name="Ucircumflex" unicode="&#xdb;" horiz-adv-x="1447" 
d="M829 1589h-292l292 312h306l170 -312h-283l-61 166h-5zM637 -33q-125 0 -224 28t-162.5 78.5t-103 121t-46 154.5t9.5 179l182 936h369l-183 -936q-27 -139 21 -199.5t172 -60.5q126 0 197 60t98 200l182 936h369l-183 -936q-28 -141 -78 -242.5t-132 -174.5t-203 -108.5
t-285 -35.5z" />
    <glyph glyph-name="Udieresis" unicode="&#xdc;" horiz-adv-x="1447" 
d="M877 1589h-328l65 291h328zM1303 1589h-328l65 291h328zM637 -33q-125 0 -224 28t-162.5 78.5t-103 121t-46 154.5t9.5 179l182 936h369l-183 -936q-27 -139 21 -199.5t172 -60.5q126 0 197 60t98 200l182 936h369l-183 -936q-28 -141 -78 -242.5t-132 -174.5
t-203 -108.5t-285 -35.5z" />
    <glyph glyph-name="Yacute" unicode="&#xdd;" horiz-adv-x="1370" 
d="M993 1589h-245l170 312h368zM768 0h-369l105 541l-320 923h394l163 -622h4l408 622h393l-674 -923z" />
    <glyph glyph-name="Thorn" unicode="&#xde;" horiz-adv-x="1363" 
d="M389 0h-369l285 1464h369l-39 -204h280q478 0 478 -388q0 -153 -75 -277.5t-212 -196.5t-311 -72h-342zM510 627h264q117 0 181.5 57t64.5 154q0 66 -43 93t-137 27h-265z" />
    <glyph glyph-name="germandbls" unicode="&#xdf;" horiz-adv-x="1200" 
d="M598 -33q-95 0 -180 33l47 246q62 -10 96 -10q115 0 184.5 78t69.5 200q0 92 -48 140t-161 48h-51l39 205h43q99 0 164 64t65 157q0 123 -135 123q-94 0 -146 -66.5t-83 -223.5l-187 -961h-327l186 961q103 536 574 536q211 0 327.5 -100.5t116.5 -247.5
q0 -115 -71.5 -209t-194.5 -135v-4q107 -33 161 -117t54 -201q0 -139 -71 -257.5t-196.5 -188.5t-275.5 -70z" />
    <glyph glyph-name="agrave" unicode="&#xe0;" horiz-adv-x="1169" 
d="M817 1174h-246l-231 311h369zM301 -33q-141 0 -219 69.5t-78 196.5q0 74 27.5 133.5t70.5 99.5t109 72.5t128.5 51.5t143.5 37q54 12 82 18.5t69 18t61.5 22t42.5 25t31 33t9 40.5q0 80 -125 80q-88 0 -139.5 -38t-75.5 -117h-309q38 168 177 271t384 103q113 0 193 -24
t134.5 -78t66.5 -141t-11 -213l-80 -385q-11 -46 -3 -63t46 -17q7 0 17 2l-33 -168q-111 -19 -170 -19q-188 0 -188 150h-5q-58 -73 -150 -116.5t-206 -43.5zM455 197q203 0 258 233l20 86q-40 -22 -73.5 -33.5t-129.5 -33.5q-100 -23 -146 -56t-46 -94q0 -51 31.5 -76.5
t85.5 -25.5z" />
    <glyph glyph-name="aacute" unicode="&#xe1;" horiz-adv-x="1169" 
d="M815 1174h-246l170 311h369zM301 -33q-141 0 -219 69.5t-78 196.5q0 74 27.5 133.5t70.5 99.5t109 72.5t128.5 51.5t143.5 37q54 12 82 18.5t69 18t61.5 22t42.5 25t31 33t9 40.5q0 80 -125 80q-88 0 -139.5 -38t-75.5 -117h-309q38 168 177 271t384 103q113 0 193 -24
t134.5 -78t66.5 -141t-11 -213l-80 -385q-11 -46 -3 -63t46 -17q7 0 17 2l-33 -168q-111 -19 -170 -19q-188 0 -188 150h-5q-58 -73 -150 -116.5t-206 -43.5zM455 197q203 0 258 233l20 86q-40 -22 -73.5 -33.5t-129.5 -33.5q-100 -23 -146 -56t-46 -94q0 -51 31.5 -76.5
t85.5 -25.5z" />
    <glyph glyph-name="acircumflex" unicode="&#xe2;" horiz-adv-x="1169" 
d="M616 1174h-292l292 311h306l170 -311h-283l-61 165h-5zM301 -33q-141 0 -219 69.5t-78 196.5q0 74 27.5 133.5t70.5 99.5t109 72.5t128.5 51.5t143.5 37q54 12 82 18.5t69 18t61.5 22t42.5 25t31 33t9 40.5q0 80 -125 80q-88 0 -139.5 -38t-75.5 -117h-309
q38 168 177 271t384 103q113 0 193 -24t134.5 -78t66.5 -141t-11 -213l-80 -385q-11 -46 -3 -63t46 -17q7 0 17 2l-33 -168q-111 -19 -170 -19q-188 0 -188 150h-5q-58 -73 -150 -116.5t-206 -43.5zM455 197q203 0 258 233l20 86q-40 -22 -73.5 -33.5t-129.5 -33.5
q-100 -23 -146 -56t-46 -94q0 -51 31.5 -76.5t85.5 -25.5z" />
    <glyph glyph-name="atilde" unicode="&#xe3;" horiz-adv-x="1169" 
d="M547 1143h-178q58 301 241 301q47 0 95 -20.5t91 -41t76 -20.5q73 0 89 82h176q-32 -156 -92 -228.5t-150 -72.5q-47 0 -95.5 20t-91.5 40t-75 20q-71 0 -86 -80zM301 -33q-141 0 -219 69.5t-78 196.5q0 74 27.5 133.5t70.5 99.5t109 72.5t128.5 51.5t143.5 37
q54 12 82 18.5t69 18t61.5 22t42.5 25t31 33t9 40.5q0 80 -125 80q-88 0 -139.5 -38t-75.5 -117h-309q38 168 177 271t384 103q113 0 193 -24t134.5 -78t66.5 -141t-11 -213l-80 -385q-11 -46 -3 -63t46 -17q7 0 17 2l-33 -168q-111 -19 -170 -19q-188 0 -188 150h-5
q-58 -73 -150 -116.5t-206 -43.5zM455 197q203 0 258 233l20 86q-40 -22 -73.5 -33.5t-129.5 -33.5q-100 -23 -146 -56t-46 -94q0 -51 31.5 -76.5t85.5 -25.5z" />
    <glyph glyph-name="adieresis" unicode="&#xe4;" horiz-adv-x="1169" 
d="M664 1174h-328l65 290h328zM1090 1174h-328l65 290h328zM301 -33q-141 0 -219 69.5t-78 196.5q0 74 27.5 133.5t70.5 99.5t109 72.5t128.5 51.5t143.5 37q54 12 82 18.5t69 18t61.5 22t42.5 25t31 33t9 40.5q0 80 -125 80q-88 0 -139.5 -38t-75.5 -117h-309
q38 168 177 271t384 103q113 0 193 -24t134.5 -78t66.5 -141t-11 -213l-80 -385q-11 -46 -3 -63t46 -17q7 0 17 2l-33 -168q-111 -19 -170 -19q-188 0 -188 150h-5q-58 -73 -150 -116.5t-206 -43.5zM455 197q203 0 258 233l20 86q-40 -22 -73.5 -33.5t-129.5 -33.5
q-100 -23 -146 -56t-46 -94q0 -51 31.5 -76.5t85.5 -25.5z" />
    <glyph glyph-name="aring" unicode="&#xe5;" horiz-adv-x="1169" 
d="M719 1135q-98 0 -152.5 52t-54.5 144q0 106 72 173t176 67q98 0 152.5 -52t54.5 -145q0 -106 -72 -172.5t-176 -66.5zM723 1257q48 0 79.5 34.5t31.5 82.5q0 37 -21.5 55.5t-56.5 18.5q-48 0 -79.5 -34.5t-31.5 -82.5q0 -37 21.5 -55.5t56.5 -18.5zM301 -33
q-141 0 -219 69.5t-78 196.5q0 74 27.5 133.5t70.5 99.5t109 72.5t128.5 51.5t143.5 37q54 12 82 18.5t69 18t61.5 22t42.5 25t31 33t9 40.5q0 80 -125 80q-88 0 -139.5 -38t-75.5 -117h-309q38 168 177 271t384 103q113 0 193 -24t134.5 -78t66.5 -141t-11 -213l-80 -385
q-11 -46 -3 -63t46 -17q7 0 17 2l-33 -168q-111 -19 -170 -19q-188 0 -188 150h-5q-58 -73 -150 -116.5t-206 -43.5zM455 197q203 0 258 233l20 86q-40 -22 -73.5 -33.5t-129.5 -33.5q-100 -23 -146 -56t-46 -94q0 -51 31.5 -76.5t85.5 -25.5z" />
    <glyph glyph-name="ae" unicode="&#xe6;" horiz-adv-x="1867" 
d="M1808 436h-766v-16q0 -114 51 -161.5t142 -47.5q86 0 140.5 35.5t64.5 83.5h334q-75 -174 -219.5 -269.5t-352.5 -95.5q-278 0 -393 168q-169 -166 -444 -166q-361 0 -361 269q0 73 27.5 132.5t70.5 99t109 71.5t128 51t144 37q54 12 82 18.5t69 18t61.5 22t42.5 25
t31 33t9 40.5q0 80 -125 80q-88 0 -139.5 -38t-75.5 -117h-309q17 77 58 142.5t106.5 117.5t162 82t214.5 30q226 0 321 -112q158 114 383 114q124 0 214 -32.5t141.5 -94.5t75.5 -141.5t24 -183.5q0 -79 -21 -195zM1350 848q-105 0 -175 -56t-102 -153h438q18 101 -25 155
t-136 54zM463 197q100 0 162.5 63.5t87.5 169.5l20 86q-40 -22 -73.5 -33.5t-129.5 -33.5q-100 -23 -146 -56t-46 -94q0 -102 125 -102z" />
    <glyph glyph-name="ccedilla" unicode="&#xe7;" horiz-adv-x="1122" 
d="M1114 653h-319q7 81 -28 133t-122 52q-128 0 -207.5 -123.5t-79.5 -292.5q0 -103 42 -157t124 -54q51 0 89.5 14.5t63 42.5t39.5 56.5t29 70.5h320q-45 -181 -179.5 -297t-332.5 -131l-61 -65l-3 -4q83 9 137 -21.5t54 -89.5q0 -83 -86 -138t-217 -55q-132 0 -217 68
l76 72q60 -31 122 -31q49 0 78 20t29 54q0 41 -59 41q-33 0 -80 -15l-25 70l105 98q-174 25 -271.5 139t-97.5 300q0 107 25.5 206t78 184t126.5 148t177.5 99t225.5 36q227 0 342.5 -120.5t101.5 -309.5z" />
    <glyph glyph-name="egrave" unicode="&#xe8;" horiz-adv-x="1179" 
d="M717 1485l108 -311h-245l-232 311h369zM1120 436h-766v-16q0 -114 51 -161.5t142 -47.5q86 0 140.5 35.5t64.5 83.5h333q-75 -175 -219 -270t-352 -95q-236 0 -354.5 120.5t-118.5 352.5q0 129 44.5 245t125 205.5t204 142t271.5 52.5q124 0 214 -32.5t141.5 -94.5
t75.5 -141.5t24 -183.5q0 -79 -21 -195zM662 848q-105 0 -175 -56t-102 -153h438q18 101 -25 155t-136 54z" />
    <glyph glyph-name="eacute" unicode="&#xe9;" horiz-adv-x="1179" 
d="M748 1485h368l-293 -311h-245zM1120 436h-766v-16q0 -114 51 -161.5t142 -47.5q86 0 140.5 35.5t64.5 83.5h333q-75 -175 -219 -270t-352 -95q-236 0 -354.5 120.5t-118.5 352.5q0 129 44.5 245t125 205.5t204 142t271.5 52.5q124 0 214 -32.5t141.5 -94.5t75.5 -141.5
t24 -183.5q0 -79 -21 -195zM662 848q-105 0 -175 -56t-102 -153h438q18 101 -25 155t-136 54z" />
    <glyph glyph-name="ecircumflex" unicode="&#xea;" horiz-adv-x="1179" 
d="M756 1339h-4l-127 -165h-293l293 311h305l170 -311h-283zM1120 436h-766v-16q0 -114 51 -161.5t142 -47.5q86 0 140.5 35.5t64.5 83.5h333q-75 -175 -219 -270t-352 -95q-236 0 -354.5 120.5t-118.5 352.5q0 129 44.5 245t125 205.5t204 142t271.5 52.5q124 0 214 -32.5
t141.5 -94.5t75.5 -141.5t24 -183.5q0 -79 -21 -195zM662 848q-105 0 -175 -56t-102 -153h438q18 101 -25 155t-136 54z" />
    <glyph glyph-name="edieresis" unicode="&#xeb;" horiz-adv-x="1179" 
d="M410 1464h327l-65 -290h-328zM836 1464h327l-65 -290h-328zM686 1083q124 0 214 -32.5t141.5 -94.5t75.5 -141.5t24 -183.5q0 -79 -21 -195h-766v-16q0 -114 51 -161.5t142 -47.5q86 0 140.5 35.5t64.5 83.5h333q-75 -175 -219 -270t-352 -95q-236 0 -354.5 120.5
t-118.5 352.5q0 129 44.5 245t125 205.5t204 142t271.5 52.5zM385 639h438q18 101 -25 155t-136 54q-105 0 -175 -56t-102 -153z" />
    <glyph glyph-name="igrave" unicode="&#xec;" horiz-adv-x="509" 
d="M481 1174h-245l-232 311h369zM315 0h-327l205 1049h327z" />
    <glyph glyph-name="iacute" unicode="&#xed;" horiz-adv-x="509" 
d="M479 1174h-246l170 311h369zM315 0h-327l205 1049h327z" />
    <glyph glyph-name="icircumflex" unicode="&#xee;" horiz-adv-x="509" 
d="M281 1174h-293l293 311h305l170 -311h-283l-61 165h-4zM315 0h-327l205 1049h327z" />
    <glyph glyph-name="idieresis" unicode="&#xef;" horiz-adv-x="509" 
d="M328 1174h-328l66 290h327zM754 1174h-328l66 290h327zM315 0h-327l205 1049h327z" />
    <glyph glyph-name="eth" unicode="&#xf0;" horiz-adv-x="1216" 
d="M1212 1448l11 -119l-160 -41q137 -191 137 -469q0 -169 -48.5 -322.5t-136.5 -271.5t-223.5 -188t-297.5 -70q-218 0 -337.5 119.5t-119.5 333.5q0 172 70.5 321t204 242.5t300.5 93.5q177 0 258 -104q-15 131 -98 241l-274 -69l-11 119l197 49q-79 73 -201 151h389
q58 -35 103 -75zM537 229q87 0 157 55t107 142t37 186q0 106 -46 157.5t-130 51.5q-89 0 -159.5 -55.5t-107.5 -142.5t-37 -185q0 -106 47 -157.5t132 -51.5z" />
    <glyph glyph-name="ntilde" unicode="&#xf1;" horiz-adv-x="1189" 
d="M680 1223q-71 0 -86 -80h-178q58 301 241 301q47 0 95.5 -20.5t91.5 -41t76 -20.5q72 0 88 82h176q-32 -156 -92 -228.5t-150 -72.5q-47 0 -95.5 20t-91.5 40t-75 20zM858 1083q172 0 243 -109.5t27 -338.5l-124 -635h-328l119 604q41 211 -125 211q-95 0 -157.5 -60
t-78.5 -149l-119 -606h-327l205 1049h327l-26 -142h4q136 176 360 176z" />
    <glyph glyph-name="ograve" unicode="&#xf2;" horiz-adv-x="1216" 
d="M850 1174h-246l-231 311h368zM535 -35q-236 0 -366 120.5t-130 338.5q0 185 79.5 334.5t228 237t337.5 87.5q235 0 364.5 -120t129.5 -338q0 -185 -79.5 -335t-227.5 -237.5t-336 -87.5zM557 211q136 0 216.5 122t80.5 292q0 106 -51 159.5t-144 53.5q-91 0 -160 -59
t-103 -152.5t-34 -202.5q0 -106 51 -159.5t144 -53.5z" />
    <glyph glyph-name="oacute" unicode="&#xf3;" horiz-adv-x="1216" 
d="M848 1174h-246l170 311h369zM535 -35q-236 0 -366 120.5t-130 338.5q0 185 79.5 334.5t228 237t337.5 87.5q235 0 364.5 -120t129.5 -338q0 -185 -79.5 -335t-227.5 -237.5t-336 -87.5zM557 211q136 0 216.5 122t80.5 292q0 106 -51 159.5t-144 53.5q-91 0 -160 -59
t-103 -152.5t-34 -202.5q0 -106 51 -159.5t144 -53.5z" />
    <glyph glyph-name="ocircumflex" unicode="&#xf4;" horiz-adv-x="1216" 
d="M649 1174h-293l293 311h305l170 -311h-282l-62 165h-4zM535 -35q-236 0 -366 120.5t-130 338.5q0 185 79.5 334.5t228 237t337.5 87.5q235 0 364.5 -120t129.5 -338q0 -185 -79.5 -335t-227.5 -237.5t-336 -87.5zM557 211q136 0 216.5 122t80.5 292q0 106 -51 159.5
t-144 53.5q-91 0 -160 -59t-103 -152.5t-34 -202.5q0 -106 51 -159.5t144 -53.5z" />
    <glyph glyph-name="otilde" unicode="&#xf5;" horiz-adv-x="1216" 
d="M580 1143h-179q58 301 242 301q47 0 95 -20.5t91 -41t76 -20.5q72 0 88 82h176q-32 -156 -91.5 -228.5t-149.5 -72.5q-47 0 -95.5 20t-91.5 40t-75 20q-71 0 -86 -80zM535 -35q-236 0 -366 120.5t-130 338.5q0 185 79.5 334.5t228 237t337.5 87.5q235 0 364.5 -120
t129.5 -338q0 -185 -79.5 -335t-227.5 -237.5t-336 -87.5zM557 211q136 0 216.5 122t80.5 292q0 106 -51 159.5t-144 53.5q-91 0 -160 -59t-103 -152.5t-34 -202.5q0 -106 51 -159.5t144 -53.5z" />
    <glyph glyph-name="odieresis" unicode="&#xf6;" horiz-adv-x="1216" 
d="M696 1174h-327l65 290h328zM1122 1174h-327l65 290h328zM535 -35q-236 0 -366 120.5t-130 338.5q0 185 79.5 334.5t228 237t337.5 87.5q235 0 364.5 -120t129.5 -338q0 -185 -79.5 -335t-227.5 -237.5t-336 -87.5zM557 211q136 0 216.5 122t80.5 292q0 106 -51 159.5
t-144 53.5q-91 0 -160 -59t-103 -152.5t-34 -202.5q0 -106 51 -159.5t144 -53.5z" />
    <glyph glyph-name="divide" unicode="&#xf7;" horiz-adv-x="1183" 
d="M823 926h-311l61 311h312zM1090 532h-996l56 283h995zM664 109h-312l62 311h311z" />
    <glyph glyph-name="oslash" unicode="&#xf8;" horiz-adv-x="1216" 
d="M1174 1073l71 -86l-129 -108q62 -106 62 -254q0 -185 -79.5 -335t-227.5 -237.5t-336 -87.5q-237 0 -365 119l-133 -111l-70 88l133 111q-61 104 -61 252q0 185 79.5 334.5t228 237t337.5 87.5q232 0 360 -116zM362 424q0 -16 3 -31l448 379q-48 66 -154 66
q-91 0 -160 -59t-103 -152.5t-34 -202.5zM854 625q0 22 -2 32l-451 -378q50 -68 156 -68q136 0 216.5 122t80.5 292z" />
    <glyph glyph-name="ugrave" unicode="&#xf9;" horiz-adv-x="1187" 
d="M700 1485l109 -311h-246l-231 311h368zM752 432l118 617h328l-203 -1049h-327l28 152h-4q-57 -81 -148.5 -133t-203.5 -52q-177 0 -251.5 109.5t-29.5 337.5l125 635h328l-119 -605q-41 -211 125 -211q93 0 153 54t81 145z" />
    <glyph glyph-name="uacute" unicode="&#xfa;" horiz-adv-x="1187" 
d="M731 1485h369l-293 -311h-246zM752 432l118 617h328l-203 -1049h-327l28 152h-4q-57 -81 -148.5 -133t-203.5 -52q-177 0 -251.5 109.5t-29.5 337.5l125 635h328l-119 -605q-41 -211 125 -211q93 0 153 54t81 145z" />
    <glyph glyph-name="ucircumflex" unicode="&#xfb;" horiz-adv-x="1187" 
d="M739 1339h-4l-127 -165h-293l293 311h305l170 -311h-282zM752 432l118 617h328l-203 -1049h-327l28 152h-4q-57 -81 -148.5 -133t-203.5 -52q-177 0 -251.5 109.5t-29.5 337.5l125 635h328l-119 -605q-41 -211 125 -211q93 0 153 54t81 145z" />
    <glyph glyph-name="udieresis" unicode="&#xfc;" horiz-adv-x="1187" 
d="M393 1464h328l-66 -290h-327zM819 1464h328l-66 -290h-327zM752 432l118 617h328l-203 -1049h-327l28 152h-4q-57 -81 -148.5 -133t-203.5 -52q-177 0 -251.5 109.5t-29.5 337.5l125 635h328l-119 -605q-41 -211 125 -211q93 0 153 54t81 145z" />
    <glyph glyph-name="yacute" unicode="&#xfd;" horiz-adv-x="1124" 
d="M774 1174h-246l170 311h369zM139 -362q-95 0 -192 20l49 250q50 -6 96 -6q26 0 42 1t44.5 6.5t48.5 16.5t41.5 33.5t36.5 54.5l-223 1035h330l114 -691h4l347 691h342l-623 -1121q-58 -104 -117 -165t-142 -93t-198 -32z" />
    <glyph glyph-name="thorn" unicode="&#xfe;" horiz-adv-x="1232" 
d="M831 1081q172 0 269.5 -112.5t97.5 -311.5q0 -184 -77 -343t-210 -253t-288 -94q-108 0 -181 42.5t-102 94.5h-4l-90 -466h-328l354 1826h328l-100 -520h4q46 52 133 94.5t194 42.5zM573 213q64 0 119 35.5t90.5 94t55.5 131.5t20 149q0 213 -158 213q-85 0 -152.5 -61
t-101.5 -154.5t-34 -196.5q0 -106 42 -158.5t119 -52.5z" />
    <glyph glyph-name="ydieresis" unicode="&#xff;" horiz-adv-x="1124" 
d="M623 1174h-328l65 290h328zM1049 1174h-328l65 290h328zM139 -362q-95 0 -192 20l49 250q50 -6 96 -6q26 0 42 1t44.5 6.5t48.5 16.5t41.5 33.5t36.5 54.5l-223 1035h330l114 -691h4l347 691h342l-623 -1121q-58 -104 -117 -165t-142 -93t-198 -32z" />
    <glyph glyph-name="Amacron" unicode="&#x100;" horiz-adv-x="1445" 
d="M1231 1589h-586l39 205h586zM279 0h-381l817 1464h375l262 -1464h-383l-35 305h-502zM842 1126l-271 -540h336l-61 540h-4z" />
    <glyph glyph-name="amacron" unicode="&#x101;" horiz-adv-x="1169" 
d="M1010 1174h-586l39 204h586zM301 -33q-141 0 -219 69.5t-78 196.5q0 74 27.5 133.5t70.5 99.5t109 72.5t128.5 51.5t143.5 37q54 12 82 18.5t69 18t61.5 22t42.5 25t31 33t9 40.5q0 80 -125 80q-88 0 -139.5 -38t-75.5 -117h-309q38 168 177 271t384 103q113 0 193 -24
t134.5 -78t66.5 -141t-11 -213l-80 -385q-11 -46 -3 -63t46 -17q7 0 17 2l-33 -168q-111 -19 -170 -19q-188 0 -188 150h-5q-58 -73 -150 -116.5t-206 -43.5zM455 197q203 0 258 233l20 86q-40 -22 -73.5 -33.5t-129.5 -33.5q-100 -23 -146 -56t-46 -94q0 -51 31.5 -76.5
t85.5 -25.5z" />
    <glyph glyph-name="Abreve" unicode="&#x102;" horiz-adv-x="1445" 
d="M942 1573q-146 0 -221.5 84.5t-52.5 226.5h180q-5 -53 24 -81.5t95 -28.5q63 0 104 29t55 81h197q-34 -142 -131.5 -226.5t-249.5 -84.5zM279 0h-381l817 1464h375l262 -1464h-383l-35 305h-502zM842 1126l-271 -540h336l-61 540h-4z" />
    <glyph glyph-name="abreve" unicode="&#x103;" horiz-adv-x="1169" 
d="M721 1157q-146 0 -222 85t-53 226h181q-5 -53 24 -81.5t94 -28.5q64 0 105 29t55 81h197q-34 -142 -131.5 -226.5t-249.5 -84.5zM301 -33q-141 0 -219 69.5t-78 196.5q0 74 27.5 133.5t70.5 99.5t109 72.5t128.5 51.5t143.5 37q54 12 82 18.5t69 18t61.5 22t42.5 25
t31 33t9 40.5q0 80 -125 80q-88 0 -139.5 -38t-75.5 -117h-309q38 168 177 271t384 103q113 0 193 -24t134.5 -78t66.5 -141t-11 -213l-80 -385q-11 -46 -3 -63t46 -17q7 0 17 2l-33 -168q-111 -19 -170 -19q-188 0 -188 150h-5q-58 -73 -150 -116.5t-206 -43.5zM455 197
q203 0 258 233l20 86q-40 -22 -73.5 -33.5t-129.5 -33.5q-100 -23 -146 -56t-46 -94q0 -51 31.5 -76.5t85.5 -25.5z" />
    <glyph glyph-name="Aogonek" unicode="&#x104;" horiz-adv-x="1445" 
d="M1165 -121q0 -47 58 -47q32 0 86 14l-35 -184q-90 -22 -170 -22q-205 0 -205 143q0 64 48 123t132 94h-110l-35 305h-502l-153 -305h-381l817 1464h375l262 -1464h-68q-47 -19 -83 -53t-36 -68zM842 1126l-271 -540h336l-61 540h-4z" />
    <glyph glyph-name="aogonek" unicode="&#x105;" horiz-adv-x="1169" 
d="M1073 627l-80 -385q-11 -46 -3 -63t46 -17q7 0 17 2l-33 -168q-4 0 -8 -2q-48 -19 -84.5 -52.5t-36.5 -68.5q0 -47 57 -47q32 0 86 14l-35 -184q-94 -23 -170 -23q-204 0 -204 144q0 60 42 115t115 92q-120 23 -120 143h-5q-58 -73 -150 -116.5t-206 -43.5
q-141 0 -219 69.5t-78 196.5q0 74 27.5 133.5t70.5 99.5t109 72.5t128.5 51.5t143.5 37q54 12 82 18.5t69 18t61.5 22t42.5 25t31 33t9 40.5q0 80 -125 80q-88 0 -139.5 -38t-75.5 -117h-309q38 168 177 271t384 103q113 0 193 -24t134.5 -78t66.5 -141t-11 -213zM713 430
l20 86q-40 -22 -73.5 -33.5t-129.5 -33.5q-100 -23 -146 -56t-46 -94q0 -51 31.5 -76.5t85.5 -25.5q203 0 258 233z" />
    <glyph glyph-name="Cacute" unicode="&#x106;" horiz-adv-x="1474" 
d="M1098 1589h-246l170 312h369zM659 -33q-275 0 -422 158t-147 444q0 189 63.5 359t174.5 295.5t272.5 199.5t347.5 74q295 0 439.5 -157.5t117.5 -419.5h-377q13 276 -221 276q-87 0 -161.5 -34.5t-127.5 -94t-91 -138t-56 -166.5t-18 -179q0 -161 54.5 -238.5
t186.5 -77.5q147 0 231.5 73t131.5 208h377q-37 -128 -105.5 -233t-164.5 -183.5t-225.5 -122t-279.5 -43.5z" />
    <glyph glyph-name="cacute" unicode="&#x107;" horiz-adv-x="1122" 
d="M807 1174h-246l170 311h369zM500 -35q-215 0 -339 117t-124 328q0 107 25.5 206t78 184t126.5 148t177.5 99t225.5 36q227 0 342.5 -120.5t101.5 -309.5h-319q7 81 -28 133t-122 52q-128 0 -207.5 -123.5t-79.5 -292.5q0 -103 42 -157t124 -54q51 0 89.5 14.5t63 42.5
t39.5 56.5t29 70.5h320q-49 -193 -198 -311.5t-367 -118.5z" />
    <glyph glyph-name="Ccircumflex" unicode="&#x108;" horiz-adv-x="1474" 
d="M899 1589h-293l293 312h305l170 -312h-282l-62 166h-4zM659 -33q-275 0 -422 158t-147 444q0 189 63.5 359t174.5 295.5t272.5 199.5t347.5 74q295 0 439.5 -157.5t117.5 -419.5h-377q13 276 -221 276q-87 0 -161.5 -34.5t-127.5 -94t-91 -138t-56 -166.5t-18 -179
q0 -161 54.5 -238.5t186.5 -77.5q147 0 231.5 73t131.5 208h377q-37 -128 -105.5 -233t-164.5 -183.5t-225.5 -122t-279.5 -43.5z" />
    <glyph glyph-name="ccircumflex" unicode="&#x109;" horiz-adv-x="1122" 
d="M608 1174h-293l293 311h305l170 -311h-282l-62 165h-4zM500 -35q-215 0 -339 117t-124 328q0 107 25.5 206t78 184t126.5 148t177.5 99t225.5 36q227 0 342.5 -120.5t101.5 -309.5h-319q7 81 -28 133t-122 52q-128 0 -207.5 -123.5t-79.5 -292.5q0 -103 42 -157t124 -54
q51 0 89.5 14.5t63 42.5t39.5 56.5t29 70.5h320q-49 -193 -198 -311.5t-367 -118.5z" />
    <glyph glyph-name="Cdotaccent" unicode="&#x10a;" horiz-adv-x="1474" 
d="M1163 1589h-327l57 291h328zM659 -33q-275 0 -422 158t-147 444q0 189 63.5 359t174.5 295.5t272.5 199.5t347.5 74q295 0 439.5 -157.5t117.5 -419.5h-377q13 276 -221 276q-87 0 -161.5 -34.5t-127.5 -94t-91 -138t-56 -166.5t-18 -179q0 -161 54.5 -238.5t186.5 -77.5
q147 0 231.5 73t131.5 208h377q-37 -128 -105.5 -233t-164.5 -183.5t-225.5 -122t-279.5 -43.5z" />
    <glyph glyph-name="cdotaccent" unicode="&#x10b;" horiz-adv-x="1122" 
d="M872 1174h-327l57 290h328zM500 -35q-215 0 -339 117t-124 328q0 107 25.5 206t78 184t126.5 148t177.5 99t225.5 36q227 0 342.5 -120.5t101.5 -309.5h-319q7 81 -28 133t-122 52q-128 0 -207.5 -123.5t-79.5 -292.5q0 -103 42 -157t124 -54q51 0 89.5 14.5t63 42.5
t39.5 56.5t29 70.5h320q-49 -193 -198 -311.5t-367 -118.5z" />
    <glyph glyph-name="Ccaron" unicode="&#x10c;" horiz-adv-x="1474" 
d="M1157 1589h-319l-158 312h276l60 -166h4l125 166h293zM659 -33q-275 0 -422 158t-147 444q0 189 63.5 359t174.5 295.5t272.5 199.5t347.5 74q295 0 439.5 -157.5t117.5 -419.5h-377q13 276 -221 276q-87 0 -161.5 -34.5t-127.5 -94t-91 -138t-56 -166.5t-18 -179
q0 -161 54.5 -238.5t186.5 -77.5q147 0 231.5 73t131.5 208h377q-37 -128 -105.5 -233t-164.5 -183.5t-225.5 -122t-279.5 -43.5z" />
    <glyph glyph-name="ccaron" unicode="&#x10d;" horiz-adv-x="1122" 
d="M866 1174h-319l-158 311h277l59 -166h4l125 166h293zM500 -35q-215 0 -339 117t-124 328q0 107 25.5 206t78 184t126.5 148t177.5 99t225.5 36q227 0 342.5 -120.5t101.5 -309.5h-319q7 81 -28 133t-122 52q-128 0 -207.5 -123.5t-79.5 -292.5q0 -103 42 -157t124 -54
q51 0 89.5 14.5t63 42.5t39.5 56.5t29 70.5h320q-49 -193 -198 -311.5t-367 -118.5z" />
    <glyph glyph-name="Dcaron" unicode="&#x10e;" horiz-adv-x="1499" 
d="M1036 1589h-319l-158 312h277l59 -166h4l125 166h293zM690 0h-670l285 1464h631q269 0 410 -144.5t141 -412.5q0 -188 -55 -353t-156 -288t-252.5 -194.5t-333.5 -71.5zM449 301h235q123 0 222.5 77t154.5 207.5t55 286.5q0 149 -61.5 220t-214.5 71h-226z" />
    <glyph glyph-name="dcaron" unicode="&#x10f;" horiz-adv-x="1406" 
d="M895 944l100 520h328l-285 -1464h-327l20 104h-4q-46 -51 -133.5 -94t-194.5 -43q-172 0 -269 112.5t-97 311.5q0 184 77 343t210 253t288 94q108 0 181 -42.5t102 -94.5h4zM1303 1042l133 422h348l-256 -422h-225zM530 213q85 0 152.5 61t102 154.5t34.5 196.5
q0 106 -42.5 158.5t-119.5 52.5q-85 0 -151.5 -61t-99.5 -153.5t-33 -195.5q0 -213 157 -213z" />
    <glyph glyph-name="Dcroat" unicode="&#x110;" horiz-adv-x="1521" 
d="M328 1464h630q269 0 410 -144.5t141 -412.5q0 -188 -55 -353t-155.5 -288t-252 -194.5t-333.5 -71.5h-670l129 666h-117l35 184h119zM471 301h236q123 0 222.5 77t154.5 207.5t55 286.5q0 149 -62 220t-215 71h-225l-59 -313h286l-35 -184h-288z" />
    <glyph glyph-name="dcroat" unicode="&#x111;" horiz-adv-x="1232" 
d="M1303 1362h106l-35 -184h-106l-230 -1178h-327l20 104h-4q-46 -51 -133.5 -94t-194.5 -43q-172 0 -269 112.5t-97 311.5q0 184 77 343t210 253t288 94q108 0 181 -42.5t102 -94.5h4l45 234h-278l34 184h279l20 102h328zM530 213q85 0 152.5 61t102 154.5t34.5 196.5
q0 106 -42.5 158.5t-119.5 52.5q-85 0 -151.5 -61t-99.5 -153.5t-33 -195.5q0 -213 157 -213z" />
    <glyph glyph-name="Emacron" unicode="&#x112;" horiz-adv-x="1314" 
d="M1184 1589h-586l39 205h586zM1143 0h-1123l285 1464h1110l-59 -301h-742l-49 -260h639l-59 -301h-639l-57 -301h753z" />
    <glyph glyph-name="emacron" unicode="&#x113;" horiz-adv-x="1179" 
d="M471 1378h586l-39 -204h-586zM1120 436h-766v-16q0 -114 51 -161.5t142 -47.5q86 0 140.5 35.5t64.5 83.5h333q-75 -175 -219 -270t-352 -95q-236 0 -354.5 120.5t-118.5 352.5q0 129 44.5 245t125 205.5t204 142t271.5 52.5q124 0 214 -32.5t141.5 -94.5t75.5 -141.5
t24 -183.5q0 -79 -21 -195zM662 848q-105 0 -175 -56t-102 -153h438q18 101 -25 155t-136 54z" />
    <glyph glyph-name="Edotaccent" unicode="&#x116;" horiz-adv-x="1314" 
d="M1055 1589h-328l57 291h328zM1143 0h-1123l285 1464h1110l-59 -301h-742l-49 -260h639l-59 -301h-639l-57 -301h753z" />
    <glyph glyph-name="edotaccent" unicode="&#x117;" horiz-adv-x="1179" 
d="M618 1464h328l-57 -290h-328zM1120 436h-766v-16q0 -114 51 -161.5t142 -47.5q86 0 140.5 35.5t64.5 83.5h333q-75 -175 -219 -270t-352 -95q-236 0 -354.5 120.5t-118.5 352.5q0 129 44.5 245t125 205.5t204 142t271.5 52.5q124 0 214 -32.5t141.5 -94.5t75.5 -141.5
t24 -183.5q0 -79 -21 -195zM662 848q-105 0 -175 -56t-102 -153h438q18 101 -25 155t-136 54z" />
    <glyph glyph-name="Eogonek" unicode="&#x118;" horiz-adv-x="1314" 
d="M1415 1464l-59 -301h-742l-49 -260h639l-59 -301h-639l-57 -301h753l-59 -301h-13q-47 -19 -82.5 -52.5t-35.5 -68.5q0 -47 57 -47q32 0 86 14l-35 -184q-90 -22 -170 -22q-205 0 -205 143q0 64 48.5 123t132.5 94h-906l285 1464h1110z" />
    <glyph glyph-name="eogonek" unicode="&#x119;" horiz-adv-x="1179" 
d="M1120 436h-766v-16q0 -114 51 -161.5t142 -47.5q86 0 140.5 35.5t64.5 83.5h333q-124 -285 -409 -348q-86 -48 -86 -105q0 -47 57 -47q32 0 86 14l-35 -184q-90 -22 -170 -22q-204 0 -204 143q0 109 122 186q-203 17 -304 136.5t-101 334.5q0 129 44.5 245t125 205.5
t204 142t271.5 52.5q124 0 214 -32.5t141.5 -94.5t75.5 -141.5t24 -183.5q0 -79 -21 -195zM662 848q-105 0 -175 -56t-102 -153h438q18 101 -25 155t-136 54z" />
    <glyph glyph-name="Ecaron" unicode="&#x11a;" horiz-adv-x="1314" 
d="M1049 1589h-320l-158 312h277l59 -166h4l125 166h293zM1143 0h-1123l285 1464h1110l-59 -301h-742l-49 -260h639l-59 -301h-639l-57 -301h753z" />
    <glyph glyph-name="ecaron" unicode="&#x11b;" horiz-adv-x="1179" 
d="M1163 1485l-280 -311h-320l-157 311h276l59 -166h4l125 166h293zM686 1083q124 0 214 -32.5t141.5 -94.5t75.5 -141.5t24 -183.5q0 -79 -21 -195h-766v-16q0 -114 51 -161.5t142 -47.5q86 0 140.5 35.5t64.5 83.5h333q-75 -175 -219 -270t-352 -95q-236 0 -354.5 120.5
t-118.5 352.5q0 129 44.5 245t125 205.5t204 142t271.5 52.5zM385 639h438q18 101 -25 155t-136 54q-105 0 -175 -56t-102 -153z" />
    <glyph glyph-name="Gcircumflex" unicode="&#x11c;" horiz-adv-x="1542" 
d="M879 1589h-293l293 312h305l170 -312h-283l-61 166h-4zM621 -33q-255 0 -395 159t-140 425q0 198 66.5 374t180.5 301t273 198t338 73q151 0 267 -41t185.5 -113t101.5 -164.5t24 -199.5h-377q-3 43 -13.5 77t-35 68t-75 53t-122.5 19q-129 0 -232.5 -82t-162 -227.5
t-58.5 -327.5q0 -291 273 -291q130 0 229.5 69t124.5 175h-278l51 266h659l-151 -778h-264v186h-5q-156 -219 -464 -219z" />
    <glyph glyph-name="gcircumflex" unicode="&#x11d;" horiz-adv-x="1200" 
d="M721 1339h-4l-127 -165h-293l293 311h305l170 -311h-283zM866 944l21 105h327l-186 -953q-21 -105 -58.5 -185t-89 -134t-119.5 -88t-144.5 -49t-170.5 -15q-115 0 -208 31.5t-149.5 82.5t-88 109.5t-37.5 120.5h330q18 -108 166 -108q111 0 165 60.5t83 203.5l12 61h-4
q-128 -137 -309 -137q-168 0 -263.5 106t-95.5 296q0 122 40 236t109 201.5t170.5 140t217.5 52.5q75 0 135 -24t89.5 -52t49.5 -61h8zM532 295q81 0 143 53.5t92 133t30 169.5q0 185 -146 185q-84 0 -148 -53t-95 -133t-31 -171q0 -184 155 -184z" />
    <glyph glyph-name="Gbreve" unicode="&#x11e;" horiz-adv-x="1542" 
d="M983 1573q-146 0 -221.5 84.5t-52.5 226.5h180q-5 -53 24 -81.5t95 -28.5q63 0 104 29t55 81h197q-34 -142 -131.5 -226.5t-249.5 -84.5zM621 -33q-255 0 -395 159t-140 425q0 198 66.5 374t180.5 301t273 198t338 73q151 0 267 -41t185.5 -113t101.5 -164.5t24 -199.5
h-377q-3 43 -13.5 77t-35 68t-75 53t-122.5 19q-129 0 -232.5 -82t-162 -227.5t-58.5 -327.5q0 -291 273 -291q130 0 229.5 69t124.5 175h-278l51 266h659l-151 -778h-264v186h-5q-156 -219 -464 -219z" />
    <glyph glyph-name="gbreve" unicode="&#x11f;" horiz-adv-x="1200" 
d="M694 1157q-146 0 -221.5 84.5t-52.5 226.5h180q-5 -53 24 -81.5t95 -28.5q64 0 105 29t55 81h196q-34 -142 -131.5 -226.5t-249.5 -84.5zM866 944l21 105h327l-186 -953q-21 -105 -58.5 -185t-89 -134t-119.5 -88t-144.5 -49t-170.5 -15q-115 0 -208 31.5t-149.5 82.5
t-88 109.5t-37.5 120.5h330q18 -108 166 -108q111 0 165 60.5t83 203.5l12 61h-4q-128 -137 -309 -137q-168 0 -263.5 106t-95.5 296q0 122 40 236t109 201.5t170.5 140t217.5 52.5q75 0 135 -24t89.5 -52t49.5 -61h8zM532 295q81 0 143 53.5t92 133t30 169.5
q0 185 -146 185q-84 0 -148 -53t-95 -133t-31 -171q0 -184 155 -184z" />
    <glyph glyph-name="Gdotaccent" unicode="&#x120;" horiz-adv-x="1542" 
d="M1143 1589h-328l57 291h328zM621 -33q-255 0 -395 159t-140 425q0 198 66.5 374t180.5 301t273 198t338 73q151 0 267 -41t185.5 -113t101.5 -164.5t24 -199.5h-377q-3 43 -13.5 77t-35 68t-75 53t-122.5 19q-129 0 -232.5 -82t-162 -227.5t-58.5 -327.5q0 -291 273 -291
q130 0 229.5 69t124.5 175h-278l51 266h659l-151 -778h-264v186h-5q-156 -219 -464 -219z" />
    <glyph glyph-name="gdotaccent" unicode="&#x121;" horiz-adv-x="1200" 
d="M584 1464h327l-57 -290h-328zM866 944l21 105h327l-186 -953q-21 -105 -58.5 -185t-89 -134t-119.5 -88t-144.5 -49t-170.5 -15q-115 0 -208 31.5t-149.5 82.5t-88 109.5t-37.5 120.5h330q18 -108 166 -108q111 0 165 60.5t83 203.5l12 61h-4q-128 -137 -309 -137
q-168 0 -263.5 106t-95.5 296q0 122 40 236t109 201.5t170.5 140t217.5 52.5q75 0 135 -24t89.5 -52t49.5 -61h8zM532 295q81 0 143 53.5t92 133t30 169.5q0 185 -146 185q-84 0 -148 -53t-95 -133t-31 -171q0 -184 155 -184z" />
    <glyph glyph-name="uni0122" unicode="&#x122;" horiz-adv-x="1542" 
d="M899 1196q-129 0 -232.5 -82t-162 -227.5t-58.5 -327.5q0 -291 273 -291q130 0 229.5 69t124.5 175h-278l51 266h659l-151 -778h-264v186h-5q-156 -219 -464 -219q-255 0 -395 159t-140 425q0 198 66.5 374t180.5 301t273 198t338 73q151 0 267 -41t185.5 -113
t101.5 -164.5t24 -199.5h-377q-3 43 -13.5 77t-35 68t-75 53t-122.5 19zM559 -309h-147l41 209h311l-41 -209q-19 -93 -111.5 -154t-244.5 -76l18 97q150 17 174 133z" />
    <glyph glyph-name="uni0123" unicode="&#x123;" horiz-adv-x="1200" 
d="M739 1384h148l-41 -210h-311l40 210q17 95 111 157t246 75l-19 -96q-152 -18 -174 -136zM866 944l21 105h327l-186 -953q-21 -105 -58.5 -185t-89 -134t-119.5 -88t-144.5 -49t-170.5 -15q-115 0 -208 31.5t-149.5 82.5t-88 109.5t-37.5 120.5h330q18 -108 166 -108
q111 0 165 60.5t83 203.5l12 61h-4q-128 -137 -309 -137q-168 0 -263.5 106t-95.5 296q0 122 40 236t109 201.5t170.5 140t217.5 52.5q75 0 135 -24t89.5 -52t49.5 -61h8zM532 295q81 0 143 53.5t92 133t30 169.5q0 185 -146 185q-84 0 -148 -53t-95 -133t-31 -171
q0 -184 155 -184z" />
    <glyph glyph-name="Hcircumflex" unicode="&#x124;" horiz-adv-x="1484" 
d="M850 1589h-293l293 312h305l170 -312h-283l-61 166h-4zM389 0h-369l285 1464h369l-111 -573h502l111 573h368l-284 -1464h-369l115 590h-502z" />
    <glyph glyph-name="hcircumflex" unicode="&#x125;" horiz-adv-x="1189" 
d="M473 1683h-4l-127 -165h-293l293 311h305l170 -311h-282zM858 1083q172 0 243 -109.5t27 -338.5l-124 -635h-328l119 604q41 211 -125 211q-95 0 -157.5 -60t-78.5 -149l-119 -606h-327l286 1464h328l-108 -557h4q136 176 360 176z" />
    <glyph glyph-name="Hbar" unicode="&#x126;" horiz-adv-x="1525" 
d="M1528 1262h106l-35 -185h-108l-209 -1077h-369l115 590h-502l-114 -590h-369l209 1077h-113l35 185h115l39 202h368l-39 -202h502l39 202h369zM586 891h501l37 186h-501z" />
    <glyph glyph-name="hbar" unicode="&#x127;" horiz-adv-x="1189" 
d="M858 1083q172 0 243 -109.5t27 -338.5l-124 -635h-328l119 604q41 211 -125 211q-95 0 -157.5 -60t-78.5 -149l-119 -606h-327l231 1178h-106l34 184h107l20 102h328l-20 -102h336l-35 -184h-336l-53 -271h4q136 176 360 176z" />
    <glyph glyph-name="Itilde" unicode="&#x128;" horiz-adv-x="614" 
d="M344 1559h-178q58 301 242 301q47 0 95 -20.5t91 -41t76 -20.5q72 0 88 82h176q-32 -156 -92 -228.5t-150 -72.5q-59 0 -142.5 39.5t-119.5 39.5q-71 0 -86 -79zM389 0h-369l285 1464h369z" />
    <glyph glyph-name="itilde" unicode="&#x129;" horiz-adv-x="509" 
d="M211 1143h-178q58 301 241 301q47 0 95.5 -20.5t91.5 -41t76 -20.5q72 0 88 82h176q-32 -156 -92 -228.5t-150 -72.5q-47 0 -95.5 20t-91.5 40t-75 20q-71 0 -86 -80zM315 0h-327l205 1049h327z" />
    <glyph glyph-name="Imacron" unicode="&#x12a;" horiz-adv-x="614" 
d="M807 1589h-586l39 205h586zM389 0h-369l285 1464h369z" />
    <glyph glyph-name="imacron" unicode="&#x12b;" horiz-adv-x="509" 
d="M674 1174h-586l39 204h586zM315 0h-327l205 1049h327z" />
    <glyph glyph-name="Iogonek" unicode="&#x12e;" horiz-adv-x="614" 
d="M389 0h-35q-47 -19 -82.5 -52.5t-35.5 -68.5q0 -47 57 -47q32 0 86 14l-35 -184q-90 -22 -170 -22q-205 0 -205 143q0 64 48.5 123t132.5 94h-130l285 1464h369z" />
    <glyph glyph-name="iogonek" unicode="&#x12f;" horiz-adv-x="509" 
d="M217 1174l57 290h328l-57 -290h-328zM315 0h-12q-47 -19 -83 -53t-36 -68q0 -47 58 -47q32 0 86 14l-35 -184q-90 -22 -170 -22q-205 0 -205 143q0 64 48 123t132 94h-110l205 1049h327z" />
    <glyph glyph-name="Idotaccent" unicode="&#x130;" horiz-adv-x="614" 
d="M762 1589h-367l66 291h366zM389 0h-369l285 1464h369z" />
    <glyph glyph-name="dotlessi" unicode="&#x131;" horiz-adv-x="509" 
d="M315 0h-327l205 1049h327z" />
    <glyph glyph-name="Jcircumflex" unicode="&#x134;" horiz-adv-x="1146" 
d="M956 1589h-292l292 312h306l170 -312h-283l-62 166h-4zM444 -33q-97 0 -173 18.5t-125.5 53t-82 80.5t-45 105.5t-11.5 124t16 138.5l24 123h328l-25 -123q-23 -110 1 -164.5t110 -54.5q85 0 130 54t66 165l191 977h369l-191 -977q-15 -75 -35 -137t-51.5 -123
t-76 -106.5t-103 -81t-139 -54t-177.5 -18.5z" />
    <glyph glyph-name="jcircumflex" unicode="&#x135;" horiz-adv-x="512" 
d="M281 1174h-293l293 311h305l170 -311h-283l-61 165h-4zM-84 -375q-84 0 -178 21l49 250q54 -7 74 -7q55 0 85 23.5t46 101.5l201 1035h327l-196 -1018q-38 -199 -136.5 -302.5t-271.5 -103.5z" />
    <glyph glyph-name="uni0136" unicode="&#x136;" horiz-adv-x="1423" 
d="M1188 1464h411l-675 -637l446 -827h-430l-287 571l-186 -176l-78 -395h-369l285 1464h369l-115 -594zM578 -309h-148l41 209h311l-41 -209q-19 -93 -111.5 -154t-244.5 -76l18 97q151 17 175 133z" />
    <glyph glyph-name="uni0137" unicode="&#x137;" horiz-adv-x="1114" 
d="M842 1049h377l-449 -394l287 -655h-369l-172 432l-139 -123l-62 -309h-327l284 1464h328l-151 -780zM455 -309h-148l41 209h311l-41 -209q-19 -93 -111.5 -154t-244.5 -76l19 97q150 17 174 133z" />
    <glyph glyph-name="kgreenlandic" unicode="&#x138;" horiz-adv-x="1122" 
d="M862 1049h377l-463 -408l281 -641h-369l-168 418l-149 -131l-56 -287h-327l205 1049h327l-74 -375z" />
    <glyph glyph-name="Lacute" unicode="&#x139;" horiz-adv-x="1171" 
d="M618 1589h-245l170 312h368zM1040 0h-1020l285 1464h369l-225 -1163h651z" />
    <glyph glyph-name="lacute" unicode="&#x13a;" horiz-adv-x="512" 
d="M543 1518h-246l170 311h369zM317 0h-327l284 1464h328z" />
    <glyph glyph-name="uni013B" unicode="&#x13b;" horiz-adv-x="1171" 
d="M674 1464l-225 -1163h651l-60 -301h-1020l285 1464h369zM463 -309h-148l41 209h312l-41 -209q-19 -93 -112 -154t-245 -76l19 97q150 17 174 133z" />
    <glyph glyph-name="uni013C" unicode="&#x13c;" horiz-adv-x="512" 
d="M-10 0l284 1464h328l-285 -1464h-327zM86 -309h-147l41 209h311l-41 -209q-19 -93 -111.5 -154t-244.5 -76l18 97q150 17 174 133z" />
    <glyph glyph-name="Lcaron" unicode="&#x13d;" horiz-adv-x="1171" 
d="M1040 0h-1020l285 1464h369l-225 -1163h651zM1016 1042h-225l133 422h348z" />
    <glyph glyph-name="lcaron" unicode="&#x13e;" horiz-adv-x="686" 
d="M807 1063h-225l133 422h348zM317 0h-327l284 1464h328z" />
    <glyph glyph-name="Lslash" unicode="&#x141;" horiz-adv-x="1228" 
d="M584 711l-80 -410h651l-59 -301h-1020l86 438l-137 -88l41 240l143 92l151 782h369l-98 -510l418 271l-41 -240z" />
    <glyph glyph-name="lslash" unicode="&#x142;" horiz-adv-x="649" 
d="M588 1022l139 90l-47 -240l-139 -90l-152 -782h-328l105 541l-137 -88l47 239l137 88l133 684h328z" />
    <glyph glyph-name="Nacute" unicode="&#x143;" horiz-adv-x="1499" 
d="M1055 1589h-246l170 312h369zM389 0h-369l285 1464h365l342 -870h8l170 870h369l-285 -1464h-365l-342 870h-8z" />
    <glyph glyph-name="nacute" unicode="&#x144;" horiz-adv-x="1189" 
d="M786 1485h369l-293 -311h-246zM858 1083q172 0 243 -109.5t27 -338.5l-124 -635h-328l119 604q41 211 -125 211q-95 0 -157.5 -60t-78.5 -149l-119 -606h-327l205 1049h327l-26 -142h4q136 176 360 176z" />
    <glyph glyph-name="uni0145" unicode="&#x145;" horiz-adv-x="1499" 
d="M1020 594l170 870h369l-285 -1464h-365l-342 870h-8l-170 -870h-369l285 1464h365l342 -870h8zM580 -309h-148l41 209h311l-41 -209q-19 -93 -111.5 -154t-244.5 -76l19 97q150 17 174 133z" />
    <glyph glyph-name="uni0146" unicode="&#x146;" horiz-adv-x="1189" 
d="M858 1083q172 0 243 -109.5t27 -338.5l-124 -635h-328l119 604q41 211 -125 211q-95 0 -157.5 -60t-78.5 -149l-119 -606h-327l205 1049h327l-26 -142h4q136 176 360 176zM428 -309h-147l41 209h311l-41 -209q-19 -93 -111.5 -154t-244.5 -76l18 97q150 17 174 133z" />
    <glyph glyph-name="Ncaron" unicode="&#x147;" horiz-adv-x="1499" 
d="M1114 1589h-319l-158 312h276l60 -166h4l125 166h293zM389 0h-369l285 1464h365l342 -870h8l170 870h369l-285 -1464h-365l-342 870h-8z" />
    <glyph glyph-name="ncaron" unicode="&#x148;" horiz-adv-x="1189" 
d="M1202 1485l-280 -311h-320l-158 311h277l59 -166h4l125 166h293zM858 1083q172 0 243 -109.5t27 -338.5l-124 -635h-328l119 604q41 211 -125 211q-95 0 -157.5 -60t-78.5 -149l-119 -606h-327l205 1049h327l-26 -142h4q136 176 360 176z" />
    <glyph glyph-name="Eng" unicode="&#x14a;" horiz-adv-x="1499" 
d="M817 -362q-120 0 -217 20l45 240q128 0 183.5 23t78.5 89l-344 860h-4l-170 -870h-369l285 1464h369l342 -870h4l170 870h369l-267 -1370q-88 -456 -475 -456z" />
    <glyph glyph-name="eng" unicode="&#x14b;" horiz-adv-x="1189" 
d="M868 1081q167 0 235.5 -109t24.5 -337l-129 -655q-37 -190 -121 -278.5t-255 -88.5q-95 0 -199 22l47 246q111 0 151 22t56 107l117 594q41 211 -125 211q-95 0 -157.5 -60t-78.5 -149l-119 -606h-327l205 1049h327l-28 -144h4q66 79 160.5 127.5t211.5 48.5z" />
    <glyph glyph-name="Omacron" unicode="&#x14c;" horiz-adv-x="1581" 
d="M1296 1589h-585l39 205h585zM729 -33q-303 0 -470 165t-167 452q0 188 58 354t163.5 290t264.5 196.5t350 72.5q305 0 473 -164t168 -450q0 -186 -58 -351.5t-163.5 -291.5t-265.5 -199.5t-353 -73.5zM745 268q109 0 197.5 52.5t143.5 139.5t84.5 193t29.5 219
q0 151 -72.5 237.5t-209.5 86.5q-108 0 -197 -52.5t-144.5 -139t-85.5 -193.5t-30 -221q0 -150 72.5 -236t211.5 -86z" />
    <glyph glyph-name="omacron" unicode="&#x14d;" horiz-adv-x="1216" 
d="M1042 1174h-585l39 204h585zM535 -35q-236 0 -366 120.5t-130 338.5q0 185 79.5 334.5t228 237t337.5 87.5q235 0 364.5 -120t129.5 -338q0 -185 -79.5 -335t-227.5 -237.5t-336 -87.5zM557 211q136 0 216.5 122t80.5 292q0 106 -51 159.5t-144 53.5q-91 0 -160 -59
t-103 -152.5t-34 -202.5q0 -106 51 -159.5t144 -53.5z" />
    <glyph glyph-name="Ohungarumlaut" unicode="&#x150;" horiz-adv-x="1581" 
d="M961 1589h-236l143 312h295zM1321 1589h-236l177 312h307zM729 -33q-303 0 -470 165t-167 452q0 188 58 354t163.5 290t264.5 196.5t350 72.5q305 0 473 -164t168 -450q0 -186 -58 -351.5t-163.5 -291.5t-265.5 -199.5t-353 -73.5zM745 268q109 0 197.5 52.5t143.5 139.5
t84.5 193t29.5 219q0 151 -72.5 237.5t-209.5 86.5q-108 0 -197 -52.5t-144.5 -139t-85.5 -193.5t-30 -221q0 -150 72.5 -236t211.5 -86z" />
    <glyph glyph-name="ohungarumlaut" unicode="&#x151;" horiz-adv-x="1216" 
d="M707 1174h-236l143 311h295zM1067 1174h-236l177 311h307zM535 -35q-236 0 -366 120.5t-130 338.5q0 185 79.5 334.5t228 237t337.5 87.5q235 0 364.5 -120t129.5 -338q0 -185 -79.5 -335t-227.5 -237.5t-336 -87.5zM557 211q136 0 216.5 122t80.5 292q0 106 -51 159.5
t-144 53.5q-91 0 -160 -59t-103 -152.5t-34 -202.5q0 -106 51 -159.5t144 -53.5z" />
    <glyph glyph-name="OE" unicode="&#x152;" horiz-adv-x="2342" 
d="M2443 1464l-59 -301h-742l-49 -260h639l-59 -301h-639l-57 -301h753l-59 -301h-1122l30 156q-196 -189 -452 -189q-242 0 -390.5 164.5t-148.5 446.5q0 180 63.5 348.5t170.5 294t258 201t317 75.5q274 0 403 -203l33 170h1110zM715 268q86 0 163 35t133.5 94.5t98.5 137
t63 164t21 173.5q0 154 -69.5 239t-202.5 85q-132 0 -240 -83.5t-166.5 -221.5t-58.5 -299q0 -324 258 -324z" />
    <glyph glyph-name="oe" unicode="&#x153;" horiz-adv-x="1980" 
d="M1921 436h-766v-16q0 -114 51 -161.5t142 -47.5q85 0 139.5 35.5t64.5 83.5h334q-75 -175 -219 -270t-352 -95q-259 0 -379 148q-182 -148 -424 -148q-228 0 -353.5 115.5t-125.5 325.5q0 107 30.5 208.5t89.5 186t139.5 148t186 99t223.5 35.5q250 0 373 -135
q170 135 412 135q124 0 214 -32.5t141.5 -94.5t75.5 -141.5t24 -183.5q0 -79 -21 -195zM1462 848q-105 0 -174.5 -56t-101.5 -153h438q18 101 -25.5 155t-136.5 54zM545 211q95 0 166 58t106 148t35 197q0 112 -49 168t-137 56q-94 0 -165 -59t-106 -152t-35 -203
q0 -106 48.5 -159.5t136.5 -53.5z" />
    <glyph glyph-name="Racute" unicode="&#x154;" horiz-adv-x="1404" 
d="M983 1589h-246l170 312h369zM389 0h-369l285 1464h668q228 0 350.5 -90.5t122.5 -267.5q0 -157 -108 -277.5t-277 -152.5l-2 -4q72 -12 117 -53.5t61.5 -98t20.5 -122.5t-3 -130.5t-13 -118t-4 -89t19 -40.5l-4 -20h-383q-8 11 -9.5 39t6.5 66t13.5 83l11 90t-0.5 87
t-21.5 74t-51.5 51.5t-91 19.5h-240zM547 811h250q127 0 198.5 59.5t71.5 159.5q0 70 -49 101.5t-154 31.5h-250z" />
    <glyph glyph-name="racute" unicode="&#x155;" horiz-adv-x="788" 
d="M580 1485h368l-293 -311h-245zM487 877h2q62 91 135.5 135.5t172.5 44.5q36 0 73 -8l-57 -287q-43 6 -76 6q-132 0 -213.5 -69.5t-115.5 -225.5l-93 -473h-327l205 1049h327z" />
    <glyph glyph-name="uni0156" unicode="&#x156;" horiz-adv-x="1404" 
d="M1446 1106q0 -157 -108 -277.5t-277 -152.5l-2 -4q72 -12 117 -53.5t61.5 -98t20.5 -122.5t-3 -130.5t-13 -118t-4 -89t19 -40.5l-4 -20h-383q-8 11 -9.5 39t6.5 66t13.5 83l11 90t-0.5 87t-21.5 74t-51.5 51.5t-91 19.5h-240l-98 -510h-369l285 1464h668
q228 0 350.5 -90.5t122.5 -267.5zM547 811h250q127 0 198.5 59.5t71.5 159.5q0 70 -49 101.5t-154 31.5h-250zM569 -309h-147l41 209h311l-41 -209q-19 -93 -111.5 -154t-244.5 -76l18 97q150 17 174 133z" />
    <glyph glyph-name="uni0157" unicode="&#x157;" horiz-adv-x="788" 
d="M797 1057q36 0 73 -8l-57 -287q-43 6 -76 6q-132 0 -213.5 -69.5t-115.5 -225.5l-93 -473h-327l205 1049h327l-33 -172h2q62 91 135.5 135.5t172.5 44.5zM84 -309h-147l40 209h312l-41 -209q-19 -93 -112 -154t-245 -76l19 97q150 17 174 133z" />
    <glyph glyph-name="Rcaron" unicode="&#x158;" horiz-adv-x="1404" 
d="M1042 1589h-319l-158 312h277l59 -166h4l125 166h293zM389 0h-369l285 1464h668q228 0 350.5 -90.5t122.5 -267.5q0 -157 -108 -277.5t-277 -152.5l-2 -4q72 -12 117 -53.5t61.5 -98t20.5 -122.5t-3 -130.5t-13 -118t-4 -89t19 -40.5l-4 -20h-383q-8 11 -9.5 39t6.5 66
t13.5 83l11 90t-0.5 87t-21.5 74t-51.5 51.5t-91 19.5h-240zM547 811h250q127 0 198.5 59.5t71.5 159.5q0 70 -49 101.5t-154 31.5h-250z" />
    <glyph glyph-name="rcaron" unicode="&#x159;" horiz-adv-x="788" 
d="M995 1485l-280 -311h-320l-157 311h276l59 -166h5l124 166h293zM487 877h2q62 91 135.5 135.5t172.5 44.5q36 0 73 -8l-57 -287q-43 6 -76 6q-132 0 -213.5 -69.5t-115.5 -225.5l-93 -473h-327l205 1049h327z" />
    <glyph glyph-name="Sacute" unicode="&#x15a;" horiz-adv-x="1343" 
d="M948 1589h-246l170 312h369zM641 -33q-292 0 -454.5 141.5t-153.5 383.5h373q-24 -113 43 -170.5t198 -57.5q118 0 183 43t65 111q0 45 -35.5 79t-76.5 51.5t-141 52.5q-31 11 -48 17q-66 23 -115 44t-99 48.5t-84.5 58.5t-62.5 70.5t-41.5 88.5t-13.5 108
q0 212 169.5 336.5t443.5 124.5q279 0 422.5 -127t146.5 -350h-367q9 92 -49 139t-176 47q-98 0 -154.5 -35t-56.5 -100q0 -62 50.5 -95.5t191.5 -86.5q204 -76 280 -119q143 -82 182 -201q18 -54 17 -120q-1 -102 -42.5 -189.5t-119.5 -153t-200 -102.5t-275 -37z" />
    <glyph glyph-name="sacute" unicode="&#x15b;" horiz-adv-x="1044" 
d="M750 1174h-246l170 311h368zM465 -33q-105 0 -188.5 21.5t-136.5 57.5t-87 86t-46.5 103.5t-8.5 112.5h299q-4 -78 40.5 -116.5t137.5 -38.5q80 0 123 26.5t43 73.5q0 18 -5.5 32.5t-20 26t-27 20t-38.5 18t-41.5 14.5t-49 15t-49.5 15q-55 17 -93.5 32t-83.5 40.5
t-72.5 54.5t-46 73t-18.5 97q0 152 133 251t353 99q119 0 209 -31t140 -82.5t72 -112.5t15 -126h-301q5 67 -32 101t-122 34q-70 0 -108.5 -23.5t-38.5 -66.5q0 -16 5 -29.5t18 -24.5t24 -18.5t35.5 -16.5t39.5 -14t48.5 -15t50.5 -15q76 -23 128.5 -46.5t102.5 -59.5
t75.5 -87.5t25.5 -117.5q0 -70 -29.5 -133t-88 -115.5t-158.5 -83.5t-228 -31z" />
    <glyph glyph-name="Scircumflex" unicode="&#x15c;" horiz-adv-x="1343" 
d="M750 1589h-293l293 312h305l170 -312h-283l-61 166h-4zM641 -33q-292 0 -454.5 141.5t-153.5 383.5h373q-24 -113 43 -170.5t198 -57.5q118 0 183 43t65 111q0 45 -35.5 79t-76.5 51.5t-141 52.5q-31 11 -48 17q-66 23 -115 44t-99 48.5t-84.5 58.5t-62.5 70.5
t-41.5 88.5t-13.5 108q0 212 169.5 336.5t443.5 124.5q279 0 422.5 -127t146.5 -350h-367q9 92 -49 139t-176 47q-98 0 -154.5 -35t-56.5 -100q0 -62 50.5 -95.5t191.5 -86.5q204 -76 280 -119q143 -82 182 -201q18 -54 17 -120q-1 -102 -42.5 -189.5t-119.5 -153
t-200 -102.5t-275 -37z" />
    <glyph glyph-name="scircumflex" unicode="&#x15d;" horiz-adv-x="1044" 
d="M551 1174h-293l293 311h305l170 -311h-283l-61 165h-4zM465 -33q-105 0 -188.5 21.5t-136.5 57.5t-87 86t-46.5 103.5t-8.5 112.5h299q-4 -78 40.5 -116.5t137.5 -38.5q80 0 123 26.5t43 73.5q0 18 -5.5 32.5t-20 26t-27 20t-38.5 18t-41.5 14.5t-49 15t-49.5 15
q-55 17 -93.5 32t-83.5 40.5t-72.5 54.5t-46 73t-18.5 97q0 152 133 251t353 99q119 0 209 -31t140 -82.5t72 -112.5t15 -126h-301q5 67 -32 101t-122 34q-70 0 -108.5 -23.5t-38.5 -66.5q0 -16 5 -29.5t18 -24.5t24 -18.5t35.5 -16.5t39.5 -14t48.5 -15t50.5 -15
q76 -23 128.5 -46.5t102.5 -59.5t75.5 -87.5t25.5 -117.5q0 -70 -29.5 -133t-88 -115.5t-158.5 -83.5t-228 -31z" />
    <glyph glyph-name="Scedilla" unicode="&#x15e;" horiz-adv-x="1343" 
d="M799 889q204 -76 280 -119q143 -82 182 -201q18 -54 17 -120q-2 -208 -162 -342t-452 -140l-62 -65l-2 -4q83 9 137 -21.5t54 -89.5q0 -83 -86.5 -138t-217.5 -55q-132 0 -217 68l76 72q60 -31 123 -31q49 0 77.5 20t28.5 54q0 41 -59 41q-33 0 -80 -15l-24 70l108 100
q-238 29 -366.5 166.5t-120.5 352.5h373q-24 -113 43 -170.5t198 -57.5q118 0 183 43t65 111q0 45 -35.5 79t-76.5 51.5t-141 52.5q-31 11 -48 17q-66 23 -115 44t-99 48.5t-84.5 58.5t-62.5 70.5t-41.5 88.5t-13.5 108q0 212 169.5 336.5t443.5 124.5q279 0 422.5 -127
t146.5 -350h-367q9 92 -49 139t-176 47q-98 0 -154.5 -35t-56.5 -100q0 -62 50.5 -95.5t191.5 -86.5z" />
    <glyph glyph-name="scedilla" unicode="&#x15f;" horiz-adv-x="1044" 
d="M1018 729h-301q5 67 -32 101t-122 34q-70 0 -108.5 -23.5t-38.5 -66.5q0 -16 5 -29.5t18 -24.5t24 -18.5t35.5 -16.5t39.5 -14t48.5 -15t50.5 -15q76 -23 128.5 -46.5t102.5 -59.5t75.5 -87.5t25.5 -117.5q0 -140 -113 -244t-334 -117l-63 -67l-2 -4q83 9 136.5 -21.5
t53.5 -89.5q0 -83 -86 -138t-217 -55q-132 0 -217 68l76 72q60 -31 123 -31q49 0 77.5 20t28.5 54q0 41 -59 41q-33 0 -80 -15l-25 70l105 98q-105 11 -182 47t-119 88.5t-60 113t-14 128.5h299q-4 -78 40.5 -116.5t137.5 -38.5q80 0 123 26.5t43 73.5q0 18 -5.5 32.5
t-20 26t-27 20t-38.5 18t-41.5 14.5t-49 15t-49.5 15q-55 17 -93.5 32t-83.5 40.5t-72.5 54.5t-46 73t-18.5 97q0 152 133 251t353 99q119 0 209 -31t140 -82.5t72 -112.5t15 -126z" />
    <glyph glyph-name="Scaron" unicode="&#x160;" horiz-adv-x="1343" 
d="M1008 1589h-320l-158 312h277l59 -166h4l125 166h293zM641 -33q-292 0 -454.5 141.5t-153.5 383.5h373q-24 -113 43 -170.5t198 -57.5q118 0 183 43t65 111q0 45 -35.5 79t-76.5 51.5t-141 52.5q-31 11 -48 17q-66 23 -115 44t-99 48.5t-84.5 58.5t-62.5 70.5t-41.5 88.5
t-13.5 108q0 212 169.5 336.5t443.5 124.5q279 0 422.5 -127t146.5 -350h-367q9 92 -49 139t-176 47q-98 0 -154.5 -35t-56.5 -100q0 -62 50.5 -95.5t191.5 -86.5q204 -76 280 -119q143 -82 182 -201q18 -54 17 -120q-1 -102 -42.5 -189.5t-119.5 -153t-200 -102.5t-275 -37
z" />
    <glyph glyph-name="scaron" unicode="&#x161;" horiz-adv-x="1044" 
d="M809 1174h-320l-157 311h276l60 -166h4l125 166h293zM465 -33q-105 0 -188.5 21.5t-136.5 57.5t-87 86t-46.5 103.5t-8.5 112.5h299q-4 -78 40.5 -116.5t137.5 -38.5q80 0 123 26.5t43 73.5q0 18 -5.5 32.5t-20 26t-27 20t-38.5 18t-41.5 14.5t-49 15t-49.5 15
q-55 17 -93.5 32t-83.5 40.5t-72.5 54.5t-46 73t-18.5 97q0 152 133 251t353 99q119 0 209 -31t140 -82.5t72 -112.5t15 -126h-301q5 67 -32 101t-122 34q-70 0 -108.5 -23.5t-38.5 -66.5q0 -16 5 -29.5t18 -24.5t24 -18.5t35.5 -16.5t39.5 -14t48.5 -15t50.5 -15
q76 -23 128.5 -46.5t102.5 -59.5t75.5 -87.5t25.5 -117.5q0 -70 -29.5 -133t-88 -115.5t-158.5 -83.5t-228 -31z" />
    <glyph glyph-name="uni0162" unicode="&#x162;" horiz-adv-x="1280" 
d="M154 1163l59 301h1219l-60 -301h-424l-225 -1163h-92l-92 -98l-2 -4q83 9 136.5 -21.5t53.5 -89.5q0 -83 -86 -138t-217 -55q-132 0 -217 68l76 72q60 -31 123 -31q49 0 77.5 20t28.5 54q0 41 -59 41q-33 0 -80 -15l-25 70l135 127h-129l226 1163h-426z" />
    <glyph glyph-name="uni0163" unicode="&#x163;" horiz-adv-x="749" 
d="M739 803h-182l-88 -455q-16 -78 5.5 -100.5t76.5 -22.5q35 0 90 8l-45 -231q-82 -19 -164 -22l-55 -58l-2 -4q83 9 136.5 -21.5t53.5 -89.5q0 -83 -86 -137.5t-217 -54.5q-132 0 -217 68l76 71q58 -30 123 -30q49 0 77.5 19.5t28.5 53.5q0 41 -59 41q-36 0 -80 -14
l-25 70l103 96q-109 25 -145 108.5t-5 241.5l90 463h-145l47 246h145l58 292h328l-58 -292h182z" />
    <glyph glyph-name="Tcaron" unicode="&#x164;" horiz-adv-x="1280" 
d="M1006 1589h-320l-158 312h277l59 -166h4l125 166h293zM723 0h-369l226 1163h-426l59 301h1219l-60 -301h-424z" />
    <glyph glyph-name="tcaron" unicode="&#x165;" horiz-adv-x="749" 
d="M692 1126l113 338h295l-217 -338h-191zM334 1341h328l-58 -292h182l-47 -246h-182l-88 -455q-16 -78 5.5 -100.5t76.5 -22.5q35 0 90 8l-45 -231q-102 -22 -199 -22q-172 0 -233.5 84.5t-24.5 275.5l90 463h-145l47 246h145z" />
    <glyph glyph-name="Tbar" unicode="&#x166;" horiz-adv-x="1280" 
d="M1432 1464l-60 -301h-424l-61 -313h287l-35 -184h-287l-129 -666h-369l129 666h-262l35 184h262l62 313h-426l59 301h1219z" />
    <glyph glyph-name="tbar" unicode="&#x167;" horiz-adv-x="755" 
d="M793 1049l-48 -246h-182l-26 -139h180l-35 -185h-182l-25 -131q-16 -78 5.5 -100.5t76.5 -22.5q35 0 90 8l-45 -231q-102 -22 -199 -22q-172 0 -233.5 84.5t-24.5 275.5l27 139h-145l34 185h148l27 139h-146l47 246h146l57 292h328l-58 -292h183z" />
    <glyph glyph-name="Utilde" unicode="&#x168;" horiz-adv-x="1447" 
d="M760 1559h-178q58 301 241 301q47 0 95 -20.5t91 -41t76 -20.5q73 0 89 82h176q-32 -156 -92 -228.5t-150 -72.5q-59 0 -142.5 39.5t-119.5 39.5q-71 0 -86 -79zM637 -33q-125 0 -224 28t-162.5 78.5t-103 121t-46 154.5t9.5 179l182 936h369l-183 -936
q-27 -139 21 -199.5t172 -60.5q126 0 197 60t98 200l182 936h369l-183 -936q-28 -141 -78 -242.5t-132 -174.5t-203 -108.5t-285 -35.5z" />
    <glyph glyph-name="utilde" unicode="&#x169;" horiz-adv-x="1187" 
d="M625 1223q-71 0 -86 -80h-179q58 301 242 301q47 0 95 -20.5t91 -41t76 -20.5q72 0 88 82h176q-32 -156 -91.5 -228.5t-149.5 -72.5q-47 0 -95.5 20t-91.5 40t-75 20zM752 432l118 617h328l-203 -1049h-327l28 152h-4q-57 -81 -148.5 -133t-203.5 -52
q-177 0 -251.5 109.5t-29.5 337.5l125 635h328l-119 -605q-41 -211 125 -211q93 0 153 54t81 145z" />
    <glyph glyph-name="Umacron" unicode="&#x16a;" horiz-adv-x="1447" 
d="M1223 1589h-586l39 205h586zM637 -33q-125 0 -224 28t-162.5 78.5t-103 121t-46 154.5t9.5 179l182 936h369l-183 -936q-27 -139 21 -199.5t172 -60.5q126 0 197 60t98 200l182 936h369l-183 -936q-28 -141 -78 -242.5t-132 -174.5t-203 -108.5t-285 -35.5z" />
    <glyph glyph-name="umacron" unicode="&#x16b;" horiz-adv-x="1187" 
d="M455 1378h585l-39 -204h-585zM752 432l118 617h328l-203 -1049h-327l28 152h-4q-57 -81 -148.5 -133t-203.5 -52q-177 0 -251.5 109.5t-29.5 337.5l125 635h328l-119 -605q-41 -211 125 -211q93 0 153 54t81 145z" />
    <glyph glyph-name="Ubreve" unicode="&#x16c;" horiz-adv-x="1447" 
d="M934 1573q-146 0 -222 85t-53 226h181q-5 -53 23.5 -81.5t94.5 -28.5q64 0 105 29t55 81h197q-34 -142 -131.5 -226.5t-249.5 -84.5zM637 -33q-125 0 -224 28t-162.5 78.5t-103 121t-46 154.5t9.5 179l182 936h369l-183 -936q-27 -139 21 -199.5t172 -60.5q126 0 197 60
t98 200l182 936h369l-183 -936q-28 -141 -78 -242.5t-132 -174.5t-203 -108.5t-285 -35.5z" />
    <glyph glyph-name="ubreve" unicode="&#x16d;" horiz-adv-x="1187" 
d="M713 1157q-146 0 -222 85t-53 226h180q-5 -53 24 -81.5t95 -28.5q64 0 105 29t55 81h197q-34 -142 -131.5 -226.5t-249.5 -84.5zM752 432l118 617h328l-203 -1049h-327l28 152h-4q-57 -81 -148.5 -133t-203.5 -52q-177 0 -251.5 109.5t-29.5 337.5l125 635h328l-119 -605
q-41 -211 125 -211q93 0 153 54t81 145z" />
    <glyph glyph-name="Uring" unicode="&#x16e;" horiz-adv-x="1447" 
d="M932 1550q-98 0 -152.5 52t-54.5 145q0 106 72 173t176 67q98 0 152.5 -52t54.5 -145q0 -106 -72 -173t-176 -67zM936 1673q48 0 79.5 34.5t31.5 82.5q0 37 -21.5 55.5t-56.5 18.5q-48 0 -79.5 -34.5t-31.5 -82.5q0 -37 21.5 -55.5t56.5 -18.5zM637 -33q-125 0 -224 28
t-162.5 78.5t-103 121t-46 154.5t9.5 179l182 936h369l-183 -936q-27 -139 21 -199.5t172 -60.5q126 0 197 60t98 200l182 936h369l-183 -936q-28 -141 -78 -242.5t-132 -174.5t-203 -108.5t-285 -35.5z" />
    <glyph glyph-name="uring" unicode="&#x16f;" horiz-adv-x="1187" 
d="M711 1135q-98 0 -152.5 52t-54.5 144q0 106 72 173t176 67q98 0 152 -52t54 -145q0 -106 -71.5 -172.5t-175.5 -66.5zM748 1448q-48 0 -79.5 -34.5t-31.5 -82.5q0 -37 21.5 -55.5t56.5 -18.5q48 0 79 34t31 83q0 37 -21 55.5t-56 18.5zM752 432l118 617h328l-203 -1049
h-327l28 152h-4q-57 -81 -148.5 -133t-203.5 -52q-177 0 -251.5 109.5t-29.5 337.5l125 635h328l-119 -605q-41 -211 125 -211q93 0 153 54t81 145z" />
    <glyph glyph-name="Uhungarumlaut" unicode="&#x170;" horiz-adv-x="1447" 
d="M887 1589h-236l144 312h295zM1247 1589h-235l176 312h307zM637 -33q-125 0 -224 28t-162.5 78.5t-103 121t-46 154.5t9.5 179l182 936h369l-183 -936q-27 -139 21 -199.5t172 -60.5q126 0 197 60t98 200l182 936h369l-183 -936q-28 -141 -78 -242.5t-132 -174.5
t-203 -108.5t-285 -35.5z" />
    <glyph glyph-name="uhungarumlaut" unicode="&#x171;" horiz-adv-x="1187" 
d="M573 1485h295l-202 -311h-236zM1274 1485l-248 -311h-235l176 311h307zM752 432l118 617h328l-203 -1049h-327l28 152h-4q-57 -81 -148.5 -133t-203.5 -52q-177 0 -251.5 109.5t-29.5 337.5l125 635h328l-119 -605q-41 -211 125 -211q93 0 153 54t81 145z" />
    <glyph glyph-name="Uogonek" unicode="&#x172;" horiz-adv-x="1447" 
d="M967 528l182 936h369l-183 -936q-46 -238 -164.5 -373t-339.5 -173q-36 -20 -59.5 -47.5t-23.5 -55.5q0 -47 57 -47q32 0 86 14l-35 -184q-90 -22 -170 -22q-205 0 -205 143q0 107 119 184q-117 4 -209.5 34.5t-152 81.5t-96 120t-41.5 151t10 174l182 936h369l-183 -936
q-27 -139 21 -199.5t172 -60.5q126 0 197 60t98 200z" />
    <glyph glyph-name="uogonek" unicode="&#x173;" horiz-adv-x="1187" 
d="M858 -121q0 -47 57 -47q32 0 86 14l-34 -184q-90 -22 -170 -22q-205 0 -205 143q0 64 48 123t132 94h-104l28 152h-4q-57 -81 -148.5 -133t-203.5 -52q-177 0 -251.5 109.5t-29.5 337.5l125 635h328l-119 -605q-41 -211 125 -211q93 0 153 54t81 145l118 617h328
l-203 -1049h-18q-47 -19 -83 -53t-36 -68z" />
    <glyph glyph-name="Wcircumflex" unicode="&#x174;" horiz-adv-x="1959" 
d="M1083 1589h-292l292 312h306l170 -312h-283l-62 166h-4zM653 0h-368l-88 1464h368l-4 -993h4l420 993h348l35 -993h4l381 993h369l-658 -1464h-368l-41 913h-4z" />
    <glyph glyph-name="wcircumflex" unicode="&#x175;" horiz-adv-x="1622" 
d="M834 1174h-293l293 311h305l170 -311h-283l-61 165h-4zM510 0h-317l-89 1049h324l33 -639h4l311 639h260l62 -639h6l282 639h332l-501 -1049h-318l-63 664h-5z" />
    <glyph glyph-name="Ycircumflex" unicode="&#x176;" horiz-adv-x="1370" 
d="M795 1589h-293l293 312h305l170 -312h-283l-61 166h-4zM768 0h-369l105 541l-320 923h394l163 -622h4l408 622h393l-674 -923z" />
    <glyph glyph-name="ycircumflex" unicode="&#x177;" horiz-adv-x="1124" 
d="M575 1174h-292l292 311h306l170 -311h-283l-61 165h-5zM139 -362q-95 0 -192 20l49 250q50 -6 96 -6q26 0 42 1t44.5 6.5t48.5 16.5t41.5 33.5t36.5 54.5l-223 1035h330l114 -691h4l347 691h342l-623 -1121q-58 -104 -117 -165t-142 -93t-198 -32z" />
    <glyph glyph-name="Ydieresis" unicode="&#x178;" horiz-adv-x="1370" 
d="M842 1589h-328l66 291h327zM1268 1589h-328l66 291h327zM768 0h-369l105 541l-320 923h394l163 -622h4l408 622h393l-674 -923z" />
    <glyph glyph-name="Zacute" unicode="&#x179;" horiz-adv-x="1255" 
d="M950 1589h-245l169 312h369zM1092 0h-1141l59 301l836 858v4h-629l59 301h1080l-60 -301l-835 -858v-4h690z" />
    <glyph glyph-name="zacute" unicode="&#x17a;" horiz-adv-x="1024" 
d="M733 1174h-246l170 311h369zM877 0h-940l45 236l620 563v4h-469l49 246h879l-47 -236l-619 -563l-2 -4h531z" />
    <glyph glyph-name="Zdotaccent" unicode="&#x17b;" horiz-adv-x="1255" 
d="M1016 1589h-328l57 291h328zM1092 0h-1141l59 301l836 858v4h-629l59 301h1080l-60 -301l-835 -858v-4h690z" />
    <glyph glyph-name="zdotaccent" unicode="&#x17c;" horiz-adv-x="1024" 
d="M799 1174h-328l57 290h328zM877 0h-940l45 236l620 563v4h-469l49 246h879l-47 -236l-619 -563l-2 -4h531z" />
    <glyph glyph-name="Zcaron" unicode="&#x17d;" horiz-adv-x="1255" 
d="M1010 1589h-320l-158 312h277l59 -166h4l125 166h293zM1092 0h-1141l59 301l836 858v4h-629l59 301h1080l-60 -301l-835 -858v-4h690z" />
    <glyph glyph-name="zcaron" unicode="&#x17e;" horiz-adv-x="1024" 
d="M793 1174h-320l-158 311h277l59 -166h4l125 166h293zM877 0h-940l45 236l620 563v4h-469l49 246h879l-47 -236l-619 -563l-2 -4h531z" />
    <glyph glyph-name="florin" unicode="&#x192;" horiz-adv-x="851" 
d="M840 1237q-68 0 -96.5 -36.5t-47.5 -129.5l-24 -129h170l-8 -246h-211l-121 -622q-37 -191 -126 -276t-251 -85q-80 0 -178 23l-15 233q54 -10 101 -10q75 0 103.5 36t47.5 130l111 571h-133l8 246h174l35 180q37 191 131 276t268 85q87 0 193 -23l-64 -233
q-34 10 -67 10z" />
    <glyph glyph-name="uni0218" unicode="&#x218;" horiz-adv-x="1343" 
d="M799 889q204 -76 280 -119q143 -82 182 -201q18 -54 17 -120q-1 -102 -42.5 -189.5t-119.5 -153t-200 -102.5t-275 -37q-292 0 -454.5 141.5t-153.5 383.5h373q-24 -113 43 -170.5t198 -57.5q118 0 183 43t65 111q0 45 -35.5 79t-76.5 51.5t-141 52.5q-31 11 -48 17
q-66 23 -115 44t-99 48.5t-84.5 58.5t-62.5 70.5t-41.5 88.5t-13.5 108q0 212 169.5 336.5t443.5 124.5q279 0 422.5 -127t146.5 -350h-367q9 92 -49 139t-176 47q-98 0 -154.5 -35t-56.5 -100q0 -62 50.5 -95.5t191.5 -86.5zM535 -309h-148l41 209h311l-41 -209
q-19 -93 -111.5 -154t-244.5 -76l18 97q151 17 175 133z" />
    <glyph glyph-name="uni0219" unicode="&#x219;" horiz-adv-x="1044" 
d="M1018 729h-301q5 67 -32 101t-122 34q-70 0 -108.5 -23.5t-38.5 -66.5q0 -16 5 -29.5t18 -24.5t24 -18.5t35.5 -16.5t39.5 -14t48.5 -15t50.5 -15q76 -23 128.5 -46.5t102.5 -59.5t75.5 -87.5t25.5 -117.5q0 -70 -29.5 -133t-88 -115.5t-158.5 -83.5t-228 -31
q-105 0 -188.5 21.5t-136.5 57.5t-87 86t-46.5 103.5t-8.5 112.5h299q-4 -78 40.5 -116.5t137.5 -38.5q80 0 123 26.5t43 73.5q0 18 -5.5 32.5t-20 26t-27 20t-38.5 18t-41.5 14.5t-49 15t-49.5 15q-55 17 -93.5 32t-83.5 40.5t-72.5 54.5t-46 73t-18.5 97q0 152 133 251
t353 99q119 0 209 -31t140 -82.5t72 -112.5t15 -126zM391 -309h-147l41 209h311l-41 -209q-19 -93 -111.5 -154t-244.5 -76l18 97q150 17 174 133z" />
    <glyph glyph-name="uni021A" unicode="&#x21a;" horiz-adv-x="1280" 
d="M154 1163l59 301h1219l-60 -301h-424l-225 -1163h-369l226 1163h-426zM471 -309h-147l41 209h311l-41 -209q-19 -93 -111.5 -154t-244.5 -76l18 97q150 17 174 133z" />
    <glyph glyph-name="uni021B" unicode="&#x21b;" horiz-adv-x="749" 
d="M739 803h-182l-88 -455q-16 -78 5.5 -100.5t76.5 -22.5q35 0 90 8l-45 -231q-102 -22 -199 -22q-172 0 -233.5 84.5t-24.5 275.5l90 463h-145l47 246h145l58 292h328l-58 -292h182zM309 -289h-147l41 209h311l-41 -209q-19 -93 -111.5 -153.5t-244.5 -75.5l18 96
q150 17 174 133z" />
    <glyph glyph-name="uni0237" unicode="&#x237;" horiz-adv-x="512" 
d="M-84 -375q-84 0 -178 21l49 250q54 -7 74 -7q55 0 85 23.5t46 101.5l201 1035h327l-196 -1018q-38 -199 -136.5 -302.5t-271.5 -103.5z" />
    <glyph glyph-name="circumflex" unicode="&#x2c6;" horiz-adv-x="921" 
d="M487 1174h-292l292 311h306l170 -311h-283l-62 165h-4z" />
    <glyph glyph-name="caron" unicode="&#x2c7;" horiz-adv-x="921" 
d="M745 1174h-319l-158 311h277l59 -166h4l125 166h293z" />
    <glyph glyph-name="breve" unicode="&#x2d8;" horiz-adv-x="819" 
d="M539 1153q-146 0 -222 85t-53 226h180q-5 -53 24 -81.5t95 -28.5q64 0 105 29t55 81h197q-34 -142 -131.5 -226.5t-249.5 -84.5z" />
    <glyph glyph-name="dotaccent" unicode="&#x2d9;" horiz-adv-x="491" 
d="M532 1174h-327l65 290h328z" />
    <glyph glyph-name="ring" unicode="&#x2da;" horiz-adv-x="581" 
d="M418 1061q-98 0 -152.5 52t-54.5 144q0 106 72 173t176 67q98 0 152.5 -52t54.5 -145q0 -106 -72 -172.5t-176 -66.5zM422 1184q48 0 79 34t31 82q0 37 -21 55.5t-56 18.5q-48 0 -79.5 -34.5t-31.5 -82.5q0 -37 21 -55t57 -18z" />
    <glyph glyph-name="ogonek" unicode="&#x2db;" horiz-adv-x="563" 
d="M143 -362q-204 0 -204 143q0 65 49.5 124.5t134.5 94.5h207q-49 -19 -87 -53t-38 -70q0 -47 57 -47q32 0 86 14l-35 -184q-90 -22 -170 -22z" />
    <glyph glyph-name="tilde" unicode="&#x2dc;" horiz-adv-x="872" 
d="M379 1143h-178q58 301 241 301q47 0 95.5 -20.5t91.5 -41t76 -20.5q72 0 88 82h176q-32 -156 -92 -228.5t-150 -72.5q-47 0 -95.5 20t-91.5 40t-75 20q-71 0 -86 -80z" />
    <glyph glyph-name="hungarumlaut" unicode="&#x2dd;" horiz-adv-x="1071" 
d="M618 1174h-235l143 311h295zM979 1174h-236l177 311h307z" />
    <glyph glyph-name="gravecomb" unicode="&#x300;" 
d="M537 1174h-246l-232 311h369z" />
    <glyph glyph-name="acutecomb" unicode="&#x301;" 
d="M514 1174h-246l170 311h369z" />
    <glyph glyph-name="uni0302" unicode="&#x302;" 
d="M487 1174h-292l292 311h306l170 -311h-283l-62 165h-4z" />
    <glyph glyph-name="tildecomb" unicode="&#x303;" 
d="M379 1143h-178q58 301 241 301q47 0 95.5 -20.5t91.5 -41t76 -20.5q72 0 88 82h176q-32 -156 -92 -228.5t-150 -72.5q-47 0 -95.5 20t-91.5 40t-75 20q-71 0 -86 -80z" />
    <glyph glyph-name="uni0304" unicode="&#x304;" 
d="M795 1174h-586l39 204h586z" />
    <glyph glyph-name="uni0306" unicode="&#x306;" 
d="M539 1153q-146 0 -222 85t-53 226h180q-5 -53 24 -81.5t95 -28.5q64 0 105 29t55 81h197q-34 -142 -131.5 -226.5t-249.5 -84.5z" />
    <glyph glyph-name="uni0307" unicode="&#x307;" 
d="M537 1174h-328l57 290h328z" />
    <glyph glyph-name="uni0308" unicode="&#x308;" 
d="M547 1174h-328l66 290h327zM973 1174h-328l66 290h327z" />
    <glyph glyph-name="uni030A" unicode="&#x30a;" 
d="M418 1130q-98 0 -152.5 52t-54.5 145q0 106 72 173t176 67q98 0 152.5 -52t54.5 -145q0 -106 -72 -173t-176 -67zM422 1253q48 0 79 34t31 83q0 37 -21 55.5t-56 18.5q-48 0 -79.5 -34.5t-31.5 -82.5q0 -37 21.5 -55.5t56.5 -18.5z" />
    <glyph glyph-name="uni030B" unicode="&#x30b;" 
d="M618 1174h-235l143 311h295zM979 1174h-236l177 311h307z" />
    <glyph glyph-name="uni030C" unicode="&#x30c;" 
d="M745 1174h-319l-158 311h277l59 -166h4l125 166h293z" />
    <glyph glyph-name="uni0312" unicode="&#x312;" 
d="M604 1616l-18 -96q-152 -18 -174 -136h147l-41 -210h-311l41 210q17 95 110.5 157t245.5 75z" />
    <glyph glyph-name="uni0326" unicode="&#x326;" 
d="M-80 -309l41 209h311l-41 -209q-19 -93 -111.5 -154t-244.5 -76l19 97q150 17 174 133h-148z" />
    <glyph glyph-name="uni0327" unicode="&#x327;" 
d="M113 -406q-132 0 -217 68l75 72q60 -31 123 -31q49 0 78 20t29 54q0 41 -60 41q-33 0 -80 -15l-24 70l135 127h147l-92 -98l-2 -4q83 9 137 -21.5t54 -89.5q0 -83 -86 -138t-217 -55z" />
    <glyph glyph-name="uni0328" unicode="&#x328;" 
d="M143 -362q-204 0 -204 143q0 65 49.5 124.5t134.5 94.5h207q-49 -19 -87 -53t-38 -70q0 -47 57 -47q32 0 86 14l-35 -184q-90 -22 -170 -22z" />
    <glyph glyph-name="uni0335" unicode="&#x335;" 
d="M1026 666h-917l34 184h918z" />
    <glyph glyph-name="uni0336" unicode="&#x336;" 
d="M1200 586h-1106l60 301h1106z" />
    <glyph glyph-name="uni0337" unicode="&#x337;" 
d="M1270 987l-1209 -1014l-69 88l1206 1012z" />
    <glyph glyph-name="uni0338" unicode="&#x338;" 
d="M1270 987l-1209 -1014l-69 88l1206 1012z" />
    <glyph glyph-name="uni0394" unicode="&#x394;" horiz-adv-x="1402" 
d="M686 1464h401l234 -1163l-57 -301h-1319l57 301zM829 1126h-18l-469 -835h633z" />
    <glyph glyph-name="uni03A9" unicode="&#x3a9;" horiz-adv-x="1642" 
d="M616 0h-647l60 299h333q-113 71 -166 170t-53 244q0 164 65 308.5t178 248t274.5 163.5t347.5 60q289 0 449.5 -138t160.5 -382q0 -205 -108.5 -389.5t-295.5 -284.5h314l-60 -299h-647l53 276q170 95 273.5 266.5t103.5 356.5q0 299 -290 299q-91 0 -168.5 -29
t-133 -79.5t-94.5 -119.5t-57.5 -148.5t-18.5 -166.5q0 -135 45.5 -223.5t135.5 -155.5z" />
    <glyph glyph-name="uni03BC" unicode="&#x3bc;" horiz-adv-x="1196" 
d="M760 432l119 617h327l-202 -1049h-328l29 152h-5q-44 -79 -111 -129t-151 -50q-91 0 -127 54l-73 -389h-320l275 1411h327l-119 -605q-21 -106 9.5 -158.5t117.5 -52.5q92 0 151.5 54t80.5 145z" />
    <glyph glyph-name="pi" unicode="&#x3c0;" horiz-adv-x="1263" 
d="M1260 803h-164l-90 -455q-16 -77 2.5 -100t64.5 -23q27 0 68 8l-45 -231q-87 -22 -178 -22q-164 0 -222 84.5t-20 275.5l92 463h-188l-160 -803h-328l160 803h-166l49 246h1174z" />
    <glyph glyph-name="uni0400" unicode="&#x400;" horiz-adv-x="1314" 
d="M991 1589h-246l-231 312h369zM1143 0h-1123l285 1464h1110l-59 -301h-742l-49 -260h639l-59 -301h-639l-57 -301h753z" />
    <glyph glyph-name="uni0401" unicode="&#x401;" horiz-adv-x="1314" 
d="M838 1589h-328l65 291h328zM1264 1589h-328l65 291h328zM1143 0h-1123l285 1464h1110l-59 -301h-742l-49 -260h639l-59 -301h-639l-57 -301h753z" />
    <glyph glyph-name="uni0402" unicode="&#x402;" horiz-adv-x="1564" 
d="M926 -375q-133 0 -238 31l60 311q31 -12 76.5 -21t66.5 -9q29 0 46 3t37 13.5t33 35.5t21 66l84 428q19 99 -25 154t-151 55q-104 0 -181.5 -62.5t-97.5 -166.5l-90 -463h-368l225 1163h-264l57 301h1073l-57 -301h-440l-72 -372h4q65 103 186.5 155.5t247.5 52.5
q201 0 288.5 -116.5t45.5 -337.5l-107 -545q-41 -182 -162 -278.5t-298 -96.5z" />
    <glyph glyph-name="uni0403" unicode="&#x403;" horiz-adv-x="1107" 
d="M971 1589h-246l170 312h369zM389 0h-369l285 1464h955l-60 -301h-584z" />
    <glyph glyph-name="uni0404" unicode="&#x404;" horiz-adv-x="1468" 
d="M903 1192q-75 0 -139.5 -25t-112 -70t-82 -99.5t-59.5 -120.5h422l-47 -246h-430q-2 -20 -2 -62q0 -142 69.5 -221.5t190.5 -79.5q139 0 225.5 68.5t116.5 179.5h372q-57 -243 -252 -394t-481 -151q-179 0 -316 65t-215.5 195t-78.5 310q0 148 35 285.5t109 259t179 212
t255 143t327 52.5q102 0 190 -29t150 -79t105 -115.5t61 -139.5t12 -149h-372q0 90 -61 150.5t-171 60.5z" />
    <glyph glyph-name="uni0405" unicode="&#x405;" horiz-adv-x="1343" 
d="M641 -33q-292 0 -454.5 141.5t-153.5 383.5h373q-24 -113 43 -170.5t198 -57.5q118 0 183 43t65 111q0 45 -35.5 79t-76.5 51.5t-141 52.5q-31 11 -48 17q-66 23 -115 44t-99 48.5t-84.5 58.5t-62.5 70.5t-41.5 88.5t-13.5 108q0 212 169.5 336.5t443.5 124.5
q279 0 422.5 -127t146.5 -350h-367q9 92 -49 139t-176 47q-98 0 -154.5 -35t-56.5 -100q0 -62 50.5 -95.5t191.5 -86.5q204 -76 280 -119q143 -82 182 -201q18 -54 17 -120q-1 -102 -42.5 -189.5t-119.5 -153t-200 -102.5t-275 -37z" />
    <glyph glyph-name="uni0406" unicode="&#x406;" horiz-adv-x="614" 
d="M389 0h-369l285 1464h369z" />
    <glyph glyph-name="uni0407" unicode="&#x407;" horiz-adv-x="614" 
d="M461 1589h-328l66 291h327zM887 1589h-328l66 291h327zM389 0h-369l285 1464h369z" />
    <glyph glyph-name="uni0408" unicode="&#x408;" horiz-adv-x="1146" 
d="M444 -33q-97 0 -173 18.5t-125.5 53t-82 80.5t-45 105.5t-11.5 124t16 138.5l24 123h328l-25 -123q-23 -110 1 -164.5t110 -54.5q85 0 130 54t66 165l191 977h369l-191 -977q-15 -75 -35 -137t-51.5 -123t-76 -106.5t-103 -81t-139 -54t-177.5 -18.5z" />
    <glyph glyph-name="uni0409" unicode="&#x409;" horiz-adv-x="2066" 
d="M117 -31q-64 0 -125 7t-80 18l61 315q54 -20 125 -20q56 0 91 38.5t57 123.5l260 1013h975l-88 -452h161q217 0 353.5 -105.5t136.5 -281.5q0 -129 -50 -244t-138 -199t-215.5 -133t-274.5 -49h-539l226 1163h-285l-195 -755q-113 -439 -456 -439zM1335 711l-80 -410h160
q116 0 188 77t72 167q0 81 -37.5 123.5t-111.5 42.5h-191z" />
    <glyph glyph-name="uni040A" unicode="&#x40a;" horiz-adv-x="2107" 
d="M389 0h-369l285 1464h369l-101 -514h471l101 514h368l-88 -514h162q217 0 353.5 -105.5t136.5 -281.5q0 -258 -187 -410.5t-491 -152.5h-539l127 649h-471zM1368 649l-80 -348h160q120 0 190 58.5t70 144.5q0 78 -36 111.5t-113 33.5h-191z" />
    <glyph glyph-name="uni040B" unicode="&#x40b;" horiz-adv-x="1564" 
d="M567 0h-368l225 1163h-264l57 301h1073l-57 -301h-440l-72 -372h4q65 103 186.5 155.5t247.5 52.5q201 0 288.5 -116.5t45.5 -337.5l-107 -545h-368l94 483q19 99 -25 154t-151 55q-104 0 -181.5 -62.5t-97.5 -166.5z" />
    <glyph glyph-name="uni040C" unicode="&#x40c;" horiz-adv-x="1470" 
d="M956 1901h369l-293 -312h-246zM1241 1464h434l-739 -759l461 -705h-449l-325 555h-125l-109 -555h-369l285 1464h369l-119 -608h125z" />
    <glyph glyph-name="uni040D" unicode="&#x40d;" horiz-adv-x="1546" 
d="M1065 1589h-246l-231 312h368zM389 0h-369l285 1464h369l-168 -868h4l727 868h369l-285 -1464h-369l168 868h-4z" />
    <glyph glyph-name="uni040E" unicode="&#x40e;" horiz-adv-x="1402" 
d="M897 1573q-146 0 -221.5 84.5t-52.5 226.5h180q-5 -53 24 -81.5t95 -28.5q63 0 104 29t55 81h197q-34 -142 -131.5 -226.5t-249.5 -84.5zM545 0h-387l311 438l-270 1026h381l145 -661h4l457 661h383z" />
    <glyph glyph-name="uni040F" unicode="&#x40f;" horiz-adv-x="1464" 
d="M754 -268h-328l51 268h-457l285 1464h369l-225 -1163h479l227 1163h369l-283 -1464h-436z" />
    <glyph glyph-name="uni0410" unicode="&#x410;" horiz-adv-x="1445" 
d="M279 0h-381l817 1464h375l262 -1464h-383l-35 305h-502zM842 1126l-271 -540h336l-61 540h-4z" />
    <glyph glyph-name="uni0411" unicode="&#x411;" horiz-adv-x="1304" 
d="M612 0h-592l285 1464h995l-59 -301h-625l-43 -213h244q222 0 338.5 -95t116.5 -263q0 -174 -86 -309.5t-236.5 -209t-337.5 -73.5zM516 649l-67 -348h213q109 0 168 65.5t59 157.5q0 58 -35.5 91.5t-105.5 33.5h-232z" />
    <glyph glyph-name="uni0412" unicode="&#x412;" horiz-adv-x="1417" 
d="M772 0h-752l285 1464h690q204 0 311 -81.5t107 -231.5q0 -144 -88 -242t-219 -129v-4q242 -54 242 -293q0 -213 -158 -348t-418 -135zM559 872h246q102 0 164.5 45.5t62.5 131.5q0 64 -39.5 89t-124.5 25h-254zM449 301h256q136 0 208 51t72 154q0 82 -48 111.5
t-159 29.5h-264z" />
    <glyph glyph-name="uni0413" unicode="&#x413;" horiz-adv-x="1107" 
d="M389 0h-369l285 1464h955l-60 -301h-584z" />
    <glyph glyph-name="uni0414" unicode="&#x414;" horiz-adv-x="1574" 
d="M186 -266h-327l110 565h107q85 0 133 81t100 288l195 796h1044l-225 -1165h154l-111 -565h-328l52 264h-852zM496 303v-4h458l166 864h-346l-139 -579q-46 -188 -139 -281z" />
    <glyph glyph-name="uni0415" unicode="&#x415;" horiz-adv-x="1314" 
d="M1143 0h-1123l285 1464h1110l-59 -301h-742l-49 -260h639l-59 -301h-639l-57 -301h753z" />
    <glyph glyph-name="uni0416" unicode="&#x416;" horiz-adv-x="2045" 
d="M1829 1464h393l-588 -739l318 -725h-416l-223 555h-105l-108 -555h-369l109 555h-105l-399 -555h-457l608 733l-278 731h362l222 -608h104l119 608h368l-118 -608h104z" />
    <glyph glyph-name="uni0417" unicode="&#x417;" horiz-adv-x="1316" 
d="M600 -35q-187 0 -324 57.5t-204.5 165t-51.5 250.5h377q0 -172 230 -172q97 0 173.5 58t76.5 149q0 64 -59.5 97.5t-151.5 33.5h-174l47 246h166q94 0 149 64t55 137q0 57 -54 101t-124 44q-81 0 -135.5 -43t-67.5 -121h-376q105 465 639 465q209 0 348 -100t139 -258
q0 -146 -88.5 -242.5t-243.5 -144.5l-2 -4q52 -9 102 -31.5t96 -59t74.5 -92.5t28.5 -123q0 -105 -56.5 -196.5t-148 -152t-206.5 -94.5t-234 -34z" />
    <glyph glyph-name="uni0418" unicode="&#x418;" horiz-adv-x="1546" 
d="M389 0h-369l285 1464h369l-168 -868h4l727 868h369l-285 -1464h-369l168 868h-4z" />
    <glyph glyph-name="uni0419" unicode="&#x419;" horiz-adv-x="1546" 
d="M969 1573q-146 0 -222 85t-53 226h180q-5 -53 24 -81.5t95 -28.5q64 0 105 29t55 81h197q-34 -142 -131.5 -226.5t-249.5 -84.5zM389 0h-369l285 1464h369l-168 -868h4l727 868h369l-285 -1464h-369l168 868h-4z" />
    <glyph glyph-name="uni041A" unicode="&#x41a;" horiz-adv-x="1470" 
d="M1241 1464h434l-739 -759l461 -705h-449l-325 555h-125l-109 -555h-369l285 1464h369l-119 -608h125z" />
    <glyph glyph-name="uni041B" unicode="&#x41b;" horiz-adv-x="1462" 
d="M117 -31q-64 0 -125 7t-80 18l61 315q54 -20 125 -20q56 0 91 38.5t57 123.5l260 1013h1016l-285 -1464h-369l228 1163h-328l-195 -755q-113 -439 -456 -439z" />
    <glyph glyph-name="uni041C" unicode="&#x41c;" horiz-adv-x="1753" 
d="M365 0h-345l285 1464h447l112 -970h4l480 970h464l-284 -1464h-344l176 911h-8l-453 -911h-250l-100 911h-8z" />
    <glyph glyph-name="uni041D" unicode="&#x41d;" horiz-adv-x="1484" 
d="M389 0h-369l285 1464h369l-111 -573h502l111 573h368l-284 -1464h-369l115 590h-502z" />
    <glyph glyph-name="uni041E" unicode="&#x41e;" horiz-adv-x="1581" 
d="M729 -33q-303 0 -470 165t-167 452q0 188 58 354t163.5 290t264.5 196.5t350 72.5q305 0 473 -164t168 -450q0 -186 -58 -351.5t-163.5 -291.5t-265.5 -199.5t-353 -73.5zM745 268q109 0 197.5 52.5t143.5 139.5t84.5 193t29.5 219q0 151 -72.5 237.5t-209.5 86.5
q-108 0 -197 -52.5t-144.5 -139t-85.5 -193.5t-30 -221q0 -150 72.5 -236t211.5 -86z" />
    <glyph glyph-name="uni041F" unicode="&#x41f;" horiz-adv-x="1464" 
d="M389 0h-369l285 1464h1219l-285 -1464h-369l228 1163h-482z" />
    <glyph glyph-name="uni0420" unicode="&#x420;" horiz-adv-x="1363" 
d="M389 0h-369l285 1464h670q459 0 459 -377q0 -156 -75 -282.5t-213 -200.5t-312 -74h-342zM551 831h256q118 0 185 57t67 152q0 67 -42.5 95t-133.5 28h-269z" />
    <glyph glyph-name="uni0421" unicode="&#x421;" horiz-adv-x="1474" 
d="M659 -33q-275 0 -422 158t-147 444q0 189 63.5 359t174.5 295.5t272.5 199.5t347.5 74q295 0 439.5 -157.5t117.5 -419.5h-377q13 276 -221 276q-87 0 -161.5 -34.5t-127.5 -94t-91 -138t-56 -166.5t-18 -179q0 -161 54.5 -238.5t186.5 -77.5q147 0 231.5 73t131.5 208
h377q-37 -128 -105.5 -233t-164.5 -183.5t-225.5 -122t-279.5 -43.5z" />
    <glyph glyph-name="uni0422" unicode="&#x422;" horiz-adv-x="1280" 
d="M723 0h-369l226 1163h-426l59 301h1219l-60 -301h-424z" />
    <glyph glyph-name="uni0423" unicode="&#x423;" horiz-adv-x="1402" 
d="M545 0h-387l311 438l-270 1026h381l145 -661h4l457 661h383z" />
    <glyph glyph-name="uni0424" unicode="&#x424;" horiz-adv-x="1665" 
d="M1661 821q0 -134 -56 -248.5t-154.5 -196t-229 -135t-283.5 -73.5l-33 -168h-348l33 168q-236 34 -372 158t-136 311q0 177 97.5 319.5t260 227.5t369.5 112l33 168h348l-33 -170q227 -36 365.5 -162.5t138.5 -310.5zM1104 1020l-113 -574q137 39 219 131t82 218
q0 82 -49.5 139.5t-138.5 85.5zM451 664q0 -84 50 -140.5t142 -81.5l113 576q-137 -39 -221 -133t-84 -221z" />
    <glyph glyph-name="uni0425" unicode="&#x425;" horiz-adv-x="1361" 
d="M289 0h-410l631 748l-305 716h389l182 -446h4l357 446h389l-588 -719l344 -745h-410l-198 475h-4z" />
    <glyph glyph-name="uni0426" unicode="&#x426;" horiz-adv-x="1558" 
d="M1352 -268h-328l51 268h-1055l285 1464h369l-225 -1163h479l227 1163h369l-226 -1163h164z" />
    <glyph glyph-name="uni0427" unicode="&#x427;" horiz-adv-x="1370" 
d="M1145 0h-369l123 633h-4q-82 -96 -196.5 -152.5t-227.5 -56.5q-186 0 -273.5 123t-47.5 332l112 585h369l-103 -524q-19 -96 26.5 -152.5t141.5 -56.5q131 0 248 131l117 602h369z" />
    <glyph glyph-name="uni0428" unicode="&#x428;" horiz-adv-x="1988" 
d="M1763 0h-1743l285 1464h369l-225 -1163h317l225 1163h369l-225 -1163h317l225 1163h369z" />
    <glyph glyph-name="uni0429" unicode="&#x429;" horiz-adv-x="2080" 
d="M1874 -268h-328l51 268h-1577l285 1464h369l-225 -1163h317l225 1163h369l-225 -1163h317l225 1163h369l-225 -1163h164z" />
    <glyph glyph-name="uni042A" unicode="&#x42a;" horiz-adv-x="1525" 
d="M825 0h-600l226 1163h-301l57 301h672l-88 -452h223q217 0 353 -105.5t136 -281.5q0 -129 -50 -244t-138 -199t-215.5 -133t-274.5 -49zM733 711l-80 -410h221q79 0 140.5 39t91 93.5t29.5 111.5q0 80 -38 123t-112 43h-252z" />
    <glyph glyph-name="uni042B" unicode="&#x42b;" horiz-adv-x="1845" 
d="M559 0h-539l285 1464h369l-88 -452h162q217 0 353 -105.5t136 -281.5q0 -129 -50 -244t-138 -199t-215.5 -133t-274.5 -49zM1620 0h-369l285 1464h369zM528 711l-79 -410h159q116 0 188 77t72 167q0 81 -37.5 123.5t-111.5 42.5h-191z" />
    <glyph glyph-name="uni042C" unicode="&#x42c;" horiz-adv-x="1320" 
d="M621 0h-601l285 1464h369l-88 -452h223q217 0 353 -105.5t136 -281.5q0 -129 -50 -244t-137.5 -199t-215 -133t-274.5 -49zM528 711l-79 -410h221q116 0 188 77t72 167q0 80 -38 123t-112 43h-252z" />
    <glyph glyph-name="uni042D" unicode="&#x42d;" horiz-adv-x="1501" 
d="M881 1493q128 0 239.5 -44t192.5 -122t127.5 -191.5t46.5 -246.5q0 -197 -59.5 -366.5t-165.5 -291.5t-260.5 -191t-337.5 -69q-200 0 -350 74t-221 198t-54 273h377q-5 -110 69 -177t215 -67q134 0 234 96.5t143 262.5h-450l47 246h432q-3 139 -82.5 227t-202.5 88
q-101 0 -189.5 -59.5t-125.5 -151.5h-377q63 227 270 369.5t482 142.5z" />
    <glyph glyph-name="uni042E" unicode="&#x42e;" horiz-adv-x="2050" 
d="M1507 1497q253 0 397 -142.5t144 -383.5q0 -144 -30.5 -285t-95 -271.5t-156.5 -229.5t-225 -158.5t-290 -59.5q-249 0 -393.5 151.5t-144.5 393.5q0 26 4 84h-211l-117 -596h-369l285 1464h369l-111 -567h213q31 95 74 179t107.5 162.5t142.5 135t182.5 90t224.5 33.5z
M1290 268q78 0 145 48t110.5 121.5t75 163.5t45 172.5t13.5 150.5q0 132 -56.5 202t-152.5 70q-79 0 -146 -47.5t-110.5 -121t-74.5 -163t-44.5 -171.5t-13.5 -150q0 -132 56.5 -203.5t152.5 -71.5z" />
    <glyph glyph-name="uni042F" unicode="&#x42f;" horiz-adv-x="1411" 
d="M338 0h-414l2 12q22 30 54.5 93t62 126.5t76.5 137.5t98 133.5t126 106.5t161 63v4q-131 33 -218 117.5t-87 191.5q0 234 164.5 356.5t457.5 122.5h652l-287 -1464h-371l103 510h-164q-73 0 -133 -30t-97.5 -75.5t-68.5 -106t-48.5 -113.5t-36.5 -107t-32 -78zM754 791
h217l73 372h-284q-93 0 -143 -56t-50 -134q0 -79 55.5 -130.5t131.5 -51.5z" />
    <glyph glyph-name="uni0430" unicode="&#x430;" horiz-adv-x="1169" 
d="M301 -33q-141 0 -219 69.5t-78 196.5q0 74 27.5 133.5t70.5 99.5t109 72.5t128.5 51.5t143.5 37q54 12 82 18.5t69 18t61.5 22t42.5 25t31 33t9 40.5q0 80 -125 80q-88 0 -139.5 -38t-75.5 -117h-309q38 168 177 271t384 103q113 0 193 -24t134.5 -78t66.5 -141t-11 -213
l-80 -385q-11 -46 -3 -63t46 -17q7 0 17 2l-33 -168q-111 -19 -170 -19q-188 0 -188 150h-5q-58 -73 -150 -116.5t-206 -43.5zM455 197q203 0 258 233l20 86q-40 -22 -73.5 -33.5t-129.5 -33.5q-100 -23 -146 -56t-46 -94q0 -51 31.5 -76.5t85.5 -25.5z" />
    <glyph glyph-name="uni0431" unicode="&#x431;" horiz-adv-x="1208" 
d="M512 -35q-219 0 -337 119t-118 348q0 75 11.5 156.5t37 169.5t62.5 170.5t92 159t122 136t155.5 100.5t189.5 54l211 27q74 10 112.5 26t41.5 33h245q-15 -76 -47 -132t-78.5 -89.5t-97 -51.5t-113.5 -26l-260 -32q-134 -16 -234 -104.5t-145 -252.5h5q50 96 132.5 167
t174 105.5t182.5 34.5q152 0 238 -99t86 -282q0 -148 -44.5 -280.5t-127.5 -234.5t-211 -162t-285 -60zM559 211q67 0 125.5 44t94.5 109t56.5 134t20.5 125q0 99 -42.5 157t-113.5 58q-85 0 -160.5 -64t-117 -157t-41.5 -185q0 -102 49 -161.5t129 -59.5z" />
    <glyph glyph-name="uni0432" unicode="&#x432;" horiz-adv-x="1122" 
d="M553 0h-563l203 1049h540q158 0 247 -69t89 -185q0 -85 -74.5 -155.5t-183.5 -92.5v-4q45 -4 83 -16t73.5 -34.5t56 -61.5t20.5 -91q0 -152 -140 -246t-351 -94zM471 803l-33 -172h201q49 0 77.5 30.5t28.5 63.5q0 78 -90 78h-184zM399 426l-34 -180h219q137 0 137 110
q0 37 -22.5 53.5t-77.5 16.5h-222z" />
    <glyph glyph-name="uni0433" unicode="&#x433;" horiz-adv-x="858" 
d="M317 0h-327l205 1049h745l-49 -246h-418z" />
    <glyph glyph-name="uni0434" unicode="&#x434;" horiz-adv-x="1296" 
d="M1214 1049l-155 -803h143l-100 -512h-307l53 266h-629l-51 -266h-307l100 512h82q64 0 102 32.5t58 106.5l172 664h839zM461 250v-4h270l109 557h-211l-107 -410q-24 -93 -61 -143z" />
    <glyph glyph-name="uni0435" unicode="&#x435;" horiz-adv-x="1179" 
d="M1120 436h-766v-16q0 -114 51 -161.5t142 -47.5q86 0 140.5 35.5t64.5 83.5h333q-75 -175 -219 -270t-352 -95q-236 0 -354.5 120.5t-118.5 352.5q0 129 44.5 245t125 205.5t204 142t271.5 52.5q124 0 214 -32.5t141.5 -94.5t75.5 -141.5t24 -183.5q0 -79 -21 -195z
M662 848q-105 0 -175 -56t-102 -153h438q18 101 -25 155t-136 54z" />
    <glyph glyph-name="uni0436" unicode="&#x436;" horiz-adv-x="1669" 
d="M279 0h-394l449 530l-242 519h352l189 -412h61l80 412h328l-80 -412h61l349 412h370l-481 -560l223 -489h-356l-160 391h-55l-76 -391h-328l76 391h-55z" />
    <glyph glyph-name="uni0437" unicode="&#x437;" horiz-adv-x="1056" 
d="M420 -35q-99 0 -182.5 23t-144.5 66t-88 113t-11 157h319q-11 -56 35.5 -84.5t118.5 -28.5q70 0 125 34.5t55 98.5q0 82 -117 82h-147l39 205h141q65 0 103.5 28.5t38.5 75.5q0 48 -37.5 75.5t-92.5 27.5q-69 0 -121 -29.5t-61 -77.5h-319q29 155 181.5 253.5t367.5 98.5
q115 0 205 -28t145 -88.5t55 -145.5q0 -113 -95 -198t-218 -82v-2q120 -14 188 -68.5t68 -146.5q0 -160 -156.5 -259.5t-394.5 -99.5z" />
    <glyph glyph-name="uni0438" unicode="&#x438;" horiz-adv-x="1259" 
d="M317 0h-327l203 1044h327l-119 -614l541 614h328l-203 -1044h-328l121 614z" />
    <glyph glyph-name="uni0439" unicode="&#x439;" horiz-adv-x="1259" 
d="M758 1153q-146 0 -222 85t-53 226h181q-5 -53 23.5 -81.5t94.5 -28.5q64 0 105 29t55 81h197q-34 -142 -131.5 -226.5t-249.5 -84.5zM317 0h-327l203 1044h327l-119 -614l541 614h328l-203 -1044h-328l121 614z" />
    <glyph glyph-name="uni043A" unicode="&#x43a;" horiz-adv-x="1148" 
d="M879 1049h387l-482 -549l303 -500h-374l-224 391h-96l-76 -391h-327l205 1049h327l-80 -412h103z" />
    <glyph glyph-name="uni043B" unicode="&#x43b;" horiz-adv-x="1191" 
d="M70 -31q-100 0 -146 19l47 241q40 -14 80 -14q80 0 121 160l170 674h860l-203 -1049h-327l155 803h-241l-117 -465q-93 -369 -399 -369z" />
    <glyph glyph-name="uni043C" unicode="&#x43c;" horiz-adv-x="1443" 
d="M317 0h-327l205 1049h303l198 -676h4l482 676h274l-205 -1049h-327l84 426h-4l-291 -426h-205l-102 426h-5z" />
    <glyph glyph-name="uni043D" unicode="&#x43d;" horiz-adv-x="1218" 
d="M823 645l78 399h328l-203 -1044h-328l78 399h-381l-78 -399h-327l203 1044h327l-78 -399h381z" />
    <glyph glyph-name="uni043E" unicode="&#x43e;" horiz-adv-x="1216" 
d="M535 -35q-236 0 -366 120.5t-130 338.5q0 185 79.5 334.5t228 237t337.5 87.5q235 0 364.5 -120t129.5 -338q0 -185 -79.5 -335t-227.5 -237.5t-336 -87.5zM557 211q136 0 216.5 122t80.5 292q0 106 -51 159.5t-144 53.5q-91 0 -160 -59t-103 -152.5t-34 -202.5
q0 -106 51 -159.5t144 -53.5z" />
    <glyph glyph-name="uni043F" unicode="&#x43f;" horiz-adv-x="1198" 
d="M317 0h-327l205 1049h1015l-204 -1049h-328l158 803h-361z" />
    <glyph glyph-name="uni0440" unicode="&#x440;" horiz-adv-x="1232" 
d="M831 1081q172 0 269.5 -112.5t97.5 -311.5q0 -184 -77 -343t-210 -253t-288 -94q-108 0 -181 42.5t-102 94.5h-4l-90 -466h-328l275 1411h327l-20 -105h4q46 52 133 94.5t194 42.5zM573 213q64 0 119 35.5t90.5 94t55.5 131.5t20 149q0 213 -158 213q-85 0 -152.5 -61
t-101.5 -154.5t-34 -196.5q0 -106 42 -158.5t119 -52.5z" />
    <glyph glyph-name="uni0441" unicode="&#x441;" horiz-adv-x="1122" 
d="M500 -35q-215 0 -339 117t-124 328q0 107 25.5 206t78 184t126.5 148t177.5 99t225.5 36q227 0 342.5 -120.5t101.5 -309.5h-319q7 81 -28 133t-122 52q-128 0 -207.5 -123.5t-79.5 -292.5q0 -103 42 -157t124 -54q51 0 89.5 14.5t63 42.5t39.5 56.5t29 70.5h320
q-49 -193 -198 -311.5t-367 -118.5z" />
    <glyph glyph-name="uni0442" unicode="&#x442;" horiz-adv-x="1036" 
d="M580 0h-328l158 803h-336l49 246h995l-49 -246h-332z" />
    <glyph glyph-name="uni0443" unicode="&#x443;" horiz-adv-x="1124" 
d="M139 -362q-95 0 -192 20l49 250q50 -6 96 -6q26 0 42 1t44.5 6.5t48.5 16.5t41.5 33.5t36.5 54.5l-223 1035h330l114 -691h4l347 691h342l-623 -1121q-58 -104 -117 -165t-142 -93t-198 -32z" />
    <glyph glyph-name="uni0444" unicode="&#x444;" horiz-adv-x="1478" 
d="M1444 639q0 -174 -84.5 -314.5t-229 -227t-331.5 -115.5l-68 -344h-328l68 344q-113 17 -200.5 59t-147.5 110t-80.5 161t0.5 212q44 223 213.5 367.5t425.5 179.5l76 393h327l-75 -393q207 -32 320.5 -144.5t113.5 -287.5zM367 524q-23 -108 17.5 -184.5t133.5 -110.5
l115 594q-105 -36 -174.5 -113.5t-91.5 -185.5zM961 821l-115 -590q123 42 196.5 139t73.5 226q0 80 -40 138t-115 87z" />
    <glyph glyph-name="uni0445" unicode="&#x445;" horiz-adv-x="1062" 
d="M240 0h-369l471 541l-225 508h348l115 -297h4l221 297h348l-428 -519l264 -530h-368l-134 319h-4z" />
    <glyph glyph-name="uni0446" unicode="&#x446;" horiz-adv-x="1292" 
d="M1098 -266h-307l53 266h-854l205 1049h327l-155 -803h360l156 803h327l-155 -803h143z" />
    <glyph glyph-name="uni0447" unicode="&#x447;" horiz-adv-x="1124" 
d="M932 0h-328l80 416h-2q-60 -64 -150 -102t-182 -38q-157 0 -231 87.5t-45 236.5l86 444h327l-61 -321q-15 -83 18 -131.5t105 -48.5q48 0 89 22t89 70l80 409h328z" />
    <glyph glyph-name="uni0448" unicode="&#x448;" horiz-adv-x="1568" 
d="M1376 0h-1386l203 1049h307l-156 -803h234l155 803h307l-155 -803h233l156 803h307z" />
    <glyph glyph-name="uni0449" unicode="&#x449;" horiz-adv-x="1662" 
d="M1468 -266h-307l53 266h-1224l203 1049h307l-156 -803h234l155 803h307l-155 -803h233l156 803h307l-156 -803h144z" />
    <glyph glyph-name="uni044A" unicode="&#x44a;" horiz-adv-x="1214" 
d="M666 0h-523l156 803h-227l49 246h553l-62 -316h205q167 0 260.5 -75.5t93.5 -208.5q0 -191 -140 -320t-365 -129zM565 487l-47 -241h172q70 0 114 40t44 105q0 45 -29 70.5t-82 25.5h-172z" />
    <glyph glyph-name="uni044B" unicode="&#x44b;" horiz-adv-x="1533" 
d="M471 0h-481l203 1049h327l-61 -316h164q167 0 260.5 -75.5t93.5 -208.5q0 -191 -140.5 -320t-365.5 -129zM1341 0h-327l203 1044h327zM412 487l-47 -241h131q70 0 113.5 40t43.5 105q0 45 -28.5 70.5t-81.5 25.5h-131z" />
    <glyph glyph-name="uni044C" unicode="&#x44c;" horiz-adv-x="1060" 
d="M512 0h-522l203 1049h327l-61 -316h205q167 0 260.5 -75.5t93.5 -208.5q0 -191 -140.5 -320t-365.5 -129zM412 487l-47 -241h172q70 0 113.5 40t43.5 105q0 45 -28.5 70.5t-81.5 25.5h-172z" />
    <glyph glyph-name="uni044D" unicode="&#x44d;" horiz-adv-x="1148" 
d="M610 1083q246 0 373 -121t127 -331q0 -185 -75 -335t-222.5 -240.5t-343.5 -90.5q-222 0 -350 107t-119 293h319q11 -71 58.5 -112.5t134.5 -41.5q186 0 248 213h-334l41 205h319v18q0 191 -176 191q-79 0 -140.5 -37.5t-86.5 -112.5h-320q15 81 54 148t92 112t120 76
t137.5 45t143.5 14z" />
    <glyph glyph-name="uni044E" unicode="&#x44e;" horiz-adv-x="1570" 
d="M1157 1083q178 0 280.5 -107t102.5 -296q0 -131 -43 -258.5t-119 -229.5t-192 -164.5t-252 -62.5q-105 0 -182.5 35.5t-120.5 97.5t-62 137.5t-16 165.5h-158l-78 -401h-327l203 1044h327l-78 -397h158q72 204 221 320t336 116zM985 211q54 0 100.5 56.5t74 137
t42.5 156.5t15 125q0 152 -109 152q-61 0 -106.5 -55t-68 -137t-32.5 -153.5t-10 -127.5q0 -81 22 -117.5t72 -36.5z" />
    <glyph glyph-name="uni044F" unicode="&#x44f;" horiz-adv-x="1097" 
d="M272 0h-354l2 8q13 24 46 87t53 98.5t58 89.5t72 86t83 60t102 36l2 2q-107 20 -172.5 86t-65.5 149q0 159 118 253t308 94h586l-205 -1049h-327l63 326h-100q-39 0 -73 -15t-61 -45t-47 -59t-38.5 -72.5t-27.5 -69.5t-22 -65zM563 551h123l47 252h-168q-61 0 -102 -37.5
t-41 -116.5q0 -56 37.5 -77t103.5 -21z" />
    <glyph glyph-name="uni0450" unicode="&#x450;" horiz-adv-x="1179" 
d="M717 1485l108 -311h-245l-232 311h369zM1120 436h-766v-16q0 -114 51 -161.5t142 -47.5q86 0 140.5 35.5t64.5 83.5h333q-75 -175 -219 -270t-352 -95q-236 0 -354.5 120.5t-118.5 352.5q0 129 44.5 245t125 205.5t204 142t271.5 52.5q124 0 214 -32.5t141.5 -94.5
t75.5 -141.5t24 -183.5q0 -79 -21 -195zM662 848q-105 0 -175 -56t-102 -153h438q18 101 -25 155t-136 54z" />
    <glyph glyph-name="uni0451" unicode="&#x451;" horiz-adv-x="1179" 
d="M410 1464h327l-65 -290h-328zM836 1464h327l-65 -290h-328zM686 1083q124 0 214 -32.5t141.5 -94.5t75.5 -141.5t24 -183.5q0 -79 -21 -195h-766v-16q0 -114 51 -161.5t142 -47.5q86 0 140.5 35.5t64.5 83.5h333q-75 -175 -219 -270t-352 -95q-236 0 -354.5 120.5
t-118.5 352.5q0 129 44.5 245t125 205.5t204 142t271.5 52.5zM385 639h438q18 101 -25 155t-136 54q-105 0 -175 -56t-102 -153z" />
    <glyph glyph-name="uni0452" unicode="&#x452;" horiz-adv-x="1187" 
d="M565 -375q-83 0 -174 21l47 250q58 -7 111 -7q105 0 127 111l119 604q41 211 -125 211q-95 0 -157.5 -60t-78.5 -149l-119 -606h-327l231 1178h-104l35 184h104l20 102h328l-20 -102h338l-35 -184h-338l-53 -271h4q136 176 360 176q172 0 243 -109.5t27 -338.5l-124 -635
q-35 -179 -150.5 -277t-288.5 -98z" />
    <glyph glyph-name="uni0453" unicode="&#x453;" horiz-adv-x="858" 
d="M709 1169h-246l170 312h368zM317 0h-327l205 1049h745l-49 -246h-418z" />
    <glyph glyph-name="uni0454" unicode="&#x454;" horiz-adv-x="1138" 
d="M567 211q84 0 128.5 39t70.5 115h324q-32 -96 -74.5 -165.5t-106.5 -124.5t-154.5 -82.5t-209.5 -27.5q-240 0 -372 134t-132 352q0 116 40.5 227t115.5 202t194 147t262 56q109 0 200.5 -34.5t150 -91t92 -126t37.5 -143.5h-324q-6 68 -53 109t-135 41q-90 0 -149 -55.5
t-85 -153.5h338l-41 -205h-319q11 -213 202 -213z" />
    <glyph glyph-name="uni0455" unicode="&#x455;" horiz-adv-x="1044" 
d="M465 -33q-105 0 -188.5 21.5t-136.5 57.5t-87 86t-46.5 103.5t-8.5 112.5h299q-4 -78 40.5 -116.5t137.5 -38.5q80 0 123 26.5t43 73.5q0 18 -5.5 32.5t-20 26t-27 20t-38.5 18t-41.5 14.5t-49 15t-49.5 15q-55 17 -93.5 32t-83.5 40.5t-72.5 54.5t-46 73t-18.5 97
q0 152 133 251t353 99q119 0 209 -31t140 -82.5t72 -112.5t15 -126h-301q5 67 -32 101t-122 34q-70 0 -108.5 -23.5t-38.5 -66.5q0 -16 5 -29.5t18 -24.5t24 -18.5t35.5 -16.5t39.5 -14t48.5 -15t50.5 -15q76 -23 128.5 -46.5t102.5 -59.5t75.5 -87.5t25.5 -117.5
q0 -70 -29.5 -133t-88 -115.5t-158.5 -83.5t-228 -31z" />
    <glyph glyph-name="uni0456" unicode="&#x456;" horiz-adv-x="509" 
d="M545 1174h-328l57 290h328zM315 0h-327l205 1049h327z" />
    <glyph glyph-name="uni0457" unicode="&#x457;" horiz-adv-x="509" 
d="M348 1174h-246l66 290h246zM651 1174h-245l65 290h246zM315 0h-327l205 1049h327z" />
    <glyph glyph-name="uni0458" unicode="&#x458;" horiz-adv-x="512" 
d="M545 1174h-328l57 290h328zM-84 -375q-84 0 -178 21l49 250q54 -7 74 -7q55 0 85 23.5t46 101.5l201 1035h327l-196 -1018q-38 -199 -136.5 -302.5t-271.5 -103.5z" />
    <glyph glyph-name="uni0459" unicode="&#x459;" horiz-adv-x="1697" 
d="M70 -35q-100 0 -146 19l47 241q40 -14 80 -14q80 0 121 160l170 678h856l-61 -316h163q167 0 261 -76t94 -208q0 -191 -140.5 -320t-365.5 -129h-481l155 803h-237l-117 -469q-93 -369 -399 -369zM1090 487l-48 -241h132q70 0 113.5 40t43.5 105q0 45 -28.5 70.5
t-81.5 25.5h-131z" />
    <glyph glyph-name="uni045A" unicode="&#x45a;" horiz-adv-x="1705" 
d="M1130 692h164q172 0 267.5 -71t95.5 -215q0 -175 -140.5 -290.5t-365.5 -115.5h-481l86 446h-353l-86 -446h-327l203 1044h327l-67 -352h350l69 357h328zM1044 246h132q157 0 157 123q0 77 -119 77h-131z" />
    <glyph glyph-name="uni045B" unicode="&#x45b;" horiz-adv-x="1189" 
d="M858 1083q172 0 243 -109.5t27 -338.5l-124 -635h-328l119 604q41 211 -125 211q-95 0 -157.5 -60t-78.5 -149l-119 -606h-327l231 1178h-106l34 184h107l20 102h328l-20 -102h336l-35 -184h-336l-53 -271h4q136 176 360 176z" />
    <glyph glyph-name="uni045C" unicode="&#x45c;" horiz-adv-x="1148" 
d="M750 1481h368l-293 -312h-245zM879 1049h387l-482 -549l303 -500h-374l-224 391h-96l-76 -391h-327l205 1049h327l-80 -412h103z" />
    <glyph glyph-name="uni045D" unicode="&#x45d;" horiz-adv-x="1259" 
d="M854 1169h-246l-231 312h368zM317 0h-327l203 1044h327l-119 -614l541 614h328l-203 -1044h-328l121 614z" />
    <glyph glyph-name="uni045E" unicode="&#x45e;" horiz-adv-x="1124" 
d="M680 1157q-146 0 -221.5 84.5t-52.5 226.5h180q-5 -53 24 -81.5t95 -28.5q63 0 104 29t55 81h197q-34 -142 -131.5 -226.5t-249.5 -84.5zM139 -362q-95 0 -192 20l49 250q50 -6 96 -6q26 0 42 1t44.5 6.5t48.5 16.5t41.5 33.5t36.5 54.5l-223 1035h330l114 -691h4
l347 691h342l-623 -1121q-58 -104 -117 -165t-142 -93t-198 -32z" />
    <glyph glyph-name="uni045F" unicode="&#x45f;" horiz-adv-x="1200" 
d="M614 -266h-307l53 266h-370l205 1049h327l-155 -803h360l156 803h327l-202 -1049h-342z" />
    <glyph glyph-name="uni0490" unicode="&#x490;" horiz-adv-x="1150" 
d="M389 0h-369l285 1464h668l39 203h327l-96 -504h-627z" />
    <glyph glyph-name="uni0491" unicode="&#x491;" horiz-adv-x="964" 
d="M317 0h-327l205 1049h544l45 221h308l-95 -467h-524z" />
    <glyph glyph-name="uni0492" unicode="&#x492;" horiz-adv-x="1202" 
d="M1346 1464l-60 -301h-584l-65 -336h455l-60 -245h-442l-115 -582h-369l113 582h-178l59 245h168l123 637h955z" />
    <glyph glyph-name="uni0493" unicode="&#x493;" horiz-adv-x="962" 
d="M1042 1049l-49 -246h-418l-32 -172h311l-49 -246h-311l-74 -385h-328l76 385h-162l49 246h160l82 418h745z" />
    <glyph glyph-name="uni0496" unicode="&#x496;" horiz-adv-x="2045" 
d="M2222 1464l-588 -739l269 -614h108l-74 -377h-327l51 266h-125l-223 555h-105l-108 -555h-369l109 555h-105l-399 -555h-457l608 733l-278 731h362l222 -608h104l119 608h368l-118 -608h104l459 608h393z" />
    <glyph glyph-name="uni0497" unicode="&#x497;" horiz-adv-x="1669" 
d="M1802 1049l-481 -560l129 -284h199l-93 -471h-307l51 266h-112l-160 391h-55l-76 -391h-328l76 391h-55l-311 -391h-394l449 530l-242 519h352l189 -412h61l80 412h328l-80 -412h61l349 412h370z" />
    <glyph glyph-name="uni049A" unicode="&#x49a;" horiz-adv-x="1470" 
d="M1675 1464l-739 -759l389 -594h172l-74 -377h-327l51 266h-199l-325 555h-125l-109 -555h-369l285 1464h369l-119 -608h125l561 608h434z" />
    <glyph glyph-name="uni049B" unicode="&#x49b;" horiz-adv-x="1148" 
d="M1266 1049l-482 -549l179 -295h196l-92 -471h-307l51 266h-98l-224 391h-96l-76 -391h-327l205 1049h327l-80 -412h103l334 412h387z" />
    <glyph glyph-name="uni04A2" unicode="&#x4a2;" horiz-adv-x="1484" 
d="M1176 1464h368l-264 -1353h137l-74 -377h-327l51 266h-176l115 590h-502l-115 -590h-369l285 1464h369l-111 -573h502z" />
    <glyph glyph-name="uni04A3" unicode="&#x4a3;" horiz-adv-x="1218" 
d="M901 1044h328l-164 -839h135l-92 -471h-307l51 266h-154l78 399h-381l-78 -399h-327l203 1044h327l-78 -399h381z" />
    <glyph glyph-name="uni04AE" unicode="&#x4ae;" horiz-adv-x="1370" 
d="M768 0h-369l105 541l-320 923h394l163 -622h4l408 622h393l-674 -923z" />
    <glyph glyph-name="uni04AF" unicode="&#x4af;" horiz-adv-x="1122" 
d="M569 -362h-327l90 466l-252 945h336l129 -621h4l342 621h340l-572 -945z" />
    <glyph glyph-name="uni04B0" unicode="&#x4b0;" horiz-adv-x="1355" 
d="M1540 1464l-674 -923l-12 -66h252l-49 -246h-250l-45 -229h-369l45 229h-282l49 246h280l13 66l-320 923h393l164 -622h4l408 622h393z" />
    <glyph glyph-name="uni04B1" unicode="&#x4b1;" horiz-adv-x="1126" 
d="M1233 1049l-571 -945l-11 -51h297l-49 -246h-295l-33 -169h-327l32 169h-299l50 246h297l10 51l-252 945h336l129 -621h4l342 621h340z" />
    <glyph glyph-name="uni04B2" unicode="&#x4b2;" horiz-adv-x="1361" 
d="M1526 1464l-588 -719l293 -634h100l-74 -377h-327l51 266h-109l-198 475h-4l-381 -475h-410l631 748l-305 716h389l182 -446h4l357 446h389z" />
    <glyph glyph-name="uni04B3" unicode="&#x4b3;" horiz-adv-x="1062" 
d="M1153 1049l-428 -519l162 -325h221l-92 -471h-307l51 266h-139l-134 319h-4l-243 -319h-369l471 541l-225 508h348l115 -297h4l221 297h348z" />
    <glyph glyph-name="uni04B6" unicode="&#x4b6;" horiz-adv-x="1370" 
d="M1061 1464h369l-265 -1353h148l-74 -377h-328l52 266h-187l123 633h-4q-82 -96 -196.5 -152.5t-227.5 -56.5q-186 0 -273.5 123t-47.5 332l112 585h369l-103 -524q-19 -96 26.5 -152.5t141.5 -56.5q131 0 248 131z" />
    <glyph glyph-name="uni04B7" unicode="&#x4b7;" horiz-adv-x="1124" 
d="M807 1044h328l-164 -839h123l-93 -471h-307l51 266h-141l80 416h-2q-60 -64 -150 -102t-182 -38q-157 0 -231 87.5t-45 236.5l86 444h327l-61 -321q-15 -83 18 -131.5t105 -48.5q48 0 89 22t89 70z" />
    <glyph glyph-name="uni04BA" unicode="&#x4ba;" horiz-adv-x="1392" 
d="M389 0h-369l285 1464h369l-123 -633h4q65 103 186.5 156t247.5 53q201 0 288.5 -116.5t45.5 -337.5l-115 -586h-368l102 524q19 99 -25 154t-151 55q-104 0 -181.5 -62.5t-97.5 -166.5z" />
    <glyph glyph-name="uni04BB" unicode="&#x4bb;" horiz-adv-x="1189" 
d="M858 1083q172 0 243 -109.5t27 -338.5l-124 -635h-328l119 604q41 211 -125 211q-95 0 -157.5 -60t-78.5 -149l-119 -606h-327l286 1464h328l-108 -557h4q136 176 360 176z" />
    <glyph glyph-name="uni04D8" unicode="&#x4d8;" horiz-adv-x="1531" 
d="M936 1493q259 0 422.5 -165.5t163.5 -428.5q0 -273 -110.5 -485.5t-305.5 -328.5t-442 -116q-107 0 -198.5 25t-159 71t-118 110.5t-75.5 143t-32 169.5t13 190q18 94 53 172h1006v22q0 81 -23.5 143.5t-63.5 100.5t-89.5 57t-106.5 19q-118 0 -204 -51.5t-117 -130.5
h-377q51 162 168 272.5t267 160.5t329 50zM690 270q132 0 232 76.5t159 202.5h-669q-23 -103 64 -191t214 -88z" />
    <glyph glyph-name="uni04D9" unicode="&#x4d9;" horiz-adv-x="1159" 
d="M645 1083q213 0 343 -127.5t130 -328.5q0 -296 -165.5 -479t-426.5 -183q-80 0 -150 17t-122 47.5t-95 72t-68.5 90.5t-42 103.5t-16.5 110.5t9 112q8 42 22 84h752v14q0 93 -61 157.5t-142 64.5q-139 0 -194 -113h-324q154 358 551 358zM532 211q87 0 149 49t97 137
h-448q-7 -86 56.5 -136t145.5 -50z" />
    <glyph glyph-name="uni04E2" unicode="&#x4e2;" horiz-adv-x="1546" 
d="M1257 1589h-585l39 205h585zM389 0h-369l285 1464h369l-168 -868h4l727 868h369l-285 -1464h-369l168 868h-4z" />
    <glyph glyph-name="uni04E3" unicode="&#x4e3;" horiz-adv-x="1259" 
d="M1047 1169h-586l39 205h585zM317 0h-327l203 1044h327l-119 -614l541 614h328l-203 -1044h-328l121 614z" />
    <glyph glyph-name="uni04E8" unicode="&#x4e8;" horiz-adv-x="1581" 
d="M928 1497q305 0 473 -164t168 -450q0 -186 -58 -351.5t-163.5 -291.5t-265.5 -199.5t-353 -73.5q-303 0 -470 165t-167 452q0 188 58 354t163.5 290t264.5 196.5t350 72.5zM918 1196q-149 0 -255 -94t-159 -246h696v16q0 151 -72.5 237.5t-209.5 86.5zM745 268
q150 0 255.5 94.5t158.5 247.5h-698v-20q0 -150 72.5 -236t211.5 -86z" />
    <glyph glyph-name="uni04E9" unicode="&#x4e9;" horiz-adv-x="1216" 
d="M684 1083q235 0 364.5 -120t129.5 -338q0 -185 -79.5 -335t-227.5 -237.5t-336 -87.5q-236 0 -366 120.5t-130 338.5q0 185 79.5 334.5t228 237t337.5 87.5zM659 838q-90 0 -157.5 -57t-104.5 -154h457q0 105 -51 158t-144 53zM557 211q92 0 159.5 57.5t102.5 153.5h-457
q0 -105 51 -158t144 -53z" />
    <glyph glyph-name="uni04EE" unicode="&#x4ee;" horiz-adv-x="1402" 
d="M1186 1589h-586l39 205h586zM545 0h-387l311 438l-270 1026h381l145 -661h4l457 661h383z" />
    <glyph glyph-name="uni04EF" unicode="&#x4ef;" horiz-adv-x="1124" 
d="M969 1174h-586l39 204h586zM139 -362q-95 0 -192 20l49 250q50 -6 96 -6q26 0 42 1t44.5 6.5t48.5 16.5t41.5 33.5t36.5 54.5l-223 1035h330l114 -691h4l347 691h342l-623 -1121q-58 -104 -117 -165t-142 -93t-198 -32z" />
    <glyph glyph-name="uni139A" unicode="&#x139a;" horiz-adv-x="1335" 
 />
    <glyph glyph-name="Wgrave" unicode="&#x1e80;" horiz-adv-x="1959" 
d="M1284 1589h-246l-231 312h369zM653 0h-368l-88 1464h368l-4 -993h4l420 993h348l35 -993h4l381 993h369l-658 -1464h-368l-41 913h-4z" />
    <glyph glyph-name="wgrave" unicode="&#x1e81;" horiz-adv-x="1622" 
d="M1034 1174h-246l-231 311h369zM510 0h-317l-89 1049h324l33 -639h4l311 639h260l62 -639h6l282 639h332l-501 -1049h-318l-63 664h-5z" />
    <glyph glyph-name="Wacute" unicode="&#x1e82;" horiz-adv-x="1959" 
d="M1282 1589h-246l170 312h369zM653 0h-368l-88 1464h368l-4 -993h4l420 993h348l35 -993h4l381 993h369l-658 -1464h-368l-41 913h-4z" />
    <glyph glyph-name="wacute" unicode="&#x1e83;" horiz-adv-x="1622" 
d="M1032 1174h-246l170 311h369zM510 0h-317l-89 1049h324l33 -639h4l311 639h260l62 -639h6l282 639h332l-501 -1049h-318l-63 664h-5z" />
    <glyph glyph-name="Wdieresis" unicode="&#x1e84;" horiz-adv-x="1959" 
d="M1130 1589h-327l65 291h328zM1556 1589h-327l65 291h328zM653 0h-368l-88 1464h368l-4 -993h4l420 993h348l35 -993h4l381 993h369l-658 -1464h-368l-41 913h-4z" />
    <glyph glyph-name="wdieresis" unicode="&#x1e85;" horiz-adv-x="1622" 
d="M881 1174h-328l65 290h328zM1307 1174h-328l65 290h328zM510 0h-317l-89 1049h324l33 -639h4l311 639h260l62 -639h6l282 639h332l-501 -1049h-318l-63 664h-5z" />
    <glyph glyph-name="Ygrave" unicode="&#x1ef2;" horiz-adv-x="1370" 
d="M995 1589h-245l-232 312h369zM768 0h-369l105 541l-320 923h394l163 -622h4l408 622h393l-674 -923z" />
    <glyph glyph-name="ygrave" unicode="&#x1ef3;" horiz-adv-x="1124" 
d="M776 1174h-246l-231 311h369zM139 -362q-95 0 -192 20l49 250q50 -6 96 -6q26 0 42 1t44.5 6.5t48.5 16.5t41.5 33.5t36.5 54.5l-223 1035h330l114 -691h4l347 691h342l-623 -1121q-58 -104 -117 -165t-142 -93t-198 -32z" />
    <glyph glyph-name="uni2000" unicode="&#x2000;" horiz-adv-x="1024" 
 />
    <glyph glyph-name="uni2001" unicode="&#x2001;" horiz-adv-x="2048" 
 />
    <glyph glyph-name="uni2002" unicode="&#x2002;" horiz-adv-x="1024" 
 />
    <glyph glyph-name="uni2003" unicode="&#x2003;" horiz-adv-x="2048" 
 />
    <glyph glyph-name="uni2004" unicode="&#x2004;" horiz-adv-x="681" 
 />
    <glyph glyph-name="uni2005" unicode="&#x2005;" horiz-adv-x="512" 
 />
    <glyph glyph-name="uni2006" unicode="&#x2006;" horiz-adv-x="342" 
 />
    <glyph glyph-name="uni2007" unicode="&#x2007;" horiz-adv-x="1638" 
 />
    <glyph glyph-name="uni2008" unicode="&#x2008;" horiz-adv-x="464" 
 />
    <glyph glyph-name="uni2009" unicode="&#x2009;" horiz-adv-x="256" 
 />
    <glyph glyph-name="uni200A" unicode="&#x200a;" horiz-adv-x="86" 
 />
    <glyph glyph-name="uni200B" unicode="&#x200b;" 
 />
    <glyph glyph-name="endash" unicode="&#x2013;" horiz-adv-x="1189" 
d="M1077 377h-1024l56 280h1024z" />
    <glyph glyph-name="emdash" unicode="&#x2014;" horiz-adv-x="2213" 
d="M2101 377h-2048l56 280h2048z" />
    <glyph glyph-name="quoteleft" unicode="&#x2018;" horiz-adv-x="466" 
d="M565 1464l-28 -143q-152 -24 -185 -199h148l-62 -311h-311l61 311q27 138 125.5 229.5t251.5 112.5z" />
    <glyph glyph-name="quoteright" unicode="&#x2019;" horiz-adv-x="456" 
d="M137 811l29 143q156 24 192 199h-155l61 311h311l-61 -311q-29 -143 -122.5 -232t-254.5 -110z" />
    <glyph glyph-name="quotesinglbase" unicode="&#x201a;" horiz-adv-x="471" 
d="M-86 -342l29 143q156 24 192 199h-155l61 311h311l-61 -311q-29 -143 -122.5 -232t-254.5 -110z" />
    <glyph glyph-name="quotedblleft" unicode="&#x201c;" horiz-adv-x="876" 
d="M567 1470l-28 -143q-152 -24 -185 -199h148l-62 -311h-311l61 311q27 138 125.5 229.5t251.5 112.5zM977 1470l-29 -143q-151 -24 -184 -199h147l-61 -311h-311l61 311q27 138 125.5 229.5t251.5 112.5z" />
    <glyph glyph-name="quotedblright" unicode="&#x201d;" horiz-adv-x="866" 
d="M137 811l29 143q156 24 192 199h-155l61 311h311l-61 -311q-29 -143 -122.5 -232t-254.5 -110zM547 811l28 143q157 24 193 199h-156l62 311h311l-61 -311q-29 -143 -122.5 -232t-254.5 -110z" />
    <glyph glyph-name="quotedblbase" unicode="&#x201e;" horiz-adv-x="880" 
d="M-86 -342l29 143q156 24 192 199h-155l61 311h311l-61 -311q-29 -143 -122.5 -232t-254.5 -110zM324 -342l28 143q157 24 193 199h-156l62 311h311l-62 -311q-29 -143 -122 -232t-254 -110z" />
    <glyph glyph-name="dagger" unicode="&#x2020;" horiz-adv-x="1128" 
d="M565 -362h-348l219 1130h-358l55 281h359l79 415h349l-80 -415h358l-55 -281h-359z" />
    <glyph glyph-name="daggerdbl" unicode="&#x2021;" horiz-adv-x="1222" 
d="M614 -362h-348l92 475h-358l55 280h359l71 375h-358l55 281h359l80 415h348l-80 -415h358l-55 -281h-358l-72 -375h358l-55 -280h-358z" />
    <glyph glyph-name="bullet" unicode="&#x2022;" horiz-adv-x="856" 
d="M674 319h-574l111 574h573z" />
    <glyph glyph-name="ellipsis" unicode="&#x2026;" horiz-adv-x="1333" 
d="M287 0h-312l62 311h311zM721 0h-311l61 311h311zM1155 0h-311l61 311h312z" />
    <glyph glyph-name="perthousand" unicode="&#x2030;" horiz-adv-x="2686" 
d="M481 629q-165 0 -257.5 94t-92.5 262q0 91 31.5 174t88 147.5t144 103t191.5 38.5q162 0 256 -100.5t94 -255.5q0 -91 -31.5 -174t-88 -147.5t-144 -103t-191.5 -38.5zM530 0h-219l1059 1415h219zM504 838q75 0 114 83.5t39 190.5q0 67 -22 97t-68 30q-52 0 -89 -43.5
t-52.5 -103.5t-15.5 -127t23 -97t71 -30zM1331 -33q-165 0 -257.5 94.5t-92.5 262.5q0 91 31.5 174t88 147t144 102.5t191.5 38.5q162 0 256 -100.5t94 -255.5q0 -91 -31.5 -174t-88 -147.5t-144 -103t-191.5 -38.5zM2173 -33q-165 0 -257.5 94.5t-92.5 262.5
q0 122 52.5 226t158 170t243.5 66q162 0 256.5 -100.5t94.5 -255.5q0 -91 -31.5 -174t-88 -147.5t-144 -103t-191.5 -38.5zM1354 176q39 0 69.5 25t48 66t26.5 88t9 96q0 67 -22 97t-68 30q-40 0 -71 -25t-49.5 -66t-27.5 -88t-9 -96q0 -67 23 -97t71 -30zM2195 176
q75 0 114.5 84t39.5 191q0 67 -22 97t-68 30q-52 0 -89.5 -44t-53 -104t-15.5 -127t23 -97t71 -30z" />
    <glyph glyph-name="guilsinglleft" unicode="&#x2039;" horiz-adv-x="579" 
d="M455 360l-60 -305l-346 316l64 321l467 316l-64 -334l-256 -154l-2 -6z" />
    <glyph glyph-name="guilsinglright" unicode="&#x203a;" horiz-adv-x="577" 
d="M469 371l-467 -316l64 334l256 154l2 6l-197 153l59 306l346 -316z" />
    <glyph glyph-name="fraction" unicode="&#x2044;" horiz-adv-x="491" 
d="M-182 0h-287l1212 1464h287z" />
    <glyph glyph-name="uni2070" unicode="&#x2070;" horiz-adv-x="872" 
d="M500 737q-165 0 -249.5 91t-84.5 243q0 234 132.5 387.5t332.5 153.5q162 0 244.5 -91t82.5 -243q0 -234 -130.5 -387.5t-327.5 -153.5zM508 936q51 0 92.5 35t65 88.5t35.5 110t12 108.5q0 135 -97 135q-51 0 -92.5 -35t-64.5 -89t-35 -111t-12 -109q0 -133 96 -133z
" />
    <glyph glyph-name="uni2074" unicode="&#x2074;" horiz-adv-x="825" 
d="M700 745h-247l32 166h-366l45 232l450 434h248l-90 -469h123l-39 -197h-123zM569 1305l-213 -197h168z" />
    <glyph glyph-name="uni2075" unicode="&#x2075;" horiz-adv-x="794" 
d="M457 725q-175 0 -260 83.5t-64 203.5h232q-2 -38 23.5 -66t78.5 -28q62 0 94.5 38t32.5 93q0 52 -29 77t-76 25q-76 0 -98 -51h-231l194 477h559l-39 -197h-391l-47 -114l4 -4q63 32 140 32q114 0 191 -62t77 -181q0 -135 -102.5 -230.5t-288.5 -95.5z" />
    <glyph glyph-name="uni2076" unicode="&#x2076;" horiz-adv-x="831" 
d="M496 735q-87 0 -151.5 25.5t-102.5 72t-56 105t-18 129.5q0 236 129 389.5t324 153.5q137 0 220 -65t85 -169h-238q-14 64 -94 64q-59 0 -102.5 -40.5t-63.5 -117.5l-6 -25l6 -2q28 28 85 50t122 22q119 0 187.5 -63.5t68.5 -173.5q0 -151 -108.5 -253t-286.5 -102z
M506 918q60 0 101.5 41t41.5 98q0 43 -25.5 69.5t-74.5 26.5q-62 0 -104 -38t-42 -95q0 -45 27.5 -73.5t75.5 -28.5z" />
    <glyph glyph-name="uni2077" unicode="&#x2077;" horiz-adv-x="679" 
d="M455 745h-260q38 198 140.5 372t217.5 261v2h-367l39 197h627l-37 -182q-142 -101 -231 -271.5t-129 -378.5z" />
    <glyph glyph-name="uni2078" unicode="&#x2078;" horiz-adv-x="784" 
d="M446 735q-140 0 -226.5 58.5t-86.5 167.5q0 88 54.5 151.5t150.5 93.5v6q-88 53 -88 152q0 112 101.5 181t244.5 69q123 0 199.5 -53t76.5 -150q0 -68 -44.5 -125t-112.5 -84v-4q58 -32 88.5 -70.5t30.5 -107.5q0 -130 -111.5 -207.5t-276.5 -77.5zM545 1280q59 0 91 31
t32 71q0 34 -24.5 55t-70.5 21q-61 0 -92.5 -30t-31.5 -72q0 -34 25.5 -55t70.5 -21zM469 909q64 0 101.5 35t37.5 86q0 39 -26 62.5t-74 23.5q-58 0 -97.5 -34.5t-39.5 -84.5q0 -40 26.5 -64t71.5 -24z" />
    <glyph glyph-name="uni2079" unicode="&#x2079;" horiz-adv-x="829" 
d="M465 735q-137 0 -221 65t-86 169h237q14 -64 94 -64q59 0 102.5 40.5t63.5 117.5l7 24l-7 3q-28 -28 -84.5 -50t-121.5 -22q-119 0 -187.5 63.5t-68.5 173.5q0 151 108.5 253t286.5 102q87 0 151.5 -25.5t102 -72t55.5 -105t18 -129.5q0 -150 -53.5 -273t-157 -196.5
t-239.5 -73.5zM535 1192q62 0 103.5 38t41.5 95q0 46 -27 74t-75 28q-60 0 -102 -41t-42 -98q0 -43 26 -69.5t75 -26.5z" />
    <glyph glyph-name="uni2080" unicode="&#x2080;" horiz-adv-x="872" 
d="M313 -223q-165 0 -249 91t-84 243q0 234 132 387t332 153q163 0 245.5 -91t82.5 -243q0 -234 -131 -387t-328 -153zM322 -25q51 0 92.5 34.5t64.5 88.5t35 110.5t12 108.5q0 136 -96 136q-51 0 -92.5 -35t-65 -89t-35.5 -111t-12 -109q0 -134 97 -134z" />
    <glyph glyph-name="uni2081" unicode="&#x2081;" horiz-adv-x="544" 
d="M59 -205l101 518q-44 -18 -180 -18l36 188q92 0 165 39.5t83 104.5h217l-159 -832h-263z" />
    <glyph glyph-name="uni2082" unicode="&#x2082;" horiz-adv-x="770" 
d="M571 -205h-669q6 44 20.5 83t30.5 68.5t44 60t48 48.5t57 43.5t56 37t59 34.5q14 8 43 25t41 24t34.5 21t32 21.5t25 20.5t22 23t14.5 24t10.5 28t2.5 30q0 70 -73 70q-48 0 -79.5 -31t-47.5 -113h-232q30 162 128.5 249t264.5 87q133 0 208 -58t75 -161q0 -41 -9 -78
t-21 -64.5t-36.5 -56.5t-42.5 -47t-52.5 -42.5t-53.5 -36.5t-57 -35q-82 -51 -107 -74v-2h303z" />
    <glyph glyph-name="uni2083" unicode="&#x2083;" horiz-adv-x="792" 
d="M268 -225q-177 0 -261 83.5t-54 237.5h235q-25 -131 99 -131q52 0 81 26t29 72q0 43 -25.5 61.5t-84.5 18.5h-39l31 152h45q122 0 122 94q0 33 -21 50.5t-58 17.5q-42 0 -69.5 -24.5t-35.5 -63.5h-235q22 128 122.5 204t262.5 76q130 0 210 -59t80 -162q0 -70 -48.5 -123
t-121.5 -74v-2q121 -41 121 -161q0 -132 -103 -212.5t-282 -80.5z" />
    <glyph glyph-name="uni2084" unicode="&#x2084;" horiz-adv-x="825" 
d="M516 -205h-248l33 166h-367l46 232l450 434h248l-90 -469h123l-39 -197h-123zM385 354l-213 -196h168z" />
    <glyph glyph-name="uni2085" unicode="&#x2085;" horiz-adv-x="794" 
d="M272 -225q-175 0 -259.5 83t-63.5 203h231q-2 -38 24 -66t79 -28q62 0 94.5 38t32.5 93q0 52 -29.5 77.5t-75.5 25.5q-76 0 -98 -51h-232l195 477h559l-39 -197h-391l-47 -115l4 -4q65 33 139 33q114 0 191.5 -62.5t77.5 -181.5q0 -135 -103 -230t-289 -95z" />
    <glyph glyph-name="uni2086" unicode="&#x2086;" horiz-adv-x="831" 
d="M309 -225q-169 0 -248 91t-79 240q0 156 59 280.5t162 193.5t231 69q137 0 220 -64.5t85 -168.5h-237q-14 63 -94 63q-59 0 -102.5 -40t-63.5 -117l-6 -25l6 -2q28 28 85 50t122 22q119 0 187.5 -64t68.5 -174q0 -150 -108.5 -252t-287.5 -102zM319 -43q60 0 102 41
t42 98q0 43 -26 70t-75 27q-62 0 -103.5 -38.5t-41.5 -95.5q0 -46 27 -74t75 -28z" />
    <glyph glyph-name="uni2087" unicode="&#x2087;" horiz-adv-x="679" 
d="M270 -205h-260q38 198 141 372t218 261v2h-367l39 197h627l-37 -183q-143 -101 -232 -271.5t-129 -377.5z" />
    <glyph glyph-name="uni2088" unicode="&#x2088;" horiz-adv-x="784" 
d="M260 -225q-140 0 -226.5 58t-86.5 167q0 88 55 152t150 94v6q-89 53 -89 151q0 112 102 181t245 69q123 0 199.5 -52.5t76.5 -149.5q0 -68 -44.5 -125t-113.5 -84v-4q57 -32 88 -71t31 -108q0 -130 -111 -207t-276 -77zM358 319q58 0 90.5 31.5t32.5 71.5q0 34 -24 55
t-70 21q-60 0 -92.5 -30.5t-32.5 -72.5q0 -34 25.5 -55t70.5 -21zM283 -51q64 0 101.5 35t37.5 86q0 39 -26 62.5t-74 23.5q-58 0 -98 -34.5t-40 -84.5q0 -40 26.5 -64t72.5 -24z" />
    <glyph glyph-name="uni2089" unicode="&#x2089;" horiz-adv-x="829" 
d="M279 -225q-137 0 -221.5 65t-86.5 168h238q14 -63 94 -63q59 0 102.5 40t63.5 117l6 25l-6 2q-28 -28 -85 -50t-122 -22q-119 0 -187.5 64t-68.5 174q0 151 108.5 252.5t286.5 101.5q87 0 151.5 -25.5t102.5 -72t56 -105t18 -129.5q0 -150 -53.5 -272.5t-157 -196
t-239.5 -73.5zM348 231q62 0 104 38.5t42 95.5q0 45 -27.5 73.5t-75.5 28.5q-60 0 -101.5 -41t-41.5 -98q0 -43 25.5 -70t74.5 -27z" />
    <glyph glyph-name="Euro" unicode="&#x20ac;" horiz-adv-x="1437" 
d="M1440 889h-348q16 129 -23 197.5t-154 68.5q-97 0 -178 -75t-131 -206h328l-27 -137h-342q-12 -51 -18 -100h340l-27 -137h-321v-11q0 -118 47.5 -179.5t152.5 -61.5q117 0 182.5 69t98.5 201h348q-60 -255 -230.5 -403t-445.5 -148q-134 0 -232.5 38.5t-156.5 109.5
t-85.5 163t-27.5 209v13h-108l27 137h90q7 64 16 100h-86l27 137h94q87 260 280 411t449 151q112 0 198 -26.5t141.5 -74.5t89 -115.5t39 -151t-6.5 -179.5z" />
    <glyph glyph-name="trademark" unicode="&#x2122;" horiz-adv-x="1433" 
d="M461 899h-205l76 385h-150l35 180h504l-35 -180h-149zM870 899h-184l111 565h256l39 -319h4l164 319h258l-111 -565h-188l67 346h-4l-172 -346h-133l-35 346h-4z" />
    <glyph glyph-name="uni2126" unicode="&#x2126;" horiz-adv-x="1642" 
d="M616 0h-647l60 299h333q-113 71 -166 170t-53 244q0 164 65 308.5t178 248t274.5 163.5t347.5 60q289 0 449.5 -138t160.5 -382q0 -205 -108.5 -389.5t-295.5 -284.5h314l-60 -299h-647l53 276q170 95 273.5 266.5t103.5 356.5q0 299 -290 299q-91 0 -168.5 -29
t-133 -79.5t-94.5 -119.5t-57.5 -148.5t-18.5 -166.5q0 -135 45.5 -223.5t135.5 -155.5z" />
    <glyph glyph-name="oneeighth" unicode="&#x215b;" horiz-adv-x="1781" 
d="M389 0h-287l1213 1464h287zM225 633l101 518q-44 -18 -181 -18l37 188q92 0 165 39t83 104h217l-160 -831h-262zM1303 -20q-141 0 -227.5 58t-86.5 167q0 88 55 152t150 94v6q-88 53 -88 151q0 112 101.5 181t244.5 69q123 0 200 -53t77 -150q0 -68 -44.5 -125
t-113.5 -84v-4q58 -32 88.5 -70.5t30.5 -107.5q0 -130 -111 -207t-276 -77zM1401 524q58 0 90.5 31.5t32.5 71.5q0 34 -24 54.5t-70 20.5q-61 0 -93 -30t-32 -72q0 -34 25.5 -55t70.5 -21zM1325 154q64 0 101.5 34.5t37.5 85.5q0 39 -26 62.5t-74 23.5q-58 0 -97.5 -34
t-39.5 -84q0 -40 26.5 -64t71.5 -24z" />
    <glyph glyph-name="threeeighths" unicode="&#x215c;" horiz-adv-x="1996" 
d="M444 612q-177 0 -261 84t-54 238h236q-25 -131 98 -131q52 0 81 26t29 72q0 43 -25.5 61.5t-84.5 18.5h-39l31 152h45q123 0 123 94q0 67 -80 67q-42 0 -69.5 -24.5t-35.5 -63.5h-235q22 128 122.5 204.5t262.5 76.5q130 0 210.5 -59t80.5 -162q0 -70 -48.5 -123
t-121.5 -74v-2q120 -41 120 -162q0 -132 -103 -212.5t-282 -80.5zM598 0h-287l1213 1464h286zM1511 -20q-140 0 -226.5 58t-86.5 167q0 88 55 152t150 94v6q-88 53 -88 151q0 112 101.5 181t244.5 69q123 0 199.5 -53t76.5 -150q0 -68 -44.5 -125t-112.5 -84v-4
q57 -32 87.5 -70.5t30.5 -107.5q0 -130 -111 -207t-276 -77zM1610 524q58 0 90.5 31.5t32.5 71.5q0 34 -24.5 54.5t-70.5 20.5q-61 0 -93 -30t-32 -72q0 -34 26 -55t71 -21zM1534 154q64 0 101.5 34.5t37.5 85.5q0 39 -26 62.5t-74 23.5q-58 0 -97.5 -34t-39.5 -84
q0 -40 26.5 -64t71.5 -24z" />
    <glyph glyph-name="fiveeighths" unicode="&#x215d;" horiz-adv-x="1951" 
d="M430 612q-175 0 -260 83.5t-64 203.5h232q-2 -38 23.5 -66t78.5 -28q62 0 94.5 38t32.5 93q0 52 -29 77t-75 25q-76 0 -98 -51h-232l195 477h559l-39 -196h-391l-47 -115l4 -4q65 33 139 33q114 0 191 -62.5t77 -181.5q0 -135 -102.5 -230.5t-288.5 -95.5zM575 0h-286
l1212 1464h287zM1468 -20q-140 0 -226.5 58t-86.5 167q0 88 55 152t150 94v6q-88 53 -88 151q0 112 101.5 181t244.5 69q123 0 199.5 -53t76.5 -150q0 -68 -44.5 -125t-112.5 -84v-4q57 -32 87.5 -70.5t30.5 -107.5q0 -130 -111 -207t-276 -77zM1567 524q58 0 90.5 31.5
t32.5 71.5q0 34 -24.5 54.5t-70.5 20.5q-61 0 -93 -30t-32 -72q0 -34 26 -55t71 -21zM1491 154q64 0 101.5 34.5t37.5 85.5q0 39 -26 62.5t-74 23.5q-58 0 -97.5 -34t-39.5 -84q0 -40 26.5 -64t71.5 -24z" />
    <glyph glyph-name="seveneighths" unicode="&#x215e;" horiz-adv-x="1802" 
d="M408 0h-287l1212 1464h287zM438 633h-260q38 198 141 372t218 261v2h-367l39 196h627l-37 -182q-143 -101 -232 -271.5t-129 -377.5zM1321 -20q-140 0 -226.5 58t-86.5 167q0 88 54.5 152t149.5 94v6q-88 53 -88 151q0 112 101.5 181t244.5 69q123 0 200 -53t77 -150
q0 -68 -44.5 -125t-113.5 -84v-4q58 -32 88.5 -70.5t30.5 -107.5q0 -130 -111 -207t-276 -77zM1419 524q58 0 90.5 31.5t32.5 71.5q0 34 -24 54.5t-70 20.5q-61 0 -93 -30t-32 -72q0 -34 25.5 -55t70.5 -21zM1343 154q64 0 102 34.5t38 85.5q0 39 -26.5 62.5t-74.5 23.5
q-58 0 -97.5 -34t-39.5 -84q0 -40 26.5 -64t71.5 -24z" />
    <glyph glyph-name="arrowleft" unicode="&#x2190;" horiz-adv-x="1579" 
d="M754 182l-189 -162l-465 635l711 635l127 -162l-395 -350h997l-49 -246h-997z" />
    <glyph glyph-name="arrowup" unicode="&#x2191;" horiz-adv-x="1374" 
d="M705 0h-246l194 997l-413 -327l-131 157l749 588l520 -588l-192 -157l-287 327z" />
    <glyph glyph-name="arrowright" unicode="&#x2192;" horiz-adv-x="1579" 
d="M1528 655l-713 -635l-125 162l395 350h-997l47 246h998l-259 350l189 162z" />
    <glyph glyph-name="arrowdown" unicode="&#x2193;" horiz-adv-x="1372" 
d="M1319 506l-750 -588l-520 588l193 158l286 -328l195 997h246l-195 -997l414 328z" />
    <glyph glyph-name="arrowboth" unicode="&#x2194;" horiz-adv-x="2349" 
d="M745 182l-188 -164l-465 635l711 637l127 -162l-395 -350h1376l-258 350l186 162l465 -635l-709 -635l-127 162l398 350h-1379z" />
    <glyph glyph-name="arrowupdn" unicode="&#x2195;" horiz-adv-x="1349" 
d="M1251 225l-749 -587l-520 587l192 158l287 -328l221 1137l-414 -328l-131 158l748 588l522 -588l-193 -158l-286 328l-221 -1137l413 328z" />
    <glyph glyph-name="uni2196" unicode="&#x2196;" horiz-adv-x="1251" 
d="M1157 317l-207 -174l-559 705l-94 -479l-217 -2l168 864h864l-45 -209h-489z" />
    <glyph glyph-name="uni2197" unicode="&#x2197;" horiz-adv-x="1251" 
d="M985 848l-833 -705l-140 174l854 705h-489l37 209h864l-168 -864l-217 2z" />
    <glyph glyph-name="uni2198" unicode="&#x2198;" horiz-adv-x="1236" 
d="M1049 88h-865l45 209h490l-580 704l207 175l559 -705l94 479l218 2z" />
    <glyph glyph-name="uni2199" unicode="&#x2199;" horiz-adv-x="1236" 
d="M883 88h-865l168 864l215 -2l-92 -479l834 705l139 -175l-854 -704h490z" />
    <glyph glyph-name="partialdiff" unicode="&#x2202;" horiz-adv-x="1226" 
d="M471 -33q-200 0 -318 110t-118 306q0 158 69 291.5t190 212t267 78.5q124 0 196 -45t115 -125q0 389 -395 389l53 280q348 0 512 -163t164 -461q0 -142 -35 -274.5t-101 -240.5t-155 -188.5t-203.5 -125t-240.5 -44.5zM522 227q116 0 201.5 94.5t85.5 219.5q0 76 -38 120
t-114 44q-117 0 -202.5 -94t-85.5 -218q0 -76 37.5 -121t115.5 -45z" />
    <glyph glyph-name="emptyset" unicode="&#x2205;" horiz-adv-x="1685" 
d="M1628 1423l82 -102l-156 -131q93 -145 93 -338q0 -173 -74.5 -336t-198 -283t-293 -193t-350.5 -73q-273 0 -448 158l-160 -133l-82 102l158 131q-93 145 -93 336q0 173 74.5 336t198 284t293 194t350.5 73q274 0 446 -158zM252 569q0 -145 57 -250l1051 879
q-125 107 -344 107q-161 0 -304 -59t-243.5 -158.5t-158.5 -234.5t-58 -284zM1499 846q0 145 -57 250l-1051 -879q124 -106 346 -106q161 0 304 58.5t242.5 158t157.5 234.5t58 284z" />
    <glyph glyph-name="uni2206" unicode="&#x2206;" horiz-adv-x="1402" 
d="M684 1464h401l234 -1163l-57 -301h-1319l57 301zM827 1126h-18l-469 -835h633z" />
    <glyph glyph-name="product" unicode="&#x220f;" horiz-adv-x="1503" 
d="M330 -205h-348l323 1669h1256l-324 -1669h-348l270 1389h-559z" />
    <glyph glyph-name="summation" unicode="&#x2211;" horiz-adv-x="1243" 
d="M1047 -205h-1127l55 287l627 563v4l-414 531l56 284h1106l-54 -280h-698l-2 -4l369 -455l-27 -143l-569 -502v-4h733z" />
    <glyph glyph-name="minus" unicode="&#x2212;" horiz-adv-x="1183" 
d="M1090 532h-996l56 283h995z" />
    <glyph glyph-name="uni2219" unicode="&#x2219;" horiz-adv-x="706" 
d="M512 553h-311l61 311h311z" />
    <glyph glyph-name="radical" unicode="&#x221a;" horiz-adv-x="1413" 
d="M684 -205h-328l-129 670h-157l55 280h377l92 -536h4l604 1255h354z" />
    <glyph glyph-name="infinity" unicode="&#x221e;" horiz-adv-x="1562" 
d="M375 244q-77 0 -139 29.5t-103 98.5t-41 169q0 123 57.5 230t158 171t218.5 64q200 0 305 -185h5q185 185 383 185q125 0 206.5 -72.5t81.5 -218.5q0 -92 -34.5 -178.5t-92 -151t-137 -103t-166.5 -38.5q-74 0 -137 31t-100 71t-72 96h-4q-93 -90 -187.5 -144t-201.5 -54
zM436 469q29 0 58.5 10t49.5 20.5t52 38t44 39.5l48 48q-19 31 -29.5 47t-29.5 40.5t-36 36.5t-41.5 21.5t-51.5 9.5q-73 0 -124.5 -56t-51.5 -136q0 -54 27.5 -86.5t84.5 -32.5zM1102 469q72 0 123 56.5t51 136.5q0 54 -28 86t-85 32q-35 0 -68.5 -12t-67.5 -37.5t-57 -47
t-59 -58.5q21 -36 36.5 -58.5t39 -47.5t52.5 -37.5t63 -12.5z" />
    <glyph glyph-name="integral" unicode="&#x222b;" horiz-adv-x="833" 
d="M90 -362q-134 0 -229 20l47 246q44 -13 78 -13q134 0 168 177l211 1087q35 182 129 272.5t268 90.5q131 0 231 -21l-49 -246q-44 13 -78 13q-131 0 -166 -177l-213 -1087q-36 -185 -131 -273.5t-266 -88.5z" />
    <glyph glyph-name="approxequal" unicode="&#x2248;" horiz-adv-x="1177" 
d="M328 670h-205q35 182 112 270t201 88q75 0 239.5 -46t205.5 -46q84 0 102 92h205q-35 -181 -113 -269.5t-201 -88.5q-75 0 -239 46t-205 46q-86 0 -102 -92zM242 229h-205q35 182 112 270.5t201 88.5q75 0 239.5 -46t205.5 -46q86 0 102 92h205q-35 -182 -112.5 -270.5
t-201.5 -88.5q-75 0 -239 46.5t-205 46.5q-85 0 -102 -93z" />
    <glyph glyph-name="notequal" unicode="&#x2260;" horiz-adv-x="1150" 
d="M1157 1032l-53 -282h-348l-103 -152h418l-53 -283h-553l-105 -157h-204l104 157h-209l55 283h343l102 152h-414l56 282h546l107 160h205l-107 -160h213z" />
    <glyph glyph-name="lessequal" unicode="&#x2264;" horiz-adv-x="1013" 
d="M926 547l-56 -281l-788 283l59 307l899 283l-55 -281l-596 -153l-2 -5zM819 0h-844l48 246h843z" />
    <glyph glyph-name="greaterequal" unicode="&#x2265;" horiz-adv-x="1011" 
d="M942 549l-899 -283l55 281l596 153l2 5l-538 153l55 281l788 -283zM836 0h-844l47 246h844z" />
    <glyph glyph-name="uni2266" unicode="&#x2266;" horiz-adv-x="1142" 
d="M1214 1434l-51 -260l-665 -193v-4l589 -193l-45 -235l-41 -215h-944l45 239h813l-759 269l53 276zM936 0h-944l47 240h944z" />
    <glyph glyph-name="uni2267" unicode="&#x2267;" horiz-adv-x="1138" 
d="M281 1434l882 -316l-53 -276l-850 -269h797l-45 -239h-944l45 239h2l39 211l667 193v4l-592 193zM946 0h-944l47 240h944z" />
    <glyph glyph-name="uni2460" unicode="&#x2460;" horiz-adv-x="1720" 
d="M780 -33q-306 0 -484.5 169.5t-178.5 479.5q0 184 66 351t183 292t288 199t370 74q306 0 485 -169.5t179 -479.5q0 -184 -66.5 -351t-183 -292t-288 -199t-370.5 -74zM797 162q126 0 235.5 40t188 109t134.5 160t83.5 195t27.5 213q0 231 -122.5 344.5t-335.5 113.5
q-126 0 -235.5 -40t-188 -108.5t-135 -160t-84 -195t-27.5 -212.5q0 -231 123 -345t336 -114zM731 342l100 518q-44 -18 -180 -18l37 188q92 0 165 39.5t83 104.5h217l-160 -832h-262z" />
    <glyph glyph-name="uni2461" unicode="&#x2461;" horiz-adv-x="1720" 
d="M780 -33q-306 0 -484.5 169.5t-178.5 479.5q0 184 66 351t183 292t288 199t370 74q306 0 485 -169.5t179 -479.5q0 -184 -66.5 -351t-183 -292t-288 -199t-370.5 -74zM797 162q126 0 235.5 40t188 109t134.5 160t83.5 195t27.5 213q0 231 -122.5 344.5t-335.5 113.5
q-126 0 -235.5 -40t-188 -108.5t-135 -160t-84 -195t-27.5 -212.5q0 -231 123 -345t336 -114zM1180 340h-670q6 44 20.5 83t30.5 68.5t44 60t48 48.5t57 43.5t56 37t59 34.5q15 9 43.5 25t41 23.5t34.5 21t32 21.5t25.5 21t22 23.5t14.5 23.5t10.5 27.5t2.5 30.5
q0 69 -74 69q-48 0 -79.5 -30.5t-47.5 -112.5h-232q30 161 129 248.5t265 87.5q133 0 207.5 -58t74.5 -161q0 -41 -9 -78t-21 -64.5t-36.5 -56.5t-43 -47.5t-52.5 -42.5t-53 -36.5t-57 -35.5q-85 -53 -107 -73v-2h304z" />
    <glyph glyph-name="uni2462" unicode="&#x2462;" horiz-adv-x="1720" 
d="M780 -33q-306 0 -484.5 169.5t-178.5 479.5q0 184 66 351t183 292t288 199t370 74q306 0 485 -169.5t179 -479.5q0 -184 -66.5 -351t-183 -292t-288 -199t-370.5 -74zM797 162q126 0 235.5 40t188 109t134.5 160t83.5 195t27.5 213q0 231 -122.5 344.5t-335.5 113.5
q-126 0 -235.5 -40t-188 -108.5t-135 -160t-84 -195t-27.5 -212.5q0 -231 123 -345t336 -114zM846 317q-177 0 -261.5 84t-54.5 238h236q-25 -131 98 -131q52 0 81.5 26t29.5 72q0 43 -26 61.5t-85 18.5h-39l31 152h45q123 0 123 94q0 67 -80 67q-42 0 -69 -24.5t-35 -63.5
h-236q22 128 122.5 204.5t262.5 76.5q130 0 210.5 -59t80.5 -162q0 -70 -48.5 -123t-121.5 -74v-2q121 -41 121 -162q0 -132 -103 -212.5t-282 -80.5z" />
    <glyph glyph-name="uni2463" unicode="&#x2463;" horiz-adv-x="1720" 
d="M780 -33q-306 0 -484.5 169.5t-178.5 479.5q0 184 66 351t183 292t288 199t370 74q306 0 485 -169.5t179 -479.5q0 -184 -66.5 -351t-183 -292t-288 -199t-370.5 -74zM797 162q126 0 235.5 40t188 109t134.5 160t83.5 195t27.5 213q0 231 -122.5 344.5t-335.5 113.5
q-126 0 -235.5 -40t-188 -108.5t-135 -160t-84 -195t-27.5 -212.5q0 -231 123 -345t336 -114zM1055 342h-248l33 166h-367l45 231l451 435h248l-91 -469h123l-39 -197h-123zM924 901l-213 -196h168z" />
    <glyph glyph-name="uni2464" unicode="&#x2464;" horiz-adv-x="1720" 
d="M780 -33q-306 0 -484.5 169.5t-178.5 479.5q0 184 66 351t183 292t288 199t370 74q306 0 485 -169.5t179 -479.5q0 -184 -66.5 -351t-183 -292t-288 -199t-370.5 -74zM797 162q126 0 235.5 40t188 109t134.5 160t83.5 195t27.5 213q0 231 -122.5 344.5t-335.5 113.5
q-126 0 -235.5 -40t-188 -108.5t-135 -160t-84 -195t-27.5 -212.5q0 -231 123 -345t336 -114zM838 317q-175 0 -260 83.5t-64 203.5h231q-2 -38 24 -66t79 -28q62 0 94.5 38t32.5 93q0 52 -29 77t-76 25q-76 0 -98 -51h-231l194 477h559l-39 -196h-391l-47 -115l4 -4
q65 33 140 33q114 0 191 -62.5t77 -181.5q0 -135 -102.5 -230.5t-288.5 -95.5z" />
    <glyph glyph-name="uni2465" unicode="&#x2465;" horiz-adv-x="1720" 
d="M780 -33q-306 0 -484.5 169.5t-178.5 479.5q0 184 66 351t183 292t288 199t370 74q306 0 485 -169.5t179 -479.5q0 -184 -66.5 -351t-183 -292t-288 -199t-370.5 -74zM797 162q126 0 235.5 40t188 109t134.5 160t83.5 195t27.5 213q0 231 -122.5 344.5t-335.5 113.5
q-126 0 -235.5 -40t-188 -108.5t-135 -160t-84 -195t-27.5 -212.5q0 -231 123 -345t336 -114zM852 315q-87 0 -151.5 25.5t-102.5 72t-56 105t-18 129.5q0 236 129 389.5t324 153.5q137 0 220 -65t85 -169h-238q-14 64 -94 64q-59 0 -102.5 -40.5t-63.5 -117.5l-6 -24l6 -2
q28 28 85 49.5t122 21.5q119 0 187.5 -63.5t68.5 -173.5q0 -151 -108.5 -253t-286.5 -102zM862 498q60 0 102 41t42 98q0 43 -26 69.5t-75 26.5q-62 0 -103.5 -38t-41.5 -95q0 -46 27 -74t75 -28z" />
    <glyph glyph-name="uni2466" unicode="&#x2466;" horiz-adv-x="1720" 
d="M780 -33q-306 0 -484.5 169.5t-178.5 479.5q0 184 66 351t183 292t288 199t370 74q306 0 485 -169.5t179 -479.5q0 -184 -66.5 -351t-183 -292t-288 -199t-370.5 -74zM797 162q126 0 235.5 40t188 109t134.5 160t83.5 195t27.5 213q0 231 -122.5 344.5t-335.5 113.5
q-126 0 -235.5 -40t-188 -108.5t-135 -160t-84 -195t-27.5 -212.5q0 -231 123 -345t336 -114zM899 338h-260q38 198 140.5 372t217.5 261v2h-366l39 196h626l-36 -182q-143 -101 -232 -271.5t-129 -377.5z" />
    <glyph glyph-name="uni2467" unicode="&#x2467;" horiz-adv-x="1720" 
d="M780 -33q-306 0 -484.5 169.5t-178.5 479.5q0 184 66 351t183 292t288 199t370 74q306 0 485 -169.5t179 -479.5q0 -184 -66.5 -351t-183 -292t-288 -199t-370.5 -74zM797 162q126 0 235.5 40t188 109t134.5 160t83.5 195t27.5 213q0 231 -122.5 344.5t-335.5 113.5
q-126 0 -235.5 -40t-188 -108.5t-135 -160t-84 -195t-27.5 -212.5q0 -231 123 -345t336 -114zM846 317q-140 0 -227 58.5t-87 167.5q0 88 54.5 151.5t150.5 93.5v7q-88 53 -88 151q0 112 101.5 181t244.5 69q123 0 200 -53t77 -150q0 -68 -44.5 -125t-113.5 -84v-4
q58 -32 88.5 -70.5t30.5 -107.5q0 -130 -111 -207.5t-276 -77.5zM944 862q58 0 90.5 31.5t32.5 71.5q0 34 -24 54.5t-70 20.5q-61 0 -93 -30t-32 -72q0 -34 25.5 -55t70.5 -21zM868 492q64 0 102 34.5t38 85.5q0 39 -26.5 62.5t-74.5 23.5q-58 0 -97.5 -34t-39.5 -84
q0 -40 26.5 -64t71.5 -24z" />
    <glyph glyph-name="uni2468" unicode="&#x2468;" horiz-adv-x="1720" 
d="M780 -33q-306 0 -484.5 169.5t-178.5 479.5q0 184 66 351t183 292t288 199t370 74q306 0 485 -169.5t179 -479.5q0 -184 -66.5 -351t-183 -292t-288 -199t-370.5 -74zM797 162q126 0 235.5 40t188 109t134.5 160t83.5 195t27.5 213q0 231 -122.5 344.5t-335.5 113.5
q-126 0 -235.5 -40t-188 -108.5t-135 -160t-84 -195t-27.5 -212.5q0 -231 123 -345t336 -114zM831 315q-137 0 -221 65t-86 169h238q14 -64 94 -64q59 0 102.5 40.5t63.5 117.5l6 25l-6 2q-28 -28 -85 -50t-122 -22q-119 0 -187.5 64t-68.5 174q0 151 108.5 252.5
t286.5 101.5q87 0 151.5 -25.5t102.5 -72t56 -105t18 -129.5q0 -150 -53.5 -273t-157.5 -196.5t-240 -73.5zM901 772q62 0 104 38t42 95q0 46 -27.5 74.5t-75.5 28.5q-60 0 -101.5 -41.5t-41.5 -98.5q0 -43 25.5 -69.5t74.5 -26.5z" />
    <glyph glyph-name="uni24EA" unicode="&#x24ea;" horiz-adv-x="1720" 
d="M780 -33q-306 0 -484.5 169.5t-178.5 479.5q0 184 66 351t183 292t288 199t370 74q306 0 485 -169.5t179 -479.5q0 -184 -66.5 -351t-183 -292t-288 -199t-370.5 -74zM797 162q126 0 235.5 40t188 109t134.5 160t83.5 195t27.5 213q0 231 -122.5 344.5t-335.5 113.5
q-126 0 -235.5 -40t-188 -108.5t-135 -160t-84 -195t-27.5 -212.5q0 -231 123 -345t336 -114zM840 319q-165 0 -249.5 91t-84.5 243q0 234 132.5 387.5t332.5 153.5q162 0 244.5 -91t82.5 -243q0 -234 -130.5 -387.5t-327.5 -153.5zM848 518q51 0 92.5 35t65 88.5t35.5 110
t12 108.5q0 135 -97 135q-51 0 -92.5 -35t-64.5 -89t-35 -111t-12 -109q0 -133 96 -133z" />
    <glyph glyph-name="upblock" unicode="&#x2580;" horiz-adv-x="1675" 
d="M1608 731h-1465l144 733h1464z" />
    <glyph glyph-name="dnblock" unicode="&#x2584;" horiz-adv-x="1679" 
d="M1470 0h-1464l144 733h1464z" />
    <glyph glyph-name="block" unicode="&#x2588;" horiz-adv-x="1710" 
d="M1485 0h-1465l285 1464h1464z" />
    <glyph glyph-name="filledbox" unicode="&#x25a0;" horiz-adv-x="1710" 
d="M1485 0h-1465l285 1464h1464z" />
    <glyph glyph-name="uni25A1" unicode="&#x25a1;" horiz-adv-x="1710" 
d="M1485 0h-1465l285 1464h1464zM504 1219l-191 -973h973l191 973h-973z" />
    <glyph glyph-name="uni25AA" unicode="&#x25aa;" horiz-adv-x="778" 
d="M645 369h-573l110 573h574z" />
    <glyph glyph-name="uni25AB" unicode="&#x25ab;" horiz-adv-x="858" 
d="M717 328h-656l127 655h656zM387 737l-33 -164h164l33 164h-164z" />
    <glyph glyph-name="triagup" unicode="&#x25b2;" horiz-adv-x="1693" 
d="M1565 0h-1639l1104 1464z" />
    <glyph glyph-name="triagrt" unicode="&#x25ba;" horiz-adv-x="1673" 
d="M1653 731l-1624 -819l319 1638z" />
    <glyph glyph-name="triagdn" unicode="&#x25bc;" horiz-adv-x="1693" 
d="M1847 1464l-1104 -1464l-534 1464h1638z" />
    <glyph glyph-name="triaglf" unicode="&#x25c4;" horiz-adv-x="1671" 
d="M1722 1550l-319 -1638l-1305 819z" />
    <glyph glyph-name="lozenge" unicode="&#x25ca;" horiz-adv-x="1292" 
d="M711 0h-330l-272 731l555 733h329l271 -733zM457 731l141 -450h4l313 450l-141 453h-4z" />
    <glyph glyph-name="circle" unicode="&#x25cb;" horiz-adv-x="1720" 
d="M780 -33q-306 0 -484.5 169.5t-178.5 479.5q0 184 66 351t183 292t288 199t370 74q306 0 485 -169.5t179 -479.5q0 -184 -66.5 -351t-183 -292t-288 -199t-370.5 -74zM797 162q126 0 235.5 40t188 109t134.5 160t83.5 195t27.5 213q0 231 -122.5 344.5t-335.5 113.5
q-126 0 -235.5 -40t-188 -108.5t-135 -160t-84 -195t-27.5 -212.5q0 -231 123 -345t336 -114z" />
    <glyph glyph-name="uni25CF" unicode="&#x25cf;" horiz-adv-x="1697" 
d="M741 -33q-138 0 -256.5 47.5t-200.5 129.5t-128.5 196t-46.5 244q0 138 50 275t139 250.5t204.5 201.5t255 137t280.5 49q137 0 254.5 -47.5t199.5 -130t128.5 -196.5t46.5 -244q0 -173 -78 -340.5t-204.5 -292.5t-297 -202t-346.5 -77z" />
    <glyph glyph-name="uni2B0E" unicode="&#x2b0e;" horiz-adv-x="1449" 
d="M846 377l416 328l131 -158l-752 -588l-518 588l192 158l285 -328l88 446h-592l41 226h840z" />
    <glyph glyph-name="uni2B0F" unicode="&#x2b0f;" horiz-adv-x="1464" 
d="M125 502l747 588l523 -588l-193 -158l-287 328l-131 -672h-839l47 225h590l88 447l-414 -328z" />
    <glyph glyph-name="uni2B10" unicode="&#x2b10;" horiz-adv-x="1458" 
d="M1511 1040l-47 -225h-590l-88 -446l414 327l131 -157l-747 -588l-523 588l193 157l287 -327l131 671h839z" />
    <glyph glyph-name="uni2B11" unicode="&#x2b11;" horiz-adv-x="1458" 
d="M854 672l-88 -447h592l-41 -225h-840l131 672l-415 -328l-132 158l752 588l518 -588l-192 -158z" />
    <glyph glyph-name="uni2BA0" unicode="&#x2ba0;" horiz-adv-x="1263" 
d="M1069 1233h225l-114 -594l-47 -246h-672l258 -350l-189 -162l-464 635l712 635l125 -162l-395 -350h446z" />
    <glyph glyph-name="uni2BA1" unicode="&#x2ba1;" horiz-adv-x="1261" 
d="M539 989l188 162l465 -635l-713 -635l-125 162l396 350h-672l43 225l121 615h225l-117 -594h447z" />
    <glyph glyph-name="uni2BA2" unicode="&#x2ba2;" horiz-adv-x="1259" 
d="M909 1020l-395 -350h672l-45 -226l-119 -614h-225l114 594h-446l260 -350l-188 -162l-465 635l710 635z" />
    <glyph glyph-name="uni2BA3" unicode="&#x2ba3;" horiz-adv-x="1259" 
d="M543 1020l188 162l465 -635l-713 -635l-125 162l396 350h-447l-114 -594h-226l115 594l47 246h672z" />
    <glyph glyph-name="uni2BA4" unicode="&#x2ba4;" horiz-adv-x="1449" 
d="M848 668l-88 -447h592l-41 -225h-840l131 672l-416 -328l-131 158l752 587l518 -587l-192 -158z" />
    <glyph glyph-name="uni2BA5" unicode="&#x2ba5;" horiz-adv-x="1464" 
d="M125 502l747 588l523 -588l-193 -158l-287 328l-131 -672h-839l47 225h590l88 447l-414 -328z" />
    <glyph glyph-name="uni2BA6" unicode="&#x2ba6;" horiz-adv-x="1458" 
d="M1511 1040l-47 -225h-590l-88 -446l414 327l131 -157l-747 -588l-523 588l193 157l287 -327l131 671h839z" />
    <glyph glyph-name="uni2BA7" unicode="&#x2ba7;" horiz-adv-x="1449" 
d="M846 377l416 328l131 -158l-752 -588l-518 588l192 158l285 -328l88 446h-592l41 226h840z" />
    <glyph glyph-name="fi" unicode="&#xfb01;" horiz-adv-x="1222" 
d="M793 1049l-50 -246h-182l-155 -803h-328l158 803h-144l49 246h142l14 73q37 192 125.5 276.5t255.5 84.5q85 0 194 -23l-47 -233q-34 10 -67 10q-68 0 -96.5 -36.5t-47.5 -129.5l-4 -22h183zM930 1174l57 290h328l-58 -290h-327zM1028 0h-328l205 1049h328z" />
    <glyph glyph-name="fl" unicode="&#xfb02;" horiz-adv-x="1224" 
d="M793 1049l-50 -246h-182l-155 -803h-328l158 803h-144l49 246h142l14 73q37 192 125.5 276.5t255.5 84.5q85 0 194 -23l-47 -233q-34 10 -67 10q-68 0 -96.5 -36.5t-47.5 -129.5l-4 -22h183zM702 0l285 1464h328l-285 -1464h-328z" />
    <glyph glyph-name="uniFEFF" unicode="&#xfeff;" 
 />
    <glyph glyph-name="u1F150" unicode="&#x1f150;" horiz-adv-x="1204" 
d="M596 498q-181 0 -296.5 113t-115.5 290q0 172 77.5 308t216 212t313.5 76q181 0 297 -113t116 -290q0 -261 -170.5 -428.5t-437.5 -167.5z" />
    <glyph glyph-name="Adieresis.ss02" horiz-adv-x="1445" 
d="M737 1579q-73 0 -106.5 45t-20.5 111q12 65 64 110t125 45q72 0 105 -44.5t20 -110.5t-64 -111t-123 -45zM1137 1579q-73 0 -106.5 45t-20.5 111q12 66 63.5 110.5t124.5 44.5q72 0 105 -44.5t20 -110.5t-63.5 -111t-122.5 -45zM279 0h-381l817 1464h375l262 -1464h-383
l-35 305h-502zM842 1126l-271 -540h336l-61 540h-4z" />
    <glyph glyph-name="Cdotaccent.ss02" horiz-adv-x="1474" 
d="M995 1565q-77 0 -111.5 46t-21.5 115t66.5 116.5t128.5 47.5t110.5 -47.5t22.5 -116.5q-12 -68 -65.5 -114.5t-129.5 -46.5zM659 -33q-275 0 -422 158t-147 444q0 189 63.5 359t174.5 295.5t272.5 199.5t347.5 74q295 0 439.5 -157.5t117.5 -419.5h-377q13 276 -221 276
q-87 0 -161.5 -34.5t-127.5 -94t-91 -138t-56 -166.5t-18 -179q0 -161 54.5 -238.5t186.5 -77.5q147 0 231.5 73t131.5 208h377q-37 -128 -105.5 -233t-164.5 -183.5t-225.5 -122t-279.5 -43.5z" />
    <glyph glyph-name="Edieresis.ss02" horiz-adv-x="1314" 
d="M690 1579q-73 0 -106.5 45t-20.5 111q12 65 64 110t125 45q72 0 105 -44.5t20 -110.5t-64 -111t-123 -45zM1090 1579q-73 0 -106.5 45t-20.5 111q12 66 63.5 110.5t124.5 44.5q72 0 105 -44.5t20 -110.5t-63.5 -111t-122.5 -45zM1143 0h-1123l285 1464h1110l-59 -301
h-742l-49 -260h639l-59 -301h-639l-57 -301h753z" />
    <glyph glyph-name="Edotaccent.ss02" horiz-adv-x="1314" 
d="M887 1565q-77 0 -111.5 46t-21.5 115t66 116.5t128 47.5t110.5 -47.5t22.5 -116.5q-12 -68 -65 -114.5t-129 -46.5zM1143 0h-1123l285 1464h1110l-59 -301h-742l-49 -260h639l-59 -301h-639l-57 -301h753z" />
    <glyph glyph-name="uni0122.ss02" horiz-adv-x="1542" 
d="M621 -33q-255 0 -395 159t-140 425q0 198 66.5 374t180.5 301t273 198t338 73q151 0 267 -41t185.5 -113t101.5 -164.5t24 -199.5h-377q-3 43 -13.5 77t-35 68t-75 53t-122.5 19q-129 0 -232.5 -82t-162 -227.5t-58.5 -327.5q0 -291 273 -291q130 0 229.5 69t124.5 175
h-278l51 266h659l-151 -778h-264v186h-5q-156 -219 -464 -219zM358 -584l19 105q183 20 203 117q-87 -15 -136 21t-36 110q12 64 65.5 101.5t128.5 37.5q85 0 121.5 -51t19.5 -140q-23 -117 -123 -202t-262 -99z" />
    <glyph glyph-name="Gdotaccent.ss02" horiz-adv-x="1542" 
d="M975 1565q-77 0 -111.5 46t-21.5 115t66 116.5t128 47.5t110.5 -47.5t22.5 -116.5q-12 -68 -65 -114.5t-129 -46.5zM621 -33q-255 0 -395 159t-140 425q0 198 66.5 374t180.5 301t273 198t338 73q151 0 267 -41t185.5 -113t101.5 -164.5t24 -199.5h-377q-3 43 -13.5 77
t-35 68t-75 53t-122.5 19q-129 0 -232.5 -82t-162 -227.5t-58.5 -327.5q0 -291 273 -291q130 0 229.5 69t124.5 175h-278l51 266h659l-151 -778h-264v186h-5q-156 -219 -464 -219z" />
    <glyph glyph-name="Idieresis.ss02" horiz-adv-x="614" 
d="M313 1579q-73 0 -106.5 45t-20.5 111q12 65 64 110t125 45q72 0 105 -44.5t20 -110.5t-64 -111t-123 -45zM713 1579q-73 0 -106.5 45t-20.5 111q12 66 63.5 110.5t124.5 44.5q72 0 105 -44.5t20 -110.5t-63.5 -111t-122.5 -45zM389 0h-369l285 1464h369z" />
    <glyph glyph-name="Idotaccent.ss02" horiz-adv-x="614" 
d="M510 1565q-77 0 -111.5 46t-21.5 115t66 116.5t128 47.5t111 -47.5t23 -116.5q-12 -68 -65.5 -114.5t-129.5 -46.5zM389 0h-369l285 1464h369z" />
    <glyph glyph-name="uni0136.ss02" horiz-adv-x="1423" 
d="M1188 1464h411l-675 -637l446 -827h-430l-287 571l-186 -176l-78 -395h-369l285 1464h369l-115 -594zM621 -92q85 0 121.5 -51t19.5 -140q-23 -117 -123 -202t-262 -99l18 105q183 20 203 117q-87 -15 -136 21t-36 110q12 64 66 101.5t129 37.5z" />
    <glyph glyph-name="uni013B.ss02" horiz-adv-x="1171" 
d="M1040 0h-1020l285 1464h369l-225 -1163h651zM262 -584l19 105q182 20 202 117q-87 -15 -136 21t-36 110q12 64 66 101.5t129 37.5q85 0 121.5 -51t19.5 -140q-23 -117 -123 -202t-262 -99z" />
    <glyph glyph-name="uni0145.ss02" horiz-adv-x="1499" 
d="M389 0h-369l285 1464h365l342 -870h8l170 870h369l-285 -1464h-365l-342 870h-8zM379 -584l18 105q183 20 203 117q-87 -15 -136 21t-36 110q12 64 66 101.5t129 37.5q85 0 121.5 -51t19.5 -140q-23 -117 -123 -202t-262 -99z" />
    <glyph glyph-name="Odieresis.ss02" horiz-adv-x="1581" 
d="M803 1579q-73 0 -106.5 45t-20.5 111q12 66 63.5 110.5t124.5 44.5q72 0 105 -44.5t20 -110.5t-63.5 -111t-122.5 -45zM1202 1579q-73 0 -106.5 45t-20.5 111q12 65 64 110t125 45q72 0 105 -44.5t20 -110.5t-64 -111t-123 -45zM729 -33q-303 0 -470 165t-167 452
q0 188 58 354t163.5 290t264.5 196.5t350 72.5q305 0 473 -164t168 -450q0 -186 -58 -351.5t-163.5 -291.5t-265.5 -199.5t-353 -73.5zM745 268q109 0 197.5 52.5t143.5 139.5t84.5 193t29.5 219q0 151 -72.5 237.5t-209.5 86.5q-108 0 -197 -52.5t-144.5 -139t-85.5 -193.5
t-30 -221q0 -150 72.5 -236t211.5 -86z" />
    <glyph glyph-name="uni0156.ss02" horiz-adv-x="1404" 
d="M389 0h-369l285 1464h668q228 0 350.5 -90.5t122.5 -267.5q0 -157 -108 -277.5t-277 -152.5l-2 -4q72 -12 117 -53.5t61.5 -98t20.5 -122.5t-3 -130.5t-13 -118t-4 -89t19 -40.5l-4 -20h-383q-8 11 -9.5 39t6.5 66t13.5 83l11 90t-0.5 87t-21.5 74t-51.5 51.5t-91 19.5
h-240zM547 811h250q127 0 198.5 59.5t71.5 159.5q0 70 -49 101.5t-154 31.5h-250zM369 -584l18 105q183 20 203 117q-87 -15 -136 21t-36 110q12 64 65.5 101.5t128.5 37.5q85 0 122 -51t20 -140q-23 -117 -123 -202t-262 -99z" />
    <glyph glyph-name="uni0218.ss02" horiz-adv-x="1343" 
d="M641 -33q-292 0 -454.5 141.5t-153.5 383.5h373q-24 -113 43 -170.5t198 -57.5q118 0 183 43t65 111q0 45 -35.5 79t-76.5 51.5t-141 52.5q-31 11 -48 17q-66 23 -115 44t-99 48.5t-84.5 58.5t-62.5 70.5t-41.5 88.5t-13.5 108q0 212 169.5 336.5t443.5 124.5
q279 0 422.5 -127t146.5 -350h-367q9 92 -49 139t-176 47q-98 0 -154.5 -35t-56.5 -100q0 -62 50.5 -95.5t191.5 -86.5q204 -76 280 -119q143 -82 182 -201q18 -54 17 -120q-1 -102 -42.5 -189.5t-119.5 -153t-200 -102.5t-275 -37zM334 -584l18 105q183 20 203 117
q-87 -15 -136 21t-36 110q12 64 66 101.5t129 37.5q85 0 121.5 -51t19.5 -140q-23 -117 -123 -202t-262 -99z" />
    <glyph glyph-name="uni021A.ss02" horiz-adv-x="1280" 
d="M723 0h-369l226 1163h-426l59 301h1219l-60 -301h-424zM270 -584l19 105q183 20 203 117q-88 -15 -137 21t-36 110q12 64 66 101.5t129 37.5q85 0 121.5 -51t19.5 -140q-23 -117 -123 -202t-262 -99z" />
    <glyph glyph-name="Udieresis.ss02" horiz-adv-x="1447" 
d="M729 1579q-73 0 -106.5 45t-20.5 111q12 65 64 110t125 45q72 0 104.5 -44.5t19.5 -110.5t-63.5 -111t-122.5 -45zM1128 1579q-73 0 -106.5 45t-20.5 111q12 65 64 110t125 45q72 0 105 -44.5t20 -110.5t-64 -111t-123 -45zM637 -33q-125 0 -224 28t-162.5 78.5t-103 121
t-46 154.5t9.5 179l182 936h369l-183 -936q-27 -139 21 -199.5t172 -60.5q126 0 197 60t98 200l182 936h369l-183 -936q-28 -141 -78 -242.5t-132 -174.5t-203 -108.5t-285 -35.5z" />
    <glyph glyph-name="Wdieresis.ss02" horiz-adv-x="1959" 
d="M983 1579q-73 0 -106.5 45t-20.5 111q12 66 63.5 110.5t124.5 44.5q72 0 105 -44.5t20 -110.5t-63.5 -111t-122.5 -45zM1382 1579q-73 0 -106.5 45t-20.5 111q12 65 64 110t125 45q72 0 105 -44.5t20 -110.5t-64 -111t-123 -45zM653 0h-368l-88 1464h368l-4 -993h4
l420 993h348l35 -993h4l381 993h369l-658 -1464h-368l-41 913h-4z" />
    <glyph glyph-name="Ydieresis.ss02" horiz-adv-x="1370" 
d="M694 1579q-73 0 -106.5 45t-20.5 111q12 65 64 110t125 45q72 0 105 -44.5t20 -110.5t-64 -111t-123 -45zM1094 1579q-73 0 -106.5 45t-20.5 111q12 66 63.5 110.5t124.5 44.5q72 0 105 -44.5t20 -110.5t-63.5 -111t-122.5 -45zM768 0h-369l105 541l-320 923h394
l163 -622h4l408 622h393l-674 -923z" />
    <glyph glyph-name="Zdotaccent.ss02" horiz-adv-x="1255" 
d="M848 1565q-77 0 -111.5 46t-21.5 115t66 116.5t128 47.5t110.5 -47.5t22.5 -116.5q-12 -68 -65 -114.5t-129 -46.5zM1092 0h-1141l59 301l836 858v4h-629l59 301h1080l-60 -301l-835 -858v-4h690z" />
    <glyph glyph-name="i.latn_TRK" horiz-adv-x="509" 
d="M545 1174h-328l57 290h328zM315 0h-327l205 1049h327z" />
    <glyph glyph-name="a.ss01" horiz-adv-x="1230" 
d="M895 944l20 105h328l-205 -1049h-327l20 104h-4q-46 -51 -133.5 -94t-194.5 -43q-172 0 -269 112.5t-97 311.5q0 184 77 343t210 253t288 94q108 0 181 -42.5t102 -94.5h4zM530 213q85 0 152.5 61t102 154.5t34.5 196.5q0 106 -42.5 158.5t-119.5 52.5q-85 0 -151.5 -61
t-99.5 -153.5t-33 -195.5q0 -213 157 -213z" />
    <glyph glyph-name="aacute.ss01" horiz-adv-x="1230" 
d="M733 1485h369l-293 -311h-246zM895 944l20 105h328l-205 -1049h-327l20 104h-4q-46 -51 -133.5 -94t-194.5 -43q-172 0 -269 112.5t-97 311.5q0 184 77 343t210 253t288 94q108 0 181 -42.5t102 -94.5h4zM530 213q85 0 152.5 61t102 154.5t34.5 196.5q0 106 -42.5 158.5
t-119.5 52.5q-85 0 -151.5 -61t-99.5 -153.5t-33 -195.5q0 -213 157 -213z" />
    <glyph glyph-name="abreve.ss01" horiz-adv-x="1230" 
d="M715 1157q-146 0 -222 85t-53 226h181q-5 -53 24 -81.5t94 -28.5q64 0 105 29t55 81h197q-34 -142 -131.5 -226.5t-249.5 -84.5zM895 944l20 105h328l-205 -1049h-327l20 104h-4q-46 -51 -133.5 -94t-194.5 -43q-172 0 -269 112.5t-97 311.5q0 184 77 343t210 253t288 94
q108 0 181 -42.5t102 -94.5h4zM530 213q85 0 152.5 61t102 154.5t34.5 196.5q0 106 -42.5 158.5t-119.5 52.5q-85 0 -151.5 -61t-99.5 -153.5t-33 -195.5q0 -213 157 -213z" />
    <glyph glyph-name="acircumflex.ss01" horiz-adv-x="1230" 
d="M741 1339h-4l-127 -165h-293l293 311h305l170 -311h-282zM895 944l20 105h328l-205 -1049h-327l20 104h-4q-46 -51 -133.5 -94t-194.5 -43q-172 0 -269 112.5t-97 311.5q0 184 77 343t210 253t288 94q108 0 181 -42.5t102 -94.5h4zM530 213q85 0 152.5 61t102 154.5
t34.5 196.5q0 106 -42.5 158.5t-119.5 52.5q-85 0 -151.5 -61t-99.5 -153.5t-33 -195.5q0 -213 157 -213z" />
    <glyph glyph-name="adieresis.ss01" horiz-adv-x="1230" 
d="M395 1464h328l-66 -290h-327zM821 1464h328l-66 -290h-327zM895 944l20 105h328l-205 -1049h-327l20 104h-4q-46 -51 -133.5 -94t-194.5 -43q-172 0 -269 112.5t-97 311.5q0 184 77 343t210 253t288 94q108 0 181 -42.5t102 -94.5h4zM530 213q85 0 152.5 61t102 154.5
t34.5 196.5q0 106 -42.5 158.5t-119.5 52.5q-85 0 -151.5 -61t-99.5 -153.5t-33 -195.5q0 -213 157 -213z" />
    <glyph glyph-name="agrave.ss01" horiz-adv-x="1230" 
d="M702 1485l109 -311h-246l-231 311h368zM895 944l20 105h328l-205 -1049h-327l20 104h-4q-46 -51 -133.5 -94t-194.5 -43q-172 0 -269 112.5t-97 311.5q0 184 77 343t210 253t288 94q108 0 181 -42.5t102 -94.5h4zM530 213q85 0 152.5 61t102 154.5t34.5 196.5
q0 106 -42.5 158.5t-119.5 52.5q-85 0 -151.5 -61t-99.5 -153.5t-33 -195.5q0 -213 157 -213z" />
    <glyph glyph-name="amacron.ss01" horiz-adv-x="1230" 
d="M457 1378h585l-38 -204h-586zM895 944l20 105h328l-205 -1049h-327l20 104h-4q-46 -51 -133.5 -94t-194.5 -43q-172 0 -269 112.5t-97 311.5q0 184 77 343t210 253t288 94q108 0 181 -42.5t102 -94.5h4zM530 213q85 0 152.5 61t102 154.5t34.5 196.5q0 106 -42.5 158.5
t-119.5 52.5q-85 0 -151.5 -61t-99.5 -153.5t-33 -195.5q0 -213 157 -213z" />
    <glyph glyph-name="aogonek.ss01" horiz-adv-x="1230" 
d="M1038 0h-49q-47 -19 -83 -53t-36 -68q0 -47 58 -47q32 0 86 14l-35 -184q-90 -22 -170 -22q-205 0 -205 143q0 64 48 123t132 94h-73l20 104h-4q-46 -51 -133.5 -94t-194.5 -43q-172 0 -269 112.5t-97 311.5q0 184 77 343t210 253t288 94q108 0 181 -42.5t102 -94.5h4
l20 105h328zM530 213q85 0 152.5 61t102 154.5t34.5 196.5q0 106 -42.5 158.5t-119.5 52.5q-85 0 -151.5 -61t-99.5 -153.5t-33 -195.5q0 -213 157 -213z" />
    <glyph glyph-name="aring.ss01" horiz-adv-x="1230" 
d="M713 1135q-98 0 -152.5 52t-54.5 144q0 106 72 173t176 67q98 0 152.5 -52t54.5 -145q0 -106 -72 -172.5t-176 -66.5zM750 1448q-48 0 -79.5 -34.5t-31.5 -82.5q0 -37 21.5 -55.5t56.5 -18.5q48 0 79 34t31 83q0 37 -21 55.5t-56 18.5zM895 944l20 105h328l-205 -1049
h-327l20 104h-4q-46 -51 -133.5 -94t-194.5 -43q-172 0 -269 112.5t-97 311.5q0 184 77 343t210 253t288 94q108 0 181 -42.5t102 -94.5h4zM530 213q85 0 152.5 61t102 154.5t34.5 196.5q0 106 -42.5 158.5t-119.5 52.5q-85 0 -151.5 -61t-99.5 -153.5t-33 -195.5
q0 -213 157 -213z" />
    <glyph glyph-name="atilde.ss01" horiz-adv-x="1230" 
d="M627 1223q-71 0 -86 -80h-179q58 301 242 301q47 0 95 -20.5t91 -41t76 -20.5q72 0 88 82h176q-32 -156 -91.5 -228.5t-149.5 -72.5q-47 0 -95.5 20t-91.5 40t-75 20zM895 944l20 105h328l-205 -1049h-327l20 104h-4q-46 -51 -133.5 -94t-194.5 -43q-172 0 -269 112.5
t-97 311.5q0 184 77 343t210 253t288 94q108 0 181 -42.5t102 -94.5h4zM530 213q85 0 152.5 61t102 154.5t34.5 196.5q0 106 -42.5 158.5t-119.5 52.5q-85 0 -151.5 -61t-99.5 -153.5t-33 -195.5q0 -213 157 -213z" />
    <glyph glyph-name="adieresis.ss02" horiz-adv-x="1169" 
d="M516 1163q-73 0 -106.5 45t-20.5 111q12 66 64 111t125 45q72 0 104.5 -45t19.5 -111t-63.5 -111t-122.5 -45zM915 1163q-73 0 -106.5 45t-20.5 111q12 66 64 111t125 45q72 0 105 -45t20 -111t-64 -111t-123 -45zM301 -33q-141 0 -219 69.5t-78 196.5q0 74 27.5 133.5
t70.5 99.5t109 72.5t128.5 51.5t143.5 37q54 12 82 18.5t69 18t61.5 22t42.5 25t31 33t9 40.5q0 80 -125 80q-88 0 -139.5 -38t-75.5 -117h-309q38 168 177 271t384 103q113 0 193 -24t134.5 -78t66.5 -141t-11 -213l-80 -385q-11 -46 -3 -63t46 -17q7 0 17 2l-33 -168
q-111 -19 -170 -19q-188 0 -188 150h-5q-58 -73 -150 -116.5t-206 -43.5zM455 197q203 0 258 233l20 86q-40 -22 -73.5 -33.5t-129.5 -33.5q-100 -23 -146 -56t-46 -94q0 -51 31.5 -76.5t85.5 -25.5z" />
    <glyph glyph-name="cdotaccent.ss02" horiz-adv-x="1122" 
d="M705 1149q-77 0 -112 46.5t-22 115.5t66.5 116.5t128.5 47.5t110.5 -47.5t22.5 -116.5q-12 -69 -65.5 -115.5t-128.5 -46.5zM500 -35q-215 0 -339 117t-124 328q0 107 25.5 206t78 184t126.5 148t177.5 99t225.5 36q227 0 342.5 -120.5t101.5 -309.5h-319q7 81 -28 133
t-122 52q-128 0 -207.5 -123.5t-79.5 -292.5q0 -103 42 -157t124 -54q51 0 89.5 14.5t63 42.5t39.5 56.5t29 70.5h320q-49 -193 -198 -311.5t-367 -118.5z" />
    <glyph glyph-name="edieresis.ss02" horiz-adv-x="1179" 
d="M524 1163q-73 0 -106.5 45t-20.5 111q12 66 64 111t125 45q72 0 105 -45t20 -111t-64 -111t-123 -45zM924 1163q-73 0 -106.5 45t-20.5 111t64.5 111t123.5 45t105 -45t20 -111t-63.5 -111t-122.5 -45zM1120 436h-766v-16q0 -114 51 -161.5t142 -47.5q86 0 140.5 35.5
t64.5 83.5h333q-75 -175 -219 -270t-352 -95q-236 0 -354.5 120.5t-118.5 352.5q0 129 44.5 245t125 205.5t204 142t271.5 52.5q124 0 214 -32.5t141.5 -94.5t75.5 -141.5t24 -183.5q0 -79 -21 -195zM662 848q-105 0 -175 -56t-102 -153h438q18 101 -25 155t-136 54z" />
    <glyph glyph-name="edotaccent.ss02" horiz-adv-x="1179" 
d="M721 1149q-76 0 -111 46.5t-22 115.5t66 116.5t128 47.5t110.5 -47.5t22.5 -116.5q-12 -69 -65.5 -115.5t-128.5 -46.5zM1120 436h-766v-16q0 -114 51 -161.5t142 -47.5q86 0 140.5 35.5t64.5 83.5h333q-75 -175 -219 -270t-352 -95q-236 0 -354.5 120.5t-118.5 352.5
q0 129 44.5 245t125 205.5t204 142t271.5 52.5q124 0 214 -32.5t141.5 -94.5t75.5 -141.5t24 -183.5q0 -79 -21 -195zM662 848q-105 0 -175 -56t-102 -153h438q18 101 -25 155t-136 54z" />
    <glyph glyph-name="uni0123.ss02" horiz-adv-x="1200" 
d="M702 1165q-81 0 -114 52.5t-17 134.5q22 104 107 173.5t233 82.5l-18 -95q-165 -21 -182 -114q82 13 123.5 -17.5t29.5 -95.5q-11 -55 -54.5 -88t-107.5 -33zM866 944l21 105h327l-186 -953q-21 -105 -58.5 -185t-89 -134t-119.5 -88t-144.5 -49t-170.5 -15
q-115 0 -208 31.5t-149.5 82.5t-88 109.5t-37.5 120.5h330q18 -108 166 -108q111 0 165 60.5t83 203.5l12 61h-4q-128 -137 -309 -137q-168 0 -263.5 106t-95.5 296q0 122 40 236t109 201.5t170.5 140t217.5 52.5q75 0 135 -24t89.5 -52t49.5 -61h8zM532 295q81 0 143 53.5
t92 133t30 169.5q0 185 -146 185q-84 0 -148 -53t-95 -133t-31 -171q0 -184 155 -184z" />
    <glyph glyph-name="gdotaccent.ss02" horiz-adv-x="1200" 
d="M686 1149q-76 0 -111 46.5t-22 115.5t66.5 116.5t128.5 47.5t110.5 -47.5t22.5 -116.5q-12 -69 -65.5 -115.5t-129.5 -46.5zM866 944l21 105h327l-186 -953q-21 -105 -58.5 -185t-89 -134t-119.5 -88t-144.5 -49t-170.5 -15q-115 0 -208 31.5t-149.5 82.5t-88 109.5
t-37.5 120.5h330q18 -108 166 -108q111 0 165 60.5t83 203.5l12 61h-4q-128 -137 -309 -137q-168 0 -263.5 106t-95.5 296q0 122 40 236t109 201.5t170.5 140t217.5 52.5q75 0 135 -24t89.5 -52t49.5 -61h8zM532 295q81 0 143 53.5t92 133t30 169.5q0 185 -146 185
q-84 0 -148 -53t-95 -133t-31 -171q0 -184 155 -184z" />
    <glyph glyph-name="i.ss02" horiz-adv-x="509" 
d="M375 1139q-80 0 -116 49t-23 123q13 72 68.5 122t135.5 50t117 -50t23 -122q-12 -73 -68 -122.5t-137 -49.5zM315 0h-327l205 1049h327z" />
    <glyph glyph-name="idieresis.ss02" horiz-adv-x="509" 
d="M180 1163q-73 0 -106.5 45t-20.5 111q12 66 64 111t125 45q72 0 105 -45t20 -111t-64 -111t-123 -45zM580 1163q-73 0 -106.5 45t-20.5 111t64.5 111t123.5 45t105 -45t20 -111t-63.5 -111t-122.5 -45zM315 0h-327l205 1049h327z" />
    <glyph glyph-name="iogonek.ss02" horiz-adv-x="509" 
d="M438 1475q75 0 110.5 -47.5t22.5 -116.5q-12 -69 -65.5 -115.5t-128.5 -46.5q-76 0 -111 46.5t-22 115.5t66 116.5t128 47.5zM315 0h-12q-47 -19 -83 -53t-36 -68q0 -47 58 -47q32 0 86 14l-35 -184q-90 -22 -170 -22q-205 0 -205 143q0 64 48 123t132 94h-110l205 1049
h327z" />
    <glyph glyph-name="j.ss02" horiz-adv-x="512" 
d="M377 1149q-76 0 -111 46.5t-22 115.5t66 116.5t128 47.5t110.5 -47.5t22.5 -116.5q-12 -69 -65.5 -115.5t-128.5 -46.5zM-84 -375q-84 0 -178 21l49 250q54 -7 74 -7q55 0 85 23.5t46 101.5l201 1035h327l-196 -1018q-38 -199 -136.5 -302.5t-271.5 -103.5z" />
    <glyph glyph-name="uni0137.ss02" horiz-adv-x="1114" 
d="M842 1049h377l-449 -394l287 -655h-369l-172 432l-139 -123l-62 -309h-327l284 1464h328l-151 -780zM498 -92q85 0 121.5 -51t19.5 -140q-23 -117 -123 -202t-262 -99l18 105q183 20 203 117q-87 -15 -136 21t-36 110q12 64 66 101.5t129 37.5z" />
    <glyph glyph-name="uni013C.ss02" horiz-adv-x="512" 
d="M317 0h-327l284 1464h328zM-115 -584l19 105q182 20 202 117q-87 -15 -136 21t-36 110q12 64 66 101.5t129 37.5q85 0 121.5 -51t19.5 -140q-23 -117 -123 -202t-262 -99z" />
    <glyph glyph-name="uni0146.ss02" horiz-adv-x="1189" 
d="M858 1083q172 0 243 -109.5t27 -338.5l-124 -635h-328l119 604q41 211 -125 211q-95 0 -157.5 -60t-78.5 -149l-119 -606h-327l205 1049h327l-26 -142h4q136 176 360 176zM471 -92q85 0 121.5 -51t19.5 -140q-23 -117 -123 -202t-262 -99l19 105q183 20 203 117
q-88 -15 -137 21t-36 110q12 64 66 101.5t129 37.5z" />
    <glyph glyph-name="odieresis.ss02" horiz-adv-x="1216" 
d="M549 1163q-73 0 -106.5 45t-20.5 111t64.5 111t123.5 45t105 -45t20 -111t-63.5 -111t-122.5 -45zM948 1163q-73 0 -106.5 45t-20.5 111q12 66 64 111t125 45q72 0 105 -45t20 -111t-64 -111t-123 -45zM535 -35q-236 0 -366 120.5t-130 338.5q0 185 79.5 334.5t228 237
t337.5 87.5q235 0 364.5 -120t129.5 -338q0 -185 -79.5 -335t-227.5 -237.5t-336 -87.5zM557 211q136 0 216.5 122t80.5 292q0 106 -51 159.5t-144 53.5q-91 0 -160 -59t-103 -152.5t-34 -202.5q0 -106 51 -159.5t144 -53.5z" />
    <glyph glyph-name="uni0157.ss02" horiz-adv-x="788" 
d="M797 1057q36 0 73 -8l-57 -287q-43 6 -76 6q-132 0 -213.5 -69.5t-115.5 -225.5l-93 -473h-327l205 1049h327l-33 -172h2q62 91 135.5 135.5t172.5 44.5zM127 -92q85 0 121.5 -51t19.5 -140q-23 -117 -123 -202t-262 -99l19 105q182 20 202 117q-87 -15 -136 21t-36 110
q12 64 66 101.5t129 37.5z" />
    <glyph glyph-name="uni0219.ss02" horiz-adv-x="1044" 
d="M465 -33q-105 0 -188.5 21.5t-136.5 57.5t-87 86t-46.5 103.5t-8.5 112.5h299q-4 -78 40.5 -116.5t137.5 -38.5q80 0 123 26.5t43 73.5q0 18 -5.5 32.5t-20 26t-27 20t-38.5 18t-41.5 14.5t-49 15t-49.5 15q-55 17 -93.5 32t-83.5 40.5t-72.5 54.5t-46 73t-18.5 97
q0 152 133 251t353 99q119 0 209 -31t140 -82.5t72 -112.5t15 -126h-301q5 67 -32 101t-122 34q-70 0 -108.5 -23.5t-38.5 -66.5q0 -16 5 -29.5t18 -24.5t24 -18.5t35.5 -16.5t39.5 -14t48.5 -15t50.5 -15q76 -23 128.5 -46.5t102.5 -59.5t75.5 -87.5t25.5 -117.5
q0 -70 -29.5 -133t-88 -115.5t-158.5 -83.5t-228 -31zM190 -584l19 105q183 20 203 117q-87 -15 -136 21t-36 110q12 64 65.5 101.5t128.5 37.5q85 0 121.5 -51t19.5 -140q-23 -117 -123 -202t-262 -99z" />
    <glyph glyph-name="uni021B.ss02" horiz-adv-x="749" 
d="M739 803h-182l-88 -455q-16 -78 5.5 -100.5t76.5 -22.5q35 0 90 8l-45 -231q-102 -22 -199 -22q-172 0 -233.5 84.5t-24.5 275.5l90 463h-145l47 246h145l58 292h328l-58 -292h182zM352 -72q85 0 122 -50.5t20 -139.5q-23 -117 -123 -202t-262 -99l18 104q183 20 203 117
q-87 -15 -136 21t-36 110q12 64 65.5 101.5t128.5 37.5z" />
    <glyph glyph-name="udieresis.ss02" horiz-adv-x="1187" 
d="M508 1163q-73 0 -106.5 45t-20.5 111t64.5 111t123.5 45t105 -45t20 -111t-63.5 -111t-122.5 -45zM907 1163q-73 0 -106.5 45t-20.5 111q12 66 64 111t125 45q72 0 105 -45t20 -111t-64 -111t-123 -45zM752 432l118 617h328l-203 -1049h-327l28 152h-4
q-57 -81 -148.5 -133t-203.5 -52q-177 0 -251.5 109.5t-29.5 337.5l125 635h328l-119 -605q-41 -211 125 -211q93 0 153 54t81 145z" />
    <glyph glyph-name="wdieresis.ss02" horiz-adv-x="1622" 
d="M733 1163q-73 0 -106.5 45t-20.5 111q12 66 64 111t125 45q72 0 105 -45t20 -111t-64 -111t-123 -45zM1133 1163q-73 0 -106.5 45t-20.5 111t64.5 111t123.5 45t105 -45t20 -111t-63.5 -111t-122.5 -45zM510 0h-317l-89 1049h324l33 -639h4l311 639h260l62 -639h6
l282 639h332l-501 -1049h-318l-63 664h-5z" />
    <glyph glyph-name="ydieresis.ss02" horiz-adv-x="1124" 
d="M475 1163q-73 0 -106.5 45t-20.5 111q12 66 64 111t125 45q72 0 105 -45t20 -111t-64 -111t-123 -45zM874 1163q-73 0 -106 45t-20 111t64.5 111t123.5 45t105 -45t20 -111t-64 -111t-123 -45zM139 -362q-95 0 -192 20l49 250q50 -6 96 -6q26 0 42 1t44.5 6.5t48.5 16.5
t41.5 33.5t36.5 54.5l-223 1035h330l114 -691h4l347 691h342l-623 -1121q-58 -104 -117 -165t-142 -93t-198 -32z" />
    <glyph glyph-name="zdotaccent.ss02" horiz-adv-x="1024" 
d="M631 1149q-76 0 -111 46.5t-22 115.5t66 116.5t128 47.5t110.5 -47.5t22.5 -116.5q-12 -69 -65.5 -115.5t-128.5 -46.5zM877 0h-940l45 236l620 563v4h-469l49 246h879l-47 -236l-619 -563l-2 -4h531z" />
    <glyph glyph-name="i.latn_TRK.ss02" horiz-adv-x="509" 
d="M375 1139q-80 0 -116 49t-23 123q13 72 68.5 122t135.5 50t117 -50t23 -122q-12 -73 -68 -122.5t-137 -49.5zM315 0h-327l205 1049h327z" />
    <glyph glyph-name="adieresis.ss01.ss02" horiz-adv-x="1230" 
d="M510 1163q-73 0 -106.5 45t-20.5 111t64.5 111t123.5 45t105 -45t20 -111t-63.5 -111t-122.5 -45zM909 1163q-73 0 -106.5 45t-20.5 111q12 66 64 111t125 45q72 0 105 -45t20 -111t-64 -111t-123 -45zM895 944l20 105h328l-205 -1049h-327l20 104h-4q-46 -51 -133.5 -94
t-194.5 -43q-172 0 -269 112.5t-97 311.5q0 184 77 343t210 253t288 94q108 0 181 -42.5t102 -94.5h4zM530 213q85 0 152.5 61t102 154.5t34.5 196.5q0 106 -42.5 158.5t-119.5 52.5q-85 0 -151.5 -61t-99.5 -153.5t-33 -195.5q0 -213 157 -213z" />
    <glyph glyph-name="s_s" horiz-adv-x="2109" 
d="M465 -33q-105 0 -188.5 21.5t-136.5 57.5t-87 86t-46.5 103.5t-8.5 112.5h299q-4 -78 40.5 -116.5t137.5 -38.5q80 0 123 26t43 70q0 19 -7.5 35.5t-24.5 29.5t-31 22.5t-41.5 19t-42 14.5t-45.5 13.5t-39 10.5q-50 15 -87.5 29t-83 39.5t-74.5 55t-49 75t-20 100.5
q0 150 123 249t322 99q228 0 359 -120.5t224 -395.5q70 -206 165.5 -289t240.5 -83q88 0 132 26t44 70q0 15 -4 28t-14 23.5t-19.5 19.5t-26.5 17t-29 14t-34 13t-34.5 10.5t-36 10t-33.5 9.5q-51 15 -91 30t-84 40t-72.5 55t-47.5 74.5t-19 97.5q0 152 133 251t353 99
q119 0 209 -31t140 -82.5t72 -112.5t15 -126h-301q5 67 -32 101t-122 34q-70 0 -108.5 -23.5t-38.5 -66.5q0 -16 5 -29.5t18 -24.5t24 -18.5t35.5 -16.5t39.5 -14t48.5 -15t50.5 -15q76 -23 128.5 -46.5t102.5 -59.5t75.5 -87.5t25.5 -117.5q0 -70 -27.5 -133t-81.5 -115.5
t-145 -83.5t-207 -31q-81 0 -144.5 13t-114.5 42t-89.5 67t-73 98t-61.5 124t-58 156q-135 397 -452 397q-164 0 -164 -90q0 -16 5 -29.5t18 -24.5t24 -18.5t35.5 -16.5t39.5 -14t48.5 -15t50.5 -15q76 -23 128.5 -46.5t102.5 -59.5t75.5 -87.5t25.5 -117.5
q0 -70 -29.5 -133t-88 -115.5t-158.5 -83.5t-228 -31z" />
    <glyph glyph-name="w_w_w" horiz-adv-x="4577" 
d="M4059 410l283 639h332l-502 -1049h-318l-63 664h-4l-322 -664h-317l-68 809l-387 -809h-317l-64 664h-4l-321 -664h-318l-67 809l-388 -809h-317l-63 664h-5l-321 -664h-318l-88 1049h324l33 -639h4l311 639h260l62 -639h6l282 639h521l32 -639h5l311 639h260l61 -639h6
l283 639h520l33 -639h4l311 639h261l61 -639h6z" />
    <glyph glyph-name="f_f_i.ss02" horiz-adv-x="1847" 
d="M406 0h-328l158 803h-144l49 246h142l14 73q37 192 125.5 276.5t255.5 84.5q85 0 194 -23l-47 -233q-34 10 -67 10q-69 0 -98.5 -37.5t-45.5 -128.5l-4 -22h297l15 73q37 192 125.5 276.5t255.5 84.5q85 0 194 -23l-47 -233q-34 10 -68 10q-69 0 -98 -37t-45 -129l-4 -22
h182l-49 -246h-182l-156 -803h-328l158 803h-299zM1712 1139q-80 0 -116 49t-23 123q13 72 69 122t136 50t116.5 -50t22.5 -122q-12 -73 -68 -122.5t-137 -49.5zM1653 0h-328l205 1049h328z" />
    <glyph glyph-name="f_i.ss02" horiz-adv-x="1222" 
d="M793 1049l-50 -246h-182l-155 -803h-328l158 803h-144l49 246h142l14 73q37 192 125.5 276.5t255.5 84.5q85 0 194 -23l-47 -233q-34 10 -67 10q-68 0 -96.5 -36.5t-47.5 -129.5l-4 -22h183zM1153 1483q80 0 116.5 -50t22.5 -122q-12 -73 -68 -122.5t-137 -49.5
q-80 0 -116 49t-23 123q13 72 69 122t136 50zM1028 0h-328l205 1049h328z" />
    <glyph glyph-name="zero.zero" horiz-adv-x="1406" 
d="M850 1448q252 0 392 -148.5t140 -425.5q0 -138 -32.5 -270.5t-96.5 -247.5t-152.5 -202t-208 -137t-255.5 -50q-253 0 -398 149.5t-145 426.5q0 136 33.5 268.5t99.5 247t155.5 202t210.5 137.5t257 50zM819 1182q-88 0 -163 -60t-122.5 -155.5t-73.5 -210t-26 -228.5
q0 -69 17 -139l452 780q-41 13 -84 13zM659 233q72 0 135 39.5t107.5 106t77 151.5t48 177t15.5 182q0 60 -10 115l-444 -762q35 -9 71 -9z" />
    <glyph glyph-name="zero.slash" horiz-adv-x="1406" 
d="M850 1448q252 0 392 -148.5t140 -425.5q0 -138 -32.5 -270.5t-96.5 -247.5t-152.5 -202t-208 -137t-255.5 -50q-253 0 -398 149.5t-145 426.5q0 136 33.5 268.5t99.5 247t155.5 202t210.5 137.5t257 50zM819 1182q-88 0 -163 -60t-122.5 -155.5t-73.5 -210t-26 -228.5
q0 -69 17 -139l452 780q-41 13 -84 13zM659 233q72 0 135 39.5t107.5 106t77 151.5t48 177t15.5 182q0 60 -10 115l-444 -762q35 -9 71 -9z" />
    <glyph glyph-name="zero.tf" horiz-adv-x="1638" 
d="M754 -33q-253 0 -398 149.5t-145 426.5q0 136 33.5 268.5t99.5 247t155.5 202t210.5 137.5t257 50q252 0 392 -148.5t140 -425.5q0 -138 -32.5 -270.5t-96.5 -247.5t-152.5 -202t-208 -137t-255.5 -50zM776 254q85 0 156 58.5t115 152t68 204t24 220.5q0 134 -48 203
t-155 69q-84 0 -155 -58t-115.5 -150.5t-69.5 -203.5t-25 -221q0 -135 49.5 -204.5t155.5 -69.5z" />
    <glyph glyph-name="one.tf" horiz-adv-x="1638" 
d="M1204 1415l-221 -1134h299l-55 -281h-946l55 281h299l131 669q-86 -59 -311 -59l53 272q104 0 188 26t144.5 84t77.5 142h286z" />
    <glyph glyph-name="two.tf" horiz-adv-x="1638" 
d="M1247 0h-1089q16 90 46.5 164t72 134.5t108 120.5t139.5 112t181 120q196 122 244 157q115 86 140 168q9 29 9 62q0 64 -37 96.5t-117 32.5q-208 0 -262 -260h-336q23 118 74 215t130.5 171t193.5 114.5t253 40.5q226 0 341.5 -98.5t115.5 -264.5q0 -62 -18.5 -122
t-39 -104t-72.5 -100t-78.5 -83.5t-100 -81.5t-94.5 -68.5t-102 -67.5q-28 -19 -42 -28q-17 -11 -55.5 -37t-53 -35.5t-38 -26t-36 -26.5t-22.5 -20v-4h601z" />
    <glyph glyph-name="three.tf" horiz-adv-x="1638" 
d="M725 -33q-287 0 -419 141t-81 392h336q-52 -252 195 -252q122 0 190 56t68 151q0 83 -54.5 117t-171.5 34h-71l47 240h63q109 0 181.5 52t72.5 142q0 127 -163 127q-92 0 -151.5 -46.5t-76.5 -139.5h-336q16 96 67 180t130 148.5t191 101.5t243 37q205 0 334 -92
t129 -252q0 -119 -73.5 -211t-209.5 -150l-2 -4q203 -68 203 -272q0 -220 -174.5 -360t-466.5 -140z" />
    <glyph glyph-name="four.tf" horiz-adv-x="1638" 
d="M1110 0h-348l57 299h-641l66 342l792 774h348l-161 -835h209l-56 -281h-209zM963 1020l-455 -440h366z" />
    <glyph glyph-name="five.tf" horiz-adv-x="1638" 
d="M727 -33q-139 0 -246 38.5t-167.5 103.5t-84.5 149.5t-8 179.5h336q-8 -78 41.5 -134t151.5 -56q126 0 202 82.5t76 204.5q0 90 -46 138t-136 48q-64 0 -125 -25.5t-105 -77.5h-335l315 797h895l-55 -280h-648l-106 -271v-4q149 101 313 101q182 0 284.5 -104t102.5 -294
q0 -120 -42.5 -227t-123 -189.5t-207 -131t-282.5 -48.5z" />
    <glyph glyph-name="six.tf" horiz-adv-x="1638" 
d="M780 -33q-262 0 -399 147.5t-137 401.5q0 140 33.5 275.5t100.5 254t158.5 208.5t216 142t265.5 52q210 0 332.5 -108.5t122.5 -282.5h-353q0 21 -6.5 41t-22 41.5t-49 35t-81.5 13.5q-121 0 -202 -86.5t-108 -231.5l-4 -22l8 -6q144 123 336 123q194 0 308 -110.5
t114 -301.5q0 -93 -27 -179.5t-81 -160.5t-129 -129t-177 -86t-219 -31zM791 227q117 0 197.5 84.5t80.5 202.5q0 90 -52 140.5t-147 50.5q-124 0 -205 -80t-81 -193q0 -94 57.5 -149.5t149.5 -55.5z" />
    <glyph glyph-name="seven.tf" horiz-adv-x="1638" 
d="M778 0h-368q67 335 254.5 651t410.5 479v5h-669l55 280h1038l-51 -260q-136 -94 -250 -227t-194.5 -286t-136.5 -312.5t-89 -329.5z" />
    <glyph glyph-name="eight.tf" horiz-adv-x="1638" 
d="M729 -33q-153 0 -270 41t-186.5 127.5t-69.5 208.5q0 150 91.5 258t252.5 160v8q-152 92 -152 256q0 126 82.5 223.5t215 148t288.5 50.5q135 0 239.5 -38t167 -116t62.5 -186q0 -117 -75.5 -213.5t-192.5 -140.5v-9q47 -24 78.5 -47t62.5 -57.5t46 -82.5t15 -109
q0 -147 -89.5 -258t-237 -167.5t-328.5 -56.5zM893 858q114 0 179 63t65 140q0 67 -50 107t-139 40q-118 0 -180.5 -57.5t-62.5 -140.5q0 -69 49.5 -110.5t138.5 -41.5zM762 227q130 0 205 69t75 175q0 79 -52.5 126.5t-149.5 47.5q-118 0 -199.5 -70t-81.5 -169
q0 -83 54.5 -131t148.5 -48z" />
    </font>
</defs>
</svg>
