<?xml version="1.0" standalone="no"?>
<!DOCTYPE svg PUBLIC "-//W3C//DTD SVG 1.1//EN" "http://www.w3.org/Graphics/SVG/1.1/DTD/svg11.dtd" >
<svg xmlns="http://www.w3.org/2000/svg" xmlns:xlink="http://www.w3.org/1999/xlink" version="1.1">
<metadata>
Created by FontForge 20170731 at Mon Sep  5 16:39:33 2022
 By Aleksey,,,
Copyright by Pangram Pangram Foundry. All rights reserved.
</metadata>
<defs>
<font id="PPNeueMontreal-SemiBold" horiz-adv-x="0" >
  <font-face 
    font-family="PP Neue Montreal SemiBold"
    font-weight="600"
    font-stretch="normal"
    units-per-em="1000"
    panose-1="0 0 7 0 0 0 0 0 0 0"
    ascent="800"
    descent="-200"
    x-height="511"
    cap-height="715"
    bbox="-178 -270 2194 953"
    underline-thickness="103"
    underline-position="-132"
    unicode-range="U+000D-1F150"
  />
<missing-glyph horiz-adv-x="652" 
 />
    <glyph glyph-name="f_f" unicode="ff" horiz-adv-x="616" 
d="M90 0v406h-70v105h70v46q0 90 35.5 128t112.5 38q39 0 80 -8v-101q-28 3 -40 3q-27 0 -39 -11.5t-12 -50.5v-44h152v46q0 90 35.5 128t112.5 38q37 0 80 -8v-101q-29 3 -41 3q-27 0 -38.5 -12t-11.5 -50v-44h91v-105h-91v-406h-137v406h-152v-406h-137z" />
    <glyph glyph-name="f_f_i" unicode="ffi" horiz-adv-x="849" 
d="M90 0v406h-70v105h70v46q0 90 35.5 128t112.5 38q39 0 80 -8v-101q-28 3 -40 3q-27 0 -39 -11.5t-12 -50.5v-44h152v46q0 90 35.5 128t112.5 38q37 0 80 -8v-101q-29 3 -41 3q-27 0 -38.5 -12t-11.5 -50v-44h91v-105h-91v-406h-137v406h-152v-406h-137zM801 0h-137v511
h137v-511zM804 583h-142v129h142v-129z" />
    <glyph glyph-name="f_i" unicode="fi" horiz-adv-x="561" 
d="M239 605.5q-12 -11.5 -12 -50.5v-44h91v-105h-91v-406h-137v406h-70v105h70v46q0 90 35.5 128t112.5 38q39 0 80 -8v-101q-28 3 -40 3q-27 0 -39 -11.5zM513 0h-137v511h137v-511zM516 583h-142v129h142v-129z" />
    <glyph glyph-name="f_l" unicode="fl" horiz-adv-x="561" 
d="M239 605.5q-12 -11.5 -12 -50.5v-44h91v-105h-91v-406h-137v406h-70v105h70v46q0 90 35.5 128t112.5 38q39 0 80 -8v-101q-28 3 -40 3q-27 0 -39 -11.5zM513 0h-137v715h137v-715z" />
    <glyph glyph-name=".notdef" horiz-adv-x="652" 
 />
    <glyph glyph-name=".null" 
 />
    <glyph glyph-name="nonmarkingreturn" unicode="&#xd;" horiz-adv-x="197" 
 />
    <glyph glyph-name="space" unicode=" " horiz-adv-x="197" 
 />
    <glyph glyph-name="exclam" unicode="!" horiz-adv-x="242" 
d="M157 220h-72l-38 325v170h147v-170zM190 0h-136v136h136v-136z" />
    <glyph glyph-name="quotedbl" unicode="&#x22;" horiz-adv-x="376" 
d="M140 453h-89l-17 262h123zM324 453h-89l-17 262h123z" />
    <glyph glyph-name="numbersign" unicode="#" horiz-adv-x="584" 
d="M564 509l-22 -106h-82l-28 -132h86l-21 -105h-87l-35 -166h-105l35 166h-99l-35 -166h-106l35 166h-81l21 105h82l28 132h-86l22 106h86l38 182h106l-38 -182h98l38 182h106l-38 -182h82zM228 271h98l28 132h-98z" />
    <glyph glyph-name="dollar" unicode="$" horiz-adv-x="621" 
d="M527 46.5q-64 -55.5 -182 -60.5v-86h-64v88q-115 10 -184.5 72.5t-71.5 166.5h138q3 -55 34 -85t84 -38v190q-3 2 -13 4q-105 29 -162.5 73t-57.5 127q0 89 62.5 142.5t170.5 58.5v71h64v-72q105 -10 167 -68.5t66 -152.5h-139q-10 87 -94 105v-172q83 -25 133.5 -48
t81.5 -64t31 -107q0 -89 -64 -144.5zM209.5 462.5q21.5 -17.5 71.5 -33.5v156q-43 -3 -68 -22t-25 -53q0 -30 21.5 -47.5zM345 100q106 6 106 80q0 36 -26 57t-80 39v-176z" />
    <glyph glyph-name="percent" unicode="%" horiz-adv-x="880" 
d="M70 361.5q-51 54.5 -51 144.5q0 91 51 145.5t140 54.5q88 0 138.5 -54.5t50.5 -145.5q0 -90 -50 -144.5t-139 -54.5t-140 54.5zM298 0h-99l383 691h99zM271 506q0 55 -15 82.5t-46 27.5q-33 0 -48 -27.5t-15 -82.5t15 -82t48 -27q61 0 61 109zM531.5 39.5
q-50.5 54.5 -50.5 145.5q0 90 50.5 144.5t139.5 54.5q88 0 139 -54.5t51 -144.5q0 -91 -50.5 -145.5t-139.5 -54.5t-139.5 54.5zM718 102.5q15 27.5 15 82.5t-15 82t-47 27t-47 -27t-15 -82t15 -82.5t47 -27.5t47 27.5z" />
    <glyph glyph-name="ampersand" unicode="&#x26;" horiz-adv-x="660" 
d="M671 0h-170l-40 48q-86 -63 -202 -63q-74 0 -126.5 24.5t-80 68t-27.5 99.5q0 72 42.5 117t119.5 86q-43 52 -63.5 90.5t-20.5 82.5q0 46 24 86.5t70 65.5t110 25q60 0 105 -23t69.5 -63t24.5 -89q0 -60 -37.5 -101.5t-119.5 -85.5l116 -133q28 55 40 120h123
q-17 -124 -79 -215zM252 595.5q-19 -19.5 -19 -48.5q0 -24 14 -50t43 -61q42 27 64 53.5t22 57.5q0 29 -18.5 48.5t-52.5 19.5t-53 -19.5zM386 139l-141 172q-40 -27 -57.5 -53.5t-17.5 -56.5q0 -42 28.5 -69t81.5 -27q59 0 106 34z" />
    <glyph glyph-name="quotesingle" unicode="'" horiz-adv-x="191" 
d="M140 453h-89l-17 262h123z" />
    <glyph glyph-name="parenleft" unicode="(" horiz-adv-x="296" 
d="M161 -131q-56 84 -93.5 202.5t-37.5 245.5q0 130 37.5 247t93.5 202h120q-48 -103 -76 -212t-28 -237q0 -126 28 -236t76 -212h-120z" />
    <glyph glyph-name="parenright" unicode=")" horiz-adv-x="296" 
d="M15 -131q49 103 76.5 211.5t27.5 236.5q0 126 -28 236.5t-76 212.5h120q56 -84 93.5 -203t37.5 -246q0 -130 -37.5 -246.5t-93.5 -201.5h-120z" />
    <glyph glyph-name="asterisk" unicode="*" horiz-adv-x="443" 
d="M222 469l-72 -105l-73 53l75 99l-117 32l28 84l114 -43v126h91l-1 -126l114 43l28 -84l-118 -32l75 -99l-72 -53z" />
    <glyph glyph-name="plus" unicode="+" horiz-adv-x="568" 
d="M345 83h-122v184h-178v122h178v184h122v-184h177v-122h-177v-184z" />
    <glyph glyph-name="comma" unicode="," horiz-adv-x="221" 
d="M43 -91q32 6 48 27.5t16 63.5h-64v136h136v-136q0 -62 -34.5 -102.5t-101.5 -53.5v65z" />
    <glyph glyph-name="hyphen" unicode="-" horiz-adv-x="352" 
d="M311 193h-270v121h270v-121z" />
    <glyph glyph-name="period" unicode="." horiz-adv-x="217" 
d="M177 0h-136v136h136v-136z" />
    <glyph glyph-name="slash" unicode="/" horiz-adv-x="416" 
d="M127 0h-116l277 715h116z" />
    <glyph glyph-name="zero" unicode="0" horiz-adv-x="663" 
d="M168.5 31.5q-65.5 46.5 -97.5 128t-32 185.5q0 105 32 186t97.5 128t163.5 47t163.5 -47t97 -128t31.5 -186t-31.5 -186t-97 -127.5t-163.5 -46.5t-163.5 46.5zM471 345q0 239 -139 239q-140 0 -140 -239q0 -238 140 -238q139 0 139 238z" />
    <glyph glyph-name="one" unicode="1" horiz-adv-x="374" 
d="M159 482q-37 -30 -145 -30v116q168 2 172 123h120v-691h-147v482z" />
    <glyph glyph-name="two" unicode="2" horiz-adv-x="589" 
d="M27 0q0 68 24.5 119t70.5 94.5t127 99.5q55 38 83.5 61.5t45.5 51t17 62.5q0 45 -22 71.5t-71 26.5q-60 0 -89 -36t-29 -108h-144q0 122 66.5 193t199.5 71q70 0 125 -25t85.5 -72t30.5 -112q0 -62 -29.5 -112.5t-72 -86.5t-106.5 -80q-44 -29 -69.5 -49.5t-40.5 -45.5
v-2h315v-121h-517z" />
    <glyph glyph-name="three" unicode="3" horiz-adv-x="613" 
d="M101 52q-75 67 -75 189h144q0 -67 32 -101.5t104 -34.5q63 0 91 24.5t28 72.5q0 55 -33.5 78t-94.5 23h-47v107h43q50 0 80.5 23t30.5 70q0 38 -25 60.5t-73 22.5q-57 0 -86.5 -27.5t-29.5 -78.5h-144q0 66 31 117t90.5 80t141.5 29q68 0 124 -22.5t89 -65.5t33 -102
q0 -101 -102 -150v-2q123 -38 123 -167q0 -102 -70.5 -157t-192.5 -55q-137 0 -212 67z" />
    <glyph glyph-name="four" unicode="4" horiz-adv-x="623" 
d="M495 0h-147v151h-319v142l319 398h147v-420h100v-120h-100v-151zM348 523l-203 -252h203v252z" />
    <glyph glyph-name="five" unicode="5" horiz-adv-x="604" 
d="M158.5 14q-61.5 29 -94 79.5t-34.5 116.5h144q4 -45 35 -75t89 -30q56 0 88.5 34t32.5 97q0 61 -30.5 93t-89.5 32q-35 0 -65.5 -13.5t-52.5 -40.5h-142l78 384h421v-121h-317l-31 -154v-2q62 54 153 54q67 0 118.5 -28.5t80 -81.5t28.5 -123q0 -79 -34 -135.5t-94 -85.5
t-135 -29q-87 0 -148.5 29z" />
    <glyph glyph-name="six" unicode="6" horiz-adv-x="627" 
d="M108.5 82.5q-68.5 97.5 -68.5 256.5q0 178 76 272.5t210 94.5q65 0 117.5 -24.5t85.5 -68t43 -97.5h-150q-5 32 -28.5 54.5t-69.5 22.5q-72 0 -104.5 -51.5t-32.5 -134.5v-11l3 -2q59 71 167 71q69 0 122 -30t82.5 -83t29.5 -119q0 -73 -32 -129t-91 -87.5t-139 -31.5
q-152 0 -220.5 97.5zM414 133q33 35 33 92t-33 92t-90 35q-60 0 -95 -35.5t-35 -92.5q0 -56 34 -91t94 -35q59 0 92 35z" />
    <glyph glyph-name="seven" unicode="7" horiz-adv-x="532" 
d="M119 0q0 108 32.5 219.5t86 203.5t115.5 145v2h-342v121h499v-111q-113 -92 -174.5 -251t-61.5 -329h-155z" />
    <glyph glyph-name="eight" unicode="8" horiz-adv-x="625" 
d="M170 9q-63 24 -99.5 72t-36.5 116q0 116 130 173v2q-98 52 -98 147q0 58 32 100.5t88 64.5t127 22q70 0 126 -22t88 -64.5t32 -100.5q0 -94 -98 -147v-2q130 -58 130 -173q0 -68 -36.5 -116t-99.5 -72t-142 -24q-80 0 -143 24zM394.5 441q28.5 25 28.5 67t-28.5 67
t-81.5 25t-81.5 -25t-28.5 -67t28.5 -67t81.5 -25t81.5 25zM406 129q34 31 34 80q0 48 -34 78.5t-93 30.5q-60 0 -94 -30t-34 -79t34 -80t94 -31q59 0 93 31z" />
    <glyph glyph-name="nine" unicode="9" horiz-adv-x="627" 
d="M183.5 9.5q-52.5 24.5 -85.5 68t-43 97.5h150q5 -32 28.5 -54.5t69.5 -22.5q72 0 104.5 51.5t32.5 134.5v11l-3 2q-59 -71 -167 -71q-69 0 -122 30t-82.5 83t-29.5 119q0 73 32 129t91 87.5t139 31.5q152 0 220.5 -97.5t68.5 -256.5q0 -178 -76 -272.5t-210 -94.5
q-65 0 -117.5 24.5zM398 374.5q35 35.5 35 92.5q0 56 -34 91t-94 35q-59 0 -92 -35t-33 -92t33 -92t90 -35q60 0 95 35.5z" />
    <glyph glyph-name="colon" unicode=":" horiz-adv-x="229" 
d="M183 309h-136v136h136v-136zM183 0h-136v136h136v-136z" />
    <glyph glyph-name="semicolon" unicode=";" horiz-adv-x="229" 
d="M183 309h-136v136h136v-136zM47 -91q32 6 48 27.5t16 63.5h-64v136h136v-136q0 -62 -34.5 -102.5t-101.5 -53.5v65z" />
    <glyph glyph-name="less" unicode="&#x3c;" horiz-adv-x="502" 
d="M453 193v-121l-411 171v133l411 171v-120l-296 -116v-2z" />
    <glyph glyph-name="equal" unicode="=" horiz-adv-x="556" 
d="M510 363h-464v122h464v-122zM510 172h-464v121h464v-121z" />
    <glyph glyph-name="greater" unicode="&#x3e;" horiz-adv-x="502" 
d="M460 243l-411 -171v121l296 116v2l-296 116v120l411 -171v-133z" />
    <glyph glyph-name="question" unicode="?" horiz-adv-x="524" 
d="M180 219q0 63 9 97.5t29 56.5t64 54q45 34 61.5 54.5t16.5 54.5q0 33 -22 53.5t-67 20.5q-52 0 -81 -32.5t-29 -98.5h-147q0 72 29.5 129t88 89.5t142.5 32.5q68 0 121 -24t82.5 -67.5t29.5 -100.5t-27 -95t-81 -71q-39 -24 -58.5 -41t-30 -43.5t-10.5 -68.5h-120zM310 0
h-136v136h136v-136z" />
    <glyph glyph-name="at" unicode="@" horiz-adv-x="884" 
d="M219.5 -55.5q-95.5 51.5 -144.5 142.5t-49 206q0 119 54.5 215t152.5 151t224 55q124 0 215.5 -51.5t139 -138t47.5 -191.5q0 -84 -28 -140.5t-74 -83.5t-101 -27q-49 0 -82.5 22.5t-48.5 65.5h-2q-14 -39 -48 -63t-82 -24q-47 0 -84.5 23.5t-59 69.5t-21.5 111
q0 70 24.5 122t67 80t93.5 28q44 0 73.5 -20t44.5 -53h2l9 66h112l-32 -251q-2 -20 -2 -27q0 -34 13.5 -50t40.5 -16q43 0 68 43.5t25 123.5q0 90 -37 157t-106 103.5t-162 36.5q-102 0 -179 -44t-118.5 -120.5t-41.5 -172.5q0 -94 39 -165.5t112.5 -111t172.5 -39.5
q94 0 173 31l30 -72q-78 -43 -202 -43q-133 0 -228.5 51.5zM489.5 219.5q23.5 37.5 23.5 94.5q0 51 -18.5 77.5t-54.5 26.5q-45 0 -70 -36.5t-25 -97.5q0 -102 76 -102q45 0 68.5 37.5z" />
    <glyph glyph-name="A" unicode="A" horiz-adv-x="695" 
d="M163 0h-165l270 715h158l272 -715h-168l-51 158h-265zM346 573l-94 -295h190l-94 295h-2z" />
    <glyph glyph-name="B" unicode="B" horiz-adv-x="681" 
d="M64 0v715h330q112 0 170.5 -45.5t58.5 -134.5q0 -113 -111 -151v-2q61 -11 100 -53.5t39 -118.5q0 -106 -64.5 -158t-179.5 -52h-343zM363 423q51 0 76.5 19t25.5 63q0 82 -99 82h-148v-164h145zM371 128q65 0 93.5 23t28.5 74t-29 74t-87 23h-159v-194h153z" />
    <glyph glyph-name="C" unicode="C" horiz-adv-x="712" 
d="M188 32.5q-77 47.5 -116.5 131.5t-39.5 192q0 110 40.5 194.5t118 132t184.5 47.5q92 0 159.5 -34.5t105.5 -96t47 -141.5h-158q-11 65 -47.5 105t-112.5 40q-95 0 -136.5 -66.5t-41.5 -178.5q0 -113 41.5 -179.5t136.5 -66.5q142 0 160 153h158q-8 -82 -47 -145.5
t-107.5 -99t-161.5 -35.5q-106 0 -183 47.5z" />
    <glyph glyph-name="D" unicode="D" horiz-adv-x="717" 
d="M64 0v715h300q150 0 234.5 -93.5t84.5 -264.5q0 -172 -81 -264.5t-230 -92.5h-308zM349 128q176 0 176 229q0 230 -176 230h-131v-459h131z" />
    <glyph glyph-name="E" unicode="E" horiz-adv-x="633" 
d="M600 0h-536v715h529v-128h-375v-155h325v-128h-325v-176h382v-128z" />
    <glyph glyph-name="F" unicode="F" horiz-adv-x="602" 
d="M218 0h-154v715h519v-128h-365v-178h296v-128h-296v-281z" />
    <glyph glyph-name="G" unicode="G" horiz-adv-x="746" 
d="M183 32.5q-73 47.5 -111.5 132.5t-38.5 193t40.5 192.5t117.5 132t184 47.5q92 0 160 -32t107 -88t49 -126h-159q-13 54 -51 86.5t-109 32.5q-93 0 -137 -68t-44 -177q0 -112 42.5 -179t141.5 -67q47 0 85 19t60.5 53.5t22.5 77.5h-163v116h322v-378h-109l-22 94h-2
q-64 -109 -213 -109q-100 0 -173 47.5z" />
    <glyph glyph-name="H" unicode="H" horiz-adv-x="721" 
d="M218 0h-154v715h154v-287h284v287h155v-715h-155v300h-284v-300z" />
    <glyph glyph-name="I" unicode="I" horiz-adv-x="282" 
d="M218 0h-154v715h154v-715z" />
    <glyph glyph-name="J" unicode="J" horiz-adv-x="545" 
d="M17 232v49h140v-49q0 -60 18 -90t69 -30t69 30t18 90v483h155v-483q0 -247 -235 -247q-234 0 -234 247z" />
    <glyph glyph-name="K" unicode="K" horiz-adv-x="675" 
d="M693 0h-180l-206 303l-89 -100v-203h-154v715h154v-327l287 327h167l-273 -308z" />
    <glyph glyph-name="L" unicode="L" horiz-adv-x="568" 
d="M553 0h-489v715h154v-587h335v-128z" />
    <glyph glyph-name="M" unicode="M" horiz-adv-x="853" 
d="M211 0h-147v715h192l169 -495h2l169 495h193v-715h-148v486h-2l-156 -486h-113l-157 486h-2v-486z" />
    <glyph glyph-name="N" unicode="N" horiz-adv-x="725" 
d="M218 0h-154v715h160l281 -471h2v471h154v-715h-160l-281 471h-2v-471z" />
    <glyph glyph-name="O" unicode="O" horiz-adv-x="770" 
d="M196.5 32.5q-79.5 47.5 -122 132.5t-42.5 193t42.5 192.5t122 132t188.5 47.5q108 0 188 -47.5t122.5 -132t42.5 -192.5t-42.5 -193t-122.5 -132.5t-188 -47.5q-109 0 -188.5 47.5zM533 180.5q47 68.5 47 177.5t-47 177t-148 68q-102 0 -148 -67.5t-46 -177.5t46 -178
t148 -68q101 0 148 68.5z" />
    <glyph glyph-name="P" unicode="P" horiz-adv-x="650" 
d="M64 0v715h329q111 0 175 -56t64 -166t-64 -166.5t-175 -56.5h-175v-270h-154zM365 398q54 0 81.5 22.5t27.5 72.5q0 94 -109 94h-147v-189h147z" />
    <glyph glyph-name="Q" unicode="Q" horiz-adv-x="770" 
d="M715.5 212.5q-22.5 -66.5 -65.5 -115.5l79 -80l-78 -81l-90 90q-77 -41 -176 -41q-109 0 -188.5 47.5t-122 132.5t-42.5 193t42.5 192.5t122 132t188.5 47.5q108 0 188 -47.5t122.5 -132t42.5 -192.5q0 -79 -22.5 -145.5zM463 126l-91 91l78 81l96 -97q34 61 34 157
q0 109 -47 177t-148 68q-102 0 -148 -67.5t-46 -177.5t46 -178t148 -68q44 0 78 14z" />
    <glyph glyph-name="R" unicode="R" horiz-adv-x="676" 
d="M64 0v715h323q119 0 184.5 -53.5t65.5 -151.5q0 -71 -38 -116.5t-103 -60.5v-2q54 -10 82.5 -49t37.5 -85t13 -110q3 -40 6 -57.5t12 -20.5v-9h-161q-6 5 -8.5 19t-3.5 31t-1 23q-1 55 -8 93t-32 66t-76 28h-139v-260h-154zM356 388q62 0 94.5 25.5t32.5 75.5t-31 74
t-95 24h-139v-199h138z" />
    <glyph glyph-name="S" unicode="S" horiz-adv-x="648" 
d="M179 15.5q-73 30.5 -115 88.5t-43 138h157q2 -64 45 -97.5t120 -33.5q60 0 89.5 22.5t29.5 60.5q0 32 -18.5 51.5t-50 31.5t-92.5 29l-20 6q-73 21 -122.5 44.5t-81 63.5t-31.5 101q0 104 72.5 156.5t193.5 52.5q83 0 148.5 -27.5t104 -80t41.5 -123.5h-156
q-8 51 -42.5 78t-95.5 27q-51 0 -79.5 -18t-28.5 -54q0 -29 16 -46.5t44 -28.5t84 -27q92 -26 145.5 -47.5t90 -63.5t36.5 -112q0 -101 -72 -161.5t-203 -60.5q-93 0 -166 30.5z" />
    <glyph glyph-name="T" unicode="T" horiz-adv-x="617" 
d="M386 0h-154v587h-217v128h587v-128h-216v-587z" />
    <glyph glyph-name="U" unicode="U" horiz-adv-x="700" 
d="M128 53q-70 68 -70 199v463h155v-463q0 -73 33.5 -106.5t103.5 -33.5t104 33.5t34 106.5v463h154v-463q0 -131 -70 -199t-222 -68t-222 68z" />
    <glyph glyph-name="V" unicode="V" horiz-adv-x="656" 
d="M411 0h-163l-244 715h169l156 -537h1l156 537h162z" />
    <glyph glyph-name="W" unicode="W" horiz-adv-x="945" 
d="M348 0h-157l-181 715h156l105 -514h2l125 514h150l125 -514h2l104 514h156l-181 -715h-157l-123 494h-2z" />
    <glyph glyph-name="X" unicode="X" horiz-adv-x="642" 
d="M166 0h-173l239 365l-220 350h165l144 -237h1l145 237h164l-219 -348l237 -367h-174l-154 252h-2z" />
    <glyph glyph-name="Y" unicode="Y" horiz-adv-x="656" 
d="M405 0h-154v272l-248 443h166l158 -318h2l160 318h163l-247 -443v-272z" />
    <glyph glyph-name="Z" unicode="Z" horiz-adv-x="610" 
d="M581 0h-556v128l358 457v2h-338v128h526v-128l-358 -457v-2h368v-128z" />
    <glyph glyph-name="bracketleft" unicode="[" horiz-adv-x="351" 
d="M332 -131h-273v897h273v-121h-126v-656h126v-120z" />
    <glyph glyph-name="backslash" unicode="\" horiz-adv-x="416" 
d="M405 0h-116l-277 715h116z" />
    <glyph glyph-name="bracketright" unicode="]" horiz-adv-x="351" 
d="M292 -131h-273v120h126v656h-126v121h273v-897z" />
    <glyph glyph-name="asciicircum" unicode="^" horiz-adv-x="479" 
d="M148 440h-132l169 275h109l169 -275h-133l-91 154h-1z" />
    <glyph glyph-name="underscore" unicode="_" horiz-adv-x="573" 
d="M546 -165h-520v121h520v-121z" />
    <glyph glyph-name="grave" unicode="`" horiz-adv-x="279" 
d="M239 578h-105l-89 147h141z" />
    <glyph glyph-name="a" unicode="a" horiz-adv-x="552" 
d="M70 25.5q-45 40.5 -45 107.5q0 76 52.5 113.5t150.5 57.5q8 2 49 10t62 23.5t21 38.5q0 26 -19 40.5t-60 14.5q-51 0 -74.5 -20t-27.5 -63h-132q4 80 63 130t177 50q100 0 153 -46.5t53 -152.5v-212q0 -24 4.5 -34.5t16.5 -10.5q7 0 13 1v-70q-43 -8 -74 -8q-43 0 -64 17
t-26 54h-2q-27 -37 -71 -59t-100 -22q-75 0 -120 40.5zM327 117q33 34 33 87v54q-21 -11 -96 -29q-53 -11 -75.5 -30.5t-22.5 -52.5q0 -63 74 -63q54 0 87 34z" />
    <glyph glyph-name="b" unicode="b" horiz-adv-x="590" 
d="M456 494q51 -33 79.5 -94t28.5 -144t-28.5 -144t-79.5 -94t-117 -33q-53 0 -92.5 21t-59.5 49h-2v-55h-137v715h137v-258h2q21 28 60.5 49t91.5 21q66 0 117 -33zM391.5 135q30.5 45 30.5 121t-30.5 120.5t-86.5 44.5t-87 -43.5t-31 -121.5q0 -79 31 -122.5t87 -43.5
t86.5 45z" />
    <glyph glyph-name="c" unicode="c" horiz-adv-x="542" 
d="M146.5 18.5q-58.5 34.5 -90.5 96t-32 141.5q0 79 32 141t90 96.5t135 34.5q103 0 168 -57t75 -149h-139q-5 42 -28 71t-74 29q-59 0 -88.5 -45t-29.5 -121t29 -121t89 -45q92 0 102 102h139q-4 -60 -34.5 -107.5t-84 -74t-122.5 -26.5q-78 0 -136.5 34.5z" />
    <glyph glyph-name="d" unicode="d" horiz-adv-x="589" 
d="M404 715h137v-715h-137v54h-2q-21 -27 -60.5 -48t-91.5 -21q-66 0 -117 33t-79.5 94t-28.5 144t28.5 144t79.5 94t117 33q53 0 92.5 -21.5t59.5 -49.5h2v259zM371 133.5q31 43.5 31 122.5q0 78 -31 121.5t-87 43.5t-87 -44.5t-31 -120.5t31 -121t87 -45t87 43.5z" />
    <glyph glyph-name="e" unicode="e" horiz-adv-x="565" 
d="M540 219h-377q1 -57 35.5 -93.5t90.5 -36.5q47 0 72.5 20t34.5 47h139q-22 -80 -85 -126t-165 -46q-80 0 -139 34.5t-90 96t-31 141.5q0 78 31 139.5t89.5 97t139.5 35.5q124 0 189.5 -73t65.5 -207v-29zM401 310q0 53 -31.5 84t-85.5 31q-51 0 -84 -30.5t-37 -84.5h238z
" />
    <glyph glyph-name="f" unicode="f" horiz-adv-x="327" 
d="M239 605.5q-12 -11.5 -12 -50.5v-44h91v-105h-91v-406h-137v406h-70v105h70v46q0 90 35.5 128t112.5 38q39 0 80 -8v-101q-28 3 -40 3q-27 0 -39 -11.5z" />
    <glyph glyph-name="g" unicode="g" horiz-adv-x="578" 
d="M394 511h137v-458q0 -124 -65 -180t-185 -56q-108 0 -169.5 47t-73.5 118h140q18 -63 103 -63q60 0 86.5 31t26.5 101v44h-2q-21 -29 -57.5 -49.5t-89.5 -20.5q-64 0 -113.5 30.5t-77 87.5t-27.5 133q0 75 27.5 132t77 88t113.5 31q52 0 88.5 -20.5t58.5 -49.5h2v54z
M362.5 167.5q28.5 37.5 28.5 108.5q0 70 -28.5 107.5t-82.5 37.5q-56 0 -84 -38.5t-28 -106.5t28 -107t84 -39q54 0 82.5 37.5z" />
    <glyph glyph-name="h" unicode="h" horiz-adv-x="567" 
d="M476.5 480.5q46.5 -46.5 46.5 -131.5v-349h-138v307q0 55 -21.5 81t-66.5 26q-53 0 -82.5 -28.5t-29.5 -83.5v-302h-137v715h137v-274h2q23 38 64.5 62t103.5 24q75 0 121.5 -46.5z" />
    <glyph glyph-name="i" unicode="i" horiz-adv-x="233" 
d="M185 0h-137v511h137v-511zM188 583h-142v129h142v-129z" />
    <glyph glyph-name="j" unicode="j" horiz-adv-x="233" 
d="M-40 -174v107q26 -3 38 -3q26 0 38 13.5t12 52.5v515h137v-512q0 -90 -35.5 -135.5t-110.5 -45.5q-39 0 -79 8zM188 583h-142v129h142v-129z" />
    <glyph glyph-name="k" unicode="k" horiz-adv-x="527" 
d="M545 0h-159l-137 230l-64 -65v-165h-137v715h137v-404l190 200h149l-186 -190z" />
    <glyph glyph-name="l" unicode="l" horiz-adv-x="233" 
d="M185 0h-137v715h137v-715z" />
    <glyph glyph-name="m" unicode="m" horiz-adv-x="856" 
d="M769 480.5q42 -46.5 42 -131.5v-349h-138v307q0 58 -16.5 82.5t-62.5 24.5q-45 0 -71 -29t-26 -83v-302h-137v307q0 58 -16 82.5t-62 24.5q-45 0 -71 -29t-26 -83v-302h-137v511h137v-70h2q23 37 63 61.5t94 24.5q50 0 84.5 -24t49.5 -66h2q36 44 75 67t95 23
q77 0 119 -46.5z" />
    <glyph glyph-name="n" unicode="n" horiz-adv-x="567" 
d="M476.5 480.5q46.5 -46.5 46.5 -131.5v-349h-138v307q0 55 -21.5 81t-66.5 26q-53 0 -82.5 -28.5t-29.5 -83.5v-302h-137v511h137v-70h2q23 38 64.5 62t103.5 24q75 0 121.5 -46.5z" />
    <glyph glyph-name="o" unicode="o" horiz-adv-x="582" 
d="M148.5 18q-60.5 34 -92.5 95.5t-32 141.5t32.5 142t93 96.5t142.5 34.5q81 0 141.5 -34t92.5 -95.5t32 -141.5t-32.5 -142t-93 -96.5t-142.5 -34.5q-81 0 -141.5 34zM385.5 133.5q32.5 44.5 32.5 122.5t-32.5 122t-94.5 44t-94.5 -44t-32.5 -122t32.5 -122.5t94.5 -44.5
t94.5 44.5z" />
    <glyph glyph-name="p" unicode="p" horiz-adv-x="590" 
d="M456 494q51 -33 79.5 -94t28.5 -144t-28.5 -144t-79.5 -94t-117 -33q-53 0 -92.5 21t-59.5 49h-2v-232h-137v688h137v-54h2q21 28 60.5 49t91.5 21q66 0 117 -33zM391.5 135q30.5 45 30.5 121t-30.5 120.5t-86.5 44.5t-87 -43.5t-31 -121.5q0 -79 31 -122.5t87 -43.5
t86.5 45z" />
    <glyph glyph-name="q" unicode="q" horiz-adv-x="588" 
d="M404 511h137v-688h-137v231h-2q-21 -27 -60.5 -48t-91.5 -21q-66 0 -117 33t-79.5 94t-28.5 144t28.5 144t79.5 94t117 33q53 0 92.5 -21.5t59.5 -49.5h2v55zM371 133.5q31 43.5 31 122.5q0 78 -31 121.5t-87 43.5t-87 -44.5t-31 -120.5t31 -121t87 -45t87 43.5z" />
    <glyph glyph-name="r" unicode="r" horiz-adv-x="371" 
d="M362 515v-123q-20 3 -33 3q-61 0 -102.5 -39.5t-41.5 -107.5v-248h-137v511h137v-88h2q20 45 53 70t77 25q28 0 45 -3z" />
    <glyph glyph-name="s" unicode="s" horiz-adv-x="508" 
d="M83 36.5q-61 51.5 -64 133.5h131q4 -42 32 -64.5t81 -22.5q83 0 83 56q0 31 -24.5 44t-81.5 25l-22 5q-86 20 -136 53.5t-50 104.5t56.5 113.5t156.5 42.5q109 0 165 -48t61 -121h-131q-5 33 -25.5 51.5t-66.5 18.5q-38 0 -56.5 -13t-18.5 -36q0 -25 18.5 -35t69.5 -21
l27 -6q62 -15 103.5 -31.5t68.5 -49.5t27 -88q0 -78 -57.5 -120.5t-164.5 -42.5q-121 0 -182 51.5z" />
    <glyph glyph-name="t" unicode="t" horiz-adv-x="345" 
d="M320 101v-100q-44 -10 -83 -10q-78 0 -114.5 38.5t-36.5 128.5v248h-72v105h72v151h137v-151h92v-105h-92v-247q0 -38 12.5 -50t41.5 -12q18 0 43 4z" />
    <glyph glyph-name="u" unicode="u" horiz-adv-x="567" 
d="M382 511h137v-511h-137v70h-2q-23 -38 -64.5 -61.5t-103.5 -23.5q-75 0 -121 46.5t-46 131.5v348h137v-306q0 -56 21.5 -82t67.5 -26q52 0 81.5 29t29.5 83v302z" />
    <glyph glyph-name="v" unicode="v" horiz-adv-x="517" 
d="M334 0h-151l-179 511h141l115 -364h1l115 364h137z" />
    <glyph glyph-name="w" unicode="w" horiz-adv-x="778" 
d="M285 0h-132l-148 511h140l88 -342h2l93 342h125l94 -342h2l89 342h136l-149 -511h-132l-103 350h-2z" />
    <glyph glyph-name="x" unicode="x" horiz-adv-x="508" 
d="M144 0h-155l182 261l-163 250h148l97 -160h2l96 160h149l-163 -250l182 -261h-156l-109 172h-2z" />
    <glyph glyph-name="y" unicode="y" horiz-adv-x="533" 
d="M58 -169v107q26 -3 46 -3q33 0 58.5 14.5t36.5 56.5l-204 505h143l131 -356h2l121 356h138l-193 -516q-35 -93 -78.5 -133t-116.5 -40q-38 0 -84 9z" />
    <glyph glyph-name="z" unicode="z" horiz-adv-x="487" 
d="M465 0h-446v99l260 305v2h-241v105h416v-95l-262 -308v-2h273v-106z" />
    <glyph glyph-name="braceleft" unicode="{" horiz-adv-x="358" 
d="M310 -131q-79 0 -126 15.5t-71.5 58t-24.5 124.5v116q0 40 -13.5 56.5t-51.5 16.5v122q38 -1 51.5 16t13.5 57v121q0 82 24.5 123.5t71 56t126.5 14.5h25v-121h-25q-75 0 -75 -93v-127q0 -42 -16 -67t-51 -40v-2q35 -15 51 -40.5t16 -67.5v-122q0 -54 20 -75.5t55 -21.5
h25v-120h-25z" />
    <glyph glyph-name="bar" unicode="|" horiz-adv-x="227" 
d="M163 -135h-99v886h99v-886z" />
    <glyph glyph-name="braceright" unicode="}" horiz-adv-x="358" 
d="M23 -131v120h25q75 0 75 93v128q0 42 16 67t51 40v2q-35 15 -51 40.5t-16 67.5v121q0 54 -20 75.5t-55 21.5h-25v121h25q79 0 126 -15.5t71.5 -58t24.5 -124.5v-117q0 -39 13.5 -56t51.5 -17v-121q-38 1 -51.5 -16t-13.5 -57v-121q0 -82 -24.5 -123.5t-71 -56
t-126.5 -14.5h-25z" />
    <glyph glyph-name="asciitilde" unicode="~" horiz-adv-x="472" 
d="M48 248q0 159 110 159q24 0 41.5 -6.5t42.5 -19.5q18 -10 29 -14.5t24 -4.5q22 0 31 13t9 32h91q0 -159 -110 -159q-24 0 -41.5 6.5t-42.5 19.5q-20 10 -30.5 14t-22.5 4q-22 0 -31 -13t-9 -31h-91z" />
    <glyph glyph-name="uni00A0" unicode="&#xa0;" horiz-adv-x="197" 
 />
    <glyph glyph-name="exclamdown" unicode="&#xa1;" horiz-adv-x="242" 
d="M188 449h-136v136h136v-136zM195 -130h-148v170l38 325h72l38 -325v-170z" />
    <glyph glyph-name="cent" unicode="&#xa2;" horiz-adv-x="578" 
d="M336 202q59 16 67 97h139q-5 -84 -60.5 -140t-145.5 -66v-88h-68v88q-69 7 -120 42.5t-78.5 94.5t-27.5 133t28 132.5t79 94.5t119 43v73h68v-73q88 -10 142.5 -65.5t63.5 -137.5h-139q-8 76 -67 94v-322zM204 256q21 -43 64 -55v324q-43 -12 -64 -55t-21 -107t21 -107z
" />
    <glyph glyph-name="sterling" unicode="&#xa3;" horiz-adv-x="613" 
d="M592 46q-38 -31 -72 -46t-81 -15q-37 0 -62.5 8t-59.5 24q-26 13 -45.5 19.5t-43.5 6.5q-30 0 -58.5 -10t-65.5 -33l-68 107q41 26 62.5 67t23.5 93h-76v97h54l-9 18q-16 33 -24 58t-8 59q0 49 23.5 94.5t79.5 76t147 30.5q133 0 195.5 -66t62.5 -181h-147
q0 127 -109 127q-52 0 -78.5 -26.5t-26.5 -69.5q0 -25 7.5 -45.5t22.5 -51.5l12 -23h148v-97h-128q-6 -75 -69 -135l1 -2q24 11 42 17t42 6q23 0 39.5 -4.5t37.5 -13.5t36.5 -13.5t36.5 -4.5q32 0 55 10t47 29z" />
    <glyph glyph-name="currency" unicode="&#xa4;" horiz-adv-x="544" 
d="M448 245l61 -61l-73 -73l-61 60q-44 -26 -102 -26t-105 26l-60 -60l-73 72l61 61q-25 47 -25 104t25 102l-61 62l73 73l61 -61q46 26 104 26q56 0 103 -25l60 59l73 -72l-61 -61q25 -45 25 -103t-25 -103zM203.5 260.5q23.5 -31.5 69.5 -31.5q45 0 68 32t23 87t-23 86.5
t-68 31.5q-46 0 -69.5 -31.5t-23.5 -86.5q0 -56 23.5 -87.5z" />
    <glyph glyph-name="yen" unicode="&#xa5;" horiz-adv-x="649" 
d="M467 686h164l-213 -380h148v-65h-168v-58h168v-65h-168v-118h-147v118h-168v65h168v58h-168v65h148l-212 380h163l142 -288h2z" />
    <glyph glyph-name="brokenbar" unicode="&#xa6;" horiz-adv-x="227" 
d="M163 384h-99v367h99v-367zM163 -135h-99v380h99v-380z" />
    <glyph glyph-name="section" unicode="&#xa7;" horiz-adv-x="636" 
d="M570.5 154q-26.5 -35 -76.5 -52q43 -46 43 -112q0 -77 -55.5 -123.5t-160.5 -46.5q-107 0 -163.5 53t-59.5 138h137q3 -44 22 -68.5t66 -24.5q39 0 58 16t19 43q0 33 -23.5 53t-73.5 45l-21 11l-61 31q-72 38 -104 58.5t-55 52.5t-23 78q0 49 27 84.5t77 52.5
q-44 46 -44 112q0 77 56 123.5t160 46.5q107 0 163.5 -53t60.5 -138h-137q-4 44 -22 68.5t-66 24.5q-40 0 -59 -16t-19 -44q0 -33 24 -53.5t77 -46.5l19 -9l61 -31q66 -34 100.5 -56t57 -54t22.5 -79q0 -49 -26.5 -84zM360 187q13 -6 39 -20q30 3 46 18t16 37q0 28 -26.5 49
t-92.5 54l-65 33q-13 6 -39 20q-31 -3 -47 -18t-16 -37q0 -28 25.5 -47.5t95.5 -56.5z" />
    <glyph glyph-name="dieresis" unicode="&#xa8;" horiz-adv-x="428" 
d="M186 583h-141v130h141v-130zM379 583h-141v130h141v-130z" />
    <glyph glyph-name="copyright" unicode="&#xa9;" horiz-adv-x="836" 
d="M219.5 30q-84.5 45 -130 129.5t-45.5 197.5q0 114 45.5 198t130 129.5t198.5 45.5t198.5 -45.5t130 -129.5t45.5 -198t-45.5 -198t-130 -129t-198.5 -45t-198.5 45zM573 90.5q65 36.5 100 105t35 161.5t-35 162t-100 105.5t-155 36.5t-155 -36.5t-100 -105.5t-35 -162
t35 -161.5t100 -105t155 -36.5t155 36.5zM310 161.5q-49 28.5 -75 79t-26 116.5t25 117t72 79.5t111 28.5q87 0 139.5 -47t60.5 -121h-112q-4 31 -23 54t-62 23q-50 0 -73 -35.5t-23 -98.5q0 -62 23 -97.5t73 -35.5q76 0 85 78h112q-5 -75 -55.5 -122t-136.5 -47
q-66 0 -115 28.5z" />
    <glyph glyph-name="ordfeminine" unicode="&#xaa;" horiz-adv-x="472" 
d="M61.5 319.5q-36.5 32.5 -36.5 87.5q0 59 43 89.5t121 45.5q42 8 61.5 13t33.5 15.5t14 29.5q0 39 -61 39q-73 0 -79 -63h-116q3 64 52.5 105t147.5 41q85 0 128.5 -38.5t43.5 -127.5v-162q0 -17 3.5 -24.5t16.5 -7.5h9v-63q-32 -8 -63 -8q-38 0 -57 14.5t-24 44.5h-1
q-21 -28 -58 -45.5t-81 -17.5q-61 0 -97.5 32.5zM273 399.5q25 25.5 25 64.5v38q-26 -14 -76 -25q-36 -8 -54 -22t-18 -37q0 -22 15 -33t41 -11q42 0 67 25.5z" />
    <glyph glyph-name="guillemotleft" unicode="&#xab;" horiz-adv-x="477" 
d="M231 165v-133l-191 156v140l191 156v-135l-124 -90v-2zM430 165v-133l-191 156v140l191 156v-135l-124 -90v-2z" />
    <glyph glyph-name="logicalnot" unicode="&#xac;" horiz-adv-x="513" 
d="M459 137h-140v163h-284v121h424v-284z" />
    <glyph glyph-name="uni00AD" unicode="&#xad;" horiz-adv-x="352" 
d="M311 193h-270v121h270v-121z" />
    <glyph glyph-name="registered" unicode="&#xae;" horiz-adv-x="566" 
d="M162 278.5q-55 31.5 -86.5 87t-31.5 123.5t31.5 123.5t86.5 87t121 31.5t121 -31.5t86.5 -87t31.5 -123.5t-31.5 -123.5t-86.5 -87t-121 -31.5t-121 31.5zM418 346.5q51 54.5 51 143.5q0 88 -51 142.5t-135 54.5t-135 -54.5t-51 -142.5q0 -89 51 -143.5t135 -54.5
t135 54.5zM180 359v265h120q45 0 69.5 -20t24.5 -57q0 -26 -14.5 -43t-39.5 -23v-1q30 -5 40 -29t12 -60q1 -11 2.5 -19t4.5 -9v-4h-75q-4 3 -5 14t-1 14q-1 29 -9 47t-34 18h-23v-93h-72zM279 507q44 0 44 33q0 18 -11.5 25t-32.5 7h-27v-65h27z" />
    <glyph glyph-name="macron" unicode="&#xaf;" horiz-adv-x="358" 
d="M318 583h-278v92h278v-92z" />
    <glyph glyph-name="degree" unicode="&#xb0;" horiz-adv-x="388" 
d="M110.5 446.5q-35.5 21.5 -54 57t-18.5 74.5q0 40 18.5 75t54 56t83.5 21q47 0 82.5 -21t54 -56t18.5 -75q0 -39 -18.5 -74.5t-54 -57t-82.5 -21.5q-48 0 -83.5 21.5zM246 520.5q21 20.5 21 57.5q0 38 -21 58t-52 20t-52 -20t-21 -58q0 -37 21.5 -57.5t51.5 -20.5
q31 0 52 20.5z" />
    <glyph glyph-name="plusminus" unicode="&#xb1;" horiz-adv-x="568" 
d="M522 417v-122h-177v-175h177v-121h-477v121h178v175h-178v122h178v184h122v-184h177z" />
    <glyph glyph-name="uni00B2" unicode="&#xb2;" horiz-adv-x="368" 
d="M20 364q0 40 9 64.5t29.5 45.5t66.5 55q16 12 24 17q39 28 59 50.5t20 51.5q0 21 -11 33t-32 12q-27 0 -41 -17t-14 -57h-105q0 76 41 119t123 43q68 0 108.5 -33t40.5 -92q0 -52 -27.5 -86.5t-76.5 -72.5q-15 -11 -28.5 -22.5t-20.5 -21.5v-1h154v-88h-319z" />
    <glyph glyph-name="uni00B3" unicode="&#xb3;" horiz-adv-x="380" 
d="M63.5 400.5q-45.5 40.5 -45.5 114.5h106q0 -35 14.5 -51.5t50.5 -16.5q55 0 55 46q0 25 -17 36.5t-53 11.5h-18v74h16q60 0 60 44q0 19 -12 29.5t-32 10.5q-25 0 -39 -12t-14 -36h-105q0 60 44 98t119 38q64 0 107.5 -30.5t43.5 -82.5q0 -56 -58 -89v-1q70 -23 70 -97
q0 -61 -44 -94t-118 -33q-85 0 -130.5 40.5z" />
    <glyph glyph-name="acute" unicode="&#xb4;" horiz-adv-x="279" 
d="M141 578h-104l55 147h156z" />
    <glyph glyph-name="uni00B5" unicode="&#xb5;" horiz-adv-x="592" 
d="M396 511h137v-511h-137v70h-2q-20 -38 -56.5 -59.5t-79.5 -21.5q-36 0 -62 16v-182h-137v688h137v-306q0 -56 21.5 -82t67.5 -26q52 0 81.5 29t29.5 83v302z" />
    <glyph glyph-name="paragraph" unicode="&#xb6;" horiz-adv-x="588" 
d="M264 0v335h-43q-99 0 -151.5 48.5t-52.5 138.5q0 91 52.5 142t151.5 51h298v-715h-91v628h-73v-628h-91z" />
    <glyph glyph-name="periodcentered" unicode="&#xb7;" horiz-adv-x="229" 
d="M183 182h-136v136h136v-136z" />
    <glyph glyph-name="cedilla" unicode="&#xb8;" horiz-adv-x="314" 
d="M48 -166l27 33q35 -15 65 -15q21 0 34 8t13 23q0 28 -35 28q-21 0 -38 -7l-21 30l60 66h66l-41 -50v-2q6 1 18 1q36 0 61 -17t25 -50q0 -38 -35.5 -59t-88.5 -21q-60 0 -110 32z" />
    <glyph glyph-name="uni00B9" unicode="&#xb9;" horiz-adv-x="255" 
d="M99 627q-19 -11 -86 -11v84q47 0 76.5 18.5t29.5 51.5h94v-406h-114v263z" />
    <glyph glyph-name="ordmasculine" unicode="&#xba;" horiz-adv-x="486" 
d="M125 314.5q-50 27.5 -76.5 77t-26.5 113.5q0 63 27 112.5t77 77t118 27.5q67 0 116.5 -27.5t76.5 -76.5t27 -112q0 -64 -27 -114t-77 -77.5t-118 -27.5q-67 0 -117 27.5zM314.5 413q24.5 33 24.5 92q0 58 -25 91t-71 33t-71 -33t-25 -91q0 -59 24.5 -92t71.5 -33t71.5 33
z" />
    <glyph glyph-name="guillemotright" unicode="&#xbb;" horiz-adv-x="477" 
d="M238 189l-191 -157v136l123 90v2l-123 91v133l191 -156v-139zM437 189l-191 -157v136l123 90v2l-123 91v133l191 -156v-139z" />
    <glyph glyph-name="onequarter" unicode="&#xbc;" horiz-adv-x="799" 
d="M100 572q-19 -11 -86 -11v84q47 0 76.5 18.5t29.5 51.5h94v-406h-114v263zM209 0h-127l453 715h127zM725 0h-109v84h-182v107l182 215h109v-235h59v-87h-59v-84zM616 290l-103 -119h103v119z" />
    <glyph glyph-name="onehalf" unicode="&#xbd;" horiz-adv-x="849" 
d="M100 572q-19 -11 -86 -11v84q47 0 76.5 18.5t29.5 51.5h94v-406h-114v263zM215 0h-127l453 715h127zM501 0q0 40 9 64.5t29.5 45.5t66.5 55q16 12 24 17q39 28 59 50.5t20 51.5q0 21 -11 33t-32 12q-27 0 -41 -17t-14 -57h-105q0 76 41 119t123 43q68 0 108.5 -33
t40.5 -92q0 -52 -27.5 -86.5t-76.5 -72.5q-15 -11 -28.5 -22.5t-20.5 -21.5v-1h154v-88h-319z" />
    <glyph glyph-name="threequarters" unicode="&#xbe;" horiz-adv-x="916" 
d="M72.5 339.5q-45.5 40.5 -45.5 114.5h106q0 -35 14.5 -51.5t50.5 -16.5q55 0 55 46q0 25 -17 36.5t-53 11.5h-18v74h16q60 0 60 44q0 19 -12 29.5t-32 10.5q-25 0 -39 -12t-14 -36h-105q0 60 44 98t119 38q64 0 107.5 -30.5t43.5 -82.5q0 -56 -58 -89v-1q70 -23 70 -97
q0 -61 -44 -94t-118 -33q-85 0 -130.5 40.5zM323 0h-127l453 715h127zM837 0h-109v84h-182v107l182 215h109v-235h59v-87h-59v-84zM728 290l-103 -119h103v119z" />
    <glyph glyph-name="questiondown" unicode="&#xbf;" horiz-adv-x="526" 
d="M351 450h-136v136h136v-136zM129.5 -120q-53.5 24 -83 67.5t-29.5 100.5t27 95t81 72q39 24 58.5 41t30 43t10.5 68h120q0 -63 -9 -97.5t-28.5 -56.5t-63.5 -54q-46 -34 -62.5 -54.5t-16.5 -54.5q0 -33 22 -53.5t67 -20.5q53 0 82 32.5t29 98.5h147q0 -72 -29.5 -129
t-88 -89.5t-142.5 -32.5q-68 0 -121.5 24z" />
    <glyph glyph-name="Agrave" unicode="&#xc0;" horiz-adv-x="695" 
d="M163 0h-165l270 715h158l272 -715h-168l-51 158h-265zM346 573l-94 -295h190l-94 295h-2zM397 783h-105l-89 147h141z" />
    <glyph glyph-name="Aacute" unicode="&#xc1;" horiz-adv-x="695" 
d="M163 0h-165l270 715h158l272 -715h-168l-51 158h-265zM346 573l-94 -295h190l-94 295h-2zM395 782h-104l55 147h156z" />
    <glyph glyph-name="Acircumflex" unicode="&#xc2;" horiz-adv-x="695" 
d="M163 0h-165l270 715h158l272 -715h-168l-51 158h-265zM346 573l-94 -295h190l-94 295h-2zM297 782h-122l103 147h137l103 -147h-123l-48 84h-2z" />
    <glyph glyph-name="Atilde" unicode="&#xc3;" horiz-adv-x="695" 
d="M163 0h-165l270 715h158l272 -715h-168l-51 158h-265zM346 573l-94 -295h190l-94 295h-2zM179 775q0 68 22 100t63 32q31 0 77 -22q19 -9 31.5 -13t23.5 -4q31 0 31 38h79q0 -68 -22.5 -100t-62.5 -32q-19 0 -37 6t-41 16q-3 1 -21.5 8.5t-32.5 7.5q-31 0 -31 -37h-79z
" />
    <glyph glyph-name="Adieresis" unicode="&#xc4;" horiz-adv-x="695" 
d="M163 0h-165l270 715h158l272 -715h-168l-51 158h-265zM346 573l-94 -295h190l-94 295h-2zM321 787h-142v129h142v-129zM514 787h-142v129h142v-129z" />
    <glyph glyph-name="Aring" unicode="&#xc5;" horiz-adv-x="695" 
d="M163 0h-165l270 715h158l272 -715h-168l-51 158h-265zM346 573l-94 -295h190l-94 295h-2zM273 777q-30 28 -30 74q0 45 30 73.5t74 28.5t73.5 -28t29.5 -74t-29.5 -74t-73.5 -28t-74 28zM379 816.5q12 12.5 12 34.5t-12 34t-32 12q-19 0 -31 -12.5t-12 -33.5
q0 -22 12 -34.5t31 -12.5q20 0 32 12.5z" />
    <glyph glyph-name="AE" unicode="&#xc6;" horiz-adv-x="998" 
d="M583 304v-176h382v-128h-536v156h-225l-51 -157h-155l268 716h691v-128h-374v-155h325v-128h-325zM242 277h186v309h-84z" />
    <glyph glyph-name="Ccedilla" unicode="&#xc7;" horiz-adv-x="712" 
d="M529 265h158q-12 -118 -84.5 -193.5t-195.5 -85.5l-30 -36v-2q6 1 18 1q36 0 61 -17t25 -50q0 -38 -35.5 -59t-88.5 -21q-60 0 -110 32l27 33q35 -15 65 -15q21 0 34 8t13 23q0 28 -35 28q-21 0 -38 -7l-21 30l47 52q-97 7 -166 56.5t-105 130.5t-36 183
q0 110 40.5 194.5t118 132t184.5 47.5q92 0 159.5 -34.5t105.5 -96t47 -141.5h-158q-11 65 -47.5 105t-112.5 40q-95 0 -136.5 -66.5t-41.5 -178.5q0 -113 41.5 -179.5t136.5 -66.5q142 0 160 153z" />
    <glyph glyph-name="Egrave" unicode="&#xc8;" horiz-adv-x="633" 
d="M600 0h-536v715h529v-128h-375v-155h325v-128h-325v-176h382v-128zM381 783h-105l-89 147h141z" />
    <glyph glyph-name="Eacute" unicode="&#xc9;" horiz-adv-x="633" 
d="M600 0h-536v715h529v-128h-375v-155h325v-128h-325v-176h382v-128zM380 782h-104l55 147h156z" />
    <glyph glyph-name="Ecircumflex" unicode="&#xca;" horiz-adv-x="633" 
d="M600 0h-536v715h529v-128h-375v-155h325v-128h-325v-176h382v-128zM282 782h-122l103 147h137l103 -147h-123l-48 84h-2z" />
    <glyph glyph-name="Edieresis" unicode="&#xcb;" horiz-adv-x="633" 
d="M600 0h-536v715h529v-128h-375v-155h325v-128h-325v-176h382v-128zM305 787h-142v129h142v-129zM498 787h-142v129h142v-129z" />
    <glyph glyph-name="Igrave" unicode="&#xcc;" horiz-adv-x="282" 
d="M218 0h-154v715h154v-715zM191 783h-105l-89 147h141z" />
    <glyph glyph-name="Iacute" unicode="&#xcd;" horiz-adv-x="282" 
d="M218 0h-154v715h154v-715zM190 782h-104l55 147h156z" />
    <glyph glyph-name="Icircumflex" unicode="&#xce;" horiz-adv-x="282" 
d="M218 0h-154v715h154v-715zM92 782h-122l103 147h137l103 -147h-123l-48 84h-2z" />
    <glyph glyph-name="Idieresis" unicode="&#xcf;" horiz-adv-x="282" 
d="M218 0h-154v715h154v-715zM115 787h-142v129h142v-129zM308 787h-142v129h142v-129z" />
    <glyph glyph-name="Eth" unicode="&#xd0;" horiz-adv-x="733" 
d="M380 715q150 0 234.5 -93.5t84.5 -264.5q0 -172 -81 -264.5t-231 -92.5h-307v328h-67v84h67v303h300zM365 128q176 0 176 229q0 230 -176 230h-131v-175h160v-84h-160v-200h131z" />
    <glyph glyph-name="Ntilde" unicode="&#xd1;" horiz-adv-x="725" 
d="M218 0h-154v715h160l281 -471h2v471h154v-715h-160l-281 471h-2v-471zM195 775q0 68 22 100t63 32q31 0 77 -22q19 -9 31.5 -13t23.5 -4q31 0 31 38h79q0 -68 -22.5 -100t-62.5 -32q-19 0 -37 6t-41 16q-3 1 -21.5 8.5t-32.5 7.5q-31 0 -31 -37h-79z" />
    <glyph glyph-name="Ograve" unicode="&#xd2;" horiz-adv-x="770" 
d="M196.5 32.5q-79.5 47.5 -122 132.5t-42.5 193t42.5 192.5t122 132t188.5 47.5q108 0 188 -47.5t122.5 -132t42.5 -192.5t-42.5 -193t-122.5 -132.5t-188 -47.5q-109 0 -188.5 47.5zM533 180.5q47 68.5 47 177.5t-47 177t-148 68q-102 0 -148 -67.5t-46 -177.5t46 -178
t148 -68q101 0 148 68.5zM435 783h-105l-89 147h141z" />
    <glyph glyph-name="Oacute" unicode="&#xd3;" horiz-adv-x="770" 
d="M196.5 32.5q-79.5 47.5 -122 132.5t-42.5 193t42.5 192.5t122 132t188.5 47.5q108 0 188 -47.5t122.5 -132t42.5 -192.5t-42.5 -193t-122.5 -132.5t-188 -47.5q-109 0 -188.5 47.5zM533 180.5q47 68.5 47 177.5t-47 177t-148 68q-102 0 -148 -67.5t-46 -177.5t46 -178
t148 -68q101 0 148 68.5zM434 782h-104l55 147h156z" />
    <glyph glyph-name="Ocircumflex" unicode="&#xd4;" horiz-adv-x="770" 
d="M196.5 32.5q-79.5 47.5 -122 132.5t-42.5 193t42.5 192.5t122 132t188.5 47.5q108 0 188 -47.5t122.5 -132t42.5 -192.5t-42.5 -193t-122.5 -132.5t-188 -47.5q-109 0 -188.5 47.5zM533 180.5q47 68.5 47 177.5t-47 177t-148 68q-102 0 -148 -67.5t-46 -177.5t46 -178
t148 -68q101 0 148 68.5zM336 782h-122l103 147h137l103 -147h-123l-48 84h-2z" />
    <glyph glyph-name="Otilde" unicode="&#xd5;" horiz-adv-x="770" 
d="M196.5 32.5q-79.5 47.5 -122 132.5t-42.5 193t42.5 192.5t122 132t188.5 47.5q108 0 188 -47.5t122.5 -132t42.5 -192.5t-42.5 -193t-122.5 -132.5t-188 -47.5q-109 0 -188.5 47.5zM533 180.5q47 68.5 47 177.5t-47 177t-148 68q-102 0 -148 -67.5t-46 -177.5t46 -178
t148 -68q101 0 148 68.5zM217 775q0 68 22 100t63 32q31 0 77 -22q19 -9 31.5 -13t23.5 -4q31 0 31 38h79q0 -68 -22.5 -100t-62.5 -32q-19 0 -37 6t-41 16q-3 1 -21.5 8.5t-32.5 7.5q-31 0 -31 -37h-79z" />
    <glyph glyph-name="Odieresis" unicode="&#xd6;" horiz-adv-x="770" 
d="M196.5 32.5q-79.5 47.5 -122 132.5t-42.5 193t42.5 192.5t122 132t188.5 47.5q108 0 188 -47.5t122.5 -132t42.5 -192.5t-42.5 -193t-122.5 -132.5t-188 -47.5q-109 0 -188.5 47.5zM533 180.5q47 68.5 47 177.5t-47 177t-148 68q-102 0 -148 -67.5t-46 -177.5t46 -178
t148 -68q101 0 148 68.5zM359 787h-142v129h142v-129zM552 787h-142v129h142v-129z" />
    <glyph glyph-name="multiply" unicode="&#xd7;" horiz-adv-x="568" 
d="M284 242l-146 -146l-86 86l146 146l-146 145l86 86l146 -146l146 146l85 -86l-146 -145l146 -146l-85 -86z" />
    <glyph glyph-name="Oslash" unicode="&#xd8;" horiz-adv-x="774" 
d="M742 674l-75 -75q36 -47 54.5 -108.5t18.5 -132.5q0 -108 -42.5 -193t-122.5 -132.5t-188 -47.5q-74 0 -136 23t-107 66l-72 -72l-40 41l74 74q-35 48 -53 109.5t-18 131.5q0 108 42 192.5t121.5 132t188.5 47.5q74 0 135.5 -22.5t106.5 -65.5l72 72zM214 226l316 316
q-50 61 -143 61q-102 0 -148 -67.5t-46 -177.5q0 -79 21 -132zM560 491l-316 -317q49 -62 143 -62q102 0 148.5 68t46.5 178q0 77 -22 133z" />
    <glyph glyph-name="Ugrave" unicode="&#xd9;" horiz-adv-x="700" 
d="M128 53q-70 68 -70 199v463h155v-463q0 -73 33.5 -106.5t103.5 -33.5t104 33.5t34 106.5v463h154v-463q0 -131 -70 -199t-222 -68t-222 68zM400 783h-105l-89 147h141z" />
    <glyph glyph-name="Uacute" unicode="&#xda;" horiz-adv-x="700" 
d="M128 53q-70 68 -70 199v463h155v-463q0 -73 33.5 -106.5t103.5 -33.5t104 33.5t34 106.5v463h154v-463q0 -131 -70 -199t-222 -68t-222 68zM399 782h-104l55 147h156z" />
    <glyph glyph-name="Ucircumflex" unicode="&#xdb;" horiz-adv-x="700" 
d="M128 53q-70 68 -70 199v463h155v-463q0 -73 33.5 -106.5t103.5 -33.5t104 33.5t34 106.5v463h154v-463q0 -131 -70 -199t-222 -68t-222 68zM301 782h-122l103 147h137l103 -147h-123l-48 84h-2z" />
    <glyph glyph-name="Udieresis" unicode="&#xdc;" horiz-adv-x="700" 
d="M128 53q-70 68 -70 199v463h155v-463q0 -73 33.5 -106.5t103.5 -33.5t104 33.5t34 106.5v463h154v-463q0 -131 -70 -199t-222 -68t-222 68zM324 787h-142v129h142v-129zM517 787h-142v129h142v-129z" />
    <glyph glyph-name="Yacute" unicode="&#xdd;" horiz-adv-x="656" 
d="M405 0h-154v272l-248 443h166l158 -318h2l160 318h163l-247 -443v-272zM378 782h-104l55 147h156z" />
    <glyph glyph-name="Thorn" unicode="&#xde;" horiz-adv-x="650" 
d="M64 0v715h154v-106h175q111 0 175 -56t64 -166t-64 -166t-175 -56h-175v-165h-154zM369 293q54 0 81.5 22.5t27.5 71.5t-27.5 71.5t-81.5 22.5h-151v-188h151z" />
    <glyph glyph-name="germandbls" unicode="&#xdf;" horiz-adv-x="566" 
d="M238 0v106q28 -8 58 -8q56 0 81 32.5t25 83.5q0 64 -34.5 99t-100.5 35h-26v92h23q44 0 72 25.5t28 71.5q0 40 -21 64t-65 24q-48 0 -70.5 -32.5t-22.5 -102.5v-490h-137v490q0 117 60 178.5t173 61.5q73 0 124 -24.5t76 -67t25 -94.5q0 -55 -27 -92t-71 -56v-2
q64 -20 99.5 -72.5t35.5 -127.5q0 -65 -27 -112t-75.5 -72t-109.5 -25q-46 0 -93 15z" />
    <glyph glyph-name="agrave" unicode="&#xe0;" horiz-adv-x="552" 
d="M70 25.5q-45 40.5 -45 107.5q0 76 52.5 113.5t150.5 57.5q8 2 49 10t62 23.5t21 38.5q0 26 -19 40.5t-60 14.5q-51 0 -74.5 -20t-27.5 -63h-132q4 80 63 130t177 50q100 0 153 -46.5t53 -152.5v-212q0 -24 4.5 -34.5t16.5 -10.5q7 0 13 1v-70q-43 -8 -74 -8q-43 0 -64 17
t-26 54h-2q-27 -37 -71 -59t-100 -22q-75 0 -120 40.5zM327 117q33 34 33 87v54q-21 -11 -96 -29q-53 -11 -75.5 -30.5t-22.5 -52.5q0 -63 74 -63q54 0 87 34zM331 579h-105l-89 147h141z" />
    <glyph glyph-name="aacute" unicode="&#xe1;" horiz-adv-x="552" 
d="M70 25.5q-45 40.5 -45 107.5q0 76 52.5 113.5t150.5 57.5q8 2 49 10t62 23.5t21 38.5q0 26 -19 40.5t-60 14.5q-51 0 -74.5 -20t-27.5 -63h-132q4 80 63 130t177 50q100 0 153 -46.5t53 -152.5v-212q0 -24 4.5 -34.5t16.5 -10.5q7 0 13 1v-70q-43 -8 -74 -8q-43 0 -64 17
t-26 54h-2q-27 -37 -71 -59t-100 -22q-75 0 -120 40.5zM327 117q33 34 33 87v54q-21 -11 -96 -29q-53 -11 -75.5 -30.5t-22.5 -52.5q0 -63 74 -63q54 0 87 34zM329 578h-104l55 147h156z" />
    <glyph glyph-name="acircumflex" unicode="&#xe2;" horiz-adv-x="552" 
d="M70 25.5q-45 40.5 -45 107.5q0 76 52.5 113.5t150.5 57.5q8 2 49 10t62 23.5t21 38.5q0 26 -19 40.5t-60 14.5q-51 0 -74.5 -20t-27.5 -63h-132q4 80 63 130t177 50q100 0 153 -46.5t53 -152.5v-212q0 -24 4.5 -34.5t16.5 -10.5q7 0 13 1v-70q-43 -8 -74 -8q-43 0 -64 17
t-26 54h-2q-27 -37 -71 -59t-100 -22q-75 0 -120 40.5zM327 117q33 34 33 87v54q-21 -11 -96 -29q-53 -11 -75.5 -30.5t-22.5 -52.5q0 -63 74 -63q54 0 87 34zM231 578h-122l103 147h137l103 -147h-123l-48 84h-2z" />
    <glyph glyph-name="atilde" unicode="&#xe3;" horiz-adv-x="552" 
d="M70 25.5q-45 40.5 -45 107.5q0 76 52.5 113.5t150.5 57.5q8 2 49 10t62 23.5t21 38.5q0 26 -19 40.5t-60 14.5q-51 0 -74.5 -20t-27.5 -63h-132q4 80 63 130t177 50q100 0 153 -46.5t53 -152.5v-212q0 -24 4.5 -34.5t16.5 -10.5q7 0 13 1v-70q-43 -8 -74 -8q-43 0 -64 17
t-26 54h-2q-27 -37 -71 -59t-100 -22q-75 0 -120 40.5zM327 117q33 34 33 87v54q-21 -11 -96 -29q-53 -11 -75.5 -30.5t-22.5 -52.5q0 -63 74 -63q54 0 87 34zM113 571q0 68 22 100t63 32q31 0 77 -22q19 -9 31.5 -13t23.5 -4q31 0 31 38h79q0 -68 -22.5 -100t-62.5 -32
q-19 0 -37 6t-41 16q-3 1 -21.5 8.5t-32.5 7.5q-31 0 -31 -37h-79z" />
    <glyph glyph-name="adieresis" unicode="&#xe4;" horiz-adv-x="552" 
d="M70 25.5q-45 40.5 -45 107.5q0 76 52.5 113.5t150.5 57.5q8 2 49 10t62 23.5t21 38.5q0 26 -19 40.5t-60 14.5q-51 0 -74.5 -20t-27.5 -63h-132q4 80 63 130t177 50q100 0 153 -46.5t53 -152.5v-212q0 -24 4.5 -34.5t16.5 -10.5q7 0 13 1v-70q-43 -8 -74 -8q-43 0 -64 17
t-26 54h-2q-27 -37 -71 -59t-100 -22q-75 0 -120 40.5zM327 117q33 34 33 87v54q-21 -11 -96 -29q-53 -11 -75.5 -30.5t-22.5 -52.5q0 -63 74 -63q54 0 87 34zM255 583h-142v129h142v-129zM448 583h-142v129h142v-129z" />
    <glyph glyph-name="aring" unicode="&#xe5;" horiz-adv-x="552" 
d="M70 25.5q-45 40.5 -45 107.5q0 76 52.5 113.5t150.5 57.5q8 2 49 10t62 23.5t21 38.5q0 26 -19 40.5t-60 14.5q-51 0 -74.5 -20t-27.5 -63h-132q4 80 63 130t177 50q100 0 153 -46.5t53 -152.5v-212q0 -24 4.5 -34.5t16.5 -10.5q7 0 13 1v-70q-43 -8 -74 -8q-43 0 -64 17
t-26 54h-2q-27 -37 -71 -59t-100 -22q-75 0 -120 40.5zM327 117q33 34 33 87v54q-21 -11 -96 -29q-53 -11 -75.5 -30.5t-22.5 -52.5q0 -63 74 -63q54 0 87 34zM207 573q-30 28 -30 74q0 45 30 73.5t74 28.5t73.5 -28t29.5 -74t-29.5 -74t-73.5 -28t-74 28zM313 612.5
q12 12.5 12 34.5t-12 34t-32 12q-19 0 -31 -12.5t-12 -33.5q0 -22 12 -34.5t31 -12.5q20 0 32 12.5z" />
    <glyph glyph-name="ae" unicode="&#xe6;" horiz-adv-x="896" 
d="M871 219h-377q1 -57 35.5 -93.5t90.5 -36.5q47 0 72.5 20t34.5 47h139q-22 -80 -85 -126t-164 -46q-67 0 -119.5 24.5t-86.5 68.5q-38 -49 -89 -70.5t-114 -21.5q-88 0 -135.5 40.5t-47.5 107.5q0 76 52.5 113.5t150.5 57.5q8 2 49 10t62 23.5t21 38.5q0 26 -19 40.5
t-60 14.5q-51 0 -74.5 -19.5t-27.5 -63.5h-132q4 80 62.5 130t171.5 50q115 0 167 -55q68 55 169 55q124 0 189 -73t65 -207v-29zM732 310q0 53 -31.5 84t-85.5 31q-51 0 -84 -30.5t-37 -84.5h238zM357 228q-1 9 -1 28q-27 -13 -92 -27q-52 -11 -75 -30.5t-23 -49.5
q0 -66 72 -66q58 0 88.5 32.5t30.5 83.5v29z" />
    <glyph glyph-name="ccedilla" unicode="&#xe7;" horiz-adv-x="542" 
d="M385 192h139q-5 -85 -62 -141.5t-148 -65.5l-29 -35v-2q6 1 18 1q36 0 61 -17t25 -50q0 -38 -35.5 -59t-88.5 -21q-60 0 -110 32l27 33q35 -15 65 -15q21 0 34 8t13 23q0 28 -35 28q-20 0 -38 -7l-21 30l47 52q-102 12 -162.5 85.5t-60.5 184.5q0 79 32 141t90 96.5
t135 34.5q103 0 168 -57t75 -149h-139q-5 42 -28 71t-74 29q-59 0 -88.5 -45t-29.5 -121t29 -121t89 -45q92 0 102 102z" />
    <glyph glyph-name="egrave" unicode="&#xe8;" horiz-adv-x="565" 
d="M540 219h-377q1 -57 35.5 -93.5t90.5 -36.5q47 0 72.5 20t34.5 47h139q-22 -80 -85 -126t-165 -46q-80 0 -139 34.5t-90 96t-31 141.5q0 78 31 139.5t89.5 97t139.5 35.5q124 0 189.5 -73t65.5 -207v-29zM401 310q0 53 -31.5 84t-85.5 31q-51 0 -84 -30.5t-37 -84.5h238z
M332 580h-105l-89 147h141z" />
    <glyph glyph-name="eacute" unicode="&#xe9;" horiz-adv-x="565" 
d="M540 219h-377q1 -57 35.5 -93.5t90.5 -36.5q47 0 72.5 20t34.5 47h139q-22 -80 -85 -126t-165 -46q-80 0 -139 34.5t-90 96t-31 141.5q0 78 31 139.5t89.5 97t139.5 35.5q124 0 189.5 -73t65.5 -207v-29zM401 310q0 53 -31.5 84t-85.5 31q-51 0 -84 -30.5t-37 -84.5h238z
M331 579h-104l55 147h156z" />
    <glyph glyph-name="ecircumflex" unicode="&#xea;" horiz-adv-x="565" 
d="M540 219h-377q1 -57 35.5 -93.5t90.5 -36.5q47 0 72.5 20t34.5 47h139q-22 -80 -85 -126t-165 -46q-80 0 -139 34.5t-90 96t-31 141.5q0 78 31 139.5t89.5 97t139.5 35.5q124 0 189.5 -73t65.5 -207v-29zM401 310q0 53 -31.5 84t-85.5 31q-51 0 -84 -30.5t-37 -84.5h238z
M233 579h-122l103 147h137l103 -147h-123l-48 84h-2z" />
    <glyph glyph-name="edieresis" unicode="&#xeb;" horiz-adv-x="565" 
d="M540 219h-377q1 -57 35.5 -93.5t90.5 -36.5q47 0 72.5 20t34.5 47h139q-22 -80 -85 -126t-165 -46q-80 0 -139 34.5t-90 96t-31 141.5q0 78 31 139.5t89.5 97t139.5 35.5q124 0 189.5 -73t65.5 -207v-29zM401 310q0 53 -31.5 84t-85.5 31q-51 0 -84 -30.5t-37 -84.5h238z
M257 584h-142v129h142v-129zM450 584h-142v129h142v-129z" />
    <glyph glyph-name="igrave" unicode="&#xec;" horiz-adv-x="233" 
d="M185 0h-137v511h137v-511zM167 579h-105l-89 147h141z" />
    <glyph glyph-name="iacute" unicode="&#xed;" horiz-adv-x="233" 
d="M185 0h-137v511h137v-511zM165 578h-104l55 147h156z" />
    <glyph glyph-name="icircumflex" unicode="&#xee;" horiz-adv-x="233" 
d="M185 0h-137v511h137v-511zM67 578h-122l103 147h137l103 -147h-123l-48 84h-2z" />
    <glyph glyph-name="idieresis" unicode="&#xef;" horiz-adv-x="233" 
d="M185 0h-137v511h137v-511zM91 583h-142v129h142v-129zM284 583h-142v129h142v-129z" />
    <glyph glyph-name="eth" unicode="&#xf0;" horiz-adv-x="584" 
d="M436 626q53 -59 86 -139t33 -177q0 -88 -27.5 -161.5t-88 -119t-154.5 -45.5q-123 0 -192 74t-69 199q0 82 31.5 143.5t85 94t117.5 32.5q43 0 77.5 -15t57.5 -41q-21 64 -77 123l-139 -37l-16 58l102 27q-48 38 -110 73h174q25 -13 58 -40l113 30l16 -58zM377 139
q34 44 34 118t-34 117t-92 43t-91 -42.5t-33 -117.5t33 -118.5t91 -43.5t92 44z" />
    <glyph glyph-name="ntilde" unicode="&#xf1;" horiz-adv-x="567" 
d="M476.5 480.5q46.5 -46.5 46.5 -131.5v-349h-138v307q0 55 -21.5 81t-66.5 26q-53 0 -82.5 -28.5t-29.5 -83.5v-302h-137v511h137v-70h2q23 38 64.5 62t103.5 24q75 0 121.5 -46.5zM139 571q0 68 22 100t63 32q31 0 77 -22q19 -9 31.5 -13t23.5 -4q31 0 31 38h79
q0 -68 -22.5 -100t-62.5 -32q-19 0 -37 6t-41 16q-3 1 -21.5 8.5t-32.5 7.5q-31 0 -31 -37h-79z" />
    <glyph glyph-name="ograve" unicode="&#xf2;" horiz-adv-x="582" 
d="M148.5 18q-60.5 34 -92.5 95.5t-32 141.5t32.5 142t93 96.5t142.5 34.5q81 0 141.5 -34t92.5 -95.5t32 -141.5t-32.5 -142t-93 -96.5t-142.5 -34.5q-81 0 -141.5 34zM385.5 133.5q32.5 44.5 32.5 122.5t-32.5 122t-94.5 44t-94.5 -44t-32.5 -122t32.5 -122.5t94.5 -44.5
t94.5 44.5zM341 580h-105l-89 147h141z" />
    <glyph glyph-name="oacute" unicode="&#xf3;" horiz-adv-x="582" 
d="M148.5 18q-60.5 34 -92.5 95.5t-32 141.5t32.5 142t93 96.5t142.5 34.5q81 0 141.5 -34t92.5 -95.5t32 -141.5t-32.5 -142t-93 -96.5t-142.5 -34.5q-81 0 -141.5 34zM385.5 133.5q32.5 44.5 32.5 122.5t-32.5 122t-94.5 44t-94.5 -44t-32.5 -122t32.5 -122.5t94.5 -44.5
t94.5 44.5zM340 579h-104l55 147h156z" />
    <glyph glyph-name="ocircumflex" unicode="&#xf4;" horiz-adv-x="582" 
d="M148.5 18q-60.5 34 -92.5 95.5t-32 141.5t32.5 142t93 96.5t142.5 34.5q81 0 141.5 -34t92.5 -95.5t32 -141.5t-32.5 -142t-93 -96.5t-142.5 -34.5q-81 0 -141.5 34zM385.5 133.5q32.5 44.5 32.5 122.5t-32.5 122t-94.5 44t-94.5 -44t-32.5 -122t32.5 -122.5t94.5 -44.5
t94.5 44.5zM242 579h-122l103 147h137l103 -147h-123l-48 84h-2z" />
    <glyph glyph-name="otilde" unicode="&#xf5;" horiz-adv-x="582" 
d="M148.5 18q-60.5 34 -92.5 95.5t-32 141.5t32.5 142t93 96.5t142.5 34.5q81 0 141.5 -34t92.5 -95.5t32 -141.5t-32.5 -142t-93 -96.5t-142.5 -34.5q-81 0 -141.5 34zM385.5 133.5q32.5 44.5 32.5 122.5t-32.5 122t-94.5 44t-94.5 -44t-32.5 -122t32.5 -122.5t94.5 -44.5
t94.5 44.5zM124 572q0 68 22 100t63 32q31 0 77 -22q19 -9 31.5 -13t23.5 -4q31 0 31 38h79q0 -68 -22.5 -100t-62.5 -32q-19 0 -37 6t-41 16q-3 1 -21.5 8.5t-32.5 7.5q-31 0 -31 -37h-79z" />
    <glyph glyph-name="odieresis" unicode="&#xf6;" horiz-adv-x="582" 
d="M148.5 18q-60.5 34 -92.5 95.5t-32 141.5t32.5 142t93 96.5t142.5 34.5q81 0 141.5 -34t92.5 -95.5t32 -141.5t-32.5 -142t-93 -96.5t-142.5 -34.5q-81 0 -141.5 34zM385.5 133.5q32.5 44.5 32.5 122.5t-32.5 122t-94.5 44t-94.5 -44t-32.5 -122t32.5 -122.5t94.5 -44.5
t94.5 44.5zM266 584h-142v129h142v-129zM459 584h-142v129h142v-129z" />
    <glyph glyph-name="divide" unicode="&#xf7;" horiz-adv-x="568" 
d="M352 450h-136v136h136v-136zM352 70h-136v136h136v-136zM522 267h-477v122h477v-122z" />
    <glyph glyph-name="oslash" unicode="&#xf8;" horiz-adv-x="585" 
d="M560 483l-53 -53q52 -69 52 -173q0 -80 -32 -142t-92.5 -96.5t-142.5 -34.5q-106 0 -174 56l-52 -52l-40 41l52 52q-52 70 -52 174q0 80 32 142t93 96.5t143 34.5q106 0 174 -56l51 51zM176 179l205 206q-32 37 -88 37q-62 0 -94.5 -44t-32.5 -122q0 -44 10 -77zM410 332
l-206 -206q32 -37 89 -37q61 0 94 44.5t33 122.5q0 45 -10 76z" />
    <glyph glyph-name="ugrave" unicode="&#xf9;" horiz-adv-x="567" 
d="M382 511h137v-511h-137v70h-2q-23 -38 -64.5 -61.5t-103.5 -23.5q-75 0 -121 46.5t-46 131.5v348h137v-306q0 -56 21.5 -82t67.5 -26q52 0 81.5 29t29.5 83v302zM327 579h-105l-89 147h141z" />
    <glyph glyph-name="uacute" unicode="&#xfa;" horiz-adv-x="567" 
d="M382 511h137v-511h-137v70h-2q-23 -38 -64.5 -61.5t-103.5 -23.5q-75 0 -121 46.5t-46 131.5v348h137v-306q0 -56 21.5 -82t67.5 -26q52 0 81.5 29t29.5 83v302zM326 578h-104l55 147h156z" />
    <glyph glyph-name="ucircumflex" unicode="&#xfb;" horiz-adv-x="567" 
d="M382 511h137v-511h-137v70h-2q-23 -38 -64.5 -61.5t-103.5 -23.5q-75 0 -121 46.5t-46 131.5v348h137v-306q0 -56 21.5 -82t67.5 -26q52 0 81.5 29t29.5 83v302zM228 578h-122l103 147h137l103 -147h-123l-48 84h-2z" />
    <glyph glyph-name="udieresis" unicode="&#xfc;" horiz-adv-x="567" 
d="M382 511h137v-511h-137v70h-2q-23 -38 -64.5 -61.5t-103.5 -23.5q-75 0 -121 46.5t-46 131.5v348h137v-306q0 -56 21.5 -82t67.5 -26q52 0 81.5 29t29.5 83v302zM251 583h-142v129h142v-129zM444 583h-142v129h142v-129z" />
    <glyph glyph-name="yacute" unicode="&#xfd;" horiz-adv-x="533" 
d="M58 -169v107q26 -3 46 -3q33 0 58.5 14.5t36.5 56.5l-204 505h143l131 -356h2l121 356h138l-193 -516q-35 -93 -78.5 -133t-116.5 -40q-38 0 -84 9zM311 578h-104l55 147h156z" />
    <glyph glyph-name="thorn" unicode="&#xfe;" horiz-adv-x="590" 
d="M456 494q51 -33 79.5 -94t28.5 -144t-28.5 -144t-79.5 -94t-117 -33q-53 0 -92.5 21t-59.5 49h-2v-232h-137v892h137v-258h2q21 28 60.5 49t91.5 21q66 0 117 -33zM391.5 135q30.5 45 30.5 121t-30.5 120.5t-86.5 44.5t-87 -43.5t-31 -121.5q0 -79 31 -122.5t87 -43.5
t86.5 45z" />
    <glyph glyph-name="ydieresis" unicode="&#xff;" horiz-adv-x="533" 
d="M58 -169v107q26 -3 46 -3q33 0 58.5 14.5t36.5 56.5l-204 505h143l131 -356h2l121 356h138l-193 -516q-35 -93 -78.5 -133t-116.5 -40q-38 0 -84 9zM237 583h-142v129h142v-129zM430 583h-142v129h142v-129z" />
    <glyph glyph-name="Amacron" unicode="&#x100;" horiz-adv-x="695" 
d="M163 0h-165l270 715h158l272 -715h-168l-51 158h-265zM346 573l-94 -295h190l-94 295h-2zM486 787h-278v92h278v-92z" />
    <glyph glyph-name="amacron" unicode="&#x101;" horiz-adv-x="552" 
d="M70 25.5q-45 40.5 -45 107.5q0 76 52.5 113.5t150.5 57.5q8 2 49 10t62 23.5t21 38.5q0 26 -19 40.5t-60 14.5q-51 0 -74.5 -20t-27.5 -63h-132q4 80 63 130t177 50q100 0 153 -46.5t53 -152.5v-212q0 -24 4.5 -34.5t16.5 -10.5q7 0 13 1v-70q-43 -8 -74 -8q-43 0 -64 17
t-26 54h-2q-27 -37 -71 -59t-100 -22q-75 0 -120 40.5zM327 117q33 34 33 87v54q-21 -11 -96 -29q-53 -11 -75.5 -30.5t-22.5 -52.5q0 -63 74 -63q54 0 87 34zM420 583h-278v92h278v-92z" />
    <glyph glyph-name="Abreve" unicode="&#x102;" horiz-adv-x="695" 
d="M163 0h-165l270 715h158l272 -715h-168l-51 158h-265zM346 573l-94 -295h190l-94 295h-2zM239.5 812q-41.5 39 -43.5 108h83q5 -60 68 -60q62 0 67 60h83q-3 -67 -44 -107t-106 -40q-66 0 -107.5 39z" />
    <glyph glyph-name="abreve" unicode="&#x103;" horiz-adv-x="552" 
d="M70 25.5q-45 40.5 -45 107.5q0 76 52.5 113.5t150.5 57.5q8 2 49 10t62 23.5t21 38.5q0 26 -19 40.5t-60 14.5q-51 0 -74.5 -20t-27.5 -63h-132q4 80 63 130t177 50q100 0 153 -46.5t53 -152.5v-212q0 -24 4.5 -34.5t16.5 -10.5q7 0 13 1v-70q-43 -8 -74 -8q-43 0 -64 17
t-26 54h-2q-27 -37 -71 -59t-100 -22q-75 0 -120 40.5zM327 117q33 34 33 87v54q-21 -11 -96 -29q-53 -11 -75.5 -30.5t-22.5 -52.5q0 -63 74 -63q54 0 87 34zM173.5 608q-41.5 39 -43.5 108h83q5 -60 68 -60q62 0 67 60h83q-3 -67 -44 -107t-106 -40q-66 0 -107.5 39z" />
    <glyph glyph-name="Aogonek" unicode="&#x104;" horiz-adv-x="695" 
d="M630 -92q15 0 43 8v-81q-40 -11 -77 -11q-52 0 -79.5 21t-27.5 60q0 32 20.5 56.5t49.5 38.5h-29l-51 158h-265l-51 -158h-165l270 715h158l272 -715h-49q-26 -21 -39 -36.5t-13 -30.5q0 -25 33 -25zM346 573l-94 -295h190l-94 295h-2z" />
    <glyph glyph-name="aogonek" unicode="&#x105;" horiz-adv-x="552" 
d="M551 -81v-81q-40 -11 -77 -11q-52 0 -79.5 21t-27.5 60q0 28 17 50.5t42 38.5q-29 4 -43.5 21t-19.5 48h-2q-27 -37 -71 -59t-100 -22q-75 0 -120 40.5t-45 107.5q0 76 52.5 113.5t150.5 57.5q8 2 49 10t62 23.5t21 38.5q0 26 -19 40.5t-60 14.5q-51 0 -74.5 -20
t-27.5 -63h-132q4 80 63 130t177 50q100 0 153 -46.5t53 -152.5v-212q0 -24 4.5 -34.5t16.5 -10.5q7 0 13 1v-69h1l-1 -1v0q-26 -21 -39 -36.5t-13 -30.5q0 -25 33 -25q15 0 43 8zM360 258q-21 -11 -96 -29q-53 -11 -75.5 -30.5t-22.5 -52.5q0 -63 74 -63q54 0 87 34t33 87
v54z" />
    <glyph glyph-name="Cacute" unicode="&#x106;" horiz-adv-x="712" 
d="M188 32.5q-77 47.5 -116.5 131.5t-39.5 192q0 110 40.5 194.5t118 132t184.5 47.5q92 0 159.5 -34.5t105.5 -96t47 -141.5h-158q-11 65 -47.5 105t-112.5 40q-95 0 -136.5 -66.5t-41.5 -178.5q0 -113 41.5 -179.5t136.5 -66.5q142 0 160 153h158q-8 -82 -47 -145.5
t-107.5 -99t-161.5 -35.5q-106 0 -183 47.5zM427 782h-104l55 147h156z" />
    <glyph glyph-name="cacute" unicode="&#x107;" horiz-adv-x="542" 
d="M146.5 18.5q-58.5 34.5 -90.5 96t-32 141.5q0 79 32 141t90 96.5t135 34.5q103 0 168 -57t75 -149h-139q-5 42 -28 71t-74 29q-59 0 -88.5 -45t-29.5 -121t29 -121t89 -45q92 0 102 102h139q-4 -60 -34.5 -107.5t-84 -74t-122.5 -26.5q-78 0 -136.5 34.5zM329 578h-104
l55 147h156z" />
    <glyph glyph-name="Ccircumflex" unicode="&#x108;" horiz-adv-x="712" 
d="M188 32.5q-77 47.5 -116.5 131.5t-39.5 192q0 110 40.5 194.5t118 132t184.5 47.5q92 0 159.5 -34.5t105.5 -96t47 -141.5h-158q-11 65 -47.5 105t-112.5 40q-95 0 -136.5 -66.5t-41.5 -178.5q0 -113 41.5 -179.5t136.5 -66.5q142 0 160 153h158q-8 -82 -47 -145.5
t-107.5 -99t-161.5 -35.5q-106 0 -183 47.5zM329 782h-122l103 147h137l103 -147h-123l-48 84h-2z" />
    <glyph glyph-name="ccircumflex" unicode="&#x109;" horiz-adv-x="542" 
d="M146.5 18.5q-58.5 34.5 -90.5 96t-32 141.5q0 79 32 141t90 96.5t135 34.5q103 0 168 -57t75 -149h-139q-5 42 -28 71t-74 29q-59 0 -88.5 -45t-29.5 -121t29 -121t89 -45q92 0 102 102h139q-4 -60 -34.5 -107.5t-84 -74t-122.5 -26.5q-78 0 -136.5 34.5zM231 578h-122
l103 147h137l103 -147h-123l-48 84h-2z" />
    <glyph glyph-name="Cdotaccent" unicode="&#x10a;" horiz-adv-x="712" 
d="M188 32.5q-77 47.5 -116.5 131.5t-39.5 192q0 110 40.5 194.5t118 132t184.5 47.5q92 0 159.5 -34.5t105.5 -96t47 -141.5h-158q-11 65 -47.5 105t-112.5 40q-95 0 -136.5 -66.5t-41.5 -178.5q0 -113 41.5 -179.5t136.5 -66.5q142 0 160 153h158q-8 -82 -47 -145.5
t-107.5 -99t-161.5 -35.5q-106 0 -183 47.5zM449 787h-142v129h142v-129z" />
    <glyph glyph-name="cdotaccent" unicode="&#x10b;" horiz-adv-x="542" 
d="M146.5 18.5q-58.5 34.5 -90.5 96t-32 141.5q0 79 32 141t90 96.5t135 34.5q103 0 168 -57t75 -149h-139q-5 42 -28 71t-74 29q-59 0 -88.5 -45t-29.5 -121t29 -121t89 -45q92 0 102 102h139q-4 -60 -34.5 -107.5t-84 -74t-122.5 -26.5q-78 0 -136.5 34.5zM352 583h-142
v129h142v-129z" />
    <glyph glyph-name="Ccaron" unicode="&#x10c;" horiz-adv-x="712" 
d="M188 32.5q-77 47.5 -116.5 131.5t-39.5 192q0 110 40.5 194.5t118 132t184.5 47.5q92 0 159.5 -34.5t105.5 -96t47 -141.5h-158q-11 65 -47.5 105t-112.5 40q-95 0 -136.5 -66.5t-41.5 -178.5q0 -113 41.5 -179.5t136.5 -66.5q142 0 160 153h158q-8 -82 -47 -145.5
t-107.5 -99t-161.5 -35.5q-106 0 -183 47.5zM447 782h-137l-103 147h122l48 -84h2l48 84h123z" />
    <glyph glyph-name="ccaron" unicode="&#x10d;" horiz-adv-x="542" 
d="M146.5 18.5q-58.5 34.5 -90.5 96t-32 141.5q0 79 32 141t90 96.5t135 34.5q103 0 168 -57t75 -149h-139q-5 42 -28 71t-74 29q-59 0 -88.5 -45t-29.5 -121t29 -121t89 -45q92 0 102 102h139q-4 -60 -34.5 -107.5t-84 -74t-122.5 -26.5q-78 0 -136.5 34.5zM349 578h-137
l-103 147h122l48 -84h2l48 84h123z" />
    <glyph glyph-name="Dcaron" unicode="&#x10e;" horiz-adv-x="717" 
d="M64 0v715h300q150 0 234.5 -93.5t84.5 -264.5q0 -172 -81 -264.5t-230 -92.5h-308zM349 128q176 0 176 229q0 230 -176 230h-131v-459h131zM381 782h-137l-103 147h122l48 -84h2l48 84h123z" />
    <glyph glyph-name="dcaron" unicode="&#x10f;" horiz-adv-x="653" 
d="M404 715h137v-715h-137v54h-2q-21 -27 -60.5 -48t-91.5 -21q-66 0 -117 33t-79.5 94t-28.5 144t28.5 144t79.5 94t117 33q53 0 92.5 -21.5t59.5 -49.5h2v259zM371 133.5q31 43.5 31 122.5q0 78 -31 121.5t-87 43.5t-87 -44.5t-31 -120.5t31 -121t87 -45t87 43.5zM670 513
h-96l24 202h148z" />
    <glyph glyph-name="Dcroat" unicode="&#x110;" horiz-adv-x="733" 
d="M380 715q150 0 234.5 -93.5t84.5 -264.5q0 -172 -81 -264.5t-231 -92.5h-307v328h-67v84h67v303h300zM365 128q176 0 176 229q0 230 -176 230h-131v-175h160v-84h-160v-200h131z" />
    <glyph glyph-name="dcroat" unicode="&#x111;" horiz-adv-x="589" 
d="M600 660v-82h-59v-578h-137v54h-2q-21 -27 -60.5 -48t-91.5 -21q-66 0 -117 33t-79.5 94t-28.5 144t28.5 144t79.5 94t117 33q53 0 92.5 -21.5t59.5 -49.5h2v122h-137v82h137v55h137v-55h59zM371 133.5q31 43.5 31 122.5q0 78 -31 121.5t-87 43.5t-87 -44.5t-31 -120.5
t31 -121t87 -45t87 43.5z" />
    <glyph glyph-name="Emacron" unicode="&#x112;" horiz-adv-x="633" 
d="M600 0h-536v715h529v-128h-375v-155h325v-128h-325v-176h382v-128zM470 787h-278v92h278v-92z" />
    <glyph glyph-name="emacron" unicode="&#x113;" horiz-adv-x="565" 
d="M540 219h-377q1 -57 35.5 -93.5t90.5 -36.5q47 0 72.5 20t34.5 47h139q-22 -80 -85 -126t-165 -46q-80 0 -139 34.5t-90 96t-31 141.5q0 78 31 139.5t89.5 97t139.5 35.5q124 0 189.5 -73t65.5 -207v-29zM401 310q0 53 -31.5 84t-85.5 31q-51 0 -84 -30.5t-37 -84.5h238z
M421 584h-278v92h278v-92z" />
    <glyph glyph-name="Edotaccent" unicode="&#x116;" horiz-adv-x="633" 
d="M600 0h-536v715h529v-128h-375v-155h325v-128h-325v-176h382v-128zM402 787h-142v129h142v-129z" />
    <glyph glyph-name="edotaccent" unicode="&#x117;" horiz-adv-x="565" 
d="M540 219h-377q1 -57 35.5 -93.5t90.5 -36.5q47 0 72.5 20t34.5 47h139q-22 -80 -85 -126t-165 -46q-80 0 -139 34.5t-90 96t-31 141.5q0 78 31 139.5t89.5 97t139.5 35.5q124 0 189.5 -73t65.5 -207v-29zM401 310q0 53 -31.5 84t-85.5 31q-51 0 -84 -30.5t-37 -84.5h238z
M353 584h-142v129h142v-129z" />
    <glyph glyph-name="Eogonek" unicode="&#x118;" horiz-adv-x="633" 
d="M603 -84v-81q-40 -11 -77 -11q-52 0 -79.5 21t-27.5 60q0 32 20.5 56.5t49.5 38.5h-425v715h529v-128h-375v-155h325v-128h-325v-176h382v-128h-21q-26 -21 -39 -36.5t-13 -30.5q0 -25 33 -25q15 0 43 8z" />
    <glyph glyph-name="eogonek" unicode="&#x119;" horiz-adv-x="565" 
d="M540 219h-377q1 -57 35.5 -93.5t90.5 -36.5q47 0 72.5 20t34.5 47h139q-16 -60 -56 -101t-103 -59q-46 -39 -46 -63q0 -25 33 -25q15 0 43 8v-81q-40 -11 -77 -11q-52 0 -79.5 21t-27.5 60q0 45 45 79q-75 4 -129.5 39.5t-83.5 95.5t-29 137q0 78 31 139.5t89.5 97
t139.5 35.5q124 0 189.5 -73t65.5 -207v-29zM401 310q0 53 -31.5 84t-85.5 31q-51 0 -84 -30.5t-37 -84.5h238z" />
    <glyph glyph-name="Ecaron" unicode="&#x11a;" horiz-adv-x="633" 
d="M600 0h-536v715h529v-128h-375v-155h325v-128h-325v-176h382v-128zM400 782h-137l-103 147h122l48 -84h2l48 84h123z" />
    <glyph glyph-name="ecaron" unicode="&#x11b;" horiz-adv-x="565" 
d="M540 219h-377q1 -57 35.5 -93.5t90.5 -36.5q47 0 72.5 20t34.5 47h139q-22 -80 -85 -126t-165 -46q-80 0 -139 34.5t-90 96t-31 141.5q0 78 31 139.5t89.5 97t139.5 35.5q124 0 189.5 -73t65.5 -207v-29zM401 310q0 53 -31.5 84t-85.5 31q-51 0 -84 -30.5t-37 -84.5h238z
M351 579h-137l-103 147h122l48 -84h2l48 84h123z" />
    <glyph glyph-name="Gcircumflex" unicode="&#x11c;" horiz-adv-x="746" 
d="M183 32.5q-73 47.5 -111.5 132.5t-38.5 193t40.5 192.5t117.5 132t184 47.5q92 0 160 -32t107 -88t49 -126h-159q-13 54 -51 86.5t-109 32.5q-93 0 -137 -68t-44 -177q0 -112 42.5 -179t141.5 -67q47 0 85 19t60.5 53.5t22.5 77.5h-163v116h322v-378h-109l-22 94h-2
q-64 -109 -213 -109q-100 0 -173 47.5zM323 782h-122l103 147h137l103 -147h-123l-48 84h-2z" />
    <glyph glyph-name="gcircumflex" unicode="&#x11d;" horiz-adv-x="578" 
d="M394 511h137v-458q0 -124 -65 -180t-185 -56q-108 0 -169.5 47t-73.5 118h140q18 -63 103 -63q60 0 86.5 31t26.5 101v44h-2q-21 -29 -57.5 -49.5t-89.5 -20.5q-64 0 -113.5 30.5t-77 87.5t-27.5 133q0 75 27.5 132t77 88t113.5 31q52 0 88.5 -20.5t58.5 -49.5h2v54z
M362.5 167.5q28.5 37.5 28.5 108.5q0 70 -28.5 107.5t-82.5 37.5q-56 0 -84 -38.5t-28 -106.5t28 -107t84 -39q54 0 82.5 37.5zM223 578h-122l103 147h137l103 -147h-123l-48 84h-2z" />
    <glyph glyph-name="Gbreve" unicode="&#x11e;" horiz-adv-x="746" 
d="M183 32.5q-73 47.5 -111.5 132.5t-38.5 193t40.5 192.5t117.5 132t184 47.5q92 0 160 -32t107 -88t49 -126h-159q-13 54 -51 86.5t-109 32.5q-93 0 -137 -68t-44 -177q0 -112 42.5 -179t141.5 -67q47 0 85 19t60.5 53.5t22.5 77.5h-163v116h322v-378h-109l-22 94h-2
q-64 -109 -213 -109q-100 0 -173 47.5zM265.5 812q-41.5 39 -43.5 108h83q5 -60 68 -60q62 0 67 60h83q-3 -67 -44 -107t-106 -40q-66 0 -107.5 39z" />
    <glyph glyph-name="gbreve" unicode="&#x11f;" horiz-adv-x="578" 
d="M394 511h137v-458q0 -124 -65 -180t-185 -56q-108 0 -169.5 47t-73.5 118h140q18 -63 103 -63q60 0 86.5 31t26.5 101v44h-2q-21 -29 -57.5 -49.5t-89.5 -20.5q-64 0 -113.5 30.5t-77 87.5t-27.5 133q0 75 27.5 132t77 88t113.5 31q52 0 88.5 -20.5t58.5 -49.5h2v54z
M362.5 167.5q28.5 37.5 28.5 108.5q0 70 -28.5 107.5t-82.5 37.5q-56 0 -84 -38.5t-28 -106.5t28 -107t84 -39q54 0 82.5 37.5zM164.5 608q-41.5 39 -43.5 108h83q5 -60 68 -60q62 0 67 60h83q-3 -67 -44 -107t-106 -40q-66 0 -107.5 39z" />
    <glyph glyph-name="Gdotaccent" unicode="&#x120;" horiz-adv-x="746" 
d="M183 32.5q-73 47.5 -111.5 132.5t-38.5 193t40.5 192.5t117.5 132t184 47.5q92 0 160 -32t107 -88t49 -126h-159q-13 54 -51 86.5t-109 32.5q-93 0 -137 -68t-44 -177q0 -112 42.5 -179t141.5 -67q47 0 85 19t60.5 53.5t22.5 77.5h-163v116h322v-378h-109l-22 94h-2
q-64 -109 -213 -109q-100 0 -173 47.5zM444 787h-142v129h142v-129z" />
    <glyph glyph-name="gdotaccent" unicode="&#x121;" horiz-adv-x="578" 
d="M394 511h137v-458q0 -124 -65 -180t-185 -56q-108 0 -169.5 47t-73.5 118h140q18 -63 103 -63q60 0 86.5 31t26.5 101v44h-2q-21 -29 -57.5 -49.5t-89.5 -20.5q-64 0 -113.5 30.5t-77 87.5t-27.5 133q0 75 27.5 132t77 88t113.5 31q52 0 88.5 -20.5t58.5 -49.5h2v54z
M362.5 167.5q28.5 37.5 28.5 108.5q0 70 -28.5 107.5t-82.5 37.5q-56 0 -84 -38.5t-28 -106.5t28 -107t84 -39q54 0 82.5 37.5zM343 583h-142v129h142v-129z" />
    <glyph glyph-name="uni0122" unicode="&#x122;" horiz-adv-x="746" 
d="M183 32.5q-73 47.5 -111.5 132.5t-38.5 193t40.5 192.5t117.5 132t184 47.5q92 0 160 -32t107 -88t49 -126h-159q-13 54 -51 86.5t-109 32.5q-93 0 -137 -68t-44 -177q0 -112 42.5 -179t141.5 -67q47 0 85 19t60.5 53.5t22.5 77.5h-163v116h322v-378h-109l-22 94h-2
q-64 -109 -213 -109q-100 0 -173 47.5zM307 -49h136v-95q0 -43 -34 -71.5t-102 -38.5v45q32 6 48.5 20.5t16.5 44.5h-65v95z" />
    <glyph glyph-name="uni0123" unicode="&#x123;" horiz-adv-x="578" 
d="M394 511h137v-458q0 -124 -65 -180t-185 -56q-108 0 -169.5 47t-73.5 118h140q18 -63 103 -63q60 0 86.5 31t26.5 101v44h-2q-21 -29 -57.5 -49.5t-89.5 -20.5q-64 0 -113.5 30.5t-77 87.5t-27.5 133q0 75 27.5 132t77 88t113.5 31q52 0 88.5 -20.5t58.5 -49.5h2v54z
M362.5 167.5q28.5 37.5 28.5 108.5q0 70 -28.5 107.5t-82.5 37.5q-56 0 -84 -38.5t-28 -106.5t28 -107t84 -39q54 0 82.5 37.5zM341 744q-32 -6 -48.5 -21t-15.5 -46h64v-99h-136v99q0 45 34.5 75t101.5 39v-47z" />
    <glyph glyph-name="Hcircumflex" unicode="&#x124;" horiz-adv-x="721" 
d="M218 0h-154v715h154v-287h284v287h155v-715h-155v300h-284v-300zM311 782h-122l103 147h137l103 -147h-123l-48 84h-2z" />
    <glyph glyph-name="hcircumflex" unicode="&#x125;" horiz-adv-x="567" 
d="M476.5 480.5q46.5 -46.5 46.5 -131.5v-349h-138v307q0 55 -21.5 81t-66.5 26q-53 0 -82.5 -28.5t-29.5 -83.5v-302h-137v715h137v-274h2q23 38 64.5 62t103.5 24q75 0 121.5 -46.5zM67 744h-122l103 147h137l103 -147h-123l-48 84h-2z" />
    <glyph glyph-name="Hbar" unicode="&#x126;" horiz-adv-x="743" 
d="M670 613h55v-84h-55v-529h-154v300h-284v-300h-155v529h-62v84h62v102h155v-102h284v102h154v-102zM232 428h284v101h-284v-101z" />
    <glyph glyph-name="hbar" unicode="&#x127;" horiz-adv-x="567" 
d="M476.5 480.5q46.5 -46.5 46.5 -131.5v-349h-138v307q0 55 -21.5 81t-66.5 26q-53 0 -82.5 -28.5t-29.5 -83.5v-302h-137v578h-61v82h61v55h137v-55h156v-82h-156v-137h2q23 38 64.5 62t103.5 24q75 0 121.5 -46.5z" />
    <glyph glyph-name="Itilde" unicode="&#x128;" horiz-adv-x="282" 
d="M218 0h-154v715h154v-715zM-27 775q0 68 22 100t63 32q31 0 77 -22q19 -9 31.5 -13t23.5 -4q31 0 31 38h79q0 -68 -22.5 -100t-62.5 -32q-19 0 -37 6t-41 16q-3 1 -21.5 8.5t-32.5 7.5q-31 0 -31 -37h-79z" />
    <glyph glyph-name="itilde" unicode="&#x129;" horiz-adv-x="233" 
d="M185 0h-137v511h137v-511zM-51 571q0 68 22 100t63 32q31 0 77 -22q19 -9 31.5 -13t23.5 -4q31 0 31 38h79q0 -68 -22.5 -100t-62.5 -32q-19 0 -37 6t-41 16q-3 1 -21.5 8.5t-32.5 7.5q-31 0 -31 -37h-79z" />
    <glyph glyph-name="Imacron" unicode="&#x12a;" horiz-adv-x="282" 
d="M218 0h-154v715h154v-715zM280 787h-278v92h278v-92z" />
    <glyph glyph-name="imacron" unicode="&#x12b;" horiz-adv-x="233" 
d="M185 0h-137v511h137v-511zM256 583h-278v92h278v-92z" />
    <glyph glyph-name="Iogonek" unicode="&#x12e;" horiz-adv-x="282" 
d="M221 -84v-81q-40 -11 -77 -11q-52 0 -79.5 21t-27.5 60q0 32 20.5 56.5t49.5 38.5h-43v715h154v-715h-21q-26 -21 -39 -36.5t-13 -30.5q0 -25 33 -25q15 0 43 8z" />
    <glyph glyph-name="iogonek" unicode="&#x12f;" horiz-adv-x="233" 
d="M46 583v129h142v-129h-142zM145 -92q15 0 43 8v-81q-40 -11 -77 -11q-52 0 -79.5 21t-27.5 60q0 32 20.5 56.5t49.5 38.5h-26v511h137v-511h-21q-26 -21 -39 -36.5t-13 -30.5q0 -25 33 -25z" />
    <glyph glyph-name="Idotaccent" unicode="&#x130;" horiz-adv-x="282" 
d="M218 787h-154v129h154v-129zM218 0h-154v715h154v-715z" />
    <glyph glyph-name="dotlessi" unicode="&#x131;" horiz-adv-x="233" 
d="M185 0h-137v511h137v-511z" />
    <glyph glyph-name="Jcircumflex" unicode="&#x134;" horiz-adv-x="545" 
d="M17 232v49h140v-49q0 -60 18 -90t69 -30t69 30t18 90v483h155v-483q0 -247 -235 -247q-234 0 -234 247zM359 782h-122l103 147h137l103 -147h-123l-48 84h-2z" />
    <glyph glyph-name="jcircumflex" unicode="&#x135;" horiz-adv-x="233" 
d="M-40 -174v107q26 -3 38 -3q26 0 38 13.5t12 52.5v515h137v-512q0 -90 -35.5 -135.5t-110.5 -45.5q-39 0 -79 8zM67 578h-122l103 147h137l103 -147h-123l-48 84h-2z" />
    <glyph glyph-name="uni0136" unicode="&#x136;" horiz-adv-x="675" 
d="M693 0h-180l-206 303l-89 -100v-203h-154v715h154v-327l287 327h167l-273 -308zM291 -49h136v-95q0 -43 -34 -71.5t-102 -38.5v45q32 6 48.5 20.5t16.5 44.5h-65v95z" />
    <glyph glyph-name="uni0137" unicode="&#x137;" horiz-adv-x="527" 
d="M545 0h-159l-137 230l-64 -65v-165h-137v715h137v-404l190 200h149l-186 -190zM226 -49h136v-95q0 -43 -34 -71.5t-102 -38.5v45q32 6 48.5 20.5t16.5 44.5h-65v95z" />
    <glyph glyph-name="kgreenlandic" unicode="&#x138;" horiz-adv-x="531" 
d="M545 0h-159l-135 227l-66 -66v-161h-137v511h137v-205l201 205h149l-194 -194z" />
    <glyph glyph-name="Lacute" unicode="&#x139;" horiz-adv-x="568" 
d="M553 0h-489v715h154v-587h335v-128zM192 782h-104l55 147h156z" />
    <glyph glyph-name="lacute" unicode="&#x13a;" horiz-adv-x="233" 
d="M185 0h-137v715h137v-715zM165 744h-104l55 147h156z" />
    <glyph glyph-name="uni013B" unicode="&#x13b;" horiz-adv-x="568" 
d="M553 0h-489v715h154v-587h335v-128zM240 -49h136v-95q0 -43 -34 -71.5t-102 -38.5v45q32 6 48.5 20.5t16.5 44.5h-65v95z" />
    <glyph glyph-name="uni013C" unicode="&#x13c;" horiz-adv-x="233" 
d="M185 0h-137v715h137v-715zM48 -49h136v-95q0 -43 -34 -71.5t-102 -38.5v45q32 6 48.5 20.5t16.5 44.5h-65v95z" />
    <glyph glyph-name="Lcaron" unicode="&#x13d;" horiz-adv-x="568" 
d="M553 0h-489v715h154v-587h335v-128zM417 513h-96l24 202h148z" />
    <glyph glyph-name="lcaron" unicode="&#x13e;" horiz-adv-x="297" 
d="M185 0h-137v715h137v-715zM312 520h-96l24 202h148z" />
    <glyph glyph-name="Lslash" unicode="&#x141;" horiz-adv-x="610" 
d="M261 350v-222h334v-128h-488v237l-81 -60v105l81 60v373h154v-259l159 117v-106z" />
    <glyph glyph-name="lslash" unicode="&#x142;" horiz-adv-x="305" 
d="M222 484l64 47v-105l-64 -47v-379h-137v278l-63 -46v106l63 46v331h137v-231z" />
    <glyph glyph-name="Nacute" unicode="&#x143;" horiz-adv-x="725" 
d="M218 0h-154v715h160l281 -471h2v471h154v-715h-160l-281 471h-2v-471zM411 782h-104l55 147h156z" />
    <glyph glyph-name="nacute" unicode="&#x144;" horiz-adv-x="567" 
d="M476.5 480.5q46.5 -46.5 46.5 -131.5v-349h-138v307q0 55 -21.5 81t-66.5 26q-53 0 -82.5 -28.5t-29.5 -83.5v-302h-137v511h137v-70h2q23 38 64.5 62t103.5 24q75 0 121.5 -46.5zM356 578h-104l55 147h156z" />
    <glyph glyph-name="uni0145" unicode="&#x145;" horiz-adv-x="725" 
d="M218 0h-154v715h160l281 -471h2v471h154v-715h-160l-281 471h-2v-471zM294 -49h136v-95q0 -43 -34 -71.5t-102 -38.5v45q32 6 48.5 20.5t16.5 44.5h-65v95z" />
    <glyph glyph-name="uni0146" unicode="&#x146;" horiz-adv-x="567" 
d="M476.5 480.5q46.5 -46.5 46.5 -131.5v-349h-138v307q0 55 -21.5 81t-66.5 26q-53 0 -82.5 -28.5t-29.5 -83.5v-302h-137v511h137v-70h2q23 38 64.5 62t103.5 24q75 0 121.5 -46.5zM217 -49h136v-95q0 -43 -34 -71.5t-102 -38.5v45q32 6 48.5 20.5t16.5 44.5h-65v95z" />
    <glyph glyph-name="Ncaron" unicode="&#x147;" horiz-adv-x="725" 
d="M218 0h-154v715h160l281 -471h2v471h154v-715h-160l-281 471h-2v-471zM431 782h-137l-103 147h122l48 -84h2l48 84h123z" />
    <glyph glyph-name="ncaron" unicode="&#x148;" horiz-adv-x="567" 
d="M476.5 480.5q46.5 -46.5 46.5 -131.5v-349h-138v307q0 55 -21.5 81t-66.5 26q-53 0 -82.5 -28.5t-29.5 -83.5v-302h-137v511h137v-70h2q23 38 64.5 62t103.5 24q75 0 121.5 -46.5zM376 578h-137l-103 147h122l48 -84h2l48 84h123z" />
    <glyph glyph-name="Eng" unicode="&#x14a;" horiz-adv-x="725" 
d="M382 -168v103q60 -1 86.5 12t35.5 48l-284 476h-2v-471h-154v715h160l281 -472h2v472h154v-682q0 -102 -48 -156t-145 -54q-51 0 -86 9z" />
    <glyph glyph-name="eng" unicode="&#x14b;" horiz-adv-x="567" 
d="M476.5 480.5q46.5 -46.5 46.5 -131.5v-368q0 -85 -33 -124t-109 -39q-41 0 -88 9v106q38 -1 56.5 2t27 15.5t8.5 41.5v315q0 55 -21.5 81t-66.5 26q-53 0 -82.5 -28.5t-29.5 -83.5v-302h-137v511h137v-70h2q23 38 64.5 62t103.5 24q75 0 121.5 -46.5z" />
    <glyph glyph-name="Omacron" unicode="&#x14c;" horiz-adv-x="770" 
d="M196.5 32.5q-79.5 47.5 -122 132.5t-42.5 193t42.5 192.5t122 132t188.5 47.5q108 0 188 -47.5t122.5 -132t42.5 -192.5t-42.5 -193t-122.5 -132.5t-188 -47.5q-109 0 -188.5 47.5zM533 180.5q47 68.5 47 177.5t-47 177t-148 68q-102 0 -148 -67.5t-46 -177.5t46 -178
t148 -68q101 0 148 68.5zM524 787h-278v92h278v-92z" />
    <glyph glyph-name="omacron" unicode="&#x14d;" horiz-adv-x="582" 
d="M148.5 18q-60.5 34 -92.5 95.5t-32 141.5t32.5 142t93 96.5t142.5 34.5q81 0 141.5 -34t92.5 -95.5t32 -141.5t-32.5 -142t-93 -96.5t-142.5 -34.5q-81 0 -141.5 34zM385.5 133.5q32.5 44.5 32.5 122.5t-32.5 122t-94.5 44t-94.5 -44t-32.5 -122t32.5 -122.5t94.5 -44.5
t94.5 44.5zM430 584h-278v92h278v-92z" />
    <glyph glyph-name="Ohungarumlaut" unicode="&#x150;" horiz-adv-x="770" 
d="M196.5 32.5q-79.5 47.5 -122 132.5t-42.5 193t42.5 192.5t122 132t188.5 47.5q108 0 188 -47.5t122.5 -132t42.5 -192.5t-42.5 -193t-122.5 -132.5t-188 -47.5q-109 0 -188.5 47.5zM533 180.5q47 68.5 47 177.5t-47 177t-148 68q-102 0 -148 -67.5t-46 -177.5t46 -178
t148 -68q101 0 148 68.5zM348 782h-101l61 147h138zM514 782h-101l76 147h137z" />
    <glyph glyph-name="ohungarumlaut" unicode="&#x151;" horiz-adv-x="582" 
d="M148.5 18q-60.5 34 -92.5 95.5t-32 141.5t32.5 142t93 96.5t142.5 34.5q81 0 141.5 -34t92.5 -95.5t32 -141.5t-32.5 -142t-93 -96.5t-142.5 -34.5q-81 0 -141.5 34zM385.5 133.5q32.5 44.5 32.5 122.5t-32.5 122t-94.5 44t-94.5 -44t-32.5 -122t32.5 -122.5t94.5 -44.5
t94.5 44.5zM254 579h-101l61 147h138zM420 579h-101l76 147h137z" />
    <glyph glyph-name="OE" unicode="&#x152;" horiz-adv-x="1131" 
d="M716 128h382v-128h-536v97q-76 -112 -214 -112q-93 0 -165 48t-111 133t-39 192t39.5 191.5t111 132.5t164.5 48q138 0 214 -112v97h528v-128h-374v-155h325v-128h-325v-176zM470.5 142.5q41.5 30.5 64.5 86.5t23 129t-23 128.5t-64.5 86t-95.5 30.5q-98 0 -140.5 -67
t-42.5 -178t42.5 -178.5t140.5 -67.5q54 0 95.5 30.5z" />
    <glyph glyph-name="oe" unicode="&#x153;" horiz-adv-x="959" 
d="M934 219h-377q1 -57 35.5 -93.5t90.5 -36.5q47 0 72.5 20t34.5 47h139q-22 -80 -85 -126t-165 -46q-121 0 -192 77q-35 -37 -85 -57t-112 -20q-81 0 -141.5 34t-92.5 95.5t-32 141.5t32.5 142t93 96.5t142.5 34.5q61 0 111 -20t85 -57q34 37 82.5 57t108.5 20
q124 0 189.5 -73t65.5 -207v-29zM795 310q0 53 -31.5 84t-85.5 31q-51 0 -84 -30.5t-37 -84.5h238zM385.5 134q32.5 44 32.5 122t-32.5 122t-94.5 44t-94.5 -44t-32.5 -122t32.5 -122t94.5 -44t94.5 44z" />
    <glyph glyph-name="Racute" unicode="&#x154;" horiz-adv-x="676" 
d="M64 0v715h323q119 0 184.5 -53.5t65.5 -151.5q0 -71 -38 -116.5t-103 -60.5v-2q54 -10 82.5 -49t37.5 -85t13 -110q3 -40 6 -57.5t12 -20.5v-9h-161q-6 5 -8.5 19t-3.5 31t-1 23q-1 55 -8 93t-32 66t-76 28h-139v-260h-154zM356 388q62 0 94.5 25.5t32.5 75.5t-31 74
t-95 24h-139v-199h138zM374 782h-104l55 147h156z" />
    <glyph glyph-name="racute" unicode="&#x155;" horiz-adv-x="371" 
d="M362 515v-123q-20 3 -33 3q-61 0 -102.5 -39.5t-41.5 -107.5v-248h-137v511h137v-88h2q20 45 53 70t77 25q28 0 45 -3zM254 578h-104l55 147h156z" />
    <glyph glyph-name="uni0156" unicode="&#x156;" horiz-adv-x="676" 
d="M64 0v715h323q119 0 184.5 -53.5t65.5 -151.5q0 -71 -38 -116.5t-103 -60.5v-2q54 -10 82.5 -49t37.5 -85t13 -110q3 -40 6 -57.5t12 -20.5v-9h-161q-6 5 -8.5 19t-3.5 31t-1 23q-1 55 -8 93t-32 66t-76 28h-139v-260h-154zM356 388q62 0 94.5 25.5t32.5 75.5t-31 74
t-95 24h-139v-199h138zM284 -49h136v-95q0 -43 -34 -71.5t-102 -38.5v45q32 6 48.5 20.5t16.5 44.5h-65v95z" />
    <glyph glyph-name="uni0157" unicode="&#x157;" horiz-adv-x="371" 
d="M362 515v-123q-20 3 -33 3q-61 0 -102.5 -39.5t-41.5 -107.5v-248h-137v511h137v-88h2q20 45 53 70t77 25q28 0 45 -3zM48 -49h136v-95q0 -43 -34 -71.5t-102 -38.5v45q32 6 48.5 20.5t16.5 44.5h-65v95z" />
    <glyph glyph-name="Rcaron" unicode="&#x158;" horiz-adv-x="676" 
d="M64 0v715h323q119 0 184.5 -53.5t65.5 -151.5q0 -71 -38 -116.5t-103 -60.5v-2q54 -10 82.5 -49t37.5 -85t13 -110q3 -40 6 -57.5t12 -20.5v-9h-161q-6 5 -8.5 19t-3.5 31t-1 23q-1 55 -8 93t-32 66t-76 28h-139v-260h-154zM356 388q62 0 94.5 25.5t32.5 75.5t-31 74
t-95 24h-139v-199h138zM394 782h-137l-103 147h122l48 -84h2l48 84h123z" />
    <glyph glyph-name="rcaron" unicode="&#x159;" horiz-adv-x="371" 
d="M362 515v-123q-20 3 -33 3q-61 0 -102.5 -39.5t-41.5 -107.5v-248h-137v511h137v-88h2q20 45 53 70t77 25q28 0 45 -3zM274 578h-137l-103 147h122l48 -84h2l48 84h123z" />
    <glyph glyph-name="Sacute" unicode="&#x15a;" horiz-adv-x="648" 
d="M179 15.5q-73 30.5 -115 88.5t-43 138h157q2 -64 45 -97.5t120 -33.5q60 0 89.5 22.5t29.5 60.5q0 32 -18.5 51.5t-50 31.5t-92.5 29l-20 6q-73 21 -122.5 44.5t-81 63.5t-31.5 101q0 104 72.5 156.5t193.5 52.5q83 0 148.5 -27.5t104 -80t41.5 -123.5h-156
q-8 51 -42.5 78t-95.5 27q-51 0 -79.5 -18t-28.5 -54q0 -29 16 -46.5t44 -28.5t84 -27q92 -26 145.5 -47.5t90 -63.5t36.5 -112q0 -101 -72 -161.5t-203 -60.5q-93 0 -166 30.5zM369 782h-104l55 147h156z" />
    <glyph glyph-name="sacute" unicode="&#x15b;" horiz-adv-x="508" 
d="M83 36.5q-61 51.5 -64 133.5h131q4 -42 32 -64.5t81 -22.5q83 0 83 56q0 31 -24.5 44t-81.5 25l-22 5q-86 20 -136 53.5t-50 104.5t56.5 113.5t156.5 42.5q109 0 165 -48t61 -121h-131q-5 33 -25.5 51.5t-66.5 18.5q-38 0 -56.5 -13t-18.5 -36q0 -25 18.5 -35t69.5 -21
l27 -6q62 -15 103.5 -31.5t68.5 -49.5t27 -88q0 -78 -57.5 -120.5t-164.5 -42.5q-121 0 -182 51.5zM302 578h-104l55 147h156z" />
    <glyph glyph-name="Scircumflex" unicode="&#x15c;" horiz-adv-x="648" 
d="M179 15.5q-73 30.5 -115 88.5t-43 138h157q2 -64 45 -97.5t120 -33.5q60 0 89.5 22.5t29.5 60.5q0 32 -18.5 51.5t-50 31.5t-92.5 29l-20 6q-73 21 -122.5 44.5t-81 63.5t-31.5 101q0 104 72.5 156.5t193.5 52.5q83 0 148.5 -27.5t104 -80t41.5 -123.5h-156
q-8 51 -42.5 78t-95.5 27q-51 0 -79.5 -18t-28.5 -54q0 -29 16 -46.5t44 -28.5t84 -27q92 -26 145.5 -47.5t90 -63.5t36.5 -112q0 -101 -72 -161.5t-203 -60.5q-93 0 -166 30.5zM271 782h-122l103 147h137l103 -147h-123l-48 84h-2z" />
    <glyph glyph-name="scircumflex" unicode="&#x15d;" horiz-adv-x="508" 
d="M83 36.5q-61 51.5 -64 133.5h131q4 -42 32 -64.5t81 -22.5q83 0 83 56q0 31 -24.5 44t-81.5 25l-22 5q-86 20 -136 53.5t-50 104.5t56.5 113.5t156.5 42.5q109 0 165 -48t61 -121h-131q-5 33 -25.5 51.5t-66.5 18.5q-38 0 -56.5 -13t-18.5 -36q0 -25 18.5 -35t69.5 -21
l27 -6q62 -15 103.5 -31.5t68.5 -49.5t27 -88q0 -78 -57.5 -120.5t-164.5 -42.5q-121 0 -182 51.5zM204 578h-122l103 147h137l103 -147h-123l-48 84h-2z" />
    <glyph glyph-name="Scedilla" unicode="&#x15e;" horiz-adv-x="648" 
d="M346 -50v-2q6 1 18 1q36 0 61 -17t25 -50q0 -38 -35.5 -59t-88.5 -21q-60 0 -110 32l27 33q35 -15 65 -15q21 0 34 8t13 23q0 28 -35 28q-20 0 -38 -7l-21 30l48 52q-128 9 -207 76.5t-81 179.5h157q2 -64 45 -97.5t120 -33.5q60 0 89.5 22.5t29.5 60.5q0 32 -18.5 51.5
t-50 31.5t-92.5 29l-20 6q-73 21 -122.5 44.5t-81 63.5t-31.5 101q0 104 72.5 156.5t193.5 52.5q83 0 148.5 -27.5t104 -80t41.5 -123.5h-156q-8 51 -42.5 78t-95.5 27q-51 0 -79.5 -18t-28.5 -54q0 -29 16 -46.5t44 -28.5t84 -27q92 -26 145.5 -47.5t90 -63.5t36.5 -112
q0 -95 -63.5 -154.5t-181.5 -66.5z" />
    <glyph glyph-name="scedilla" unicode="&#x15f;" horiz-adv-x="508" 
d="M264 -50v-2q6 1 18 1q36 0 61 -17t25 -50q0 -38 -35.5 -59t-88.5 -21q-60 0 -110 32l27 33q35 -15 65 -15q21 0 34 8t13 23q0 28 -35 28q-20 0 -38 -7l-21 30l48 53q-102 8 -153.5 58t-54.5 125h131q4 -42 32 -64.5t81 -22.5q83 0 83 56q0 31 -24.5 44t-81.5 25l-22 5
q-86 20 -136 53.5t-50 104.5t56.5 113.5t156.5 42.5q109 0 165 -48t61 -121h-131q-5 33 -25.5 51.5t-66.5 18.5q-38 0 -56.5 -13t-18.5 -36q0 -25 18.5 -35t69.5 -21l27 -6q62 -15 103.5 -31.5t68.5 -49.5t27 -88q0 -73 -50 -115t-144 -47z" />
    <glyph glyph-name="Scaron" unicode="&#x160;" horiz-adv-x="648" 
d="M179 15.5q-73 30.5 -115 88.5t-43 138h157q2 -64 45 -97.5t120 -33.5q60 0 89.5 22.5t29.5 60.5q0 32 -18.5 51.5t-50 31.5t-92.5 29l-20 6q-73 21 -122.5 44.5t-81 63.5t-31.5 101q0 104 72.5 156.5t193.5 52.5q83 0 148.5 -27.5t104 -80t41.5 -123.5h-156
q-8 51 -42.5 78t-95.5 27q-51 0 -79.5 -18t-28.5 -54q0 -29 16 -46.5t44 -28.5t84 -27q92 -26 145.5 -47.5t90 -63.5t36.5 -112q0 -101 -72 -161.5t-203 -60.5q-93 0 -166 30.5zM389 782h-137l-103 147h122l48 -84h2l48 84h123z" />
    <glyph glyph-name="scaron" unicode="&#x161;" horiz-adv-x="508" 
d="M83 36.5q-61 51.5 -64 133.5h131q4 -42 32 -64.5t81 -22.5q83 0 83 56q0 31 -24.5 44t-81.5 25l-22 5q-86 20 -136 53.5t-50 104.5t56.5 113.5t156.5 42.5q109 0 165 -48t61 -121h-131q-5 33 -25.5 51.5t-66.5 18.5q-38 0 -56.5 -13t-18.5 -36q0 -25 18.5 -35t69.5 -21
l27 -6q62 -15 103.5 -31.5t68.5 -49.5t27 -88q0 -78 -57.5 -120.5t-164.5 -42.5q-121 0 -182 51.5zM322 578h-137l-103 147h122l48 -84h2l48 84h123z" />
    <glyph glyph-name="uni0162" unicode="&#x162;" horiz-adv-x="617" 
d="M386 0h-154v587h-217v128h587v-128h-216v-587zM177 -166l27 33q35 -15 65 -15q21 0 34 8t13 23q0 28 -35 28q-21 0 -38 -7l-21 30l60 66h66l-41 -50v-2q6 1 18 1q36 0 61 -17t25 -50q0 -38 -35.5 -59t-88.5 -21q-60 0 -110 32z" />
    <glyph glyph-name="uni0163" unicode="&#x163;" horiz-adv-x="345" 
d="M220 -41q6 1 18 1q36 0 61 -17t25 -50q0 -38 -35.5 -59t-88.5 -21q-60 0 -110 32l27 33q35 -15 65 -15q21 0 34 8t13 23q0 28 -35 28q-20 0 -38 -7l-21 30l47 52q-49 11 -72.5 49.5t-23.5 111.5v248h-72v105h72v151h137v-151h92v-105h-92v-247q0 -38 12.5 -50t41.5 -12
q18 0 43 4v-100q-40 -9 -75 -10l-25 -30v-2z" />
    <glyph glyph-name="Tcaron" unicode="&#x164;" horiz-adv-x="617" 
d="M386 0h-154v587h-217v128h587v-128h-216v-587zM377 782h-137l-103 147h122l48 -84h2l48 84h123z" />
    <glyph glyph-name="tcaron" unicode="&#x165;" horiz-adv-x="345" 
d="M261 553l22 162h130l-67 -162h-85zM223 159q0 -38 12.5 -50t41.5 -12q18 0 43 4v-100q-44 -10 -83 -10q-78 0 -114.5 38.5t-36.5 128.5v248h-72v105h72v151h137v-151h92v-105h-92v-247z" />
    <glyph glyph-name="Tbar" unicode="&#x166;" horiz-adv-x="617" 
d="M602 715v-128h-216v-175h150v-84h-150v-328h-154v328h-133v84h133v175h-217v128h587z" />
    <glyph glyph-name="tbar" unicode="&#x167;" horiz-adv-x="350" 
d="M323 101v-100q-43 -10 -83 -10q-78 0 -114 38.5t-36 128.5v88h-72v85h72v75h-72v105h72v151h137v-151h92v-105h-92v-75h92v-85h-92v-87q0 -38 12.5 -50t41.5 -12q18 0 42 4z" />
    <glyph glyph-name="Utilde" unicode="&#x168;" horiz-adv-x="700" 
d="M128 53q-70 68 -70 199v463h155v-463q0 -73 33.5 -106.5t103.5 -33.5t104 33.5t34 106.5v463h154v-463q0 -131 -70 -199t-222 -68t-222 68zM182 775q0 68 22 100t63 32q31 0 77 -22q19 -9 31.5 -13t23.5 -4q31 0 31 38h79q0 -68 -22.5 -100t-62.5 -32q-19 0 -37 6t-41 16
q-3 1 -21.5 8.5t-32.5 7.5q-31 0 -31 -37h-79z" />
    <glyph glyph-name="utilde" unicode="&#x169;" horiz-adv-x="567" 
d="M382 511h137v-511h-137v70h-2q-23 -38 -64.5 -61.5t-103.5 -23.5q-75 0 -121 46.5t-46 131.5v348h137v-306q0 -56 21.5 -82t67.5 -26q52 0 81.5 29t29.5 83v302zM109 571q0 68 22 100t63 32q31 0 77 -22q19 -9 31.5 -13t23.5 -4q31 0 31 38h79q0 -68 -22.5 -100
t-62.5 -32q-19 0 -37 6t-41 16q-3 1 -21.5 8.5t-32.5 7.5q-31 0 -31 -37h-79z" />
    <glyph glyph-name="Umacron" unicode="&#x16a;" horiz-adv-x="700" 
d="M128 53q-70 68 -70 199v463h155v-463q0 -73 33.5 -106.5t103.5 -33.5t104 33.5t34 106.5v463h154v-463q0 -131 -70 -199t-222 -68t-222 68zM489 787h-278v92h278v-92z" />
    <glyph glyph-name="umacron" unicode="&#x16b;" horiz-adv-x="567" 
d="M382 511h137v-511h-137v70h-2q-23 -38 -64.5 -61.5t-103.5 -23.5q-75 0 -121 46.5t-46 131.5v348h137v-306q0 -56 21.5 -82t67.5 -26q52 0 81.5 29t29.5 83v302zM416 583h-278v92h278v-92z" />
    <glyph glyph-name="Ubreve" unicode="&#x16c;" horiz-adv-x="700" 
d="M128 53q-70 68 -70 199v463h155v-463q0 -73 33.5 -106.5t103.5 -33.5t104 33.5t34 106.5v463h154v-463q0 -131 -70 -199t-222 -68t-222 68zM243.5 812q-41.5 39 -43.5 108h83q5 -60 68 -60q62 0 67 60h83q-3 -67 -44 -107t-106 -40q-66 0 -107.5 39z" />
    <glyph glyph-name="ubreve" unicode="&#x16d;" horiz-adv-x="567" 
d="M382 511h137v-511h-137v70h-2q-23 -38 -64.5 -61.5t-103.5 -23.5q-75 0 -121 46.5t-46 131.5v348h137v-306q0 -56 21.5 -82t67.5 -26q52 0 81.5 29t29.5 83v302zM170.5 608q-41.5 39 -43.5 108h83q5 -60 68 -60q62 0 67 60h83q-3 -67 -44 -107t-106 -40q-66 0 -107.5 39z
" />
    <glyph glyph-name="Uring" unicode="&#x16e;" horiz-adv-x="700" 
d="M128 53q-70 68 -70 199v463h155v-463q0 -73 33.5 -106.5t103.5 -33.5t104 33.5t34 106.5v463h154v-463q0 -131 -70 -199t-222 -68t-222 68zM276 777q-30 28 -30 74q0 45 30 73.5t74 28.5t73.5 -28t29.5 -74t-29.5 -74t-73.5 -28t-74 28zM382 816.5q12 12.5 12 34.5
t-12 34t-32 12q-19 0 -31 -12.5t-12 -33.5q0 -22 12 -34.5t31 -12.5q20 0 32 12.5z" />
    <glyph glyph-name="uring" unicode="&#x16f;" horiz-adv-x="567" 
d="M382 511h137v-511h-137v70h-2q-23 -38 -64.5 -61.5t-103.5 -23.5q-75 0 -121 46.5t-46 131.5v348h137v-306q0 -56 21.5 -82t67.5 -26q52 0 81.5 29t29.5 83v302zM203 573q-30 28 -30 74q0 45 30 73.5t74 28.5t73.5 -28t29.5 -74t-29.5 -74t-73.5 -28t-74 28zM309 612.5
q12 12.5 12 34.5t-12 34t-32 12q-19 0 -31 -12.5t-12 -33.5q0 -22 12 -34.5t31 -12.5q20 0 32 12.5z" />
    <glyph glyph-name="Uhungarumlaut" unicode="&#x170;" horiz-adv-x="700" 
d="M128 53q-70 68 -70 199v463h155v-463q0 -73 33.5 -106.5t103.5 -33.5t104 33.5t34 106.5v463h154v-463q0 -131 -70 -199t-222 -68t-222 68zM313 782h-101l61 147h138zM479 782h-101l76 147h137z" />
    <glyph glyph-name="uhungarumlaut" unicode="&#x171;" horiz-adv-x="567" 
d="M382 511h137v-511h-137v70h-2q-23 -38 -64.5 -61.5t-103.5 -23.5q-75 0 -121 46.5t-46 131.5v348h137v-306q0 -56 21.5 -82t67.5 -26q52 0 81.5 29t29.5 83v302zM240 578h-101l61 147h138zM406 578h-101l76 147h137z" />
    <glyph glyph-name="Uogonek" unicode="&#x172;" horiz-adv-x="700" 
d="M488 715h154v-463q0 -108 -47 -173t-148 -85q-44 -37 -44 -61q0 -25 33 -25q15 0 43 8v-81q-40 -11 -77 -11q-52 0 -79.5 21t-27.5 60q0 47 46 80q-147 2 -215 70t-68 197v463h155v-463q0 -73 33.5 -106.5t103.5 -33.5t104 33.5t34 106.5v463z" />
    <glyph glyph-name="uogonek" unicode="&#x173;" horiz-adv-x="567" 
d="M494 0q-26 -21 -39 -36.5t-13 -30.5q0 -25 33 -25q15 0 43 8v-81q-40 -11 -77 -11q-52 0 -79.5 21t-27.5 60q0 32 20.5 56.5t49.5 38.5h-22v70h-2q-23 -38 -64.5 -61.5t-103.5 -23.5q-75 0 -121 46.5t-46 131.5v348h137v-306q0 -56 21.5 -82t67.5 -26q52 0 81.5 29
t29.5 83v302h137v-511h-25z" />
    <glyph glyph-name="Wcircumflex" unicode="&#x174;" horiz-adv-x="945" 
d="M348 0h-157l-181 715h156l105 -514h2l125 514h150l125 -514h2l104 514h156l-181 -715h-157l-123 494h-2zM423 782h-122l103 147h137l103 -147h-123l-48 84h-2z" />
    <glyph glyph-name="wcircumflex" unicode="&#x175;" horiz-adv-x="778" 
d="M285 0h-132l-148 511h140l88 -342h2l93 342h125l94 -342h2l89 342h136l-149 -511h-132l-103 350h-2zM340 578h-122l103 147h137l103 -147h-123l-48 84h-2z" />
    <glyph glyph-name="Ycircumflex" unicode="&#x176;" horiz-adv-x="656" 
d="M405 0h-154v272l-248 443h166l158 -318h2l160 318h163l-247 -443v-272zM280 782h-122l103 147h137l103 -147h-123l-48 84h-2z" />
    <glyph glyph-name="ycircumflex" unicode="&#x177;" horiz-adv-x="533" 
d="M58 -169v107q26 -3 46 -3q33 0 58.5 14.5t36.5 56.5l-204 505h143l131 -356h2l121 356h138l-193 -516q-35 -93 -78.5 -133t-116.5 -40q-38 0 -84 9zM213 578h-122l103 147h137l103 -147h-123l-48 84h-2z" />
    <glyph glyph-name="Ydieresis" unicode="&#x178;" horiz-adv-x="656" 
d="M405 0h-154v272l-248 443h166l158 -318h2l160 318h163l-247 -443v-272zM304 787h-142v129h142v-129zM497 787h-142v129h142v-129z" />
    <glyph glyph-name="Zacute" unicode="&#x179;" horiz-adv-x="610" 
d="M581 0h-556v128l358 457v2h-338v128h526v-128l-358 -457v-2h368v-128zM359 782h-104l55 147h156z" />
    <glyph glyph-name="zacute" unicode="&#x17a;" horiz-adv-x="487" 
d="M465 0h-446v99l260 305v2h-241v105h416v-95l-262 -308v-2h273v-106zM290 578h-104l55 147h156z" />
    <glyph glyph-name="Zdotaccent" unicode="&#x17b;" horiz-adv-x="610" 
d="M581 0h-556v128l358 457v2h-338v128h526v-128l-358 -457v-2h368v-128zM382 787h-142v129h142v-129z" />
    <glyph glyph-name="zdotaccent" unicode="&#x17c;" horiz-adv-x="487" 
d="M465 0h-446v99l260 305v2h-241v105h416v-95l-262 -308v-2h273v-106zM313 583h-142v129h142v-129z" />
    <glyph glyph-name="Zcaron" unicode="&#x17d;" horiz-adv-x="610" 
d="M581 0h-556v128l358 457v2h-338v128h526v-128l-358 -457v-2h368v-128zM379 782h-137l-103 147h122l48 -84h2l48 84h123z" />
    <glyph glyph-name="zcaron" unicode="&#x17e;" horiz-adv-x="487" 
d="M465 0h-446v99l260 305v2h-241v105h416v-95l-262 -308v-2h273v-106zM310 578h-137l-103 147h122l48 -84h2l48 84h123z" />
    <glyph glyph-name="florin" unicode="&#x192;" horiz-adv-x="511" 
d="M390 600q-14 -17 -23 -62l-15 -78h87l-3 -106h-105l-62 -317q-18 -90 -58.5 -128t-113.5 -38q-37 0 -77 9l-6 101q29 -4 48 -4q37 0 51 16.5t23 60.5l58 300h-69l4 106h86l19 97q18 90 61.5 128t121.5 38q39 0 83 -9l-27 -101q-20 4 -35 4q-34 0 -48 -17z" />
    <glyph glyph-name="uni0218" unicode="&#x218;" horiz-adv-x="648" 
d="M179 15.5q-73 30.5 -115 88.5t-43 138h157q2 -64 45 -97.5t120 -33.5q60 0 89.5 22.5t29.5 60.5q0 32 -18.5 51.5t-50 31.5t-92.5 29l-20 6q-73 21 -122.5 44.5t-81 63.5t-31.5 101q0 104 72.5 156.5t193.5 52.5q83 0 148.5 -27.5t104 -80t41.5 -123.5h-156
q-8 51 -42.5 78t-95.5 27q-51 0 -79.5 -18t-28.5 -54q0 -29 16 -46.5t44 -28.5t84 -27q92 -26 145.5 -47.5t90 -63.5t36.5 -112q0 -101 -72 -161.5t-203 -60.5q-93 0 -166 30.5zM279 -49h136v-95q0 -43 -34 -71.5t-102 -38.5v45q32 6 48.5 20.5t16.5 44.5h-65v95z" />
    <glyph glyph-name="uni0219" unicode="&#x219;" horiz-adv-x="508" 
d="M83 36.5q-61 51.5 -64 133.5h131q4 -42 32 -64.5t81 -22.5q83 0 83 56q0 31 -24.5 44t-81.5 25l-22 5q-86 20 -136 53.5t-50 104.5t56.5 113.5t156.5 42.5q109 0 165 -48t61 -121h-131q-5 33 -25.5 51.5t-66.5 18.5q-38 0 -56.5 -13t-18.5 -36q0 -25 18.5 -35t69.5 -21
l27 -6q62 -15 103.5 -31.5t68.5 -49.5t27 -88q0 -78 -57.5 -120.5t-164.5 -42.5q-121 0 -182 51.5zM197 -49h136v-95q0 -43 -34 -71.5t-102 -38.5v45q32 6 48.5 20.5t16.5 44.5h-65v95z" />
    <glyph glyph-name="uni021A" unicode="&#x21a;" horiz-adv-x="617" 
d="M386 0h-154v587h-217v128h587v-128h-216v-587zM240 -49h136v-95q0 -43 -34 -71.5t-102 -38.5v45q32 6 48.5 20.5t16.5 44.5h-65v95z" />
    <glyph glyph-name="uni021B" unicode="&#x21b;" horiz-adv-x="345" 
d="M320 101v-100q-44 -10 -83 -10q-78 0 -114.5 38.5t-36.5 128.5v248h-72v105h72v151h137v-151h92v-105h-92v-247q0 -38 12.5 -50t41.5 -12q18 0 43 4zM153 -38h136v-95q0 -43 -34 -71.5t-102 -38.5v45q32 6 48.5 20.5t16.5 44.5h-65v95z" />
    <glyph glyph-name="uni0237" unicode="&#x237;" horiz-adv-x="233" 
d="M-40 -174v107q26 -3 38 -3q26 0 38 13.5t12 52.5v515h137v-512q0 -90 -35.5 -135.5t-110.5 -45.5q-39 0 -79 8z" />
    <glyph glyph-name="circumflex" unicode="&#x2c6;" horiz-adv-x="423" 
d="M162 578h-122l103 147h137l103 -147h-123l-48 84h-2z" />
    <glyph glyph-name="caron" unicode="&#x2c7;" horiz-adv-x="423" 
d="M280 578h-137l-103 147h122l48 -84h2l48 84h123z" />
    <glyph glyph-name="breve" unicode="&#x2d8;" horiz-adv-x="381" 
d="M83.5 607q-41.5 39 -43.5 108h83q5 -60 68 -60q62 0 67 60h83q-3 -67 -44 -107t-106 -40q-66 0 -107.5 39z" />
    <glyph glyph-name="dotaccent" unicode="&#x2d9;" horiz-adv-x="222" 
d="M181 583h-141v130h141v-130z" />
    <glyph glyph-name="ring" unicode="&#x2da;" horiz-adv-x="276" 
d="M64 555q-30 28 -30 74q0 45 30 73.5t74 28.5t73.5 -28t29.5 -74t-29.5 -74t-73.5 -28t-74 28zM170 594.5q12 12.5 12 34.5t-12 34t-32 12q-19 0 -31 -12.5t-12 -33.5q0 -22 12 -34.5t31 -12.5q20 0 32 12.5z" />
    <glyph glyph-name="ogonek" unicode="&#x2db;" horiz-adv-x="264" 
d="M67.5 -156q-27.5 21 -27.5 60q0 32 21.5 57t50.5 39h89q-26 -21 -39.5 -37t-13.5 -31q0 -25 33 -25q15 0 43 8v-81q-40 -11 -77 -11q-52 0 -79.5 21z" />
    <glyph glyph-name="tilde" unicode="&#x2dc;" horiz-adv-x="407" 
d="M40 571q0 68 22 100t63 32q31 0 77 -22q19 -9 31.5 -13t23.5 -4q31 0 31 38h79q0 -68 -22.5 -100t-62.5 -32q-19 0 -37 6t-41 16q-3 1 -21.5 8.5t-32.5 7.5q-31 0 -31 -37h-79z" />
    <glyph glyph-name="hungarumlaut" unicode="&#x2dd;" horiz-adv-x="476" 
d="M156 578h-101l61 147h138zM322 578h-101l76 147h137z" />
    <glyph glyph-name="gravecomb" unicode="&#x300;" 
d="M239 578h-105l-89 147h141z" />
    <glyph glyph-name="acutecomb" unicode="&#x301;" 
d="M141 578h-104l55 147h156z" />
    <glyph glyph-name="uni0302" unicode="&#x302;" 
d="M162 578h-122l103 147h137l103 -147h-123l-48 84h-2z" />
    <glyph glyph-name="tildecomb" unicode="&#x303;" 
d="M40 571q0 68 22 100t63 32q31 0 77 -22q19 -9 31.5 -13t23.5 -4q31 0 31 38h79q0 -68 -22.5 -100t-62.5 -32q-19 0 -37 6t-41 16q-3 1 -21.5 8.5t-32.5 7.5q-31 0 -31 -37h-79z" />
    <glyph glyph-name="uni0304" unicode="&#x304;" 
d="M318 583h-278v92h278v-92z" />
    <glyph glyph-name="uni0306" unicode="&#x306;" 
d="M83.5 607q-41.5 39 -43.5 108h83q5 -60 68 -60q62 0 67 60h83q-3 -67 -44 -107t-106 -40q-66 0 -107.5 39z" />
    <glyph glyph-name="uni0307" unicode="&#x307;" 
d="M182 583h-142v129h142v-129z" />
    <glyph glyph-name="uni0308" unicode="&#x308;" 
d="M187 583h-142v129h142v-129zM380 583h-142v129h142v-129z" />
    <glyph glyph-name="uni030A" unicode="&#x30a;" 
d="M64 572q-30 28 -30 74q0 45 30 73.5t74 28.5t73.5 -28t29.5 -74t-29.5 -74t-73.5 -28t-74 28zM170 611.5q12 12.5 12 34.5t-12 34t-32 12q-19 0 -31 -12.5t-12 -33.5q0 -22 12 -34.5t31 -12.5q20 0 32 12.5z" />
    <glyph glyph-name="uni030B" unicode="&#x30b;" 
d="M156 578h-101l61 147h138zM322 578h-101l76 147h137z" />
    <glyph glyph-name="uni030C" unicode="&#x30c;" 
d="M280 578h-137l-103 147h122l48 -84h2l48 84h123z" />
    <glyph glyph-name="uni0312" unicode="&#x312;" 
d="M177 744q-32 -6 -48.5 -21t-15.5 -46h64v-99h-136v99q0 45 34.5 75t101.5 39v-47z" />
    <glyph glyph-name="uni0326" unicode="&#x326;" 
d="M40 -49h136v-95q0 -43 -34 -71.5t-102 -38.5v45q32 6 48.5 20.5t16.5 44.5h-65v95z" />
    <glyph glyph-name="uni0327" unicode="&#x327;" 
d="M48 -166l27 33q35 -15 65 -15q21 0 34 8t13 23q0 28 -35 28q-21 0 -38 -7l-21 30l60 66h66l-41 -50v-2q6 1 18 1q36 0 61 -17t25 -50q0 -38 -35.5 -59t-88.5 -21q-60 0 -110 32z" />
    <glyph glyph-name="uni0328" unicode="&#x328;" 
d="M67.5 -156q-27.5 21 -27.5 60q0 32 21.5 57t50.5 39h89q-26 -21 -39.5 -37t-13.5 -31q0 -25 33 -25q15 0 43 8v-81q-40 -11 -77 -11q-52 0 -79.5 21z" />
    <glyph glyph-name="uni0335" unicode="&#x335;" 
d="M477 328h-437v84h437v-84z" />
    <glyph glyph-name="uni0336" unicode="&#x336;" 
d="M569 294h-529v131h529v-131z" />
    <glyph glyph-name="uni0337" unicode="&#x337;" 
d="M574 483l-494 -495l-40 41l493 494z" />
    <glyph glyph-name="uni0338" unicode="&#x338;" 
d="M574 483l-494 -495l-40 41l493 494z" />
    <glyph glyph-name="uni0394" unicode="&#x394;" horiz-adv-x="671" 
d="M250 715h171l229 -588v-127h-629v127zM340 573h-9l-165 -449h338z" />
    <glyph glyph-name="uni03A9" unicode="&#x3a9;" horiz-adv-x="798" 
d="M35 0v127h153q-66 42 -102.5 111t-36.5 160q0 97 43 172t122 117t185 42t185 -42t122 -117t43 -172q0 -91 -36.5 -159.5t-102.5 -111.5h153v-127h-308v116q67 40 105 102t38 157q0 110 -52.5 169t-146.5 59t-146.5 -59t-52.5 -169q0 -95 38 -157t105 -102v-116h-308z" />
    <glyph glyph-name="uni03BC" unicode="&#x3bc;" horiz-adv-x="571" 
d="M385 511h137v-511h-137v70h-2q-20 -38 -56.5 -59.5t-79.5 -21.5q-36 0 -62 16v-182h-137v688h137v-306q0 -56 21.5 -82t67.5 -26q52 0 81.5 29t29.5 83v302z" />
    <glyph glyph-name="pi" unicode="&#x3c0;" horiz-adv-x="598" 
d="M569 406h-79v-247q0 -38 10 -50t34 -12q13 0 32 4v-100q-37 -10 -77 -10q-72 0 -104 38t-32 128v249h-121v-406h-137v406h-80v105h554v-105z" />
    <glyph glyph-name="uni0400" unicode="&#x400;" horiz-adv-x="633" 
d="M600 0h-536v715h529v-128h-375v-155h325v-128h-325v-176h382v-128zM381 783h-105l-89 147h141z" />
    <glyph glyph-name="uni0401" unicode="&#x401;" horiz-adv-x="633" 
d="M600 0h-536v715h529v-128h-375v-155h325v-128h-325v-176h382v-128zM305 787h-142v129h142v-129zM498 787h-142v129h142v-129z" />
    <glyph glyph-name="uni0402" unicode="&#x402;" horiz-adv-x="757" 
d="M443 -170v131q14 -6 34.5 -9.5t32.5 -3.5q26 0 39 11t13 45v233q0 55 -28.5 84.5t-84.5 29.5q-59 0 -94.5 -34.5t-35.5 -94.5v-222h-154v587h-148v128h521v-128h-219v-203h2q30 44 81 70.5t110 26.5q97 0 150.5 -56t53.5 -162v-275q0 -84 -45.5 -127.5t-124.5 -43.5
q-59 0 -103 13z" />
    <glyph glyph-name="uni0403" unicode="&#x403;" horiz-adv-x="525" 
d="M218 0h-154v715h446v-128h-292v-587zM355 782h-104l55 147h156z" />
    <glyph glyph-name="uni0404" unicode="&#x404;" horiz-adv-x="716" 
d="M486.5 150.5q43.5 36.5 48.5 94.5h157q-3 -75 -42 -134t-108.5 -92t-160.5 -33q-100 0 -179 45.5t-124 130t-45 198.5q0 112 45.5 195.5t125 128.5t181.5 45q83 0 149.5 -31t107.5 -86t50 -124h-157q-10 50 -50 81.5t-102 31.5q-75 0 -125 -48t-63 -134h229v-108h-231
q10 -95 56.5 -146t125.5 -51q68 0 111.5 36.5z" />
    <glyph glyph-name="uni0405" unicode="&#x405;" horiz-adv-x="648" 
d="M179 15.5q-73 30.5 -115 88.5t-43 138h157q2 -64 45 -97.5t120 -33.5q60 0 89.5 22.5t29.5 60.5q0 32 -18.5 51.5t-50 31.5t-92.5 29l-20 6q-73 21 -122.5 44.5t-81 63.5t-31.5 101q0 104 72.5 156.5t193.5 52.5q83 0 148.5 -27.5t104 -80t41.5 -123.5h-156
q-8 51 -42.5 78t-95.5 27q-51 0 -79.5 -18t-28.5 -54q0 -29 16 -46.5t44 -28.5t84 -27q92 -26 145.5 -47.5t90 -63.5t36.5 -112q0 -101 -72 -161.5t-203 -60.5q-93 0 -166 30.5z" />
    <glyph glyph-name="uni0406" unicode="&#x406;" horiz-adv-x="282" 
d="M218 0h-154v715h154v-715z" />
    <glyph glyph-name="uni0407" unicode="&#x407;" horiz-adv-x="282" 
d="M218 0h-154v715h154v-715zM115 787h-142v129h142v-129zM308 787h-142v129h142v-129z" />
    <glyph glyph-name="uni0408" unicode="&#x408;" horiz-adv-x="545" 
d="M17 232v49h140v-49q0 -60 18 -90t69 -30t69 30t18 90v483h155v-483q0 -247 -235 -247q-234 0 -234 247z" />
    <glyph glyph-name="uni0409" unicode="&#x409;" horiz-adv-x="990" 
d="M43 -12q-27 3 -38 9v132q28 -10 60 -10t48 20.5t18 69.5l28 506h448v-235h113q116 0 184 -64t68 -173q0 -113 -70.5 -178t-191.5 -65h-257v587h-157l-22 -391q-6 -115 -52.5 -163t-124.5 -48q-27 0 -54 3zM708 128q49 0 77.5 30.5t28.5 84.5q0 49 -26 79t-71 30h-110
v-224h101z" />
    <glyph glyph-name="uni040A" unicode="&#x40a;" horiz-adv-x="1032" 
d="M64 0v715h154v-262h262v262h154v-262h127q118 0 185.5 -58.5t67.5 -164.5q0 -112 -70 -171t-193 -59h-271v326h-262v-326h-154zM749 128q107 0 107 102q0 47 -26 71.5t-72 24.5h-124v-198h115z" />
    <glyph glyph-name="uni040B" unicode="&#x40b;" horiz-adv-x="756" 
d="M165 0v587h-148v128h521v-128h-219v-208h2q31 43 82 69.5t109 26.5q97 0 150.5 -56t53.5 -161v-258h-154v232q0 54 -28.5 83.5t-84.5 29.5q-59 0 -94.5 -34t-35.5 -95v-216h-154z" />
    <glyph glyph-name="uni040C" unicode="&#x40c;" horiz-adv-x="693" 
d="M692 715l-287 -355l306 -360h-194l-236 282h-63v-282h-154v715h154v-305h63l244 305h167zM399 782h-104l55 147h156z" />
    <glyph glyph-name="uni040D" unicode="&#x40d;" horiz-adv-x="748" 
d="M218 0h-154v715h154v-482h2l310 482h154v-715h-154v482h-2zM421 783h-105l-89 147h141z" />
    <glyph glyph-name="uni040E" unicode="&#x40e;" horiz-adv-x="647" 
d="M283 0h-151l107 212l-230 503h156l154 -341h2l168 341h149zM217.5 812q-41.5 39 -43.5 108h83q5 -60 68 -60q62 0 67 60h83q-3 -67 -44 -107t-106 -40q-66 0 -107.5 39z" />
    <glyph glyph-name="uni040F" unicode="&#x40f;" horiz-adv-x="705" 
d="M422 -131h-138v131h-220v715h154v-587h269v587h154v-715h-219v-131z" />
    <glyph glyph-name="uni0410" unicode="&#x410;" horiz-adv-x="695" 
d="M163 0h-165l270 715h158l272 -715h-168l-51 158h-265zM346 573l-94 -295h190l-94 295h-2z" />
    <glyph glyph-name="uni0411" unicode="&#x411;" horiz-adv-x="635" 
d="M64 0v715h483v-128h-329v-128h145q120 0 186 -60t66 -165q0 -110 -68.5 -172t-193.5 -62h-289zM351 128q51 0 78.5 27.5t27.5 78.5q0 44 -25.5 70.5t-71.5 26.5h-142v-203h133z" />
    <glyph glyph-name="uni0412" unicode="&#x412;" horiz-adv-x="681" 
d="M64 0v715h330q112 0 170.5 -45.5t58.5 -134.5q0 -113 -111 -151v-2q61 -11 100 -53.5t39 -118.5q0 -106 -64.5 -158t-179.5 -52h-343zM363 423q51 0 76.5 19t25.5 63q0 82 -99 82h-148v-164h145zM371 128q65 0 93.5 23t28.5 74t-29 74t-87 23h-159v-194h153z" />
    <glyph glyph-name="uni0413" unicode="&#x413;" horiz-adv-x="525" 
d="M218 0h-154v715h446v-128h-292v-587z" />
    <glyph glyph-name="uni0414" unicode="&#x414;" horiz-adv-x="742" 
d="M5 -130v257h52q28 0 44 18t24 56t11 106l20 408h482v-588h78v-257h-139v129h-433v-129h-139zM235 127h249v460h-188l-20 -321q-3 -51 -13 -83t-28 -54v-2z" />
    <glyph glyph-name="uni0415" unicode="&#x415;" horiz-adv-x="633" 
d="M600 0h-536v715h529v-128h-375v-155h325v-128h-325v-176h382v-128z" />
    <glyph glyph-name="uni0416" unicode="&#x416;" horiz-adv-x="979" 
d="M971 715l-224 -358l239 -357h-176l-184 282h-59v-282h-154v282h-60l-183 -282h-176l239 357l-225 358h161l184 -305h60v305h154v-305h60l184 305h160z" />
    <glyph glyph-name="uni0417" unicode="&#x417;" horiz-adv-x="621" 
d="M98 43q-76 59 -76 165h158q5 -47 37 -71.5t96 -24.5q52 0 85.5 27t33.5 69q0 46 -30.5 70t-85.5 24h-85v109h81q45 0 69 26.5t24 68.5q0 40 -30 67.5t-76 27.5q-49 0 -80 -26t-31 -65h-158q4 65 37 114.5t92.5 77t139.5 27.5q78 0 138 -24.5t93 -70t33 -107.5
q0 -60 -33.5 -102.5t-86.5 -65.5v-2q63 -13 105.5 -53.5t42.5 -108.5q0 -63 -37 -111t-101 -74t-141 -26q-138 0 -214 59z" />
    <glyph glyph-name="uni0418" unicode="&#x418;" horiz-adv-x="748" 
d="M218 0h-154v715h154v-482h2l310 482h154v-715h-154v482h-2z" />
    <glyph glyph-name="uni0419" unicode="&#x419;" horiz-adv-x="748" 
d="M218 0h-154v715h154v-482h2l310 482h154v-715h-154v482h-2zM264.5 812q-41.5 39 -43.5 108h83q5 -60 68 -60q62 0 67 60h83q-3 -67 -44 -107t-106 -40q-66 0 -107.5 39z" />
    <glyph glyph-name="uni041A" unicode="&#x41a;" horiz-adv-x="693" 
d="M692 715l-287 -355l306 -360h-194l-236 282h-63v-282h-154v715h154v-305h63l244 305h167z" />
    <glyph glyph-name="uni041B" unicode="&#x41b;" horiz-adv-x="697" 
d="M43 -12q-27 3 -38 9v132q28 -10 60 -10t48 20.5t18 69.5l28 506h474v-715h-154v587h-183l-22 -391q-6 -115 -52.5 -163t-124.5 -48q-27 0 -54 3z" />
    <glyph glyph-name="uni041C" unicode="&#x41c;" horiz-adv-x="853" 
d="M211 0h-147v715h192l169 -495h2l169 495h193v-715h-148v486h-2l-156 -486h-113l-157 486h-2v-486z" />
    <glyph glyph-name="uni041D" unicode="&#x41d;" horiz-adv-x="721" 
d="M218 0h-154v715h154v-287h284v287h155v-715h-155v300h-284v-300z" />
    <glyph glyph-name="uni041E" unicode="&#x41e;" horiz-adv-x="770" 
d="M196.5 32.5q-79.5 47.5 -122 132.5t-42.5 193t42.5 192.5t122 132t188.5 47.5q108 0 188 -47.5t122.5 -132t42.5 -192.5t-42.5 -193t-122.5 -132.5t-188 -47.5q-109 0 -188.5 47.5zM533 180.5q47 68.5 47 177.5t-47 177t-148 68q-102 0 -148 -67.5t-46 -177.5t46 -178
t148 -68q101 0 148 68.5z" />
    <glyph glyph-name="uni041F" unicode="&#x41f;" horiz-adv-x="708" 
d="M218 0h-154v715h580v-715h-154v587h-272v-587z" />
    <glyph glyph-name="uni0420" unicode="&#x420;" horiz-adv-x="650" 
d="M64 0v715h329q111 0 175 -56t64 -166t-64 -166.5t-175 -56.5h-175v-270h-154zM365 398q54 0 81.5 22.5t27.5 72.5q0 94 -109 94h-147v-189h147z" />
    <glyph glyph-name="uni0421" unicode="&#x421;" horiz-adv-x="712" 
d="M188 32.5q-77 47.5 -116.5 131.5t-39.5 192q0 110 40.5 194.5t118 132t184.5 47.5q92 0 159.5 -34.5t105.5 -96t47 -141.5h-158q-11 65 -47.5 105t-112.5 40q-95 0 -136.5 -66.5t-41.5 -178.5q0 -113 41.5 -179.5t136.5 -66.5q142 0 160 153h158q-8 -82 -47 -145.5
t-107.5 -99t-161.5 -35.5q-106 0 -183 47.5z" />
    <glyph glyph-name="uni0422" unicode="&#x422;" horiz-adv-x="617" 
d="M386 0h-154v587h-217v128h587v-128h-216v-587z" />
    <glyph glyph-name="uni0423" unicode="&#x423;" horiz-adv-x="647" 
d="M283 0h-151l107 212l-230 503h156l154 -341h2l168 341h149z" />
    <glyph glyph-name="uni0424" unicode="&#x424;" horiz-adv-x="787" 
d="M681 165.5q-78 -73.5 -214 -89.5v-76h-147v76q-136 17 -214 90t-78 187q0 113 78 186t214 90v86h147v-86q136 -16 214 -89t78 -187t-78 -187.5zM467 193q64 15 100 57t36 103t-36 102.5t-100 56.5v-319zM221 251q36 -42 99 -58v319q-64 -16 -99.5 -57.5t-35.5 -101.5
t36 -102z" />
    <glyph glyph-name="uni0425" unicode="&#x425;" horiz-adv-x="642" 
d="M166 0h-173l239 365l-220 350h165l144 -237h1l145 237h164l-219 -348l237 -367h-174l-154 252h-2z" />
    <glyph glyph-name="uni0426" unicode="&#x426;" horiz-adv-x="748" 
d="M722 -131h-139v131h-519v715h154v-587h269v587h154v-587h81v-259z" />
    <glyph glyph-name="uni0427" unicode="&#x427;" horiz-adv-x="650" 
d="M431 0v309h-2q-31 -44 -80 -70t-104 -26q-92 0 -148 59.5t-56 162.5v280h155v-259q0 -53 29.5 -83t82.5 -30q39 0 68 17.5t55 51.5v303h155v-715h-155z" />
    <glyph glyph-name="uni0428" unicode="&#x428;" horiz-adv-x="938" 
d="M874 0h-810v715h154v-587h174v587h154v-587h174v587h154v-715z" />
    <glyph glyph-name="uni0429" unicode="&#x429;" horiz-adv-x="981" 
d="M955 -131h-139v131h-752v715h154v-587h174v587h154v-587h174v587h154v-587h81v-259z" />
    <glyph glyph-name="uni042A" unicode="&#x42a;" horiz-adv-x="717" 
d="M146 0v587h-134v128h289v-235h146q116 0 184 -64t68 -173q0 -113 -70.5 -178t-191.5 -65h-291zM435 128q49 0 77.5 30.5t28.5 84.5q0 49 -26 79t-71 30h-143v-224h134z" />
    <glyph glyph-name="uni042B" unicode="&#x42b;" horiz-adv-x="876" 
d="M64 0v715h154v-235h121q116 0 184 -64t68 -173q0 -113 -70.5 -178t-191.5 -65h-265zM812 0h-154v715h154v-715zM327 128q49 0 77.5 30.5t28.5 84.5q0 49 -26.5 79t-70.5 30h-118v-224h109z" />
    <glyph glyph-name="uni042C" unicode="&#x42c;" horiz-adv-x="635" 
d="M64 0v715h154v-235h146q116 0 184.5 -64t68.5 -173q0 -113 -71 -178t-192 -65h-290zM352 128q50 0 78.5 30.5t28.5 84.5q0 49 -26.5 79t-71.5 30h-143v-224h134z" />
    <glyph glyph-name="uni042D" unicode="&#x42d;" horiz-adv-x="715" 
d="M519.5 684.5q77.5 -44.5 120 -127.5t42.5 -196q0 -115 -43 -199.5t-120 -130t-177 -45.5q-91 0 -162 33.5t-112 92t-44 133.5h156q5 -58 49.5 -94.5t112.5 -36.5q79 0 124.5 51t55.5 146h-231v108h229q-11 88 -58 135t-123 47q-66 0 -107.5 -31.5t-51.5 -81.5h-156
q9 69 51.5 124t111.5 86t154 31q101 0 178.5 -44.5z" />
    <glyph glyph-name="uni042E" unicode="&#x42e;" horiz-adv-x="984" 
d="M868 632.5q82 -97.5 82 -274.5q0 -178 -82 -275.5t-231 -97.5q-136 0 -216.5 82t-94.5 233h-108v-300h-154v715h154v-288h110q15 145 95.5 224t213.5 79q149 0 231 -97.5zM750.5 176.5q41.5 64.5 41.5 181.5t-41.5 181t-113.5 64t-113 -64t-41 -181t41 -181.5t113 -64.5
t113.5 64.5z" />
    <glyph glyph-name="uni042F" unicode="&#x42f;" horiz-adv-x="676" 
d="M18 6q7 11 13.5 34.5t11.5 50.5q12 62 26 106.5t45.5 81t83.5 46.5v2q-72 17 -108.5 64t-36.5 119q0 60 30.5 106.5t86.5 72.5t132 26h310v-715h-155v263h-116q-55 0 -85 -30.5t-40.5 -71t-16.5 -98.5q-5 -49 -12 -63h-169v6zM457 384v203h-147q-49 0 -74.5 -26
t-25.5 -70q0 -51 28.5 -79t81.5 -28h137z" />
    <glyph glyph-name="uni0430" unicode="&#x430;" horiz-adv-x="552" 
d="M70 25.5q-45 40.5 -45 107.5q0 76 52.5 113.5t150.5 57.5q8 2 49 10t62 23.5t21 38.5q0 26 -19 40.5t-60 14.5q-51 0 -74.5 -20t-27.5 -63h-132q4 80 63 130t177 50q100 0 153 -46.5t53 -152.5v-212q0 -24 4.5 -34.5t16.5 -10.5q7 0 13 1v-70q-43 -8 -74 -8q-43 0 -64 17
t-26 54h-2q-27 -37 -71 -59t-100 -22q-75 0 -120 40.5zM327 117q33 34 33 87v54q-21 -11 -96 -29q-53 -11 -75.5 -30.5t-22.5 -52.5q0 -63 74 -63q54 0 87 34z" />
    <glyph glyph-name="uni0431" unicode="&#x431;" horiz-adv-x="580" 
d="M102.5 67q-70.5 83 -70.5 242q0 155 59 249.5t173 110.5l100 14q73 10 73 32h111q0 -64 -35 -95t-95 -40l-130 -20q-61 -9 -99 -52t-46 -118h2q22 63 79 100.5t125 37.5q62 0 108 -32.5t71.5 -93.5t25.5 -145q0 -125 -67.5 -199t-187.5 -74q-126 0 -196.5 83zM383 136.5
q32 47.5 32 120.5q0 74 -32 119.5t-84 45.5q-56 0 -90 -47t-34 -120t34 -119.5t90 -46.5q52 0 84 47.5z" />
    <glyph glyph-name="uni0432" unicode="&#x432;" horiz-adv-x="531" 
d="M48 0v511h253q54 0 94.5 -17.5t62.5 -47.5t22 -68q0 -45 -27.5 -75.5t-71.5 -35.5v-2q53 -5 90.5 -33.5t37.5 -79.5q0 -76 -51.5 -114t-144.5 -38h-265zM297 304q24 0 37 14t13 39q0 49 -50 49h-112v-102h112zM304 106q65 0 65 54q0 26 -15 40t-41 14h-128v-108h119z" />
    <glyph glyph-name="uni0433" unicode="&#x433;" horiz-adv-x="415" 
d="M185 0h-137v511h357v-105h-220v-406z" />
    <glyph glyph-name="uni0434" unicode="&#x434;" horiz-adv-x="611" 
d="M521 106h70v-236h-127v130h-329v-130h-127v236h40q58 0 62 73l21 332h390v-405zM224 106h160v300h-126l-14 -223q-3 -50 -20 -75v-2z" />
    <glyph glyph-name="uni0435" unicode="&#x435;" horiz-adv-x="565" 
d="M540 219h-377q1 -57 35.5 -93.5t90.5 -36.5q47 0 72.5 20t34.5 47h139q-22 -80 -85 -126t-165 -46q-80 0 -139 34.5t-90 96t-31 141.5q0 78 31 139.5t89.5 97t139.5 35.5q124 0 189.5 -73t65.5 -207v-29zM401 310q0 53 -31.5 84t-85.5 31q-51 0 -84 -30.5t-37 -84.5h238z
" />
    <glyph glyph-name="uni0436" unicode="&#x436;" horiz-adv-x="766" 
d="M156 0h-160l169 256l-165 255h148l131 -207h35v207h137v-207h36l130 207h149l-165 -255l169 -256h-161l-125 198h-33v-198h-137v198h-33z" />
    <glyph glyph-name="uni0437" unicode="&#x437;" horiz-adv-x="499" 
d="M127.5 5q-51.5 21 -80 59.5t-28.5 90.5h137q0 -30 25 -47.5t68 -17.5q37 0 61 16t24 45q0 28 -18.5 44.5t-54.5 16.5h-69v92h66q34 0 51 15.5t17 44.5q0 27 -24 42.5t-59 15.5q-39 0 -62 -17t-23 -45h-138q0 49 28 87t80 59.5t119 21.5q58 0 107.5 -17.5t79.5 -51
t30 -81.5q0 -42 -34 -76t-89 -42v-1q66 -9 99 -38.5t33 -76.5q0 -74 -63 -117t-164 -43q-67 0 -118.5 21z" />
    <glyph glyph-name="uni0438" unicode="&#x438;" horiz-adv-x="601" 
d="M185 0h-137v510h137v-327l230 327h138v-510h-138v327z" />
    <glyph glyph-name="uni0439" unicode="&#x439;" horiz-adv-x="601" 
d="M185 0h-137v510h137v-327l230 327h138v-510h-138v327zM199.5 607q-41.5 39 -43.5 108h83q5 -60 68 -60q62 0 67 60h83q-3 -67 -44 -107t-106 -40q-66 0 -107.5 39z" />
    <glyph glyph-name="uni043A" unicode="&#x43a;" horiz-adv-x="540" 
d="M547 511l-189 -252l194 -259h-167l-147 198h-53v-198h-137v511h137v-207h56l144 207h162z" />
    <glyph glyph-name="uni043B" unicode="&#x43b;" horiz-adv-x="563" 
d="M11 -6v104q18 -7 40 -7q21 0 31.5 19.5t12.5 58.5l20 341h400v-510h-137v404h-139l-15 -250q-5 -83 -41.5 -126t-104.5 -43q-44 0 -67 9z" />
    <glyph glyph-name="uni043C" unicode="&#x43c;" horiz-adv-x="695" 
d="M185 0h-137v511h137l163 -349h2l171 349h126v-511h-137v258h-2l-119 -258h-91l-111 258h-2v-258z" />
    <glyph glyph-name="uni043D" unicode="&#x43d;" horiz-adv-x="581" 
d="M395 311v200h138v-511h-138v205h-210v-205h-137v511h137v-200h210z" />
    <glyph glyph-name="uni043E" unicode="&#x43e;" horiz-adv-x="582" 
d="M148.5 18q-60.5 34 -92.5 95.5t-32 141.5t32.5 142t93 96.5t142.5 34.5q81 0 141.5 -34t92.5 -95.5t32 -141.5t-32.5 -142t-93 -96.5t-142.5 -34.5q-81 0 -141.5 34zM385.5 133.5q32.5 44.5 32.5 122.5t-32.5 122t-94.5 44t-94.5 -44t-32.5 -122t32.5 -122.5t94.5 -44.5
t94.5 44.5z" />
    <glyph glyph-name="uni043F" unicode="&#x43f;" horiz-adv-x="571" 
d="M185 0h-137v511h475v-511h-138v406h-200v-406z" />
    <glyph glyph-name="uni0440" unicode="&#x440;" horiz-adv-x="590" 
d="M456 494q51 -33 79.5 -94t28.5 -144t-28.5 -144t-79.5 -94t-117 -33q-53 0 -92.5 21t-59.5 49h-2v-232h-137v688h137v-54h2q21 28 60.5 49t91.5 21q66 0 117 -33zM391.5 135q30.5 45 30.5 121t-30.5 120.5t-86.5 44.5t-87 -43.5t-31 -121.5q0 -79 31 -122.5t87 -43.5
t86.5 45z" />
    <glyph glyph-name="uni0441" unicode="&#x441;" horiz-adv-x="542" 
d="M146.5 18.5q-58.5 34.5 -90.5 96t-32 141.5q0 79 32 141t90 96.5t135 34.5q103 0 168 -57t75 -149h-139q-5 42 -28 71t-74 29q-59 0 -88.5 -45t-29.5 -121t29 -121t89 -45q92 0 102 102h139q-4 -60 -34.5 -107.5t-84 -74t-122.5 -26.5q-78 0 -136.5 34.5z" />
    <glyph glyph-name="uni0442" unicode="&#x442;" horiz-adv-x="491" 
d="M314 0h-137v406h-166v105h470v-105h-167v-406z" />
    <glyph glyph-name="uni0443" unicode="&#x443;" horiz-adv-x="533" 
d="M58 -169v107q26 -3 46 -3q33 0 58.5 14.5t36.5 56.5l-204 505h143l131 -356h2l121 356h138l-193 -516q-35 -93 -78.5 -133t-116.5 -40q-38 0 -84 9z" />
    <glyph glyph-name="uni0444" unicode="&#x444;" horiz-adv-x="697" 
d="M604 75.5q-69 -70.5 -189 -86.5v-166h-133v166q-120 17 -189 87.5t-69 179.5q0 110 69 180.5t189 87.5v191h133v-191q120 -16 189 -87t69 -181t-69 -180.5zM415 95q57 16 89 58t32 103t-32 103t-89 58v-322zM192.5 153q32.5 -42 89.5 -57v321q-57 -16 -89.5 -58
t-32.5 -103t32.5 -103z" />
    <glyph glyph-name="uni0445" unicode="&#x445;" horiz-adv-x="508" 
d="M144 0h-155l182 261l-163 250h148l97 -160h2l96 160h149l-163 -250l182 -261h-156l-109 172h-2z" />
    <glyph glyph-name="uni0446" unicode="&#x446;" horiz-adv-x="610" 
d="M590 -130h-127v130h-415v511h137v-405h198v405h137v-405h70v-236z" />
    <glyph glyph-name="uni0447" unicode="&#x447;" horiz-adv-x="533" 
d="M348 0v210h-2q-23 -31 -62.5 -50.5t-85.5 -19.5q-75 0 -121 43t-46 124v203h137v-154q0 -51 23 -77t64 -26q30 0 51.5 14.5t41.5 40.5v202h137v-510h-137z" />
    <glyph glyph-name="uni0448" unicode="&#x448;" horiz-adv-x="752" 
d="M704 0h-656v511h130v-405h133v405h130v-405h133v405h130v-511z" />
    <glyph glyph-name="uni0449" unicode="&#x449;" horiz-adv-x="794" 
d="M774 -130h-127v130h-599v511h130v-405h133v405h130v-405h133v405h130v-405h70v-236z" />
    <glyph glyph-name="uni044A" unicode="&#x44a;" horiz-adv-x="552" 
d="M102 0v406h-92v105h229v-164h106q90 0 142 -46.5t52 -126.5t-53 -127t-144 -47h-240zM329 106q33 0 52 17.5t19 48.5q0 32 -19 50.5t-52 18.5h-90v-135h90z" />
    <glyph glyph-name="uni044B" unicode="&#x44b;" horiz-adv-x="699" 
d="M48 0v511h137v-164h84q89 0 141.5 -46.5t52.5 -126.5t-53 -127t-144 -47h-218zM651 0h-137v511h137v-511zM252 106q33 0 52 17.5t19 48.5q0 32 -19 50.5t-52 18.5h-67v-135h67z" />
    <glyph glyph-name="uni044C" unicode="&#x44c;" horiz-adv-x="498" 
d="M48 0v511h137v-164h106q90 0 142 -46.5t52 -126.5t-52.5 -127t-143.5 -47h-241zM275 106q33 0 52 17.5t19 48.5q0 32 -19 50.5t-52 18.5h-90v-135h90z" />
    <glyph glyph-name="uni044D" unicode="&#x44d;" horiz-adv-x="540" 
d="M394.5 493.5q58.5 -34.5 90 -96t31.5 -142.5q0 -125 -64.5 -198t-193.5 -73q-105 0 -168 50.5t-74 137.5h138q6 -37 33.5 -59.5t73.5 -22.5q53 0 81.5 30t35.5 91h-165v91h164q-15 120 -118 120q-46 0 -72.5 -22t-32.5 -58h-138q17 83 78 134.5t163 51.5
q79 0 137.5 -34.5z" />
    <glyph glyph-name="uni044E" unicode="&#x44e;" horiz-adv-x="725" 
d="M591 495q52 -33 80.5 -94t28.5 -144t-29 -145t-81 -95t-121 -33q-91 0 -151.5 58t-73.5 161h-59v-203h-137v511h137v-202h59q13 103 74 161t154 58q67 0 119 -33zM537 131q23 42 23 125t-23 124.5t-66 41.5t-66.5 -41.5t-23.5 -124.5t23.5 -125t66.5 -42t66 42z" />
    <glyph glyph-name="uni044F" unicode="&#x44f;" horiz-adv-x="524" 
d="M11 4q10 17 23 67q11 43 22.5 71t36.5 50.5t68 28.5v1q-55 11 -90 44.5t-35 87.5q0 42 20 77.5t61 57.5t99 22h260v-511h-137v169h-69q-34 0 -54.5 -20.5t-29.5 -47t-16 -64.5q-5 -30 -10 -37h-149v4zM339 268v138h-93q-33 0 -51.5 -18t-18.5 -46q0 -33 18.5 -53.5
t53.5 -20.5h91z" />
    <glyph glyph-name="uni0450" unicode="&#x450;" horiz-adv-x="565" 
d="M540 219h-377q1 -57 35.5 -93.5t90.5 -36.5q47 0 72.5 20t34.5 47h139q-22 -80 -85 -126t-165 -46q-80 0 -139 34.5t-90 96t-31 141.5q0 78 31 139.5t89.5 97t139.5 35.5q124 0 189.5 -73t65.5 -207v-29zM401 310q0 53 -31.5 84t-85.5 31q-51 0 -84 -30.5t-37 -84.5h238z
M332 580h-105l-89 147h141z" />
    <glyph glyph-name="uni0451" unicode="&#x451;" horiz-adv-x="565" 
d="M540 219h-377q1 -57 35.5 -93.5t90.5 -36.5q47 0 72.5 20t34.5 47h139q-22 -80 -85 -126t-165 -46q-80 0 -139 34.5t-90 96t-31 141.5q0 78 31 139.5t89.5 97t139.5 35.5q124 0 189.5 -73t65.5 -207v-29zM401 310q0 53 -31.5 84t-85.5 31q-51 0 -84 -30.5t-37 -84.5h238z
M257 584h-142v129h142v-129zM450 584h-142v129h142v-129z" />
    <glyph glyph-name="uni0452" unicode="&#x452;" horiz-adv-x="567" 
d="M282 -173v107q21 -4 54 -4q24 0 36.5 15.5t12.5 50.5v311q0 55 -21.5 81t-66.5 26q-53 0 -82.5 -28.5t-29.5 -83.5v-302h-137v578h-61v82h61v55h137v-55h156v-82h-156v-137h2q23 38 64.5 62t103.5 24q75 0 121.5 -46.5t46.5 -131.5v-350q0 -88 -42 -134.5t-118 -46.5
q-39 0 -81 9z" />
    <glyph glyph-name="uni0453" unicode="&#x453;" horiz-adv-x="415" 
d="M185 0h-137v511h357v-105h-220v-406zM281 577h-104l55 147h156z" />
    <glyph glyph-name="uni0454" unicode="&#x454;" horiz-adv-x="540" 
d="M353.5 112.5q26.5 22.5 32.5 59.5h138q-12 -87 -74 -137.5t-166 -50.5q-129 0 -194 73t-65 198q0 80 32 142t90.5 96.5t137.5 34.5q101 0 161.5 -51.5t77.5 -134.5h-138q-6 36 -32 58t-72 22q-103 0 -118 -120h163v-91h-164q7 -61 36 -91t82 -30q46 0 72.5 22.5z" />
    <glyph glyph-name="uni0455" unicode="&#x455;" horiz-adv-x="508" 
d="M83 36.5q-61 51.5 -64 133.5h131q4 -42 32 -64.5t81 -22.5q83 0 83 56q0 31 -24.5 44t-81.5 25l-22 5q-86 20 -136 53.5t-50 104.5t56.5 113.5t156.5 42.5q109 0 165 -48t61 -121h-131q-5 33 -25.5 51.5t-66.5 18.5q-38 0 -56.5 -13t-18.5 -36q0 -25 18.5 -35t69.5 -21
l27 -6q62 -15 103.5 -31.5t68.5 -49.5t27 -88q0 -78 -57.5 -120.5t-164.5 -42.5q-121 0 -182 51.5z" />
    <glyph glyph-name="uni0456" unicode="&#x456;" horiz-adv-x="233" 
d="M185 0h-137v511h137v-511zM188 583h-142v129h142v-129z" />
    <glyph glyph-name="uni0457" unicode="&#x457;" horiz-adv-x="233" 
d="M104 590h-113v116h113v-116zM243 590h-114v116h114v-116zM185 0h-137v511h137v-511z" />
    <glyph glyph-name="uni0458" unicode="&#x458;" horiz-adv-x="233" 
d="M-40 -174v107q26 -3 38 -3q26 0 38 13.5t12 52.5v515h137v-512q0 -90 -35.5 -135.5t-110.5 -45.5q-39 0 -79 8zM188 583h-142v129h142v-129z" />
    <glyph glyph-name="uni0459" unicode="&#x459;" horiz-adv-x="774" 
d="M11 -5v104q23 -7 40 -7q21 0 31.5 19.5t12.5 58.5l20 341h368v-164h84q89 0 141.5 -46.5t52.5 -126.5t-53 -127t-144 -47h-218v406h-107l-15 -251q-5 -83 -41.5 -126t-104.5 -43q-44 0 -67 9zM550 106q33 0 52 17.5t19 48.5q0 32 -19 50.5t-52 18.5h-67v-135h67z" />
    <glyph glyph-name="uni045A" unicode="&#x45a;" horiz-adv-x="773" 
d="M566 329q91 0 142.5 -42t51.5 -120q0 -79 -52.5 -123t-144.5 -44h-218v224h-160v-224h-137v511h137v-182h160v182h137v-182h84zM549 106q71 0 71 59t-71 59h-67v-118h67z" />
    <glyph glyph-name="uni045B" unicode="&#x45b;" horiz-adv-x="567" 
d="M476.5 480.5q46.5 -46.5 46.5 -131.5v-349h-138v307q0 55 -21.5 81t-66.5 26q-53 0 -82.5 -28.5t-29.5 -83.5v-302h-137v578h-61v82h61v55h137v-55h156v-82h-156v-137h2q23 38 64.5 62t103.5 24q75 0 121.5 -46.5z" />
    <glyph glyph-name="uni045C" unicode="&#x45c;" horiz-adv-x="540" 
d="M547 511l-189 -252l194 -259h-167l-147 198h-53v-198h-137v511h137v-207h56l144 207h162zM323 577h-104l55 147h156z" />
    <glyph glyph-name="uni045D" unicode="&#x45d;" horiz-adv-x="601" 
d="M185 0h-137v510h137v-327l230 327h138v-510h-138v327zM356 578h-105l-89 147h141z" />
    <glyph glyph-name="uni045E" unicode="&#x45e;" horiz-adv-x="533" 
d="M58 -169v107q26 -3 46 -3q33 0 58.5 14.5t36.5 56.5l-204 505h143l131 -356h2l121 356h138l-193 -516q-35 -93 -78.5 -133t-116.5 -40q-38 0 -84 9zM155.5 608q-41.5 39 -43.5 108h83q5 -60 68 -60q62 0 67 60h83q-3 -67 -44 -107t-106 -40q-66 0 -107.5 39z" />
    <glyph glyph-name="uni045F" unicode="&#x45f;" horiz-adv-x="568" 
d="M348 -130h-127v130h-173v511h137v-405h198v405h137v-511h-172v-130z" />
    <glyph glyph-name="uni0490" unicode="&#x490;" horiz-adv-x="536" 
d="M218 0h-154v715h318v99h139v-227h-303v-587z" />
    <glyph glyph-name="uni0491" unicode="&#x491;" horiz-adv-x="448" 
d="M185 0h-137v511h263v109h127v-214h-253v-406z" />
    <glyph glyph-name="uni0492" unicode="&#x492;" horiz-adv-x="585" 
d="M568 715v-128h-292v-189h192v-105h-192v-293h-154v293h-107v105h107v317h446z" />
    <glyph glyph-name="uni0493" unicode="&#x493;" horiz-adv-x="461" 
d="M449 511v-105h-220v-114h150v-89h-150v-203h-137v203h-81v89h81v219h357z" />
    <glyph glyph-name="uni0496" unicode="&#x496;" horiz-adv-x="979" 
d="M747 357l203 -303h53v-184h-139v130h-54l-184 282h-59v-282h-154v282h-60l-183 -282h-176l239 357l-225 358h161l184 -305h60v305h154v-305h60l184 305h160z" />
    <glyph glyph-name="uni0497" unicode="&#x497;" horiz-adv-x="766" 
d="M601 256l110 -167h82v-219h-127v130h-57l-125 198h-33v-198h-137v198h-33l-125 -198h-160l169 256l-165 255h148l131 -207h35v207h137v-207h36l130 207h149z" />
    <glyph glyph-name="uni049A" unicode="&#x49a;" horiz-adv-x="693" 
d="M405 360l260 -306h65v-184h-139v130h-74l-236 282h-63v-282h-154v715h154v-305h63l244 305h167z" />
    <glyph glyph-name="uni049B" unicode="&#x49b;" horiz-adv-x="540" 
d="M358 259l127 -170h78v-219h-127v130h-51l-147 198h-53v-198h-137v511h137v-207h56l144 207h162z" />
    <glyph glyph-name="uni04A2" unicode="&#x4a2;" horiz-adv-x="721" 
d="M657 715v-661h51v-184h-139v130h-67v300h-284v-300h-154v715h154v-287h284v287h155z" />
    <glyph glyph-name="uni04A3" unicode="&#x4a3;" horiz-adv-x="581" 
d="M533 511v-422h56v-219h-127v130h-67v205h-210v-205h-137v511h137v-200h210v200h138z" />
    <glyph glyph-name="uni04AE" unicode="&#x4ae;" horiz-adv-x="656" 
d="M405 0h-154v272l-248 443h166l158 -318h2l160 318h163l-247 -443v-272z" />
    <glyph glyph-name="uni04AF" unicode="&#x4af;" horiz-adv-x="533" 
d="M336 -177h-137v223l-204 465h147l125 -316h2l132 316h136l-201 -465v-223z" />
    <glyph glyph-name="uni04B0" unicode="&#x4b0;" horiz-adv-x="650" 
d="M649 715l-247 -443v-31h139v-106h-139v-135h-154v135h-141v106h141v31l-248 443h166l158 -318h2l160 318h163z" />
    <glyph glyph-name="uni04B1" unicode="&#x4b1;" horiz-adv-x="533" 
d="M537 511l-201 -465v-39h123v-88h-123v-96h-137v96h-123v88h123v39l-204 465h147l125 -316h2l132 316h136z" />
    <glyph glyph-name="uni04B2" unicode="&#x4b2;" horiz-adv-x="642" 
d="M412 367l202 -313h57v-184h-139v130h-57l-154 252h-2l-153 -252h-173l239 365l-220 350h165l144 -237h1l145 237h164z" />
    <glyph glyph-name="uni04B3" unicode="&#x4b3;" horiz-adv-x="508" 
d="M337 261l120 -172h84v-219h-127v130h-51l-109 172h-2l-108 -172h-155l182 261l-163 250h148l97 -160h2l96 160h149z" />
    <glyph glyph-name="uni04B6" unicode="&#x4b6;" horiz-adv-x="650" 
d="M586 54h64v-184h-139v130h-80v309h-2q-31 -44 -80 -70t-104 -26q-92 0 -148 59.5t-56 162.5v280h155v-259q0 -53 29.5 -83t82.5 -30q39 0 68 17.5t55 51.5v303h155v-661z" />
    <glyph glyph-name="uni04B7" unicode="&#x4b7;" horiz-adv-x="533" 
d="M485 89h53v-219h-127v130h-63v210h-2q-23 -31 -62.5 -50.5t-85.5 -19.5q-75 0 -121 43t-46 124v203h137v-154q0 -51 23 -77t64 -26q30 0 51.5 14.5t41.5 40.5v202h137v-421z" />
    <glyph glyph-name="uni04BA" unicode="&#x4ba;" horiz-adv-x="661" 
d="M64 0v715h154v-306h2q24 46 76.5 71t114.5 25q99 0 153 -56t54 -161v-288h-154v262q0 54 -29 83.5t-87 29.5q-59 0 -94.5 -34t-35.5 -95v-246h-154z" />
    <glyph glyph-name="uni04BB" unicode="&#x4bb;" horiz-adv-x="567" 
d="M476.5 480.5q46.5 -46.5 46.5 -131.5v-349h-138v307q0 55 -21.5 81t-66.5 26q-53 0 -82.5 -28.5t-29.5 -83.5v-302h-137v715h137v-274h2q23 38 64.5 62t103.5 24q75 0 121.5 -46.5z" />
    <glyph glyph-name="uni04D8" unicode="&#x4d8;" horiz-adv-x="740" 
d="M547 682q76 -47 118.5 -131.5t42.5 -191.5q0 -108 -44 -193.5t-122 -133t-176 -47.5q-96 0 -172 47t-118.5 126t-42.5 171q0 51 2 76h515q-11 95 -63.5 145.5t-124.5 50.5q-66 0 -109 -29.5t-51 -75.5h-159q12 70 59 122.5t118.5 81.5t154.5 29q96 0 172 -47z
M480.5 154.5q48.5 41.5 64.5 122.5h-358q0 -45 23.5 -82.5t64 -59.5t88.5 -22q69 0 117.5 41.5z" />
    <glyph glyph-name="uni04D9" unicode="&#x4d9;" horiz-adv-x="554" 
d="M462.5 453.5q66.5 -74.5 66.5 -198.5q0 -77 -32 -139t-90 -97t-133 -35q-76 0 -132 34t-86.5 95t-30.5 139q0 17 3 41h359q-6 62 -36.5 95.5t-76.5 33.5q-43 0 -70 -17.5t-35 -47.5h-138q16 83 83 127t163 44q119 0 185.5 -74.5zM346 118.5q28 28.5 38 82.5h-219
q0 -49 28.5 -80t81.5 -31q43 0 71 28.5z" />
    <glyph glyph-name="uni04E2" unicode="&#x4e2;" horiz-adv-x="748" 
d="M218 0h-154v715h154v-482h2l310 482h154v-715h-154v482h-2zM510 787h-278v92h278v-92z" />
    <glyph glyph-name="uni04E3" unicode="&#x4e3;" horiz-adv-x="601" 
d="M185 0h-137v510h137v-327l230 327h138v-510h-138v327zM445 582h-278v92h278v-92z" />
    <glyph glyph-name="uni04E8" unicode="&#x4e8;" horiz-adv-x="770" 
d="M573 682.5q80 -47.5 122.5 -132t42.5 -192.5t-42.5 -193t-122.5 -132.5t-188 -47.5q-109 0 -188.5 47.5t-122 132.5t-42.5 193t42.5 192.5t122 132t188.5 47.5q108 0 188 -47.5zM250 551q-46 -52 -56 -139h383q-11 87 -57.5 139t-134.5 52q-89 0 -135 -52zM519.5 164
q46.5 52 57.5 140h-383q10 -88 56 -140t135 -52q88 0 134.5 52z" />
    <glyph glyph-name="uni04E9" unicode="&#x4e9;" horiz-adv-x="582" 
d="M433.5 494q60.5 -34 92.5 -95.5t32 -141.5t-32.5 -142t-93 -96.5t-142.5 -34.5q-81 0 -141.5 34t-92.5 95.5t-32 141.5t32.5 142t93 96.5t142.5 34.5q81 0 141.5 -34zM207 390q-32 -32 -40 -89h248q-8 57 -40 89t-84 32t-84 -32zM374.5 120.5q31.5 31.5 40.5 89.5h-248
q9 -58 40.5 -89.5t83.5 -31.5t83.5 31.5z" />
    <glyph glyph-name="uni04EE" unicode="&#x4ee;" horiz-adv-x="647" 
d="M283 0h-151l107 212l-230 503h156l154 -341h2l168 341h149zM464 787h-278v92h278v-92z" />
    <glyph glyph-name="uni04EF" unicode="&#x4ef;" horiz-adv-x="533" 
d="M58 -169v107q26 -3 46 -3q33 0 58.5 14.5t36.5 56.5l-204 505h143l131 -356h2l121 356h138l-193 -516q-35 -93 -78.5 -133t-116.5 -40q-38 0 -84 9zM402 583h-278v92h278v-92z" />
    <glyph glyph-name="uni139A" unicode="&#x139a;" horiz-adv-x="652" 
 />
    <glyph glyph-name="Wgrave" unicode="&#x1e80;" horiz-adv-x="945" 
d="M348 0h-157l-181 715h156l105 -514h2l125 514h150l125 -514h2l104 514h156l-181 -715h-157l-123 494h-2zM523 783h-105l-89 147h141z" />
    <glyph glyph-name="wgrave" unicode="&#x1e81;" horiz-adv-x="778" 
d="M285 0h-132l-148 511h140l88 -342h2l93 342h125l94 -342h2l89 342h136l-149 -511h-132l-103 350h-2zM439 579h-105l-89 147h141z" />
    <glyph glyph-name="Wacute" unicode="&#x1e82;" horiz-adv-x="945" 
d="M348 0h-157l-181 715h156l105 -514h2l125 514h150l125 -514h2l104 514h156l-181 -715h-157l-123 494h-2zM521 782h-104l55 147h156z" />
    <glyph glyph-name="wacute" unicode="&#x1e83;" horiz-adv-x="778" 
d="M285 0h-132l-148 511h140l88 -342h2l93 342h125l94 -342h2l89 342h136l-149 -511h-132l-103 350h-2zM438 578h-104l55 147h156z" />
    <glyph glyph-name="Wdieresis" unicode="&#x1e84;" horiz-adv-x="945" 
d="M348 0h-157l-181 715h156l105 -514h2l125 514h150l125 -514h2l104 514h156l-181 -715h-157l-123 494h-2zM447 787h-142v129h142v-129zM640 787h-142v129h142v-129z" />
    <glyph glyph-name="wdieresis" unicode="&#x1e85;" horiz-adv-x="778" 
d="M285 0h-132l-148 511h140l88 -342h2l93 342h125l94 -342h2l89 342h136l-149 -511h-132l-103 350h-2zM364 583h-142v129h142v-129zM557 583h-142v129h142v-129z" />
    <glyph glyph-name="Ygrave" unicode="&#x1ef2;" horiz-adv-x="656" 
d="M405 0h-154v272l-248 443h166l158 -318h2l160 318h163l-247 -443v-272zM379 783h-105l-89 147h141z" />
    <glyph glyph-name="ygrave" unicode="&#x1ef3;" horiz-adv-x="533" 
d="M58 -169v107q26 -3 46 -3q33 0 58.5 14.5t36.5 56.5l-204 505h143l131 -356h2l121 356h138l-193 -516q-35 -93 -78.5 -133t-116.5 -40q-38 0 -84 9zM313 579h-105l-89 147h141z" />
    <glyph glyph-name="uni2000" unicode="&#x2000;" horiz-adv-x="500" 
 />
    <glyph glyph-name="uni2001" unicode="&#x2001;" horiz-adv-x="1000" 
 />
    <glyph glyph-name="uni2002" unicode="&#x2002;" horiz-adv-x="500" 
 />
    <glyph glyph-name="uni2003" unicode="&#x2003;" horiz-adv-x="1000" 
 />
    <glyph glyph-name="uni2004" unicode="&#x2004;" horiz-adv-x="333" 
 />
    <glyph glyph-name="uni2005" unicode="&#x2005;" horiz-adv-x="250" 
 />
    <glyph glyph-name="uni2006" unicode="&#x2006;" horiz-adv-x="167" 
 />
    <glyph glyph-name="uni2007" unicode="&#x2007;" horiz-adv-x="771" 
 />
    <glyph glyph-name="uni2008" unicode="&#x2008;" horiz-adv-x="217" 
 />
    <glyph glyph-name="uni2009" unicode="&#x2009;" horiz-adv-x="125" 
 />
    <glyph glyph-name="uni200A" unicode="&#x200a;" horiz-adv-x="42" 
 />
    <glyph glyph-name="uni200B" unicode="&#x200b;" 
 />
    <glyph glyph-name="endash" unicode="&#x2013;" horiz-adv-x="581" 
d="M541 193h-500v121h500v-121z" />
    <glyph glyph-name="emdash" unicode="&#x2014;" horiz-adv-x="1081" 
d="M1040 193h-1000v120h1000v-120z" />
    <glyph glyph-name="quoteleft" unicode="&#x2018;" horiz-adv-x="216" 
d="M173 651q-32 -7 -48.5 -28t-15.5 -64h64v-136h-136v136q0 62 34.5 103t101.5 53v-64z" />
    <glyph glyph-name="quoteright" unicode="&#x2019;" horiz-adv-x="209" 
d="M43 488q32 6 48 27.5t16 63.5h-64v136h136v-136q0 -62 -34.5 -102.5t-101.5 -53.5v65z" />
    <glyph glyph-name="quotesinglbase" unicode="&#x201a;" horiz-adv-x="221" 
d="M43 -91q32 6 48 27.5t16 63.5h-64v136h136v-136q0 -62 -34.5 -102.5t-101.5 -53.5v65z" />
    <glyph glyph-name="quotedblleft" unicode="&#x201c;" horiz-adv-x="401" 
d="M37 562q0 61 34.5 102t101.5 53v-64q-32 -7 -48.5 -28t-15.5 -63h64v-136h-136v136zM358 653q-32 -7 -48.5 -28t-15.5 -63h64v-136h-136v136q0 61 34.5 102t101.5 53v-64z" />
    <glyph glyph-name="quotedblright" unicode="&#x201d;" horiz-adv-x="394" 
d="M43 488q32 6 48 27.5t16 63.5h-64v136h136v-136q0 -62 -34.5 -102.5t-101.5 -53.5v65zM228 488q32 6 48 27.5t16 63.5h-64v136h136v-136q0 -62 -34.5 -102.5t-101.5 -53.5v65z" />
    <glyph glyph-name="quotedblbase" unicode="&#x201e;" horiz-adv-x="407" 
d="M228 -91q32 6 48 27.5t16 63.5h-64v136h136v-136q0 -62 -34.5 -102.5t-101.5 -53.5v65zM43 -91q32 6 48 27.5t16 63.5h-64v136h136v-136q0 -62 -34.5 -102.5t-101.5 -53.5v65z" />
    <glyph glyph-name="dagger" unicode="&#x2020;" horiz-adv-x="528" 
d="M338 -177h-148v568h-175v121h175v203h148v-203h175v-121h-175v-568z" />
    <glyph glyph-name="daggerdbl" unicode="&#x2021;" horiz-adv-x="569" 
d="M358 -177h-147v248h-175v121h175v199h-175v121h175v203h147v-203h175v-121h-175v-199h175v-121h-175v-248z" />
    <glyph glyph-name="bullet" unicode="&#x2022;" horiz-adv-x="405" 
d="M334 166h-263v262h263v-262z" />
    <glyph glyph-name="ellipsis" unicode="&#x2026;" horiz-adv-x="632" 
d="M177 0h-136v136h136v-136zM384 0h-136v136h136v-136zM592 0h-136v136h136v-136z" />
    <glyph glyph-name="perthousand" unicode="&#x2030;" horiz-adv-x="1282" 
d="M70 361.5q-51 54.5 -51 144.5q0 91 51 145.5t140 54.5q88 0 138.5 -54.5t50.5 -145.5q0 -90 -50 -144.5t-139 -54.5t-140 54.5zM298 0h-99l383 691h99zM271 506q0 55 -15 82.5t-46 27.5q-33 0 -48 -27.5t-15 -82.5t15 -82t48 -27q61 0 61 109zM531.5 39.5
q-50.5 54.5 -50.5 145.5q0 90 50.5 144.5t139.5 54.5q88 0 139 -54.5t51 -144.5q0 -91 -50.5 -145.5t-139.5 -54.5t-139.5 54.5zM933.5 39.5q-50.5 54.5 -50.5 145.5q0 90 50.5 144.5t139.5 54.5q88 0 139 -54.5t51 -144.5q0 -91 -50.5 -145.5t-139.5 -54.5t-139.5 54.5z
M718 102.5q15 27.5 15 82.5t-15 82t-47 27t-47 -27t-15 -82t15 -82.5t47 -27.5t47 27.5zM1120 102.5q15 27.5 15 82.5t-15 82t-47 27t-47 -27t-15 -82t15 -82.5t47 -27.5t47 27.5z" />
    <glyph glyph-name="guilsinglleft" unicode="&#x2039;" horiz-adv-x="286" 
d="M239 170v-138l-199 156v140l199 156v-137l-123 -88v-2z" />
    <glyph glyph-name="guilsinglright" unicode="&#x203a;" horiz-adv-x="286" 
d="M246 188l-199 -156v137l123 88v2l-123 87v138l199 -157v-139z" />
    <glyph glyph-name="fraction" unicode="&#x2044;" horiz-adv-x="229" 
d="M-51 0h-127l453 715h127z" />
    <glyph glyph-name="uni2070" unicode="&#x2070;" horiz-adv-x="414" 
d="M71.5 420.5q-47.5 60.5 -47.5 151.5q0 58 20.5 106.5t62 77.5t101.5 29q89 0 135.5 -60.5t46.5 -152.5t-46.5 -152t-135.5 -60t-136.5 60.5zM263 479q15 31 15 93t-15 93.5t-55 31.5t-55.5 -31t-15.5 -94q0 -62 15.5 -93t55.5 -31t55 31z" />
    <glyph glyph-name="uni2074" unicode="&#x2074;" horiz-adv-x="395" 
d="M314 364h-109v84h-182v107l182 215h109v-235h59v-87h-59v-84zM205 654l-103 -119h103v119z" />
    <glyph glyph-name="uni2075" unicode="&#x2075;" horiz-adv-x="384" 
d="M66.5 391q-46.5 37 -48.5 101h111q3 -22 19 -36.5t44 -14.5q27 0 41.5 16.5t14.5 46.5q0 29 -14.5 45.5t-44.5 16.5q-34 0 -57 -26h-102l47 230h264v-87h-189l-14 -68v-1q37 27 85 27q62 0 99 -37t37 -101q0 -72 -45 -110.5t-116 -38.5q-85 0 -131.5 37z" />
    <glyph glyph-name="uni2076" unicode="&#x2076;" horiz-adv-x="392" 
d="M66 416.5q-41 58.5 -41 148.5q0 105 48 162.5t127 57.5q63 0 104 -32t51 -82h-106q-14 34 -51 34q-68 0 -73 -85v-10l3 -1q12 15 38.5 26t58.5 11q65 0 104.5 -39t39.5 -101q0 -66 -46 -107t-122 -41q-94 0 -135 58.5zM247 457.5q17 17.5 17 45.5t-16.5 45.5t-46.5 17.5
t-47.5 -18t-17.5 -45q0 -28 17 -45.5t46 -17.5q31 0 48 17.5z" />
    <glyph glyph-name="uni2077" unicode="&#x2077;" horiz-adv-x="328" 
d="M74 364q0 95 36 184t87 134v1h-186v87h301v-80q-62 -51 -92.5 -138t-30.5 -188h-115z" />
    <glyph glyph-name="uni2078" unicode="&#x2078;" horiz-adv-x="389" 
d="M71 392q-48 33 -48 93q0 37 21 62t55 40v1q-58 33 -58 87q0 51 44 81t109 30q67 0 110.5 -30t43.5 -81q0 -55 -58 -87v-1q77 -35 77 -102q0 -60 -49 -93t-124 -33t-123 33zM236 630.5q14 13.5 14 34.5q0 19 -14.5 32.5t-41.5 13.5t-41.5 -13.5t-14.5 -32.5
q0 -21 14 -34.5t42 -13.5t42 13.5zM239 456.5q16 16.5 16 39.5t-16 39t-45 16t-44.5 -16t-15.5 -39t15.5 -39.5t44.5 -16.5t45 16.5z" />
    <glyph glyph-name="uni2079" unicode="&#x2079;" horiz-adv-x="393" 
d="M88 391q-43 32 -54 82h111q13 -33 49 -33q32 0 49 22t17 60v6h-1q-13 -13 -38 -22.5t-55 -9.5q-64 0 -103.5 39.5t-39.5 102.5q0 66 46 107t122 41q95 0 136 -60.5t41 -153.5q0 -102 -48.5 -157.5t-127.5 -55.5q-61 0 -104 32zM240.5 595.5q16.5 18.5 16.5 45.5
q0 28 -17.5 45.5t-47.5 17.5t-47 -18t-17 -46q0 -27 17.5 -45t47.5 -18q31 0 47.5 18.5z" />
    <glyph glyph-name="uni2080" unicode="&#x2080;" horiz-adv-x="414" 
d="M71.5 -48.5q-47.5 60.5 -47.5 151.5q0 58 20.5 106.5t62 77.5t101.5 29q89 0 135.5 -60.5t46.5 -152.5t-46.5 -152t-135.5 -60t-136.5 60.5zM263 10q15 31 15 93t-15 93.5t-55 31.5t-55.5 -31t-15.5 -94q0 -62 15.5 -93t55.5 -31t55 31z" />
    <glyph glyph-name="uni2081" unicode="&#x2081;" horiz-adv-x="255" 
d="M99 163q-19 -11 -86 -11v84q47 0 76.5 18.5t29.5 51.5h94v-406h-114v263z" />
    <glyph glyph-name="uni2082" unicode="&#x2082;" horiz-adv-x="368" 
d="M20 -100q0 40 9 64.5t29.5 45.5t66.5 55q16 12 24 17q39 28 59 50.5t20 51.5q0 21 -11 33t-32 12q-27 0 -41 -17t-14 -57h-105q0 76 41 119t123 43q68 0 108.5 -33t40.5 -92q0 -52 -27.5 -86.5t-76.5 -72.5q-15 -11 -28.5 -22.5t-20.5 -21.5v-1h154v-88h-319z" />
    <glyph glyph-name="uni2083" unicode="&#x2083;" horiz-adv-x="380" 
d="M63.5 -69.5q-45.5 40.5 -45.5 114.5h106q0 -35 14.5 -51.5t50.5 -16.5q55 0 55 46q0 25 -17 36.5t-53 11.5h-18v74h16q60 0 60 44q0 19 -12 29.5t-32 10.5q-25 0 -39 -12t-14 -36h-105q0 60 44 98t119 38q64 0 107.5 -30.5t43.5 -82.5q0 -56 -58 -89v-1q70 -23 70 -97
q0 -61 -44 -94t-118 -33q-85 0 -130.5 40.5z" />
    <glyph glyph-name="uni2084" unicode="&#x2084;" horiz-adv-x="395" 
d="M314 -100h-109v84h-182v107l182 215h109v-235h59v-87h-59v-84zM205 190l-103 -119h103v119z" />
    <glyph glyph-name="uni2085" unicode="&#x2085;" horiz-adv-x="384" 
d="M66.5 -73q-46.5 37 -48.5 101h111q3 -22 19 -36.5t44 -14.5q27 0 41.5 16.5t14.5 46.5q0 29 -14.5 45.5t-44.5 16.5q-34 0 -57 -26h-102l47 230h264v-87h-189l-14 -68v-1q37 27 85 27q62 0 99 -37t37 -101q0 -72 -45 -110.5t-116 -38.5q-85 0 -131.5 37z" />
    <glyph glyph-name="uni2086" unicode="&#x2086;" horiz-adv-x="392" 
d="M66 -51.5q-41 58.5 -41 148.5q0 105 48 162.5t127 57.5q63 0 104 -32t51 -82h-106q-14 34 -51 34q-68 0 -73 -85v-10l3 -1q12 15 38.5 26t58.5 11q65 0 104.5 -39t39.5 -101q0 -66 -46 -107t-122 -41q-94 0 -135 58.5zM247 -10.5q17 17.5 17 45.5t-16.5 45.5t-46.5 17.5
t-47.5 -18t-17.5 -45q0 -28 17 -45.5t46 -17.5q31 0 48 17.5z" />
    <glyph glyph-name="uni2087" unicode="&#x2087;" horiz-adv-x="328" 
d="M74 -100q0 95 36 184t87 134v1h-186v87h301v-80q-62 -51 -92.5 -138t-30.5 -188h-115z" />
    <glyph glyph-name="uni2088" unicode="&#x2088;" horiz-adv-x="389" 
d="M71 -77q-48 33 -48 93q0 37 21 62t55 40v1q-58 33 -58 87q0 51 44 81t109 30q67 0 110.5 -30t43.5 -81q0 -55 -58 -87v-1q77 -35 77 -102q0 -60 -49 -93t-124 -33t-123 33zM236 161.5q14 13.5 14 34.5q0 19 -14.5 32.5t-41.5 13.5t-41.5 -13.5t-14.5 -32.5
q0 -21 14 -34.5t42 -13.5t42 13.5zM239 -12.5q16 16.5 16 39.5t-16 39t-45 16t-44.5 -16t-15.5 -39t15.5 -39.5t44.5 -16.5t45 16.5z" />
    <glyph glyph-name="uni2089" unicode="&#x2089;" horiz-adv-x="393" 
d="M88 -78q-43 32 -54 82h111q13 -33 49 -33q32 0 49 22t17 60v6h-1q-13 -13 -38 -22.5t-55 -9.5q-64 0 -103.5 39.5t-39.5 102.5q0 66 46 107t122 41q95 0 136 -60.5t41 -153.5q0 -102 -48.5 -157.5t-127.5 -55.5q-61 0 -104 32zM240.5 126.5q16.5 18.5 16.5 45.5
q0 28 -17.5 45.5t-47.5 17.5t-47 -18t-17 -46q0 -27 17.5 -45t47.5 -18q31 0 47.5 18.5z" />
    <glyph glyph-name="Euro" unicode="&#x20ac;" horiz-adv-x="688" 
d="M473.5 144q28.5 39 32.5 108h147q-7 -124 -73.5 -195.5t-193.5 -71.5q-125 0 -196 70.5t-90 191.5h-56v65h50q-1 10 -1 31v20h-49v65h55q17 125 88 198.5t199 73.5q125 0 192 -70.5t75 -188.5h-147q-7 64 -34.5 101.5t-88.5 37.5q-114 0 -137 -152h170v-65h-175v-20
q0 -21 1 -31h174v-65h-168q25 -142 135 -142q62 0 90.5 39z" />
    <glyph glyph-name="trademark" unicode="&#x2122;" horiz-adv-x="689" 
d="M186 438h-89v199h-77v78h244v-78h-78v-199zM381 438h-81v277h115l52 -169h2l53 169h115v-277h-82v180h-2l-54 -180h-63l-53 180h-2v-180z" />
    <glyph glyph-name="uni2126" unicode="&#x2126;" horiz-adv-x="798" 
d="M35 0v127h153q-66 42 -102.5 111t-36.5 160q0 97 43 172t122 117t185 42t185 -42t122 -117t43 -172q0 -91 -36.5 -159.5t-102.5 -111.5h153v-127h-308v116q67 40 105 102t38 157q0 110 -52.5 169t-146.5 59t-146.5 -59t-52.5 -169q0 -95 38 -157t105 -102v-116h-308z" />
    <glyph glyph-name="oneeighth" unicode="&#x215b;" horiz-adv-x="833" 
d="M101 572q-19 -11 -86 -11v84q47 0 76.5 18.5t29.5 51.5h94v-406h-114v263zM215 0h-127l453 715h127zM518 23q-48 33 -48 93q0 37 21 62t55 40v1q-58 33 -58 87q0 51 44 81t109 30q67 0 110.5 -30t43.5 -81q0 -55 -58 -87v-1q77 -35 77 -102q0 -60 -49 -93t-124 -33
t-123 33zM683 261.5q14 13.5 14 34.5q0 19 -14.5 32.5t-41.5 13.5t-41.5 -13.5t-14.5 -32.5q0 -21 14 -34.5t42 -13.5t42 13.5zM686 87.5q16 16.5 16 39.5t-16 39t-45 16t-44.5 -16t-15.5 -39t15.5 -39.5t44.5 -16.5t45 16.5z" />
    <glyph glyph-name="threeeighths" unicode="&#x215c;" horiz-adv-x="968" 
d="M72.5 339.5q-45.5 40.5 -45.5 114.5h106q0 -35 14.5 -51.5t50.5 -16.5q55 0 55 46q0 25 -17 36.5t-53 11.5h-18v74h16q60 0 60 44q0 19 -12 29.5t-32 10.5q-25 0 -39 -12t-14 -36h-105q0 60 44 98t119 38q64 0 107.5 -30.5t43.5 -82.5q0 -56 -58 -89v-1q70 -23 70 -97
q0 -61 -44 -94t-118 -33q-85 0 -130.5 40.5zM331 0h-127l453 715h127zM648 23q-48 33 -48 93q0 37 21 62t55 40v1q-58 33 -58 87q0 51 44 81t109 30q67 0 110.5 -30t43.5 -81q0 -55 -58 -87v-1q77 -35 77 -102q0 -60 -49 -93t-124 -33t-123 33zM813 261.5q14 13.5 14 34.5
q0 19 -14.5 32.5t-41.5 13.5t-41.5 -13.5t-14.5 -32.5q0 -21 14 -34.5t42 -13.5t42 13.5zM816 87.5q16 16.5 16 39.5t-16 39t-45 16t-44.5 -16t-15.5 -39t15.5 -39.5t44.5 -16.5t45 16.5z" />
    <glyph glyph-name="fiveeighths" unicode="&#x215d;" horiz-adv-x="958" 
d="M69.5 336q-46.5 37 -48.5 101h111q3 -22 19 -36.5t44 -14.5q27 0 41.5 16.5t14.5 46.5q0 29 -14.5 45.5t-44.5 16.5q-34 0 -57 -26h-102l47 230h264v-87h-189l-14 -68v-1q37 27 85 27q62 0 99 -37t37 -101q0 -72 -45 -110.5t-116 -38.5q-85 0 -131.5 37zM323 0h-127
l453 715h127zM640 23q-48 33 -48 93q0 37 21 62t55 40v1q-58 33 -58 87q0 51 44 81t109 30q67 0 110.5 -30t43.5 -81q0 -55 -58 -87v-1q77 -35 77 -102q0 -60 -49 -93t-124 -33t-123 33zM805 261.5q14 13.5 14 34.5q0 19 -14.5 32.5t-41.5 13.5t-41.5 -13.5t-14.5 -32.5
q0 -21 14 -34.5t42 -13.5t42 13.5zM808 87.5q16 16.5 16 39.5t-16 39t-45 16t-44.5 -16t-15.5 -39t15.5 -39.5t44.5 -16.5t45 16.5z" />
    <glyph glyph-name="seveneighths" unicode="&#x215e;" horiz-adv-x="865" 
d="M77 309q0 95 36 184t87 134v1h-186v87h301v-80q-62 -51 -92.5 -138t-30.5 -188h-115zM228 0h-127l453 715h127zM550 23q-48 33 -48 93q0 37 21 62t55 40v1q-58 33 -58 87q0 51 44 81t109 30q67 0 110.5 -30t43.5 -81q0 -55 -58 -87v-1q77 -35 77 -102q0 -60 -49 -93
t-124 -33t-123 33zM715 261.5q14 13.5 14 34.5q0 19 -14.5 32.5t-41.5 13.5t-41.5 -13.5t-14.5 -32.5q0 -21 14 -34.5t42 -13.5t42 13.5zM718 87.5q16 16.5 16 39.5t-16 39t-45 16t-44.5 -16t-15.5 -39t15.5 -39.5t44.5 -16.5t45 16.5z" />
    <glyph glyph-name="arrowleft" unicode="&#x2190;" horiz-adv-x="774" 
d="M386 92l-71 -71l-276 299l276 298l71 -70l-165 -175h509v-106h-509z" />
    <glyph glyph-name="arrowup" unicode="&#x2191;" horiz-adv-x="641" 
d="M374 0h-106v508l-175 -164l-71 71l299 276l298 -276l-70 -71l-175 164v-508z" />
    <glyph glyph-name="arrowright" unicode="&#x2192;" horiz-adv-x="774" 
d="M735 320l-276 -299l-70 71l164 175h-509v106h509l-164 175l70 70z" />
    <glyph glyph-name="arrowdown" unicode="&#x2193;" horiz-adv-x="642" 
d="M620 236l-299 -276l-299 276l71 71l175 -164v508h106v-508l175 164z" />
    <glyph glyph-name="arrowboth" unicode="&#x2194;" horiz-adv-x="1151" 
d="M382 92l-70 -72l-277 299l277 299l70 -70l-164 -175h715l-164 175l70 70l276 -298l-275 -299l-71 71l164 175h-715z" />
    <glyph glyph-name="arrowupdn" unicode="&#x2195;" horiz-adv-x="640" 
d="M619 99l-299 -276l-299 276l71 71l175 -164v597l-175 -164l-71 71l299 276l299 -276l-71 -71l-175 164v-597l175 164z" />
    <glyph glyph-name="uni2196" unicode="&#x2196;" horiz-adv-x="604" 
d="M579 145l-75 -75l-356 359v-238l-96 -1v407h407l-1 -93h-243z" />
    <glyph glyph-name="uni2197" unicode="&#x2197;" horiz-adv-x="604" 
d="M456 429l-356 -359l-75 75l363 359h-242l-1 93h407v-407l-96 1v238z" />
    <glyph glyph-name="uni2198" unicode="&#x2198;" horiz-adv-x="604" 
d="M551 47h-407l1 93h243l-364 359l75 75l356 -359v238l96 1v-407z" />
    <glyph glyph-name="uni2199" unicode="&#x2199;" horiz-adv-x="604" 
d="M460 47h-407v407l96 -1v-238l356 359l75 -75l-364 -359h243z" />
    <glyph glyph-name="partialdiff" unicode="&#x2202;" horiz-adv-x="566" 
d="M130 13q-53 28 -82.5 80.5t-29.5 123.5q0 66 29.5 124.5t81 94t113.5 35.5q54 0 89 -17.5t57 -51.5q-39 182 -236 195v118q129 -5 214.5 -58.5t126 -141.5t40.5 -199q0 -87 -28.5 -162t-91 -122t-159.5 -47q-71 0 -124 28zM354.5 137q33.5 42 33.5 104q0 51 -27 85
t-78 34q-59 0 -93.5 -42t-34.5 -103q0 -53 28 -86.5t78 -33.5q60 0 93.5 42z" />
    <glyph glyph-name="emptyset" unicode="&#x2205;" horiz-adv-x="825" 
d="M696 583q41 -48 63 -108t22 -130q0 -105 -48.5 -187t-132.5 -127.5t-187 -45.5q-68 0 -128.5 20t-108.5 58l-65 -65l-46 46l64 64q-41 47 -63 107.5t-22 129.5q0 105 49 187t133.5 128t186.5 46q67 0 127.5 -20t108.5 -58l65 65l46 -46zM175 154l427 427q-81 61 -189 61
q-84 0 -154 -37.5t-110.5 -105.5t-40.5 -154q0 -111 67 -191zM566.5 86.5q69.5 37.5 110 105t40.5 153.5q0 56 -17.5 105t-49.5 87l-427 -427q39 -30 87.5 -45.5t102.5 -15.5q84 0 153.5 37.5z" />
    <glyph glyph-name="uni2206" unicode="&#x2206;" horiz-adv-x="671" 
d="M250 715h170l230 -588v-127h-629v127zM339 573h-8l-165 -449h337z" />
    <glyph glyph-name="product" unicode="&#x220f;" horiz-adv-x="726" 
d="M211 -100h-147v815h598v-815h-147v694h-304v-694z" />
    <glyph glyph-name="summation" unicode="&#x2211;" horiz-adv-x="603" 
d="M577 -100h-547v124l259 291v2l-259 275v123h537v-121h-365v-2l231 -241v-64l-238 -264v-2h382v-121z" />
    <glyph glyph-name="minus" unicode="&#x2212;" horiz-adv-x="568" 
d="M522 267h-477v122h477v-122z" />
    <glyph glyph-name="uni2219" unicode="&#x2219;" horiz-adv-x="328" 
d="M233 278h-136v136h136v-136z" />
    <glyph glyph-name="radical" unicode="&#x221a;" horiz-adv-x="665" 
d="M378 -100h-137l-125 329h-76v121h171l98 -274h2l191 639h147z" />
    <glyph glyph-name="infinity" unicode="&#x221e;" horiz-adv-x="755" 
d="M124.5 142.5q-37.5 20.5 -60 62t-22.5 100.5q0 60 22.5 101t60 61t80.5 20q96 0 172 -91h2q76 91 171 91q43 0 80.5 -20t60 -61t22.5 -101q0 -59 -22.5 -100.5t-60 -62t-80.5 -20.5q-52 0 -92 28.5t-79 74.5h-2q-39 -46 -79.5 -74.5t-92.5 -28.5q-43 0 -80.5 20.5z
M272 244.5q24 20.5 55 60.5q-31 40 -55 60.5t-57 20.5q-35 0 -53 -22.5t-18 -58.5t18 -58.5t53 -22.5q33 0 57 20.5zM593 246.5q18 22.5 18 58.5t-18 58.5t-53 22.5q-33 0 -57 -20.5t-55 -60.5q31 -40 55 -60.5t57 -20.5q35 0 53 22.5z" />
    <glyph glyph-name="integral" unicode="&#x222b;" horiz-adv-x="393" 
d="M13 -166v108q18 -5 38 -5q37 0 54.5 23t17.5 71v535q0 86 37 130t118 44q59 0 101 -10v-108q-16 5 -38 5q-71 0 -71 -94v-535q0 -85 -37 -129.5t-118 -44.5q-60 0 -102 10z" />
    <glyph glyph-name="approxequal" unicode="&#x2248;" horiz-adv-x="576" 
d="M50 327q0 158 117 158q24 0 53 -6t75 -17q74 -19 100 -19q25 0 35 12t10 33h91q0 -158 -117 -158q-25 0 -53.5 5.5t-74.5 17.5q-74 19 -100 19q-45 0 -45 -45h-91zM50 129q0 157 117 157q25 0 53.5 -6t74.5 -17q74 -19 100 -19q25 0 35 12t10 33h91q0 -158 -117 -158
q-40 0 -128 24q-74 19 -100 19q-45 0 -45 -45h-91z" />
    <glyph glyph-name="notequal" unicode="&#x2260;" horiz-adv-x="556" 
d="M511 485v-122h-171l-33 -70h204v-121h-261l-41 -87h-91l41 87h-112v121h169l33 70h-202v122h260l41 88h91l-41 -88h113z" />
    <glyph glyph-name="lessequal" unicode="&#x2264;" horiz-adv-x="495" 
d="M449 244v-121l-410 146v133l410 145v-120l-295 -91v-2zM449 0h-410v106h410v-106z" />
    <glyph glyph-name="greaterequal" unicode="&#x2265;" horiz-adv-x="495" 
d="M457 269l-411 -146v121l296 90v2l-296 91v120l411 -145v-133zM457 0h-411v106h411v-106z" />
    <glyph glyph-name="uni2266" unicode="&#x2266;" horiz-adv-x="559" 
d="M505 694v-115l-325 -103v-2l325 -102v-215h-457v106h440l-440 151v124zM505 0h-457v106h457v-106z" />
    <glyph glyph-name="uni2267" unicode="&#x2267;" horiz-adv-x="559" 
d="M54 694l458 -156v-124l-440 -151h440v-106h-458v215l326 102v2l-326 103v115zM512 0h-458v106h458v-106z" />
    <glyph glyph-name="uni2460" unicode="&#x2460;" horiz-adv-x="836" 
d="M219.5 30q-84.5 45 -130 129.5t-45.5 197.5q0 114 45.5 198t130 129.5t198.5 45.5t198.5 -45.5t130 -129.5t45.5 -198t-45.5 -198t-130 -129t-198.5 -45t-198.5 45zM563.5 106.5q61.5 34.5 94.5 99t33 151.5q0 133 -73 209.5t-200 76.5t-200 -76.5t-73 -209.5
q0 -87 33 -151.5t94.5 -99t145.5 -34.5t145.5 34.5zM374 419q-19 -11 -86 -11v84q47 0 76.5 18.5t29.5 51.5h94v-406h-114v263z" />
    <glyph glyph-name="uni2461" unicode="&#x2461;" horiz-adv-x="836" 
d="M219.5 30q-84.5 45 -130 129.5t-45.5 197.5q0 114 45.5 198t130 129.5t198.5 45.5t198.5 -45.5t130 -129.5t45.5 -198t-45.5 -198t-130 -129t-198.5 -45t-198.5 45zM563.5 106.5q61.5 34.5 94.5 99t33 151.5q0 133 -73 209.5t-200 76.5t-200 -76.5t-73 -209.5
q0 -87 33 -151.5t94.5 -99t145.5 -34.5t145.5 34.5zM258 156q0 40 9 64.5t29.5 45.5t66.5 55q16 12 24 17q39 28 59 50.5t20 51.5q0 21 -11 33t-32 12q-27 0 -41 -17t-14 -57h-105q0 76 41 119t123 43q68 0 108.5 -33t40.5 -92q0 -52 -27.5 -86.5t-76.5 -72.5
q-15 -11 -28.5 -22.5t-20.5 -21.5v-1h154v-88h-319z" />
    <glyph glyph-name="uni2462" unicode="&#x2462;" horiz-adv-x="836" 
d="M219.5 30q-84.5 45 -130 129.5t-45.5 197.5q0 114 45.5 198t130 129.5t198.5 45.5t198.5 -45.5t130 -129.5t45.5 -198t-45.5 -198t-130 -129t-198.5 -45t-198.5 45zM563.5 106.5q61.5 34.5 94.5 99t33 151.5q0 133 -73 209.5t-200 76.5t-200 -76.5t-73 -209.5
q0 -87 33 -151.5t94.5 -99t145.5 -34.5t145.5 34.5zM294.5 184.5q-45.5 40.5 -45.5 114.5h106q0 -35 14.5 -51.5t50.5 -16.5q55 0 55 46q0 25 -17 36.5t-53 11.5h-18v74h16q60 0 60 44q0 19 -12 29.5t-32 10.5q-25 0 -39 -12t-14 -36h-105q0 60 44 98t119 38
q64 0 107.5 -30.5t43.5 -82.5q0 -56 -58 -89v-1q70 -23 70 -97q0 -61 -44 -94t-118 -33q-85 0 -130.5 40.5z" />
    <glyph glyph-name="uni2463" unicode="&#x2463;" horiz-adv-x="836" 
d="M219.5 30q-84.5 45 -130 129.5t-45.5 197.5q0 114 45.5 198t130 129.5t198.5 45.5t198.5 -45.5t130 -129.5t45.5 -198t-45.5 -198t-130 -129t-198.5 -45t-198.5 45zM563.5 106.5q61.5 34.5 94.5 99t33 151.5q0 133 -73 209.5t-200 76.5t-200 -76.5t-73 -209.5
q0 -87 33 -151.5t94.5 -99t145.5 -34.5t145.5 34.5zM531 154h-109v84h-182v107l182 215h109v-235h59v-87h-59v-84zM422 444l-103 -119h103v119z" />
    <glyph glyph-name="uni2464" unicode="&#x2464;" horiz-adv-x="836" 
d="M219.5 30q-84.5 45 -130 129.5t-45.5 197.5q0 114 45.5 198t130 129.5t198.5 45.5t198.5 -45.5t130 -129.5t45.5 -198t-45.5 -198t-130 -129t-198.5 -45t-198.5 45zM563.5 106.5q61.5 34.5 94.5 99t33 151.5q0 133 -73 209.5t-200 76.5t-200 -76.5t-73 -209.5
q0 -87 33 -151.5t94.5 -99t145.5 -34.5t145.5 34.5zM296.5 181q-46.5 37 -48.5 101h111q3 -22 19 -36.5t44 -14.5q27 0 41.5 16.5t14.5 46.5q0 29 -14.5 45.5t-44.5 16.5q-34 0 -57 -26h-102l47 230h264v-87h-189l-14 -68v-1q37 27 85 27q62 0 99 -37t37 -101
q0 -72 -45 -110.5t-116 -38.5q-85 0 -131.5 37z" />
    <glyph glyph-name="uni2465" unicode="&#x2465;" horiz-adv-x="836" 
d="M219.5 30q-84.5 45 -130 129.5t-45.5 197.5q0 114 45.5 198t130 129.5t198.5 45.5t198.5 -45.5t130 -129.5t45.5 -198t-45.5 -198t-130 -129t-198.5 -45t-198.5 45zM563.5 106.5q61.5 34.5 94.5 99t33 151.5q0 133 -73 209.5t-200 76.5t-200 -76.5t-73 -209.5
q0 -87 33 -151.5t94.5 -99t145.5 -34.5t145.5 34.5zM287 202.5q-41 58.5 -41 148.5q0 105 48 162.5t127 57.5q63 0 104 -32t51 -82h-106q-14 34 -51 34q-68 0 -73 -85v-10l3 -1q12 15 38.5 26t58.5 11q65 0 104.5 -39t39.5 -101q0 -66 -46 -107t-122 -41q-94 0 -135 58.5z
M468 243.5q17 17.5 17 45.5t-16.5 45.5t-46.5 17.5t-47.5 -18t-17.5 -45q0 -28 17 -45.5t46 -17.5q31 0 48 17.5z" />
    <glyph glyph-name="uni2466" unicode="&#x2466;" horiz-adv-x="836" 
d="M219.5 30q-84.5 45 -130 129.5t-45.5 197.5q0 114 45.5 198t130 129.5t198.5 45.5t198.5 -45.5t130 -129.5t45.5 -198t-45.5 -198t-130 -129t-198.5 -45t-198.5 45zM563.5 106.5q61.5 34.5 94.5 99t33 151.5q0 133 -73 209.5t-200 76.5t-200 -76.5t-73 -209.5
q0 -87 33 -151.5t94.5 -99t145.5 -34.5t145.5 34.5zM331 143q0 95 36 184t87 134v1h-186v87h301v-80q-62 -51 -92.5 -138t-30.5 -188h-115z" />
    <glyph glyph-name="uni2467" unicode="&#x2467;" horiz-adv-x="836" 
d="M219.5 30q-84.5 45 -130 129.5t-45.5 197.5q0 114 45.5 198t130 129.5t198.5 45.5t198.5 -45.5t130 -129.5t45.5 -198t-45.5 -198t-130 -129t-198.5 -45t-198.5 45zM563.5 106.5q61.5 34.5 94.5 99t33 151.5q0 133 -73 209.5t-200 76.5t-200 -76.5t-73 -209.5
q0 -87 33 -151.5t94.5 -99t145.5 -34.5t145.5 34.5zM294 177q-48 33 -48 93q0 37 21 62t55 40v1q-58 33 -58 87q0 51 44 81t109 30q67 0 110.5 -30t43.5 -81q0 -55 -58 -87v-1q77 -35 77 -102q0 -60 -49 -93t-124 -33t-123 33zM459 415.5q14 13.5 14 34.5q0 19 -14.5 32.5
t-41.5 13.5t-41.5 -13.5t-14.5 -32.5q0 -21 14 -34.5t42 -13.5t42 13.5zM462 241.5q16 16.5 16 39.5t-16 39t-45 16t-44.5 -16t-15.5 -39t15.5 -39.5t44.5 -16.5t45 16.5z" />
    <glyph glyph-name="uni2468" unicode="&#x2468;" horiz-adv-x="836" 
d="M219.5 30q-84.5 45 -130 129.5t-45.5 197.5q0 114 45.5 198t130 129.5t198.5 45.5t198.5 -45.5t130 -129.5t45.5 -198t-45.5 -198t-130 -129t-198.5 -45t-198.5 45zM563.5 106.5q61.5 34.5 94.5 99t33 151.5q0 133 -73 209.5t-200 76.5t-200 -76.5t-73 -209.5
q0 -87 33 -151.5t94.5 -99t145.5 -34.5t145.5 34.5zM311 176q-43 32 -54 82h111q13 -33 49 -33q32 0 49 22t17 60v6h-1q-13 -13 -38 -22.5t-55 -9.5q-64 0 -103.5 39.5t-39.5 102.5q0 66 46 107t122 41q95 0 136 -60.5t41 -153.5q0 -102 -48.5 -157.5t-127.5 -55.5
q-61 0 -104 32zM463.5 380.5q16.5 18.5 16.5 45.5q0 28 -17.5 45.5t-47.5 17.5t-47 -18t-17 -46q0 -27 17.5 -45t47.5 -18q31 0 47.5 18.5z" />
    <glyph glyph-name="uni24EA" unicode="&#x24ea;" horiz-adv-x="836" 
d="M219.5 30q-84.5 45 -130 129.5t-45.5 197.5q0 114 45.5 198t130 129.5t198.5 45.5t198.5 -45.5t130 -129.5t45.5 -198t-45.5 -198t-130 -129t-198.5 -45t-198.5 45zM563.5 106.5q61.5 34.5 94.5 99t33 151.5q0 133 -73 209.5t-200 76.5t-200 -76.5t-73 -209.5
q0 -87 33 -151.5t94.5 -99t145.5 -34.5t145.5 34.5zM282.5 205.5q-47.5 60.5 -47.5 151.5q0 58 20.5 106.5t62 77.5t101.5 29q89 0 135.5 -60.5t46.5 -152.5t-46.5 -152t-135.5 -60t-136.5 60.5zM474 264q15 31 15 93t-15 93.5t-55 31.5t-55.5 -31t-15.5 -94q0 -62 15.5 -93
t55.5 -31t55 31z" />
    <glyph glyph-name="upblock" unicode="&#x2580;" horiz-adv-x="823" 
d="M769 357h-715v358h715v-358z" />
    <glyph glyph-name="dnblock" unicode="&#x2584;" horiz-adv-x="825" 
d="M770 0h-715v358h715v-358z" />
    <glyph glyph-name="block" unicode="&#x2588;" horiz-adv-x="843" 
d="M779 0h-715v715h715v-715z" />
    <glyph glyph-name="filledbox" unicode="&#x25a0;" horiz-adv-x="843" 
d="M779 0h-715v715h715v-715z" />
    <glyph glyph-name="uni25A1" unicode="&#x25a1;" horiz-adv-x="843" 
d="M779 0h-715v715h715v-715zM173 606v-497h497v497h-497z" />
    <glyph glyph-name="uni25AA" unicode="&#x25aa;" horiz-adv-x="365" 
d="M314 189h-263v262h263v-262z" />
    <glyph glyph-name="uni25AB" unicode="&#x25ab;" horiz-adv-x="405" 
d="M354 169h-303v302h303v-302zM160 363v-86h86v86h-86z" />
    <glyph glyph-name="triagup" unicode="&#x25b2;" horiz-adv-x="825" 
d="M812 0h-800l400 715z" />
    <glyph glyph-name="triagrt" unicode="&#x25ba;" horiz-adv-x="821" 
d="M790 357l-715 -400v800z" />
    <glyph glyph-name="triagdn" unicode="&#x25bc;" horiz-adv-x="825" 
d="M813 715l-400 -715l-400 715h800z" />
    <glyph glyph-name="triaglf" unicode="&#x25c4;" horiz-adv-x="821" 
d="M746 757v-800l-715 400z" />
    <glyph glyph-name="lozenge" unicode="&#x25ca;" horiz-adv-x="614" 
d="M378 0h-141l-202 357l201 358h141l202 -358zM182 358l125 -237h2l123 235l-125 238h-2z" />
    <glyph glyph-name="circle" unicode="&#x25cb;" horiz-adv-x="836" 
d="M219.5 30q-84.5 45 -130 129.5t-45.5 197.5q0 114 45.5 198t130 129.5t198.5 45.5t198.5 -45.5t130 -129.5t45.5 -198t-45.5 -198t-130 -129t-198.5 -45t-198.5 45zM563.5 106.5q61.5 34.5 94.5 99t33 151.5q0 133 -73 209.5t-200 76.5t-200 -76.5t-73 -209.5
q0 -87 33 -151.5t94.5 -99t145.5 -34.5t145.5 34.5z" />
    <glyph glyph-name="uni25CF" unicode="&#x25cf;" horiz-adv-x="832" 
d="M229 35q-86 50 -136 135.5t-50 186.5t50 187t136 136t187 50t187 -50t136 -136t50 -187t-50 -186.5t-136 -135.5t-187 -50t-187 50z" />
    <glyph glyph-name="uni2B0E" unicode="&#x2b0e;" horiz-adv-x="690" 
d="M414 170l174 163l70 -70l-298 -277l-299 277l71 70l173 -163v243h-284v99h393v-342z" />
    <glyph glyph-name="uni2B0F" unicode="&#x2b0f;" horiz-adv-x="692" 
d="M61 249l299 277l299 -277l-71 -70l-174 163v-342h-393v99h285v243l-174 -163z" />
    <glyph glyph-name="uni2B10" unicode="&#x2b10;" horiz-adv-x="691" 
d="M668 508v-99h-284v-243l174 163l70 -70l-298 -277l-299 277l71 70l174 -163v342h392z" />
    <glyph glyph-name="uni2B11" unicode="&#x2b11;" horiz-adv-x="692" 
d="M386 341v-243h285v-99h-393v342l-174 -163l-71 71l299 276l299 -276l-71 -71z" />
    <glyph glyph-name="uni2BA0" unicode="&#x2ba0;" horiz-adv-x="611" 
d="M461 307v284h99v-393h-342l163 -174l-71 -70l-276 298l276 299l71 -71l-163 -173h243z" />
    <glyph glyph-name="uni2BA1" unicode="&#x2ba1;" horiz-adv-x="611" 
d="M230 481l71 71l276 -299l-276 -298l-71 70l163 174h-342v393h99v-285h243z" />
    <glyph glyph-name="uni2BA2" unicode="&#x2ba2;" horiz-adv-x="609" 
d="M381 495l-164 -174h342v-393h-98v284h-244l164 -173l-71 -71l-276 299l276 298z" />
    <glyph glyph-name="uni2BA3" unicode="&#x2ba3;" horiz-adv-x="609" 
d="M228 495l70 70l277 -298l-277 -299l-70 71l163 173h-243v-284h-99v393h342z" />
    <glyph glyph-name="uni2BA4" unicode="&#x2ba4;" horiz-adv-x="691" 
d="M385 340v-243h284v-99h-393v342l-174 -163l-70 70l299 277l298 -277l-70 -70z" />
    <glyph glyph-name="uni2BA5" unicode="&#x2ba5;" horiz-adv-x="692" 
d="M61 249l299 277l299 -277l-71 -70l-174 163v-342h-393v99h285v243l-174 -163z" />
    <glyph glyph-name="uni2BA6" unicode="&#x2ba6;" horiz-adv-x="691" 
d="M668 508v-99h-284v-243l174 163l70 -70l-298 -277l-299 277l71 70l174 -163v342h392z" />
    <glyph glyph-name="uni2BA7" unicode="&#x2ba7;" horiz-adv-x="690" 
d="M414 170l174 163l70 -70l-298 -277l-299 277l71 70l173 -163v243h-284v99h393v-342z" />
    <glyph glyph-name="fi" unicode="&#xfb01;" horiz-adv-x="560" 
d="M239 605.5q-12 -11.5 -12 -50.5v-44h91v-105h-91v-406h-137v406h-70v105h70v46q0 90 35.5 128t112.5 38q39 0 80 -8v-101q-28 3 -40 3q-27 0 -39 -11.5zM512 0h-137v511h137v-511zM515 583h-142v129h142v-129z" />
    <glyph glyph-name="fl" unicode="&#xfb02;" horiz-adv-x="560" 
d="M239 605.5q-12 -11.5 -12 -50.5v-44h91v-105h-91v-406h-137v406h-70v105h70v46q0 90 35.5 128t112.5 38q39 0 80 -8v-101q-28 3 -40 3q-27 0 -39 -11.5zM512 0h-137v715h137v-715z" />
    <glyph glyph-name="uniFEFF" unicode="&#xfeff;" 
 />
    <glyph glyph-name="u1F150" unicode="&#x1f150;" horiz-adv-x="588" 
d="M174.5 285q-54.5 31 -86.5 86t-32 122t32 121.5t86.5 85.5t119.5 31t119.5 -31t86.5 -85.5t32 -121.5t-32 -122t-86.5 -86t-119.5 -31t-119.5 31z" />
    <glyph glyph-name="Adieresis.ss02" horiz-adv-x="695" 
d="M163 0h-165l270 715h158l272 -715h-168l-51 158h-265zM346 573l-94 -295h190l-94 295h-2zM204.5 802.5q-18.5 19.5 -18.5 48.5t18.5 49t50.5 20t50.5 -20t18.5 -49t-18.5 -48.5t-50.5 -19.5t-50.5 19.5zM388.5 802.5q-18.5 19.5 -18.5 48.5t18.5 49t50.5 20t50.5 -20
t18.5 -49t-18.5 -48.5t-50.5 -19.5t-50.5 19.5z" />
    <glyph glyph-name="Cdotaccent.ss02" horiz-adv-x="712" 
d="M188 32.5q-77 47.5 -116.5 131.5t-39.5 192q0 110 40.5 194.5t118 132t184.5 47.5q92 0 159.5 -34.5t105.5 -96t47 -141.5h-158q-11 65 -47.5 105t-112.5 40q-95 0 -136.5 -66.5t-41.5 -178.5q0 -113 41.5 -179.5t136.5 -66.5q142 0 160 153h158q-8 -82 -47 -145.5
t-107.5 -99t-161.5 -35.5q-106 0 -183 47.5zM325.5 798q-19.5 20 -19.5 50q0 31 19.5 51.5t52.5 20.5t52 -21t19 -51t-19 -50t-52 -20t-52.5 20z" />
    <glyph glyph-name="Edieresis.ss02" horiz-adv-x="633" 
d="M600 0h-536v715h529v-128h-375v-155h325v-128h-325v-176h382v-128zM188.5 802.5q-18.5 19.5 -18.5 48.5t18.5 49t50.5 20t50.5 -20t18.5 -49t-18.5 -48.5t-50.5 -19.5t-50.5 19.5zM372.5 802.5q-18.5 19.5 -18.5 48.5t18.5 49t50.5 20t50.5 -20t18.5 -49t-18.5 -48.5
t-50.5 -19.5t-50.5 19.5z" />
    <glyph glyph-name="Edotaccent.ss02" horiz-adv-x="633" 
d="M600 0h-536v715h529v-128h-375v-155h325v-128h-325v-176h382v-128zM278.5 798q-19.5 20 -19.5 50q0 31 19.5 51.5t52.5 20.5t52 -21t19 -51t-19 -50t-52 -20t-52.5 20z" />
    <glyph glyph-name="uni0122.ss02" horiz-adv-x="746" 
d="M183 32.5q-73 47.5 -111.5 132.5t-38.5 193t40.5 192.5t117.5 132t184 47.5q92 0 160 -32t107 -88t49 -126h-159q-13 54 -51 86.5t-109 32.5q-93 0 -137 -68t-44 -177q0 -112 42.5 -179t141.5 -67q47 0 85 19t60.5 53.5t22.5 77.5h-163v116h322v-378h-109l-22 94h-2
q-64 -109 -213 -109q-100 0 -173 47.5zM307 -222q37 6 58.5 19.5t21.5 35.5q-7 -2 -22 -2q-29 0 -47.5 16t-18.5 45t20 46t53 17q38 0 58.5 -23.5t20.5 -63.5q0 -53 -36 -91t-108 -47v48z" />
    <glyph glyph-name="Gdotaccent.ss02" horiz-adv-x="746" 
d="M183 32.5q-73 47.5 -111.5 132.5t-38.5 193t40.5 192.5t117.5 132t184 47.5q92 0 160 -32t107 -88t49 -126h-159q-13 54 -51 86.5t-109 32.5q-93 0 -137 -68t-44 -177q0 -112 42.5 -179t141.5 -67q47 0 85 19t60.5 53.5t22.5 77.5h-163v116h322v-378h-109l-22 94h-2
q-64 -109 -213 -109q-100 0 -173 47.5zM320.5 798q-19.5 20 -19.5 50q0 31 19.5 51.5t52.5 20.5t52 -21t19 -51t-19 -50t-52 -20t-52.5 20z" />
    <glyph glyph-name="Idieresis.ss02" horiz-adv-x="282" 
d="M218 0h-154v715h154v-715zM-1.5 802.5q-18.5 19.5 -18.5 48.5t18.5 49t50.5 20t50.5 -20t18.5 -49t-18.5 -48.5t-50.5 -19.5t-50.5 19.5zM182.5 802.5q-18.5 19.5 -18.5 48.5t18.5 49t50.5 20t50.5 -20t18.5 -49t-18.5 -48.5t-50.5 -19.5t-50.5 19.5z" />
    <glyph glyph-name="Idotaccent.ss02" horiz-adv-x="282" 
d="M218 0h-154v715h154v-715zM88.5 798q-19.5 20 -19.5 50q0 31 19.5 51.5t52.5 20.5t52 -21t19 -51t-19 -50t-52 -20t-52.5 20z" />
    <glyph glyph-name="uni0136.ss02" horiz-adv-x="675" 
d="M693 0h-180l-206 303l-89 -100v-203h-154v715h154v-327l287 327h167l-273 -308zM291 -222q37 6 58.5 19.5t21.5 35.5q-7 -2 -22 -2q-29 0 -47.5 16t-18.5 45t20 46t53 17q38 0 58.5 -23.5t20.5 -63.5q0 -53 -36 -91t-108 -47v48z" />
    <glyph glyph-name="uni013B.ss02" horiz-adv-x="568" 
d="M553 0h-489v715h154v-587h335v-128zM240 -222q37 6 58.5 19.5t21.5 35.5q-7 -2 -22 -2q-29 0 -47.5 16t-18.5 45t20 46t53 17q38 0 58.5 -23.5t20.5 -63.5q0 -53 -36 -91t-108 -47v48z" />
    <glyph glyph-name="uni0145.ss02" horiz-adv-x="725" 
d="M218 0h-154v715h160l281 -471h2v471h154v-715h-160l-281 471h-2v-471zM294 -222q37 6 58.5 19.5t21.5 35.5q-7 -2 -22 -2q-29 0 -47.5 16t-18.5 45t20 46t53 17q38 0 58.5 -23.5t20.5 -63.5q0 -53 -36 -91t-108 -47v48z" />
    <glyph glyph-name="Odieresis.ss02" horiz-adv-x="770" 
d="M196.5 32.5q-79.5 47.5 -122 132.5t-42.5 193t42.5 192.5t122 132t188.5 47.5q108 0 188 -47.5t122.5 -132t42.5 -192.5t-42.5 -193t-122.5 -132.5t-188 -47.5q-109 0 -188.5 47.5zM533 180.5q47 68.5 47 177.5t-47 177t-148 68q-102 0 -148 -67.5t-46 -177.5t46 -178
t148 -68q101 0 148 68.5zM242.5 802.5q-18.5 19.5 -18.5 48.5t18.5 49t50.5 20t50.5 -20t18.5 -49t-18.5 -48.5t-50.5 -19.5t-50.5 19.5zM426.5 802.5q-18.5 19.5 -18.5 48.5t18.5 49t50.5 20t50.5 -20t18.5 -49t-18.5 -48.5t-50.5 -19.5t-50.5 19.5z" />
    <glyph glyph-name="uni0156.ss02" horiz-adv-x="676" 
d="M64 0v715h323q119 0 184.5 -53.5t65.5 -151.5q0 -71 -38 -116.5t-103 -60.5v-2q54 -10 82.5 -49t37.5 -85t13 -110q3 -40 6 -57.5t12 -20.5v-9h-161q-6 5 -8.5 19t-3.5 31t-1 23q-1 55 -8 93t-32 66t-76 28h-139v-260h-154zM356 388q62 0 94.5 25.5t32.5 75.5t-31 74
t-95 24h-139v-199h138zM284 -222q37 6 58.5 19.5t21.5 35.5q-7 -2 -22 -2q-29 0 -47.5 16t-18.5 45t20 46t53 17q38 0 58.5 -23.5t20.5 -63.5q0 -53 -36 -91t-108 -47v48z" />
    <glyph glyph-name="uni0218.ss02" horiz-adv-x="648" 
d="M179 15.5q-73 30.5 -115 88.5t-43 138h157q2 -64 45 -97.5t120 -33.5q60 0 89.5 22.5t29.5 60.5q0 32 -18.5 51.5t-50 31.5t-92.5 29l-20 6q-73 21 -122.5 44.5t-81 63.5t-31.5 101q0 104 72.5 156.5t193.5 52.5q83 0 148.5 -27.5t104 -80t41.5 -123.5h-156
q-8 51 -42.5 78t-95.5 27q-51 0 -79.5 -18t-28.5 -54q0 -29 16 -46.5t44 -28.5t84 -27q92 -26 145.5 -47.5t90 -63.5t36.5 -112q0 -101 -72 -161.5t-203 -60.5q-93 0 -166 30.5zM279 -222q37 6 58.5 19.5t21.5 35.5q-7 -2 -22 -2q-29 0 -47.5 16t-18.5 45t20 46t53 17
q38 0 58.5 -23.5t20.5 -63.5q0 -53 -36 -91t-108 -47v48z" />
    <glyph glyph-name="uni021A.ss02" horiz-adv-x="617" 
d="M386 0h-154v587h-217v128h587v-128h-216v-587zM240 -222q37 6 58.5 19.5t21.5 35.5q-7 -2 -22 -2q-29 0 -47.5 16t-18.5 45t20 46t53 17q38 0 58.5 -23.5t20.5 -63.5q0 -53 -36 -91t-108 -47v48z" />
    <glyph glyph-name="Udieresis.ss02" horiz-adv-x="700" 
d="M128 53q-70 68 -70 199v463h155v-463q0 -73 33.5 -106.5t103.5 -33.5t104 33.5t34 106.5v463h154v-463q0 -131 -70 -199t-222 -68t-222 68zM207.5 802.5q-18.5 19.5 -18.5 48.5t18.5 49t50.5 20t50.5 -20t18.5 -49t-18.5 -48.5t-50.5 -19.5t-50.5 19.5zM391.5 802.5
q-18.5 19.5 -18.5 48.5t18.5 49t50.5 20t50.5 -20t18.5 -49t-18.5 -48.5t-50.5 -19.5t-50.5 19.5z" />
    <glyph glyph-name="Wdieresis.ss02" horiz-adv-x="945" 
d="M348 0h-157l-181 715h156l105 -514h2l125 514h150l125 -514h2l104 514h156l-181 -715h-157l-123 494h-2zM330.5 802.5q-18.5 19.5 -18.5 48.5t18.5 49t50.5 20t50.5 -20t18.5 -49t-18.5 -48.5t-50.5 -19.5t-50.5 19.5zM514.5 802.5q-18.5 19.5 -18.5 48.5t18.5 49
t50.5 20t50.5 -20t18.5 -49t-18.5 -48.5t-50.5 -19.5t-50.5 19.5z" />
    <glyph glyph-name="Ydieresis.ss02" horiz-adv-x="656" 
d="M405 0h-154v272l-248 443h166l158 -318h2l160 318h163l-247 -443v-272zM187.5 802.5q-18.5 19.5 -18.5 48.5t18.5 49t50.5 20t50.5 -20t18.5 -49t-18.5 -48.5t-50.5 -19.5t-50.5 19.5zM371.5 802.5q-18.5 19.5 -18.5 48.5t18.5 49t50.5 20t50.5 -20t18.5 -49t-18.5 -48.5
t-50.5 -19.5t-50.5 19.5z" />
    <glyph glyph-name="Zdotaccent.ss02" horiz-adv-x="610" 
d="M581 0h-556v128l358 457v2h-338v128h526v-128l-358 -457v-2h368v-128zM258.5 798q-19.5 20 -19.5 50q0 31 19.5 51.5t52.5 20.5t52 -21t19 -51t-19 -50t-52 -20t-52.5 20z" />
    <glyph glyph-name="i.latn_TRK" horiz-adv-x="233" 
d="M185 0h-137v511h137v-511zM188 583h-142v129h142v-129z" />
    <glyph glyph-name="a.ss01" horiz-adv-x="589" 
d="M404 511h137v-511h-137v54h-2q-21 -27 -60.5 -48t-91.5 -21q-66 0 -117 33t-79.5 94t-28.5 144t28.5 144t79.5 94t117 33q53 0 92.5 -21.5t59.5 -49.5h2v55zM371 133.5q31 43.5 31 122.5q0 78 -31 121.5t-87 43.5t-87 -44.5t-31 -120.5t31 -121t87 -45t87 43.5z" />
    <glyph glyph-name="aacute.ss01" horiz-adv-x="589" 
d="M404 511h137v-511h-137v54h-2q-21 -27 -60.5 -48t-91.5 -21q-66 0 -117 33t-79.5 94t-28.5 144t28.5 144t79.5 94t117 33q53 0 92.5 -21.5t59.5 -49.5h2v55zM371 133.5q31 43.5 31 122.5q0 78 -31 121.5t-87 43.5t-87 -44.5t-31 -120.5t31 -121t87 -45t87 43.5zM330 578
h-104l55 147h156z" />
    <glyph glyph-name="abreve.ss01" horiz-adv-x="589" 
d="M404 511h137v-511h-137v54h-2q-21 -27 -60.5 -48t-91.5 -21q-66 0 -117 33t-79.5 94t-28.5 144t28.5 144t79.5 94t117 33q53 0 92.5 -21.5t59.5 -49.5h2v55zM371 133.5q31 43.5 31 122.5q0 78 -31 121.5t-87 43.5t-87 -44.5t-31 -120.5t31 -121t87 -45t87 43.5z
M174.5 608q-41.5 39 -43.5 108h83q5 -60 68 -60q62 0 67 60h83q-3 -67 -44 -107t-106 -40q-66 0 -107.5 39z" />
    <glyph glyph-name="acircumflex.ss01" horiz-adv-x="589" 
d="M404 511h137v-511h-137v54h-2q-21 -27 -60.5 -48t-91.5 -21q-66 0 -117 33t-79.5 94t-28.5 144t28.5 144t79.5 94t117 33q53 0 92.5 -21.5t59.5 -49.5h2v55zM371 133.5q31 43.5 31 122.5q0 78 -31 121.5t-87 43.5t-87 -44.5t-31 -120.5t31 -121t87 -45t87 43.5zM232 578
h-122l103 147h137l103 -147h-123l-48 84h-2z" />
    <glyph glyph-name="adieresis.ss01" horiz-adv-x="589" 
d="M404 511h137v-511h-137v54h-2q-21 -27 -60.5 -48t-91.5 -21q-66 0 -117 33t-79.5 94t-28.5 144t28.5 144t79.5 94t117 33q53 0 92.5 -21.5t59.5 -49.5h2v55zM371 133.5q31 43.5 31 122.5q0 78 -31 121.5t-87 43.5t-87 -44.5t-31 -120.5t31 -121t87 -45t87 43.5zM256 583
h-142v129h142v-129zM449 583h-142v129h142v-129z" />
    <glyph glyph-name="agrave.ss01" horiz-adv-x="589" 
d="M404 511h137v-511h-137v54h-2q-21 -27 -60.5 -48t-91.5 -21q-66 0 -117 33t-79.5 94t-28.5 144t28.5 144t79.5 94t117 33q53 0 92.5 -21.5t59.5 -49.5h2v55zM371 133.5q31 43.5 31 122.5q0 78 -31 121.5t-87 43.5t-87 -44.5t-31 -120.5t31 -121t87 -45t87 43.5zM331 579
h-105l-89 147h141z" />
    <glyph glyph-name="amacron.ss01" horiz-adv-x="589" 
d="M404 511h137v-511h-137v54h-2q-21 -27 -60.5 -48t-91.5 -21q-66 0 -117 33t-79.5 94t-28.5 144t28.5 144t79.5 94t117 33q53 0 92.5 -21.5t59.5 -49.5h2v55zM371 133.5q31 43.5 31 122.5q0 78 -31 121.5t-87 43.5t-87 -44.5t-31 -120.5t31 -121t87 -45t87 43.5zM420 583
h-278v92h278v-92z" />
    <glyph glyph-name="aogonek.ss01" horiz-adv-x="589" 
d="M507 0q-26 -21 -39 -36.5t-13 -30.5q0 -25 33 -25q15 0 43 8v-81q-40 -11 -77 -11q-52 0 -79.5 21t-27.5 60q0 32 20.5 56.5t49.5 38.5h-13v54h-2q-21 -27 -60.5 -48t-91.5 -21q-66 0 -117 33t-79.5 94t-28.5 144t28.5 144t79.5 94t117 33q53 0 92.5 -21.5t59.5 -49.5h2
v55h137v-511h-34zM371 133.5q31 43.5 31 122.5q0 78 -31 121.5t-87 43.5t-87 -44.5t-31 -120.5t31 -121t87 -45t87 43.5z" />
    <glyph glyph-name="aring.ss01" horiz-adv-x="589" 
d="M404 511h137v-511h-137v54h-2q-21 -27 -60.5 -48t-91.5 -21q-66 0 -117 33t-79.5 94t-28.5 144t28.5 144t79.5 94t117 33q53 0 92.5 -21.5t59.5 -49.5h2v55zM371 133.5q31 43.5 31 122.5q0 78 -31 121.5t-87 43.5t-87 -44.5t-31 -120.5t31 -121t87 -45t87 43.5zM207 573
q-30 28 -30 74q0 45 30 73.5t74 28.5t73.5 -28t29.5 -74t-29.5 -74t-73.5 -28t-74 28zM313 612.5q12 12.5 12 34.5t-12 34t-32 12q-19 0 -31 -12.5t-12 -33.5q0 -22 12 -34.5t31 -12.5q20 0 32 12.5z" />
    <glyph glyph-name="atilde.ss01" horiz-adv-x="589" 
d="M404 511h137v-511h-137v54h-2q-21 -27 -60.5 -48t-91.5 -21q-66 0 -117 33t-79.5 94t-28.5 144t28.5 144t79.5 94t117 33q53 0 92.5 -21.5t59.5 -49.5h2v55zM371 133.5q31 43.5 31 122.5q0 78 -31 121.5t-87 43.5t-87 -44.5t-31 -120.5t31 -121t87 -45t87 43.5zM114 571
q0 68 22 100t63 32q31 0 77 -22q19 -9 31.5 -13t23.5 -4q31 0 31 38h79q0 -68 -22.5 -100t-62.5 -32q-19 0 -37 6t-41 16q-3 1 -21.5 8.5t-32.5 7.5q-31 0 -31 -37h-79z" />
    <glyph glyph-name="adieresis.ss02" horiz-adv-x="552" 
d="M70 25.5q-45 40.5 -45 107.5q0 76 52.5 113.5t150.5 57.5q8 2 49 10t62 23.5t21 38.5q0 26 -19 40.5t-60 14.5q-51 0 -74.5 -20t-27.5 -63h-132q4 80 63 130t177 50q100 0 153 -46.5t53 -152.5v-212q0 -24 4.5 -34.5t16.5 -10.5q7 0 13 1v-70q-43 -8 -74 -8q-43 0 -64 17
t-26 54h-2q-27 -37 -71 -59t-100 -22q-75 0 -120 40.5zM327 117q33 34 33 87v54q-21 -11 -96 -29q-53 -11 -75.5 -30.5t-22.5 -52.5q0 -63 74 -63q54 0 87 34zM138.5 598.5q-18.5 19.5 -18.5 48.5t18.5 49t50.5 20t50.5 -20t18.5 -49t-18.5 -48.5t-50.5 -19.5t-50.5 19.5z
M322.5 598.5q-18.5 19.5 -18.5 48.5t18.5 49t50.5 20t50.5 -20t18.5 -49t-18.5 -48.5t-50.5 -19.5t-50.5 19.5z" />
    <glyph glyph-name="cdotaccent.ss02" horiz-adv-x="542" 
d="M146.5 18.5q-58.5 34.5 -90.5 96t-32 141.5q0 79 32 141t90 96.5t135 34.5q103 0 168 -57t75 -149h-139q-5 42 -28 71t-74 29q-59 0 -88.5 -45t-29.5 -121t29 -121t89 -45q92 0 102 102h139q-4 -60 -34.5 -107.5t-84 -74t-122.5 -26.5q-78 0 -136.5 34.5zM228.5 594
q-19.5 20 -19.5 50q0 31 19.5 51.5t52.5 20.5t52 -21t19 -51t-19 -50t-52 -20t-52.5 20z" />
    <glyph glyph-name="edieresis.ss02" horiz-adv-x="565" 
d="M540 219h-377q1 -57 35.5 -93.5t90.5 -36.5q47 0 72.5 20t34.5 47h139q-22 -80 -85 -126t-165 -46q-80 0 -139 34.5t-90 96t-31 141.5q0 78 31 139.5t89.5 97t139.5 35.5q124 0 189.5 -73t65.5 -207v-29zM401 310q0 53 -31.5 84t-85.5 31q-51 0 -84 -30.5t-37 -84.5h238z
M140.5 599.5q-18.5 19.5 -18.5 48.5t18.5 49t50.5 20t50.5 -20t18.5 -49t-18.5 -48.5t-50.5 -19.5t-50.5 19.5zM324.5 599.5q-18.5 19.5 -18.5 48.5t18.5 49t50.5 20t50.5 -20t18.5 -49t-18.5 -48.5t-50.5 -19.5t-50.5 19.5z" />
    <glyph glyph-name="edotaccent.ss02" horiz-adv-x="565" 
d="M540 219h-377q1 -57 35.5 -93.5t90.5 -36.5q47 0 72.5 20t34.5 47h139q-22 -80 -85 -126t-165 -46q-80 0 -139 34.5t-90 96t-31 141.5q0 78 31 139.5t89.5 97t139.5 35.5q124 0 189.5 -73t65.5 -207v-29zM401 310q0 53 -31.5 84t-85.5 31q-51 0 -84 -30.5t-37 -84.5h238z
M229.5 595q-19.5 20 -19.5 50q0 31 19.5 51.5t52.5 20.5t52 -21t19 -51t-19 -50t-52 -20t-52.5 20z" />
    <glyph glyph-name="uni0123.ss02" horiz-adv-x="578" 
d="M394 511h137v-458q0 -124 -65 -180t-185 -56q-108 0 -169.5 47t-73.5 118h140q18 -63 103 -63q60 0 86.5 31t26.5 101v44h-2q-21 -29 -57.5 -49.5t-89.5 -20.5q-64 0 -113.5 30.5t-77 87.5t-27.5 133q0 75 27.5 132t77 88t113.5 31q52 0 88.5 -20.5t58.5 -49.5h2v54z
M362.5 167.5q28.5 37.5 28.5 108.5q0 70 -28.5 107.5t-82.5 37.5q-56 0 -84 -38.5t-28 -106.5t28 -107t84 -39q54 0 82.5 37.5zM222.5 600q-19.5 24 -19.5 62q0 48 32 81t98 42v-45q-33 -5 -52.5 -19t-19.5 -38q16 2 22 2q27 0 43 -14t16 -39q0 -26 -17.5 -41t-46.5 -15
q-36 0 -55.5 24z" />
    <glyph glyph-name="gdotaccent.ss02" horiz-adv-x="578" 
d="M394 511h137v-458q0 -124 -65 -180t-185 -56q-108 0 -169.5 47t-73.5 118h140q18 -63 103 -63q60 0 86.5 31t26.5 101v44h-2q-21 -29 -57.5 -49.5t-89.5 -20.5q-64 0 -113.5 30.5t-77 87.5t-27.5 133q0 75 27.5 132t77 88t113.5 31q52 0 88.5 -20.5t58.5 -49.5h2v54z
M362.5 167.5q28.5 37.5 28.5 108.5q0 70 -28.5 107.5t-82.5 37.5q-56 0 -84 -38.5t-28 -106.5t28 -107t84 -39q54 0 82.5 37.5zM219.5 594q-19.5 20 -19.5 50q0 31 19.5 51.5t52.5 20.5t52 -21t19 -51t-19 -50t-52 -20t-52.5 20z" />
    <glyph glyph-name="i.ss02" horiz-adv-x="233" 
d="M61.5 592q-19.5 21 -19.5 52t20 52.5t54 21.5q35 0 55 -21.5t20 -52.5t-20 -52t-55 -21t-54.5 21zM185 0h-137v511h137v-511z" />
    <glyph glyph-name="idieresis.ss02" horiz-adv-x="233" 
d="M185 0h-137v511h137v-511zM-25.5 598.5q-18.5 19.5 -18.5 48.5t18.5 49t50.5 20t50.5 -20t18.5 -49t-18.5 -48.5t-50.5 -19.5t-50.5 19.5zM158.5 598.5q-18.5 19.5 -18.5 48.5t18.5 49t50.5 20t50.5 -20t18.5 -49t-18.5 -48.5t-50.5 -19.5t-50.5 19.5z" />
    <glyph glyph-name="iogonek.ss02" horiz-adv-x="233" 
d="M64.5 594q-19.5 20 -19.5 50q0 31 19.5 51.5t52.5 20.5t52 -21t19 -51t-19 -50t-52 -20t-52.5 20zM145 -92q15 0 43 8v-81q-40 -11 -77 -11q-52 0 -79.5 21t-27.5 60q0 32 20.5 56.5t49.5 38.5h-26v511h137v-511h-21q-26 -21 -39 -36.5t-13 -30.5q0 -25 33 -25z" />
    <glyph glyph-name="j.ss02" horiz-adv-x="233" 
d="M-40 -174v107q26 -3 38 -3q26 0 38 13.5t12 52.5v515h137v-512q0 -90 -35.5 -135.5t-110.5 -45.5q-39 0 -79 8zM64.5 594q-19.5 20 -19.5 50q0 31 19.5 51.5t52.5 20.5t52 -21t19 -51t-19 -50t-52 -20t-52.5 20z" />
    <glyph glyph-name="uni0137.ss02" horiz-adv-x="527" 
d="M545 0h-159l-137 230l-64 -65v-165h-137v715h137v-404l190 200h149l-186 -190zM226 -222q37 6 58.5 19.5t21.5 35.5q-7 -2 -22 -2q-29 0 -47.5 16t-18.5 45t20 46t53 17q38 0 58.5 -23.5t20.5 -63.5q0 -53 -36 -91t-108 -47v48z" />
    <glyph glyph-name="uni013C.ss02" horiz-adv-x="233" 
d="M185 0h-137v715h137v-715zM48 -222q37 6 58.5 19.5t21.5 35.5q-7 -2 -22 -2q-29 0 -47.5 16t-18.5 45t20 46t53 17q38 0 58.5 -23.5t20.5 -63.5q0 -53 -36 -91t-108 -47v48z" />
    <glyph glyph-name="uni0146.ss02" horiz-adv-x="567" 
d="M476.5 480.5q46.5 -46.5 46.5 -131.5v-349h-138v307q0 55 -21.5 81t-66.5 26q-53 0 -82.5 -28.5t-29.5 -83.5v-302h-137v511h137v-70h2q23 38 64.5 62t103.5 24q75 0 121.5 -46.5zM217 -222q37 6 58.5 19.5t21.5 35.5q-7 -2 -22 -2q-29 0 -47.5 16t-18.5 45t20 46t53 17
q38 0 58.5 -23.5t20.5 -63.5q0 -53 -36 -91t-108 -47v48z" />
    <glyph glyph-name="odieresis.ss02" horiz-adv-x="582" 
d="M148.5 18q-60.5 34 -92.5 95.5t-32 141.5t32.5 142t93 96.5t142.5 34.5q81 0 141.5 -34t92.5 -95.5t32 -141.5t-32.5 -142t-93 -96.5t-142.5 -34.5q-81 0 -141.5 34zM385.5 133.5q32.5 44.5 32.5 122.5t-32.5 122t-94.5 44t-94.5 -44t-32.5 -122t32.5 -122.5t94.5 -44.5
t94.5 44.5zM149.5 599.5q-18.5 19.5 -18.5 48.5t18.5 49t50.5 20t50.5 -20t18.5 -49t-18.5 -48.5t-50.5 -19.5t-50.5 19.5zM333.5 599.5q-18.5 19.5 -18.5 48.5t18.5 49t50.5 20t50.5 -20t18.5 -49t-18.5 -48.5t-50.5 -19.5t-50.5 19.5z" />
    <glyph glyph-name="uni0157.ss02" horiz-adv-x="371" 
d="M362 515v-123q-20 3 -33 3q-61 0 -102.5 -39.5t-41.5 -107.5v-248h-137v511h137v-88h2q20 45 53 70t77 25q28 0 45 -3zM48 -222q37 6 58.5 19.5t21.5 35.5q-7 -2 -22 -2q-29 0 -47.5 16t-18.5 45t20 46t53 17q38 0 58.5 -23.5t20.5 -63.5q0 -53 -36 -91t-108 -47v48z" />
    <glyph glyph-name="uni0219.ss02" horiz-adv-x="508" 
d="M83 36.5q-61 51.5 -64 133.5h131q4 -42 32 -64.5t81 -22.5q83 0 83 56q0 31 -24.5 44t-81.5 25l-22 5q-86 20 -136 53.5t-50 104.5t56.5 113.5t156.5 42.5q109 0 165 -48t61 -121h-131q-5 33 -25.5 51.5t-66.5 18.5q-38 0 -56.5 -13t-18.5 -36q0 -25 18.5 -35t69.5 -21
l27 -6q62 -15 103.5 -31.5t68.5 -49.5t27 -88q0 -78 -57.5 -120.5t-164.5 -42.5q-121 0 -182 51.5zM197 -222q37 6 58.5 19.5t21.5 35.5q-7 -2 -22 -2q-29 0 -47.5 16t-18.5 45t20 46t53 17q38 0 58.5 -23.5t20.5 -63.5q0 -53 -36 -91t-108 -47v48z" />
    <glyph glyph-name="uni021B.ss02" horiz-adv-x="345" 
d="M320 101v-100q-44 -10 -83 -10q-78 0 -114.5 38.5t-36.5 128.5v248h-72v105h72v151h137v-151h92v-105h-92v-247q0 -38 12.5 -50t41.5 -12q18 0 43 4zM153 -211q37 6 58.5 19.5t21.5 35.5q-7 -2 -22 -2q-29 0 -47.5 16t-18.5 45t20 46t53 17q38 0 58.5 -23.5t20.5 -63.5
q0 -53 -36 -91t-108 -47v48z" />
    <glyph glyph-name="udieresis.ss02" horiz-adv-x="567" 
d="M382 511h137v-511h-137v70h-2q-23 -38 -64.5 -61.5t-103.5 -23.5q-75 0 -121 46.5t-46 131.5v348h137v-306q0 -56 21.5 -82t67.5 -26q52 0 81.5 29t29.5 83v302zM134.5 598.5q-18.5 19.5 -18.5 48.5t18.5 49t50.5 20t50.5 -20t18.5 -49t-18.5 -48.5t-50.5 -19.5
t-50.5 19.5zM318.5 598.5q-18.5 19.5 -18.5 48.5t18.5 49t50.5 20t50.5 -20t18.5 -49t-18.5 -48.5t-50.5 -19.5t-50.5 19.5z" />
    <glyph glyph-name="wdieresis.ss02" horiz-adv-x="778" 
d="M285 0h-132l-148 511h140l88 -342h2l93 342h125l94 -342h2l89 342h136l-149 -511h-132l-103 350h-2zM247.5 598.5q-18.5 19.5 -18.5 48.5t18.5 49t50.5 20t50.5 -20t18.5 -49t-18.5 -48.5t-50.5 -19.5t-50.5 19.5zM431.5 598.5q-18.5 19.5 -18.5 48.5t18.5 49t50.5 20
t50.5 -20t18.5 -49t-18.5 -48.5t-50.5 -19.5t-50.5 19.5z" />
    <glyph glyph-name="ydieresis.ss02" horiz-adv-x="533" 
d="M58 -169v107q26 -3 46 -3q33 0 58.5 14.5t36.5 56.5l-204 505h143l131 -356h2l121 356h138l-193 -516q-35 -93 -78.5 -133t-116.5 -40q-38 0 -84 9zM120.5 598.5q-18.5 19.5 -18.5 48.5t18.5 49t50.5 20t50.5 -20t18.5 -49t-18.5 -48.5t-50.5 -19.5t-50.5 19.5z
M304.5 598.5q-18.5 19.5 -18.5 48.5t18.5 49t50.5 20t50.5 -20t18.5 -49t-18.5 -48.5t-50.5 -19.5t-50.5 19.5z" />
    <glyph glyph-name="zdotaccent.ss02" horiz-adv-x="487" 
d="M465 0h-446v99l260 305v2h-241v105h416v-95l-262 -308v-2h273v-106zM189.5 594q-19.5 20 -19.5 50q0 31 19.5 51.5t52.5 20.5t52 -21t19 -51t-19 -50t-52 -20t-52.5 20z" />
    <glyph glyph-name="i.latn_TRK.ss02" horiz-adv-x="233" 
d="M61.5 592q-19.5 21 -19.5 52t20 52.5t54 21.5q35 0 55 -21.5t20 -52.5t-20 -52t-55 -21t-54.5 21zM185 0h-137v511h137v-511z" />
    <glyph glyph-name="adieresis.ss01.ss02" horiz-adv-x="589" 
d="M404 511h137v-511h-137v54h-2q-21 -27 -60.5 -48t-91.5 -21q-66 0 -117 33t-79.5 94t-28.5 144t28.5 144t79.5 94t117 33q53 0 92.5 -21.5t59.5 -49.5h2v55zM371 133.5q31 43.5 31 122.5q0 78 -31 121.5t-87 43.5t-87 -44.5t-31 -120.5t31 -121t87 -45t87 43.5z
M139.5 598.5q-18.5 19.5 -18.5 48.5t18.5 49t50.5 20t50.5 -20t18.5 -49t-18.5 -48.5t-50.5 -19.5t-50.5 19.5zM323.5 598.5q-18.5 19.5 -18.5 48.5t18.5 49t50.5 20t50.5 -20t18.5 -49t-18.5 -48.5t-50.5 -19.5t-50.5 19.5z" />
    <glyph glyph-name="s_s" horiz-adv-x="1016" 
d="M85.5 34.5q-62.5 49.5 -66.5 135.5h131q9 -87 112 -87q84 0 84 56q0 30 -23.5 43t-77.5 25l-27 6q-84 20 -135 55t-51 106q0 70 54 111.5t149 41.5q78 0 133 -30t95 -85.5t80 -144.5q45 -100 95 -142t127 -42q48 0 68.5 14.5t20.5 41.5q0 22 -13 35t-32.5 19t-57.5 15
q-6 1 -25 5q-86 20 -136 56t-50 104q0 71 56 112.5t156 41.5q110 0 166 -48t61 -121h-132q-4 33 -25 51.5t-67 18.5q-74 0 -74 -49q0 -25 19.5 -35.5t73.5 -21.5l22 -5q60 -13 101.5 -30t69.5 -50.5t28 -88.5q0 -78 -55.5 -120.5t-156.5 -42.5q-78 0 -127 27t-82.5 76
t-75.5 140q-52 113 -112.5 156.5t-131.5 43.5q-81 0 -81 -48q0 -18 11.5 -28t32.5 -16.5t71 -18.5q61 -14 102.5 -31.5t69 -51.5t27.5 -89q0 -77 -57 -118.5t-164 -41.5q-118 0 -180.5 49.5z" />
    <glyph glyph-name="w_w_w" horiz-adv-x="2198" 
d="M1970 169l88 342h136l-149 -511h-132l-103 350h-2l-103 -350h-132l-119 409l-119 -409h-132l-103 350h-2l-103 -350h-132l-119 411l-119 -411h-132l-103 350h-2l-103 -350h-132l-149 511h140l89 -342h2l93 342h125l93 -342h3l89 342h217l88 -342h2l93 342h125l94 -342h2
l89 342h217l88 -342h2l94 342h125l93 -342h3z" />
    <glyph glyph-name="f_f_i.ss02" horiz-adv-x="849" 
d="M90 0v406h-70v105h70v46q0 90 35.5 128t112.5 38q39 0 80 -8v-101q-28 3 -40 3q-27 0 -39 -11.5t-12 -50.5v-44h152v46q0 90 35.5 128t112.5 38q37 0 80 -8v-101q-29 3 -41 3q-27 0 -38.5 -12t-11.5 -50v-44h91v-105h-91v-406h-137v406h-152v-406h-137zM677.5 592
q-19.5 21 -19.5 52t20 52.5t54 21.5q35 0 55 -21.5t20 -52.5t-20 -52t-55 -21t-54.5 21zM801 0h-137v511h137v-511z" />
    <glyph glyph-name="f_i.ss02" horiz-adv-x="560" 
d="M239 605.5q-12 -11.5 -12 -50.5v-44h91v-105h-91v-406h-137v406h-70v105h70v46q0 90 35.5 128t112.5 38q39 0 80 -8v-101q-28 3 -40 3q-27 0 -39 -11.5zM388.5 592q-19.5 21 -19.5 52t20 52.5t54 21.5q35 0 55 -21.5t20 -52.5t-20 -52t-55 -21t-54.5 21zM512 0h-137v511
h137v-511z" />
    <glyph glyph-name="zero.zero" horiz-adv-x="663" 
d="M495.5 659q65.5 -47 97 -128t31.5 -186t-31.5 -186t-97 -127.5t-163.5 -46.5t-163.5 46.5t-97.5 128t-32 185.5q0 105 32 186t97.5 128t163.5 47t163.5 -47zM186 345q0 -110 29 -171l160 413q-20 6 -43 6q-146 0 -146 -248zM477 345q0 103 -25 164l-158 -406q18 -5 38 -5
q145 0 145 247z" />
    <glyph glyph-name="zero.slash" horiz-adv-x="663" 
d="M495.5 659q65.5 -47 97 -128t31.5 -186t-31.5 -186t-97 -127.5t-163.5 -46.5t-163.5 46.5t-97.5 128t-32 185.5q0 105 32 186t97.5 128t163.5 47t163.5 -47zM186 345q0 -110 29 -171l160 413q-20 6 -43 6q-146 0 -146 -248zM477 345q0 103 -25 164l-158 -406q18 -5 38 -5
q145 0 145 247z" />
    <glyph glyph-name="zero.tf" horiz-adv-x="771" 
d="M222.5 31.5q-65.5 46.5 -97.5 128t-32 185.5q0 105 32 186t97.5 128t163.5 47t163.5 -47t97 -128t31.5 -186t-31.5 -186t-97 -127.5t-163.5 -46.5t-163.5 46.5zM525 345q0 239 -139 239q-140 0 -140 -239q0 -238 140 -238q139 0 139 238z" />
    <glyph glyph-name="one.tf" horiz-adv-x="771" 
d="M475 121h148v-121h-438v121h142v361q-35 -30 -145 -30v116q167 2 173 123h120v-570z" />
    <glyph glyph-name="two.tf" horiz-adv-x="771" 
d="M119 0q0 68 24.5 119t70.5 94.5t127 99.5q55 38 83.5 61.5t45.5 51t17 62.5q0 45 -22 71.5t-71 26.5q-60 0 -89 -36t-29 -108h-144q0 122 66.5 193t199.5 71q70 0 125 -25t85.5 -72t30.5 -112q0 -62 -29.5 -112.5t-72 -86.5t-106.5 -80q-44 -29 -69.5 -49.5t-40.5 -45.5
v-2h315v-121h-517z" />
    <glyph glyph-name="three.tf" horiz-adv-x="771" 
d="M180 52q-75 67 -75 189h144q0 -67 32 -101.5t104 -34.5q63 0 91 24.5t28 72.5q0 55 -33.5 78t-94.5 23h-47v107h43q50 0 80.5 23t30.5 70q0 38 -25 60.5t-73 22.5q-57 0 -86.5 -27.5t-29.5 -78.5h-144q0 66 31 117t90.5 80t141.5 29q68 0 124 -22.5t89 -65.5t33 -102
q0 -101 -102 -150v-2q123 -38 123 -167q0 -102 -70.5 -157t-192.5 -55q-137 0 -212 67z" />
    <glyph glyph-name="four.tf" horiz-adv-x="771" 
d="M569 0h-147v151h-319v142l319 398h147v-420h100v-120h-100v-151zM422 523l-203 -252h203v252z" />
    <glyph glyph-name="five.tf" horiz-adv-x="771" 
d="M242.5 14q-61.5 29 -94 79.5t-34.5 116.5h144q4 -45 35 -75t89 -30q56 0 88.5 34t32.5 97q0 61 -30.5 93t-89.5 32q-35 0 -65.5 -13.5t-52.5 -40.5h-142l78 384h421v-121h-317l-31 -154v-2q62 54 153 54q67 0 118.5 -28.5t80 -81.5t28.5 -123q0 -79 -34 -135.5t-94 -85.5
t-135 -29q-87 0 -148.5 29z" />
    <glyph glyph-name="six.tf" horiz-adv-x="771" 
d="M180.5 82.5q-68.5 97.5 -68.5 256.5q0 178 76 272.5t210 94.5q65 0 117.5 -24.5t85.5 -68t43 -97.5h-150q-5 32 -28.5 54.5t-69.5 22.5q-72 0 -104.5 -51.5t-32.5 -134.5v-11l3 -2q59 71 167 71q69 0 122 -30t82.5 -83t29.5 -119q0 -73 -32 -129t-91 -87.5t-139 -31.5
q-152 0 -220.5 97.5zM486 133q33 35 33 92t-33 92t-90 35q-60 0 -95 -35.5t-35 -92.5q0 -56 34 -91t94 -35q59 0 92 35z" />
    <glyph glyph-name="seven.tf" horiz-adv-x="771" 
d="M239 0q0 108 32.5 219.5t86 203.5t115.5 145v2h-342v121h499v-111q-113 -92 -174.5 -251t-61.5 -329h-155z" />
    <glyph glyph-name="eight.tf" horiz-adv-x="771" 
d="M243 9q-63 24 -99.5 72t-36.5 116q0 116 130 173v2q-98 52 -98 147q0 58 32 100.5t88 64.5t127 22q70 0 126 -22t88 -64.5t32 -100.5q0 -94 -98 -147v-2q130 -58 130 -173q0 -68 -36.5 -116t-99.5 -72t-142 -24q-80 0 -143 24zM467.5 441q28.5 25 28.5 67t-28.5 67
t-81.5 25t-81.5 -25t-28.5 -67t28.5 -67t81.5 -25t81.5 25zM479 129q34 31 34 80q0 48 -34 78.5t-93 30.5q-60 0 -94 -30t-34 -79t34 -80t94 -31q59 0 93 31z" />
    <glyph glyph-name="nine.tf" horiz-adv-x="771" 
d="M255.5 9.5q-52.5 24.5 -85.5 68t-43 97.5h150q5 -32 28.5 -54.5t69.5 -22.5q72 0 105 51.5t33 134.5v11l-4 2q-59 -71 -167 -71q-69 0 -122 30t-82.5 83t-29.5 119q0 73 32 129t91.5 87.5t138.5 31.5q153 0 221.5 -97.5t68.5 -256.5q0 -178 -76.5 -272.5t-210.5 -94.5
q-65 0 -117.5 24.5zM470.5 374.5q35.5 35.5 35.5 92.5q0 56 -34.5 91t-94.5 35q-59 0 -92 -35t-33 -92t33.5 -92t89.5 -35q60 0 95.5 35.5z" />
    <glyph glyph-name="zero.tf.zero" horiz-adv-x="771" 
d="M549.5 659q65.5 -47 97 -128t31.5 -186t-31.5 -186t-97 -127.5t-163.5 -46.5t-163.5 46.5t-97.5 128t-32 185.5q0 105 32 186t97.5 128t163.5 47t163.5 -47zM240 345q0 -110 29 -171l160 413q-20 6 -43 6q-146 0 -146 -248zM531 345q0 103 -25 164l-158 -406q18 -5 38 -5
q145 0 145 247z" />
    <glyph glyph-name="zero.dnom" horiz-adv-x="414" 
d="M71.5 51.5q-47.5 60.5 -47.5 151.5q0 58 20.5 106.5t62 77.5t101.5 29q89 0 135.5 -60.5t46.5 -152.5t-46.5 -152t-135.5 -60t-136.5 60.5zM263 110q15 31 15 93t-15 93.5t-55 31.5t-55.5 -31t-15.5 -94q0 -62 15.5 -93t55.5 -31t55 31z" />
    <glyph glyph-name="one.dnom" horiz-adv-x="255" 
d="M99 263q-19 -11 -86 -11v84q47 0 76.5 18.5t29.5 51.5h94v-406h-114v263z" />
    <glyph glyph-name="two.dnom" horiz-adv-x="368" 
d="M20 0q0 40 9 64.5t29.5 45.5t66.5 55q16 12 24 17q39 28 59 50.5t20 51.5q0 21 -11 33t-32 12q-27 0 -41 -17t-14 -57h-105q0 76 41 119t123 43q68 0 108.5 -33t40.5 -92q0 -52 -27.5 -86.5t-76.5 -72.5q-15 -11 -28.5 -22.5t-20.5 -21.5v-1h154v-88h-319z" />
    <glyph glyph-name="three.dnom" horiz-adv-x="380" 
d="M63.5 30.5q-45.5 40.5 -45.5 114.5h106q0 -35 14.5 -51.5t50.5 -16.5q55 0 55 46q0 25 -17 36.5t-53 11.5h-18v74h16q60 0 60 44q0 19 -12 29.5t-32 10.5q-25 0 -39 -12t-14 -36h-105q0 60 44 98t119 38q64 0 107.5 -30.5t43.5 -82.5q0 -56 -58 -89v-1q70 -23 70 -97
q0 -61 -44 -94t-118 -33q-85 0 -130.5 40.5z" />
    <glyph glyph-name="four.dnom" horiz-adv-x="395" 
d="M314 0h-109v84h-182v107l182 215h109v-235h59v-87h-59v-84zM205 290l-103 -119h103v119z" />
    <glyph glyph-name="five.dnom" horiz-adv-x="384" 
d="M66.5 27q-46.5 37 -48.5 101h111q3 -22 19 -36.5t44 -14.5q27 0 41.5 16.5t14.5 46.5q0 29 -14.5 45.5t-44.5 16.5q-34 0 -57 -26h-102l47 230h264v-87h-189l-14 -68v-1q37 27 85 27q62 0 99 -37t37 -101q0 -72 -45 -110.5t-116 -38.5q-85 0 -131.5 37z" />
    <glyph glyph-name="six.dnom" horiz-adv-x="392" 
d="M66 48.5q-41 58.5 -41 148.5q0 105 48 162.5t127 57.5q63 0 104 -32t51 -82h-106q-14 34 -51 34q-68 0 -73 -85v-10l3 -1q12 15 38.5 26t58.5 11q65 0 104.5 -39t39.5 -101q0 -66 -46 -107t-122 -41q-94 0 -135 58.5zM247 89.5q17 17.5 17 45.5t-16.5 45.5t-46.5 17.5
t-47.5 -18t-17.5 -45q0 -28 17 -45.5t46 -17.5q31 0 48 17.5z" />
    <glyph glyph-name="seven.dnom" horiz-adv-x="328" 
d="M74 0q0 95 36 184t87 134v1h-186v87h301v-80q-62 -51 -92.5 -138t-30.5 -188h-115z" />
    <glyph glyph-name="eight.dnom" horiz-adv-x="389" 
d="M71 23q-48 33 -48 93q0 37 21 62t55 40v1q-58 33 -58 87q0 51 44 81t109 30q67 0 110.5 -30t43.5 -81q0 -55 -58 -87v-1q77 -35 77 -102q0 -60 -49 -93t-124 -33t-123 33zM236 261.5q14 13.5 14 34.5q0 19 -14.5 32.5t-41.5 13.5t-41.5 -13.5t-14.5 -32.5q0 -21 14 -34.5
t42 -13.5t42 13.5zM239 87.5q16 16.5 16 39.5t-16 39t-45 16t-44.5 -16t-15.5 -39t15.5 -39.5t44.5 -16.5t45 16.5z" />
    <glyph glyph-name="nine.dnom" horiz-adv-x="393" 
d="M88 22q-43 32 -54 82h111q13 -33 49 -33q32 0 49 22t17 60v6h-1q-13 -13 -38 -22.5t-55 -9.5q-64 0 -103.5 39.5t-39.5 102.5q0 66 46 107t122 41q95 0 136 -60.5t41 -153.5q0 -102 -48.5 -157.5t-127.5 -55.5q-61 0 -104 32zM240.5 226.5q16.5 18.5 16.5 45.5
q0 28 -17.5 45.5t-47.5 17.5t-47 -18t-17 -46q0 -27 17.5 -45t47.5 -18q31 0 47.5 18.5z" />
    <glyph glyph-name="zero.numr" horiz-adv-x="414" 
d="M71.5 361.5q-47.5 60.5 -47.5 151.5q0 58 20.5 106.5t62 77.5t101.5 29q89 0 135.5 -60.5t46.5 -152.5t-46.5 -152t-135.5 -60t-136.5 60.5zM263 420q15 31 15 93t-15 93.5t-55 31.5t-55.5 -31t-15.5 -94q0 -62 15.5 -93t55.5 -31t55 31z" />
    <glyph glyph-name="one.numr" horiz-adv-x="255" 
d="M99 572q-19 -11 -86 -11v84q47 0 76.5 18.5t29.5 51.5h94v-406h-114v263z" />
    <glyph glyph-name="two.numr" horiz-adv-x="368" 
d="M20 310q0 40 9 64.5t29.5 45.5t66.5 55q16 12 24 17q39 28 59 50.5t20 51.5q0 21 -11 33t-32 12q-27 0 -41 -17t-14 -57h-105q0 76 41 119t123 43q68 0 108.5 -33t40.5 -92q0 -52 -27.5 -86.5t-76.5 -72.5q-15 -11 -28.5 -22.5t-20.5 -21.5v-1h154v-88h-319z" />
    <glyph glyph-name="three.numr" horiz-adv-x="380" 
d="M63.5 339.5q-45.5 40.5 -45.5 114.5h106q0 -35 14.5 -51.5t50.5 -16.5q55 0 55 46q0 25 -17 36.5t-53 11.5h-18v74h16q60 0 60 44q0 19 -12 29.5t-32 10.5q-25 0 -39 -12t-14 -36h-105q0 60 44 98t119 38q64 0 107.5 -30.5t43.5 -82.5q0 -56 -58 -89v-1q70 -23 70 -97
q0 -61 -44 -94t-118 -33q-85 0 -130.5 40.5z" />
    <glyph glyph-name="four.numr" horiz-adv-x="395" 
d="M314 310h-109v84h-182v107l182 215h109v-235h59v-87h-59v-84zM205 600l-103 -119h103v119z" />
    <glyph glyph-name="five.numr" horiz-adv-x="384" 
d="M66.5 336q-46.5 37 -48.5 101h111q3 -22 19 -36.5t44 -14.5q27 0 41.5 16.5t14.5 46.5q0 29 -14.5 45.5t-44.5 16.5q-34 0 -57 -26h-102l47 230h264v-87h-189l-14 -68v-1q37 27 85 27q62 0 99 -37t37 -101q0 -72 -45 -110.5t-116 -38.5q-85 0 -131.5 37z" />
    <glyph glyph-name="six.numr" horiz-adv-x="392" 
d="M66 357.5q-41 58.5 -41 148.5q0 105 48 162.5t127 57.5q63 0 104 -32t51 -82h-106q-14 34 -51 34q-68 0 -73 -85v-10l3 -1q12 15 38.5 26t58.5 11q65 0 104.5 -39t39.5 -101q0 -66 -46 -107t-122 -41q-94 0 -135 58.5zM247 398.5q17 17.5 17 45.5t-16.5 45.5t-46.5 17.5
t-47.5 -18t-17.5 -45q0 -28 17 -45.5t46 -17.5q31 0 48 17.5z" />
    <glyph glyph-name="seven.numr" horiz-adv-x="328" 
d="M74 309q0 95 36 184t87 134v1h-186v87h301v-80q-62 -51 -92.5 -138t-30.5 -188h-115z" />
    <glyph glyph-name="eight.numr" horiz-adv-x="389" 
d="M71 332q-48 33 -48 93q0 37 21 62t55 40v1q-58 33 -58 87q0 51 44 81t109 30q67 0 110.5 -30t43.5 -81q0 -55 -58 -87v-1q77 -35 77 -102q0 -60 -49 -93t-124 -33t-123 33zM236 570.5q14 13.5 14 34.5q0 19 -14.5 32.5t-41.5 13.5t-41.5 -13.5t-14.5 -32.5
q0 -21 14 -34.5t42 -13.5t42 13.5zM239 396.5q16 16.5 16 39.5t-16 39t-45 16t-44.5 -16t-15.5 -39t15.5 -39.5t44.5 -16.5t45 16.5z" />
    <glyph glyph-name="nine.numr" horiz-adv-x="393" 
d="M88 331q-43 32 -54 82h111q13 -33 49 -33q32 0 49 22t17 60v6h-1q-13 -13 -38 -22.5t-55 -9.5q-64 0 -103.5 39.5t-39.5 102.5q0 66 46 107t122 41q95 0 136 -60.5t41 -153.5q0 -102 -48.5 -157.5t-127.5 -55.5q-61 0 -104 32zM240.5 535.5q16.5 18.5 16.5 45.5
q0 28 -17.5 45.5t-47.5 17.5t-47 -18t-17 -46q0 -27 17.5 -45t47.5 -18q31 0 47.5 18.5z" />
    <glyph glyph-name="space.frac" horiz-adv-x="38" 
 />
    <glyph glyph-name="uni2007.tf" horiz-adv-x="771" 
 />
    <glyph glyph-name="periodcentered.case" horiz-adv-x="239" 
d="M188 288h-136v136h136v-136z" />
    <glyph glyph-name="bullet.case" horiz-adv-x="405" 
d="M334 227h-263v262h263v-262z" />
    <glyph glyph-name="period.ss02" horiz-adv-x="204" 
d="M48 16q-20 21 -20 52t20 52t54 21q33 0 53 -21t20 -52t-20 -52t-53 -21q-34 0 -54 21z" />
    <glyph glyph-name="comma.ss02" horiz-adv-x="209" 
d="M38 -77q36 6 57 25t21 51q-12 -3 -23 -3q-27 0 -45 18t-18 50q0 34 20 54.5t52 20.5q37 0 57 -27.5t20 -76.5q0 -64 -35.5 -111.5t-105.5 -58.5v58z" />
    <glyph glyph-name="colon.ss02" horiz-adv-x="230" 
d="M61 325q-20 21 -20 52t20 52t54 21q33 0 53 -21t20 -52t-20 -52t-53 -21q-34 0 -54 21zM61 16q-20 21 -20 52t20 52t54 21q33 0 53 -21t20 -52t-20 -52t-53 -21q-34 0 -54 21z" />
    <glyph glyph-name="semicolon.ss02" horiz-adv-x="232" 
d="M63 325q-20 21 -20 52t20 52t54 21q33 0 53 -21t20 -52t-20 -52t-53 -21q-34 0 -54 21zM49 -77q36 6 57 25t21 51q-12 -3 -23 -3q-27 0 -45 18t-18 50q0 34 20 54.5t52 20.5q37 0 57 -27.5t20 -76.5q0 -64 -35.5 -111.5t-105.5 -58.5v58z" />
    <glyph glyph-name="ellipsis.ss02" horiz-adv-x="618" 
d="M48 16q-20 21 -20 52t20 52t54 21q33 0 53 -21t20 -52t-20 -52t-53 -21q-34 0 -54 21zM255 16q-20 21 -20 52t20 52t54 21q33 0 53 -21t20 -52t-20 -52t-53 -21q-34 0 -54 21zM463 16q-20 21 -20 52t20 52t54 21q33 0 53 -21t20 -52t-20 -52t-53 -21q-34 0 -54 21z" />
    <glyph glyph-name="exclam.ss02" horiz-adv-x="242" 
d="M157 220h-72l-38 325v170h147v-170zM68.5 16q-19.5 21 -19.5 52t19.5 52t53.5 21q33 0 53 -21t20 -52t-20 -52t-53 -21q-34 0 -53.5 21z" />
    <glyph glyph-name="exclamdown.ss02" horiz-adv-x="240" 
d="M66.5 464q-19.5 21 -19.5 52t19.5 52t53.5 21q33 0 53 -21t20 -52t-20 -52t-53 -21q-34 0 -53.5 21zM193 -130h-147v170l38 325h71l38 -325v-170z" />
    <glyph glyph-name="question.ss02" horiz-adv-x="524" 
d="M180 219q0 63 9 97.5t29 56.5t64 54q45 34 61.5 54.5t16.5 54.5q0 33 -22 53.5t-67 20.5q-52 0 -81 -32.5t-29 -98.5h-147q0 72 29.5 129t88 89.5t142.5 32.5q68 0 121 -24t82.5 -67.5t29.5 -100.5t-27 -95t-81 -71q-39 -24 -58.5 -41t-30 -43.5t-10.5 -68.5h-120z
M188.5 16q-19.5 21 -19.5 52t20 52t54 21q33 0 53 -21t20 -52t-20 -52t-53 -21q-35 0 -54.5 21z" />
    <glyph glyph-name="questiondown.ss02" horiz-adv-x="525" 
d="M229.5 464q-19.5 21 -19.5 52t20 52t53 21q34 0 53.5 -21t19.5 -52t-19.5 -52t-53.5 -21t-53.5 21zM129.5 -120q-53.5 24 -83 67.5t-29.5 100.5t27 95t81 72q39 24 58.5 41t30 43t10.5 68h120q0 -63 -9 -97.5t-28.5 -56.5t-63.5 -54q-46 -34 -62.5 -54.5t-16.5 -54.5
q0 -33 22 -53.5t67 -20.5q53 0 82 32.5t29 98.5h147q0 -72 -29.5 -129t-88 -89.5t-142.5 -32.5q-68 0 -121.5 24z" />
    <glyph glyph-name="periodcentered.ss02" horiz-adv-x="216" 
d="M54 198q-20 21 -20 52t20 52t54 21q33 0 53 -21t20 -52t-20 -52t-53 -21q-34 0 -54 21z" />
    <glyph glyph-name="bullet.ss02" horiz-adv-x="393" 
d="M100.5 200.5q-37.5 37.5 -37.5 96.5t37.5 96.5t96.5 37.5t96.5 -37.5t37.5 -96.5q0 -58 -37.5 -96t-96.5 -38t-96.5 37.5z" />
    <glyph glyph-name="periodcentered.case.ss02" horiz-adv-x="228" 
d="M60 304q-20 21 -20 52t20 52t54 21q33 0 53 -21t20 -52t-20 -52t-53 -21q-34 0 -54 21z" />
    <glyph glyph-name="bullet.case.ss02" horiz-adv-x="388" 
d="M97.5 258.5q-37.5 37.5 -37.5 96.5t37.5 96.5t96.5 37.5t96.5 -37.5t37.5 -96.5q0 -58 -37.5 -96t-96.5 -38t-96.5 37.5z" />
    <glyph glyph-name="hyphen.case" horiz-adv-x="361" 
d="M316 297h-270v121h270v-121z" />
    <glyph glyph-name="uni00AD.case" horiz-adv-x="361" 
d="M316 298h-270v121h270v-121z" />
    <glyph glyph-name="endash.case" horiz-adv-x="590" 
d="M546 297h-500v121h500v-121z" />
    <glyph glyph-name="emdash.case" horiz-adv-x="1090" 
d="M1045 298h-1000v120h1000v-120z" />
    <glyph glyph-name="parenleft.case" horiz-adv-x="304" 
d="M165 -90q-56 84 -93.5 202.5t-37.5 245.5q0 130 37.5 247t93.5 202h120q-48 -103 -76 -212t-28 -237q0 -126 28 -236t76 -212h-120z" />
    <glyph glyph-name="parenright.case" horiz-adv-x="304" 
d="M19 -90q49 103 76.5 211.5t27.5 236.5q0 126 -28 236.5t-76 212.5h120q56 -84 93.5 -203t37.5 -246q0 -130 -37.5 -246.5t-93.5 -201.5h-120z" />
    <glyph glyph-name="braceleft.case" horiz-adv-x="369" 
d="M314 -90q-79 0 -126 15.5t-71.5 58t-24.5 124.5v116q0 40 -13.5 56.5t-51.5 16.5v122q38 -1 51.5 16t13.5 57v121q0 82 24.5 123.5t71 56t126.5 14.5h25v-121h-25q-75 0 -75 -93v-127q0 -42 -16 -67t-51 -40v-2q35 -15 51 -40.5t16 -67.5v-122q0 -54 20 -75.5t55 -21.5
h25v-120h-25z" />
    <glyph glyph-name="braceright.case" horiz-adv-x="369" 
d="M30 -90v120h25q75 0 75 93v128q0 42 16 67t51 40v2q-35 15 -51 40.5t-16 67.5v121q0 54 -20 75.5t-55 21.5h-25v121h25q79 0 126 -15.5t71.5 -58t24.5 -124.5v-117q0 -39 13.5 -56t51.5 -17v-121q-38 1 -51.5 -16t-13.5 -57v-121q0 -82 -24.5 -123.5t-71 -56
t-126.5 -14.5h-25z" />
    <glyph glyph-name="bracketleft.case" horiz-adv-x="362" 
d="M337 -90h-273v897h273v-121h-126v-656h126v-120z" />
    <glyph glyph-name="bracketright.case" horiz-adv-x="362" 
d="M297 -90h-273v120h126v656h-126v121h273v-897z" />
    <glyph glyph-name="guillemotleft.case" horiz-adv-x="498" 
d="M241 265v-133l-191 156v140l191 156v-135l-124 -90v-2zM440 265v-133l-191 156v140l191 156v-135l-124 -90v-2z" />
    <glyph glyph-name="guillemotright.case" horiz-adv-x="498" 
d="M250 289l-191 -157v136l123 90v2l-123 91v133l191 -156v-139zM449 289l-191 -157v136l123 90v2l-123 91v133l191 -156v-139z" />
    <glyph glyph-name="guilsinglleft.case" horiz-adv-x="307" 
d="M249 270v-138l-199 156v140l199 156v-137l-123 -88v-2z" />
    <glyph glyph-name="guilsinglright.case" horiz-adv-x="307" 
d="M258 288l-199 -156v137l123 88v2l-123 87v138l199 -157v-139z" />
    <glyph glyph-name="quotesinglbase.ss02" horiz-adv-x="209" 
d="M38 -77q36 6 57 25t21 51q-12 -3 -23 -3q-27 0 -45 18t-18 50q0 34 20 54.5t52 20.5q37 0 57 -27.5t20 -76.5q0 -64 -35.5 -111.5t-105.5 -58.5v58z" />
    <glyph glyph-name="quotedblbase.ss02" horiz-adv-x="394" 
d="M223 -77q36 6 57 25t21 51q-12 -3 -23 -3q-27 0 -45 18t-18 50q0 34 20 54.5t52 20.5q37 0 57 -27.5t20 -76.5q0 -64 -35.5 -111.5t-105.5 -58.5v58zM38 -77q36 6 57 25t21 51q-12 -3 -23 -3q-27 0 -45 18t-18 50q0 34 20 54.5t52 20.5q37 0 57 -27.5t20 -76.5
q0 -64 -35.5 -111.5t-105.5 -58.5v58z" />
    <glyph glyph-name="quotedblleft.ss02" horiz-adv-x="404" 
d="M47.5 453q-21.5 30 -21.5 83q0 69 39 120t115 62v-61q-39 -8 -62.5 -28.5t-23.5 -53.5q12 3 24 3q31 0 51 -19.5t20 -53.5q0 -37 -22 -59.5t-57 -22.5q-41 0 -62.5 30zM232.5 453q-21.5 30 -21.5 83q0 69 39 120t115 62v-61q-39 -8 -62.5 -28.5t-23.5 -53.5q12 3 24 3
q31 0 51 -19.5t20 -53.5q0 -37 -22 -59.5t-57 -22.5q-41 0 -62.5 30z" />
    <glyph glyph-name="quotedblright.ss02" horiz-adv-x="405" 
d="M43 485q39 7 62 27.5t23 53.5q-12 -3 -23 -3q-31 0 -50.5 19.5t-19.5 53.5q0 37 21.5 59.5t56.5 22.5q41 0 62.5 -30t21.5 -83q0 -69 -39 -120t-115 -62v62zM227 485q39 7 62 27.5t23 53.5q-12 -3 -23 -3q-31 0 -50.5 19.5t-19.5 53.5q0 37 21.5 59.5t56.5 22.5
q41 0 62.5 -30t21.5 -83q0 -69 -39 -120t-115 -62v62z" />
    <glyph glyph-name="quoteleft.ss02" horiz-adv-x="219" 
d="M47.5 453q-21.5 30 -21.5 83q0 69 39 120t115 62v-61q-39 -8 -62.5 -28.5t-23.5 -53.5q12 3 24 3q31 0 51 -19.5t20 -53.5q0 -37 -22 -59.5t-57 -22.5q-41 0 -62.5 30z" />
    <glyph glyph-name="quoteright.ss02" horiz-adv-x="221" 
d="M43 485q39 7 62 27.5t23 53.5q-12 -3 -23 -3q-31 0 -50.5 19.5t-19.5 53.5q0 37 21.5 59.5t56.5 22.5q41 0 62.5 -30t21.5 -83q0 -69 -39 -120t-115 -62v62z" />
    <glyph glyph-name="uni2219.ss02" horiz-adv-x="328" 
d="M110 298q-20 21 -20 52t20 52t54 21q33 0 53 -21t20 -52t-20 -52t-53 -21q-34 0 -54 21z" />
    <glyph glyph-name="divide.ss02" horiz-adv-x="568" 
d="M230 466q-20 21 -20 52t20 52t54 21q33 0 53 -21t20 -52t-20 -52t-53 -21q-34 0 -54 21zM230 86q-20 21 -20 52t20 52t54 21q33 0 53 -21t20 -52t-20 -52t-53 -21q-34 0 -54 21zM522 267h-477v122h477v-122z" />
    <glyph glyph-name="brevecombcy" 
d="M83.5 607q-41.5 39 -43.5 108h83q5 -60 68 -60q62 0 67 60h83q-3 -67 -44 -107t-106 -40q-66 0 -107.5 39z" />
    <glyph glyph-name="uni030C.alt" 
d="M134 513h-96l24 202h148z" />
    <glyph glyph-name="uni0308.ss02" 
d="M70.5 598.5q-18.5 19.5 -18.5 48.5t18.5 49t50.5 20t50.5 -20t18.5 -49t-18.5 -48.5t-50.5 -19.5t-50.5 19.5zM254.5 598.5q-18.5 19.5 -18.5 48.5t18.5 49t50.5 20t50.5 -20t18.5 -49t-18.5 -48.5t-50.5 -19.5t-50.5 19.5z" />
    <glyph glyph-name="uni0307.ss02" 
d="M58.5 594q-19.5 20 -19.5 50q0 31 19.5 51.5t52.5 20.5t52 -21t19 -51t-19 -50t-52 -20t-52.5 20z" />
    <glyph glyph-name="uni0312.ss02" 
d="M57.5 600q-19.5 24 -19.5 62q0 48 32 81t98 42v-45q-33 -5 -52.5 -19t-19.5 -38q16 2 22 2q27 0 43 -14t16 -39q0 -26 -17.5 -41t-46.5 -15q-36 0 -55.5 24z" />
    <glyph glyph-name="uni0326.ss02" 
d="M40 -222q37 6 58.5 19.5t21.5 35.5q-7 -2 -22 -2q-29 0 -47.5 16t-18.5 45t20 46t53 17q38 0 58.5 -23.5t20.5 -63.5q0 -53 -36 -91t-108 -47v48z" />
    <glyph glyph-name="dieresis.ss02" horiz-adv-x="428" 
d="M61.5 598.5q-20.5 19.5 -20.5 49.5q0 29 21 49t56 20t55 -20t20 -49q0 -30 -20 -49.5t-55 -19.5q-36 0 -56.5 19.5zM254.5 598.5q-20.5 19.5 -20.5 49.5q0 29 21 49t56 20t55.5 -20t20.5 -49q0 -30 -20.5 -49.5t-55.5 -19.5q-36 0 -56.5 19.5z" />
    <glyph glyph-name="dotaccent.ss02" 
d="M58.5 594q-19.5 20 -19.5 50q0 31 19.5 51.5t52.5 20.5t52 -21t19 -51t-19 -50t-52 -20t-52.5 20z" />
    <glyph glyph-name="logo" horiz-adv-x="713" 
d="M660 322q13 -24 13 -50q0 -44 -31 -75t-75 -31q-3 0 -8 0.5t-8 -0.5l1 -15q2 -26 -12 -50.5t-39 -40t-55 -15.5q-27 0 -50.5 13t-38.5 35q-15 -22 -38.5 -35t-50.5 -13q-30 0 -55 15.5t-39 40t-12 50.5l1 15q-3 1 -8 0.5t-8 -0.5q-44 0 -75 31t-31 75q0 26 13 50t35 38
q-22 14 -35 38t-13 50q0 44 31 75t75 31q3 0 8 -0.5t8 0.5l-1 15q-2 26 12 50.5t39 40t55 15.5q27 0 50.5 -13t38.5 -35q15 22 38.5 35t50.5 13q30 0 55 -15.5t39 -40t12 -50.5l-1 -15q3 -1 8 -0.5t8 0.5q44 0 75 -31t31 -75q0 -26 -13 -50t-35 -38q22 -14 35 -38zM93.5 397
q19.5 -21 47.5 -21h162q15 0 26 11t11 26v162q0 28 -21.5 47.5t-49.5 19.5q-19 0 -35.5 -10t-26.5 -27q-9 -15 -9 -34q0 -17 9 -34q10 -17 23 -25q8 2 13 2q17 0 29 -12.5t12 -29.5t-12 -29t-29 -12t-29.5 12t-12.5 29q0 2 3 14q-10 15 -25.5 23.5t-33.5 8.5q-29 0 -50 -21
t-21 -50t19.5 -50zM374 413q0 -15 11 -26t26 -11h162q28 0 47.5 21t19.5 50t-21 50t-50 21q-18 0 -33.5 -8.5t-25.5 -23.5q3 -12 3 -14q0 -17 -12.5 -29t-29.5 -12t-29 12t-12 29t12 29.5t29 12.5q5 0 13 -2q12 7 23 25q9 17 9 34q0 19 -9 34q-10 17 -26.5 27t-35.5 10
q-28 0 -49.5 -19.5t-21.5 -47.5v-162zM340 307q0 15 -11 26t-26 11h-162q-28 0 -47.5 -21t-19.5 -50t21 -50t50 -21q18 0 33.5 8.5t25.5 23.5q-3 12 -3 14q0 17 12.5 29t29.5 12t29 -12t12 -29t-12 -29.5t-29 -12.5q-5 0 -13 2q-13 -8 -23 -25q-9 -16 -9 -34q0 -19 9 -34
q10 -17 26.5 -27t35.5 -10q28 0 49.5 19.5t21.5 47.5v162zM619 223q21 21 21 50t-19.5 50t-47.5 21h-162q-15 0 -26 -11t-11 -26v-162q0 -28 21.5 -47.5t49.5 -19.5q19 0 35.5 10t26.5 27q9 15 9 34q0 18 -9 34q-11 17 -23 25q-8 -2 -13 -2q-17 0 -29 12.5t-12 29.5t12 29
t29 12t29.5 -12t12.5 -29q0 -2 -3 -14q10 -15 25.5 -23.5t33.5 -8.5q29 0 50 21z" />
    <glyph glyph-name="smallLogo" horiz-adv-x="463" 
d="M413 523.5q8 -14.5 8 -30.5q0 -27 -19 -45t-54 -18q1 -32 -17 -52.5t-46 -20.5q-16 0 -30.5 7.5t-23.5 21.5q-9 -14 -23.5 -21.5t-30.5 -7.5q-28 0 -46 20.5t-17 52.5q-35 0 -54 18t-19 45q0 16 8 30.5t21 22.5q-13 8 -21 22.5t-8 30.5q0 27 19 45t54 18q-1 32 17 52.5
t46 20.5q16 0 30.5 -7.5t23.5 -21.5q9 14 23.5 21.5t30.5 7.5q28 0 46 -20.5t17 -52.5q35 0 54 -18t19 -45q0 -16 -8 -30.5t-21 -22.5q13 -8 21 -22.5zM72.5 568.5q11.5 -12.5 28.5 -12.5h97q9 0 15.5 6.5t6.5 15.5v97q0 17 -12.5 28.5t-29.5 11.5q-12 0 -22 -6t-15 -16
q-6 -12 -6 -20q0 -10 6 -21q5 -10 13 -15q3 1 8 1q10 0 17.5 -7.5t7.5 -17.5t-7.5 -17t-17.5 -7t-17.5 7t-7.5 17q0 3 2 9q-13 19 -36 19q-17 0 -29.5 -12.5t-12.5 -30.5q0 -17 11.5 -29.5zM242 578q0 -9 6.5 -15.5t15.5 -6.5h97q17 0 28.5 12.5t11.5 29.5q0 18 -12.5 30.5
t-29.5 12.5q-23 0 -36 -19q2 -6 2 -9q0 -10 -7.5 -17t-17.5 -7t-17.5 7t-7.5 17t7.5 17.5t17.5 7.5q5 0 8 -1q8 6 13 15q6 11 6 21q0 11 -6 20q-15 22 -37 22q-17 0 -29.5 -11.5t-12.5 -28.5v-97zM220 514q0 9 -6.5 15.5t-15.5 6.5h-97q-17 0 -28.5 -12.5t-11.5 -29.5
q0 -18 12.5 -30.5t29.5 -12.5q23 0 36 19q-2 6 -2 9q0 10 7.5 17t17.5 7t17.5 -7t7.5 -17t-7.5 -17.5t-17.5 -7.5q-5 0 -8 1q-8 -5 -13 -15q-6 -10 -6 -21t6 -20q15 -22 37 -22q17 0 29.5 11.5t12.5 28.5v97zM388.5 463.5q12.5 12.5 12.5 30.5q0 17 -11.5 29.5t-28.5 12.5
h-97q-9 0 -15.5 -6.5t-6.5 -15.5v-97q0 -17 12.5 -28.5t29.5 -11.5q12 0 22 6t15 16q6 12 6 20q0 11 -6 21q-5 9 -13 15q-3 -1 -8 -1q-10 0 -17.5 7.5t-7.5 17.5t7.5 17t17.5 7t17.5 -7t7.5 -17q0 -3 -2 -9q13 -19 36 -19q17 0 29.5 12.5z" />
    <glyph glyph-name="topLogoCircle" horiz-adv-x="565" 
d="M162.5 285q-54.5 31 -86.5 86t-32 122t32 121.5t86.5 85.5t119.5 31t120 -31t87 -85.5t32 -121.5t-32 -122t-87 -86t-120 -31t-119.5 31z" />
    </font>
</defs>
</svg>
