<svg width="576" height="208" viewBox="0 0 576 208" fill="none" xmlns="http://www.w3.org/2000/svg">
    <path d="M548.315 79.2954H456.118V84.2513H548.315V79.2954Z" fill="url(#paint0_linear_184_811)" />
    <path d="M548.315 79.2954H456.118V84.2513H548.315V79.2954Z" fill="url(#paint1_linear_184_811)" />
    <path d="M386.905 79.2954H285.052V84.2513H386.905V79.2954Z" fill="url(#paint2_linear_184_811)" />
    <path d="M386.905 79.2954H285.052V84.2513H386.905V79.2954Z" fill="url(#paint3_linear_184_811)" />
    <path d="M220.112 79.2954H118.259V84.2513H220.112V79.2954Z" fill="url(#paint4_linear_184_811)" />
    <path
        d="M351.359 120.566C330.51 120.566 313.592 103.648 313.592 82.7985C313.592 61.9493 330.51 45.0308 351.359 45.0308C372.209 45.0308 389.127 61.9493 389.127 82.7985V84.3365H384.428L384.342 83.2257C384.342 83.2257 384.342 82.8839 384.342 82.7985C384.342 64.5982 369.56 49.8158 351.359 49.8158C333.159 49.8158 318.377 64.5982 318.377 82.7985C318.377 100.999 333.159 115.781 351.359 115.781C363.835 115.781 375.114 108.86 380.753 97.6663L381.095 96.9827H386.478L385.709 98.6916C379.472 111.936 365.971 120.566 351.359 120.566ZM351.359 47.3378C331.878 47.3378 315.984 63.231 315.984 82.713C315.984 95.9573 323.333 107.578 334.185 113.645C323.333 107.578 315.984 96.0428 315.984 82.713C315.984 63.231 331.878 47.3378 351.359 47.3378C358.964 47.3378 365.971 49.7304 371.781 53.8318C366.056 49.7304 358.964 47.3378 351.359 47.3378Z"
        fill="white" />
    <path
        d="M351.36 116.892C332.476 116.892 317.181 101.597 317.181 82.713C317.181 63.9146 332.476 48.5341 351.36 48.5341C370.243 48.5341 385.538 63.8292 385.538 82.713C385.538 82.7985 385.538 83.0548 385.538 83.0548H387.931C387.931 83.0548 387.931 82.8839 387.931 82.713C387.931 62.5475 371.525 46.1416 351.36 46.1416C331.194 46.1416 314.788 62.5475 314.788 82.713C314.788 102.879 331.194 119.284 351.36 119.284C366.056 119.284 378.703 110.569 384.513 98.0935H381.779C376.225 109.287 364.689 116.892 351.36 116.892Z"
        fill="white" />
    <path
        d="M184.652 120.566C163.803 120.566 146.884 103.648 146.884 82.7985C146.884 61.9493 163.803 45.0308 184.652 45.0308C205.501 45.0308 222.42 61.9493 222.42 82.7985C222.42 82.8839 222.42 83.1402 222.42 83.1402V84.3365H217.72L217.635 83.2257C217.635 83.2257 217.635 82.8839 217.635 82.7985C217.635 64.5982 202.852 49.8158 184.652 49.8158C166.452 49.8158 151.669 64.5982 151.669 82.7985C151.669 100.999 166.452 115.781 184.652 115.781C197.127 115.781 208.406 108.86 214.046 97.6663L214.388 96.9827H219.771L219.002 98.6916C212.764 111.936 199.263 120.566 184.652 120.566ZM149.277 82.713C149.277 95.9573 156.625 107.578 167.477 113.645C156.625 107.578 149.277 96.0428 149.277 82.713ZM215.84 99.3752C215.328 100.315 214.815 101.17 214.302 102.024C214.9 101.17 215.413 100.23 215.84 99.3752Z"
        fill="white" />
    <path
        d="M184.652 116.892C165.768 116.892 150.473 101.597 150.473 82.713C150.473 63.9146 165.768 48.5341 184.652 48.5341C203.536 48.5341 218.831 63.8292 218.831 82.713C218.831 82.7985 218.831 83.0548 218.831 83.0548H221.223C221.223 83.0548 221.223 82.8839 221.223 82.713C221.223 62.5475 204.818 46.1416 184.652 46.1416C164.486 46.1416 148.081 62.5475 148.081 82.713C148.081 102.879 164.486 119.284 184.652 119.284C199.349 119.284 211.995 110.569 217.806 98.0935H215.071C209.432 109.287 197.982 116.892 184.652 116.892Z"
        fill="white" />
    <path d="M230.195 49.1323L234.126 46.1416L304.962 116.892L301.971 119.883H300.946L230.195 49.1323Z" fill="white" />
    <path d="M229.939 119.883V46.1416H234.126L234.895 46.9106V119.883H229.939Z" fill="white" />
    <path d="M233.699 47.3379H231.135V118.686H233.699V47.3379Z" fill="white" />
    <path d="M443.642 80.833H438.687V119.882H443.642V80.833Z" fill="white" />
    <path d="M135.092 79.2954H31.103V84.2513H135.092V79.2954Z" fill="url(#paint5_linear_184_811)" />
    <path
        d="M99.5465 121.079C78.6974 121.079 61.7788 104.075 61.7788 83.2257C61.7788 62.3766 78.7828 45.458 99.5465 45.458C110.74 45.458 121.25 50.4139 128.513 58.9587L130.222 60.924H123.814L123.472 60.5822C117.149 53.9173 108.689 50.2431 99.5465 50.2431C81.3462 50.2431 66.5639 65.0254 66.5639 83.2257C66.5639 101.426 81.3462 116.208 99.5465 116.208C117.747 116.208 132.529 101.426 132.529 83.2257V79.2097H137.4V83.2257C137.4 104.075 120.396 121.079 99.5465 121.079ZM134.922 81.6876V83.2257C134.922 97.5808 126.291 110.056 113.987 115.525C126.377 109.971 135.007 97.5808 135.007 83.2257L134.922 81.6876ZM99.5465 47.8505C89.9764 47.8505 81.2608 51.6957 74.9377 57.8479C81.3462 51.6957 89.9764 47.8505 99.5465 47.8505Z"
        fill="white" />
    <path
        d="M133.725 83.2257C133.725 83.1403 133.725 80.406 133.725 80.406H136.117C136.117 80.4914 136.117 83.1403 136.117 83.2257C136.117 103.391 119.712 119.797 99.546 119.797C79.3805 119.797 62.9746 103.391 62.9746 83.2257C62.9746 63.0602 79.3805 46.6543 99.546 46.6543C110.825 46.6543 120.822 51.7811 127.573 59.7277H124.326C118.088 53.1483 109.287 49.0468 99.546 49.0468C80.6622 49.0468 65.3671 64.3419 65.3671 83.2257C65.3671 102.11 80.6622 117.405 99.546 117.405C118.43 117.405 133.725 102.11 133.725 83.2257Z"
        fill="white" />
    <path d="M300.176 119.199V35.1191H305.218V119.883H300.945L300.176 119.199Z" fill="url(#paint6_linear_184_811)" />
    <path d="M300.176 35.1191V119.199L300.945 119.883H305.218V35.1191H300.176Z" fill="url(#paint7_linear_184_811)" />
    <path d="M403.055 81.6875H398.099V138.339H403.055V81.6875Z" fill="url(#paint8_linear_184_811)" />
    <path d="M403.055 81.6875H398.099V138.339H403.055V81.6875Z" fill="url(#paint9_linear_184_811)" />
    <path
        d="M398.099 81.6876V80.4914C398.099 61.2657 415.359 44.9453 435.867 44.9453H437.063V49.8158H435.867C418.094 49.8158 403.055 63.9146 403.055 80.4914V81.6876H398.099Z"
        fill="white" />
    <path
        d="M399.295 80.4914H401.859C401.859 62.7184 417.752 48.6196 435.867 48.6196V46.1416C416.47 46.1416 399.295 61.5221 399.295 80.4914Z"
        fill="white" />
    <path d="M398.099 82.2001V79.6367L400.577 78.6113L403.141 79.6367V82.2001H398.099Z" fill="white" />
    <path d="M399.295 80.4912V81.0039H401.859V80.4912L400.577 79.8931L399.295 80.4912Z" fill="white" />
    <path d="M514.222 80.833H509.266V138.51H514.222V80.833Z" fill="url(#paint10_linear_184_811)" />
    <path d="M514.222 81.0044H509.266V138.51H514.222V81.0044Z" fill="url(#paint11_linear_184_811)" />
    <path d="M514.222 81.0044H509.266V138.51H514.222V81.0044Z" fill="url(#paint12_linear_184_811)" />
    <path d="M514.222 81.0894H509.266V138.424H514.222V81.0894Z" fill="url(#paint13_linear_184_811)" />
    <path d="M511.829 82.9692V81.7729L514.307 81.6875V81.7729V82.9692H511.829Z" fill="white" />
    <path d="M509.266 79.7221L511.488 78.5259L514.308 79.6367V82.0292H509.266V79.7221Z" fill="white" />
    <path d="M510.462 80.4912L511.573 79.8931L513.025 80.4912V80.833H510.462V80.4912Z" fill="white" />
    <path
        d="M509.266 81.6876V80.4914C509.266 63.5728 494.569 49.8158 476.454 49.8158C458.681 49.8158 443.642 63.9146 443.642 80.4914V81.6876H438.687V80.4914C438.687 61.2657 455.947 44.9453 476.454 44.9453C496.962 44.9453 514.222 61.1803 514.222 80.4914V81.6876H509.266Z"
        fill="white" />
    <path d="M438.687 82.1147V79.7221L441.677 78.1841L443.728 79.893V82.1147H438.687Z" fill="white" />
    <path d="M439.883 80.4917V80.8335H442.446V80.4917L441.506 79.6372L439.883 80.4917Z" fill="white" />
    <path
        d="M227.717 164.059H235.92V176.79H233.784L233.271 173.714C231.989 175.936 230.024 177.047 227.375 177.047C224.641 177.047 222.505 175.936 220.967 173.714C219.429 171.493 218.66 168.502 218.66 164.657C218.66 160.641 219.429 157.479 220.967 155.172C222.505 152.865 224.812 151.669 227.973 151.669C232.331 151.669 234.98 154.147 235.835 159.103L232.16 160.043C231.733 157.907 231.135 156.539 230.451 155.941C229.682 155.343 228.828 155.001 227.888 155.001C224.641 155.001 222.932 158.077 222.932 164.315C222.932 170.553 224.641 173.714 227.973 173.714C230.793 173.714 232.16 171.578 232.16 167.306H227.803V164.059H227.717Z"
        fill="white" />
    <path
        d="M251.13 152.096H258.478C261.127 152.096 263.093 152.694 264.374 153.891C265.656 155.087 266.254 156.796 266.254 159.103C266.254 162.094 264.972 164.23 262.494 165.511L267.109 176.62H262.751L258.906 166.366H255.06V176.62H251.044V152.096H251.13ZM255.146 155.258V163.204H258.222C259.589 163.204 260.615 162.863 261.298 162.094C261.982 161.324 262.238 160.299 262.238 159.103C262.238 156.539 260.871 155.258 258.222 155.258H255.146Z"
        fill="white" />
    <path
        d="M298.04 164.315C298.04 168.502 297.271 171.664 295.818 173.8C294.366 175.936 292.144 177.047 289.324 177.047C286.505 177.047 284.283 176.021 282.745 173.885C281.207 171.749 280.438 168.587 280.438 164.401C280.438 160.214 281.207 157.052 282.66 154.916C284.198 152.78 286.334 151.669 289.239 151.669C292.059 151.669 294.28 152.694 295.733 154.83C297.271 156.967 298.04 160.128 298.04 164.315ZM293.768 164.315C293.768 161.41 293.426 159.103 292.742 157.479C292.059 155.77 290.863 155.001 289.239 155.001C287.616 155.001 286.334 155.856 285.736 157.479C285.052 159.188 284.71 161.41 284.71 164.315C284.71 167.135 285.052 169.442 285.736 171.151C286.419 172.86 287.616 173.714 289.324 173.714C290.948 173.714 292.144 172.86 292.828 171.236C293.426 169.613 293.768 167.306 293.768 164.315Z"
        fill="white" />
    <path
        d="M312.737 152.096H316.668V167.306C316.668 169.015 316.753 170.296 316.924 171.065C317.095 171.835 317.522 172.518 318.12 172.945C318.719 173.373 319.659 173.629 320.684 173.629C321.709 173.629 322.478 173.458 323.076 173.031C323.675 172.604 324.016 172.091 324.273 171.407C324.529 170.724 324.614 169.271 324.614 167.22V152.096H328.289V167.049C328.289 169.442 328.118 171.322 327.776 172.604C327.434 173.885 326.665 174.996 325.383 175.851C324.187 176.705 322.478 177.132 320.428 177.132C318.804 177.132 317.437 176.876 316.241 176.363C315.044 175.851 314.19 174.996 313.506 173.8C312.823 172.604 312.566 170.467 312.566 167.477V152.096H312.737Z"
        fill="white" />
    <path
        d="M343.925 152.096H349.992C351.957 152.096 353.495 152.267 354.692 152.609C355.888 152.951 356.913 153.805 357.768 155.001C358.622 156.198 358.964 157.736 358.964 159.53C358.964 161.154 358.622 162.521 357.939 163.717C357.255 164.913 356.401 165.682 355.204 166.195C354.094 166.708 352.299 166.964 349.992 166.964H347.856V176.534H343.84V152.096H343.925ZM348.027 155.258V163.802H350.078C351.872 163.802 353.154 163.461 353.837 162.777C354.521 162.094 354.863 160.983 354.863 159.53C354.863 158.419 354.606 157.479 354.179 156.796C353.752 156.112 353.239 155.685 352.641 155.514C352.128 155.343 351.274 155.258 350.078 155.258H348.027Z"
        fill="white" />
    <defs>
        <linearGradient id="paint0_linear_184_811" x1="456.162" y1="81.7494" x2="548.342" y2="81.7494"
            gradientUnits="userSpaceOnUse">
            <stop offset="0.05" stop-color="white" />
            <stop offset="1" stop-color="white" stop-opacity="0" />
        </linearGradient>
        <linearGradient id="paint1_linear_184_811" x1="456.162" y1="81.7494" x2="548.342" y2="81.7494"
            gradientUnits="userSpaceOnUse">
            <stop offset="0.05" stop-color="white" />
            <stop offset="1" stop-color="white" stop-opacity="0" />
        </linearGradient>
        <linearGradient id="paint2_linear_184_811" x1="386.863" y1="81.7549" x2="285.042" y2="81.7549"
            gradientUnits="userSpaceOnUse">
            <stop offset="0.05" stop-color="white" />
            <stop offset="1" stop-color="white" stop-opacity="0" />
        </linearGradient>
        <linearGradient id="paint3_linear_184_811" x1="386.863" y1="81.7549" x2="285.042" y2="81.7549"
            gradientUnits="userSpaceOnUse">
            <stop offset="0.05" stop-color="white" />
            <stop offset="1" stop-color="white" stop-opacity="0" />
        </linearGradient>
        <linearGradient id="paint4_linear_184_811" x1="118.3" y1="81.7527" x2="220.13" y2="81.7527"
            gradientUnits="userSpaceOnUse">
            <stop stop-color="white" stop-opacity="0" />
            <stop offset="0.95" stop-color="white" />
        </linearGradient>
        <linearGradient id="paint5_linear_184_811" x1="31.0926" y1="81.7527" x2="135.083" y2="81.7527"
            gradientUnits="userSpaceOnUse">
            <stop stop-color="white" stop-opacity="0" />
            <stop offset="0.95" stop-color="white" />
        </linearGradient>
        <linearGradient id="paint6_linear_184_811" x1="302.708" y1="119.919" x2="302.708" y2="35.1506"
            gradientUnits="userSpaceOnUse">
            <stop offset="0.05" stop-color="white" />
            <stop offset="1" stop-color="white" stop-opacity="0" />
        </linearGradient>
        <linearGradient id="paint7_linear_184_811" x1="302.703" y1="119.906" x2="302.703" y2="35.1496"
            gradientUnits="userSpaceOnUse">
            <stop offset="0.05" stop-color="white" />
            <stop offset="1" stop-color="white" stop-opacity="0" />
        </linearGradient>
        <linearGradient id="paint8_linear_184_811" x1="400.597" y1="81.6875" x2="400.597" y2="138.358"
            gradientUnits="userSpaceOnUse">
            <stop offset="0.05" stop-color="white" />
            <stop offset="1" stop-color="white" stop-opacity="0" />
        </linearGradient>
        <linearGradient id="paint9_linear_184_811" x1="400.597" y1="81.6875" x2="400.597" y2="138.358"
            gradientUnits="userSpaceOnUse">
            <stop offset="0.05" stop-color="white" />
            <stop offset="1" stop-color="white" stop-opacity="0" />
        </linearGradient>
        <linearGradient id="paint10_linear_184_811" x1="511.77" y1="80.8411" x2="511.77" y2="138.482"
            gradientUnits="userSpaceOnUse">
            <stop offset="0.05" stop-color="white" />
            <stop offset="1" stop-color="white" stop-opacity="0" />
        </linearGradient>
        <linearGradient id="paint11_linear_184_811" x1="511.77" y1="81.0067" x2="511.77" y2="138.482"
            gradientUnits="userSpaceOnUse">
            <stop offset="0.05" stop-color="white" />
            <stop offset="1" stop-color="white" stop-opacity="0" />
        </linearGradient>
        <linearGradient id="paint12_linear_184_811" x1="511.77" y1="81.0067" x2="511.77" y2="138.482"
            gradientUnits="userSpaceOnUse">
            <stop offset="0.05" stop-color="white" />
            <stop offset="1" stop-color="white" stop-opacity="0" />
        </linearGradient>
        <linearGradient id="paint13_linear_184_811" x1="511.77" y1="81.1095" x2="511.77" y2="138.482"
            gradientUnits="userSpaceOnUse">
            <stop offset="0.05" stop-color="white" />
            <stop offset="1" stop-color="white" stop-opacity="0" />
        </linearGradient>
    </defs>
</svg>