<svg width="427" height="120" viewBox="0 0 427 120" fill="none" xmlns="http://www.w3.org/2000/svg">
    <path
        d="M100.862 74.8141C101.583 77.6034 102.818 80.2932 104.672 82.8833L104.569 83.1822H85.0068C83.6684 80.9905 82.8447 78.6993 82.4329 76.2088C82.021 73.8179 81.8151 70.0323 81.8151 64.9517C81.8151 60.4688 80.6826 57.1813 78.3146 55.1889C75.9465 53.1965 72.343 52.2003 67.504 52.2003H53.3988V83.1822H35.1753V1.49365H68.0188C74.814 1.49365 80.7855 2.09137 85.6246 3.38644C90.5665 4.6815 94.4789 7.172 97.4647 10.7583C100.45 14.3447 101.892 19.5249 101.892 26.0998C101.892 30.9812 100.656 35.1653 98.2884 38.652C95.9203 42.1387 92.6257 44.6292 88.5074 46.4223C92.4198 47.9166 95.3026 50.1083 97.0529 52.9973C98.8031 55.8863 99.7298 59.6718 99.7298 64.1547C99.8327 68.4384 100.245 72.0247 100.862 74.8141ZM75.8436 37.6558C78.3146 37.058 80.2708 35.9622 81.8151 34.2687C83.2565 32.5751 83.9772 30.0846 83.9772 26.8968C83.9772 23.6093 83.2565 21.1188 81.8151 19.4253C80.3737 17.7317 78.4175 16.6359 75.9465 16.1378C73.4756 15.6397 70.3868 15.3409 66.5774 15.3409H53.3988V38.5523H66.3715C70.1809 38.5523 73.3726 38.2535 75.8436 37.6558Z"
        fill="#03222B" />
    <path
        d="M181.578 48.614C184.152 51.8018 185.388 55.7866 185.388 60.4688C185.388 66.7449 183.843 71.5266 180.652 74.8141C177.46 78.2012 173.445 80.3928 168.297 81.4886C163.252 82.5844 157.074 83.1822 149.764 83.1822H116.2V1.49365H148.117C154.603 1.49365 160.266 2.09137 165.208 3.18719C170.15 4.28302 174.165 6.47466 177.357 9.76213C180.549 13.0496 182.196 17.6321 182.196 23.6093C182.196 27.893 181.166 31.4793 179.21 34.4679C177.151 37.4565 174.371 39.7478 170.665 41.3417C175.298 42.9356 179.004 45.4261 181.578 48.614ZM134.527 34.6672H147.19C151.309 34.6672 154.397 34.4679 156.663 34.1691C158.928 33.8702 160.781 32.9736 162.119 31.5789C163.561 30.1843 164.178 27.9926 164.178 25.004C164.178 22.115 163.458 19.9234 162.119 18.5287C160.678 17.134 158.825 16.2374 156.56 15.839C154.192 15.4405 151.103 15.2412 147.293 15.2412H134.527V34.6672ZM159.442 68.8369C161.913 68.4384 163.973 67.5418 165.414 66.0475C166.855 64.5532 167.576 62.2619 167.576 59.1737C167.576 55.9859 166.752 53.595 165.105 52.0011C163.458 50.4071 161.399 49.5106 159.031 49.1121C156.56 48.7136 153.471 48.5144 149.558 48.5144H134.527V69.5342H148.941C153.471 69.4346 156.971 69.2354 159.442 68.8369Z"
        fill="#03222B" />
    <path
        d="M245.522 81.4893C240.065 79.3973 235.741 76.2094 232.446 72.0254C229.152 67.7417 227.401 62.4618 227.196 56.0861L245.831 54.0937C245.831 59.6725 247.478 63.8565 250.773 66.7455C254.068 69.6345 258.495 71.0292 264.157 71.0292C269.202 71.0292 273.321 70.1326 276.306 68.3394C279.292 66.5463 280.837 63.6573 280.837 59.7721C280.837 57.5804 280.219 55.8869 278.983 54.6915C277.748 53.496 275.997 52.5994 273.938 51.9021C271.879 51.3044 268.79 50.607 264.672 49.8101C263.128 49.5112 261.377 49.2123 259.524 48.8139C253.244 47.5188 247.993 45.9249 243.669 44.0321C239.345 42.1393 235.947 39.5492 233.373 36.2617C230.799 32.9743 229.564 28.8898 229.564 23.9088C229.564 18.629 231.108 14.1461 234.197 10.5597C237.285 6.9734 241.404 4.28366 246.346 2.59011C251.391 0.996191 256.744 0.0996094 262.51 0.0996094C272.291 0.0996094 280.219 2.19163 286.293 6.37568C292.368 10.5597 295.868 17.1347 296.795 26.2997L278.366 29.0891C278.057 23.8092 276.615 19.8244 273.938 17.3339C271.261 14.8434 267.452 13.5483 262.407 13.5483C257.98 13.5483 254.479 14.3453 251.905 16.0388C249.331 17.7324 248.096 20.1233 248.096 23.2115C248.096 25.2039 248.817 26.7978 250.258 28.0929C251.699 29.3879 253.759 30.4838 256.436 31.2807C259.112 32.1773 262.613 32.9743 266.937 33.6716C273.938 34.867 279.704 36.3613 284.337 38.0549C288.97 39.848 292.677 42.4382 295.354 45.8253C298.133 49.2123 299.472 53.6953 299.472 59.274C299.472 65.4504 297.825 70.4314 294.427 74.217C291.132 78.0026 286.705 80.5927 281.454 82.1866C276.1 83.7805 270.232 84.5775 263.746 84.5775C256.95 84.6771 250.876 83.5813 245.522 81.4893Z"
        fill="#03222B" />
    <path
        d="M361.557 79.6961C355.173 76.4087 350.334 71.6269 347.04 65.3508C343.745 58.9751 341.995 51.404 341.995 42.3386C341.995 34.0701 343.642 26.6982 347.04 20.3225C350.334 13.9468 355.276 8.96581 361.66 5.37949C368.043 1.79316 375.662 0 384.516 0C393.268 0 400.783 1.79316 407.167 5.37949C413.55 8.96581 418.389 13.9468 421.787 20.3225C425.184 26.6982 426.832 34.0701 426.832 42.2389C426.832 50.607 425.184 57.8793 421.787 64.255C418.389 70.6307 413.55 75.6117 407.167 79.198C400.783 82.7843 393.268 84.5775 384.516 84.5775C375.559 84.6771 367.94 82.9836 361.557 79.6961ZM395.018 68.8375C398.004 67.6421 400.475 65.7493 402.431 63.3584C404.284 60.8679 405.725 57.8793 406.652 54.1934C407.579 50.607 407.991 46.6222 407.991 42.3386C407.991 38.1545 407.476 34.0701 406.549 30.2845C405.622 26.499 404.181 23.5104 402.431 21.2191C398.724 16.4373 392.959 13.9468 385.031 13.9468C376.794 13.9468 370.823 16.2381 366.91 20.9202C365.057 23.1119 363.616 26.1005 362.586 30.0853C361.557 34.0701 361.042 38.0549 361.042 42.2389C361.042 46.6222 361.454 50.607 362.38 54.0937C363.307 57.5804 364.645 60.569 366.293 62.8603C368.249 65.5501 370.823 67.4428 374.014 68.7379C377.206 69.9333 380.707 70.6307 384.619 70.6307C388.429 70.7303 391.929 70.1326 395.018 68.8375Z"
        fill="#03222B" />
    <path d="M18.4954 33.8702L9.33218 42.3379L0.168945 33.8702V1.49365H18.4954V33.8702Z" fill="#03222B" />
    <path d="M0.168945 50.8071L9.33218 42.3394L18.4954 50.8071V83.1836H0.168945V50.8071Z" fill="#03222B" />
    <path d="M214.839 33.8731L205.676 42.3408L196.513 33.8731V1.49658H214.839V33.8731Z" fill="#03222B" />
    <path d="M196.513 50.81L205.676 42.3423L214.839 50.81V83.1865H196.513V50.81Z" fill="#03222B" />
    <path d="M329.944 33.8697L320.781 42.3374L311.618 33.8697V1.49316H329.944V33.8697Z" fill="#03222B" />
    <path d="M311.618 50.8071L320.781 42.3394L329.944 50.8071V83.1836H311.618V50.8071Z" fill="#03222B" />
    <path
        d="M203.371 119.093C206.672 119.093 208.778 117.773 209.847 115.729H209.91L210.476 118.59H214.531V106.644H204.408V110.731H208.684C208.621 112.9 206.797 114.472 204.188 114.472C200.258 114.472 198.969 111.58 198.969 107.335C198.969 103.123 200.258 100.23 203.968 100.23C207.08 100.23 207.992 102.022 208.401 103.563H214.185C213.651 99.2558 210.224 95.6089 204.062 95.6089C196.989 95.6089 193.185 100.576 193.185 107.335C193.185 114.126 196.989 119.093 203.371 119.093ZM223.396 118.59V110.762H226.917C231.727 110.762 229.684 117.647 230.784 118.59H236.663V118.276C235.374 117.899 237.418 109.19 231.79 108.216V108.153C234.588 107.524 236.349 105.669 236.349 102.525C236.349 98.4384 233.331 96.112 228.332 96.112H217.737V118.59H223.396ZM223.396 106.141V100.733H227.232C229.495 100.733 230.69 101.551 230.69 103.437C230.69 105.323 229.495 106.141 227.232 106.141H223.396ZM249.414 119.093C256.488 119.093 260.543 114.126 260.543 107.335C260.543 100.576 256.488 95.6089 249.414 95.6089C242.278 95.6089 238.285 100.576 238.285 107.335C238.285 114.126 242.278 119.093 249.414 119.093ZM249.414 114.472C245.296 114.472 244.07 111.265 244.07 107.335C244.07 103.437 245.296 100.23 249.414 100.23C253.501 100.23 254.759 103.437 254.759 107.335C254.759 111.265 253.501 114.472 249.414 114.472ZM272.614 118.59L275.978 104.569H276.041L279.405 118.59H285.064L290.786 96.112H285.127L282.234 111.36H282.171L278.682 96.112H273.337L269.848 111.36H269.785L266.892 96.112H261.234L266.955 118.59H272.614ZM303.708 118.59V100.733H310.216V96.112H291.51V100.733H298.05V118.59H303.708ZM318.233 118.59V109.536H325.935V118.59H331.594V96.112H325.935V104.915H318.233V96.112H312.574V118.59H318.233ZM347 118.59V110.291H356.023V105.669H347V100.733H358.066V96.112H341.341V118.59H347ZM369.833 119.093C376.624 119.093 379.233 116.075 379.233 110.479V96.112H373.574V110.479C373.574 113.403 372.317 114.472 369.833 114.472C367.35 114.472 366.092 113.403 366.092 110.479V96.112H360.433V110.479C360.433 116.075 363.043 119.093 369.833 119.093ZM388.478 118.59V105.229H388.541L396.4 118.59H402.059V96.112H396.4V109.473H396.337L388.478 96.112H382.819V118.59H388.478ZM416.125 118.59C422.382 118.59 425.84 114.598 425.84 107.367C425.84 100.136 422.067 96.112 415.811 96.112H405.845V118.59H416.125ZM411.504 113.969V100.733H415.119C418.64 100.733 420.055 103.28 420.055 107.367C420.055 111.454 418.64 113.969 415.119 113.969H411.504Z"
        fill="#F97133" />
</svg>