<svg width="181" height="182" viewBox="0 0 181 182" fill="none" xmlns="http://www.w3.org/2000/svg">
    <path d="M0.249931 0.749195L0 180.749L180 181.002L180.25 1.00193L0.249931 0.749195Z" fill="#3E7D3C" />
    <path
        d="M15.9143 23.4318C15.6059 23.5963 14.7012 23.9561 13.2002 24.4907C12.0179 24.8917 11.2674 25.159 10.959 25.2926V20.4195C11.9151 20.0494 13.0871 19.484 14.4544 18.7232C15.8218 17.9624 16.7882 17.2736 17.3536 16.6465H22.4837V50.9637H15.9143V23.4215V23.4318Z"
        fill="white" />
    <path
        d="M28.0364 48.8561C26.5971 47.0467 25.8774 44.4971 25.8774 41.1867V40.0044H32.4057V41.1456C32.4366 42.8933 32.6422 44.1578 33.0432 44.9186C33.4338 45.6794 34.1535 46.0598 35.2021 46.0598C36.2508 46.0598 36.9499 45.6691 37.2994 44.898C37.649 44.1167 37.8237 42.8624 37.8237 41.1044C37.8237 39.3464 37.5564 37.9071 37.0218 37.0127C36.4872 36.1182 35.5003 35.6659 34.0507 35.6351C33.9684 35.6042 33.5675 35.5939 32.8684 35.5939V30.8031H33.9273C35.3975 30.8031 36.4153 30.4021 36.9807 29.6208C37.5462 28.8292 37.8237 27.5338 37.8237 25.7244C37.8237 24.2542 37.6181 23.1645 37.2069 22.4654C36.7957 21.756 36.0657 21.4064 35.0274 21.4064C34.0404 21.4064 33.3619 21.7868 32.9918 22.5476C32.6217 23.3084 32.4263 24.4393 32.3955 25.9403V27.4618H25.8672V25.601C25.8672 22.6093 26.6691 20.2858 28.2626 18.6512C29.8561 17.0166 32.1076 16.1941 35.0171 16.1941C37.9265 16.1941 40.2705 16.9857 41.8846 18.569C43.4987 20.1522 44.3006 22.4242 44.3006 25.3954C44.3006 27.3693 43.8894 29.0348 43.0772 30.3713C42.2547 31.7078 41.2164 32.5508 39.9416 32.8901C42.851 33.9696 44.3006 36.6631 44.3006 40.9811C44.3006 44.2915 43.5707 46.8822 42.1005 48.7533C40.6304 50.6347 38.2966 51.5703 35.1096 51.5703C31.9226 51.5703 29.4757 50.6656 28.0364 48.8561Z"
        fill="white" />
    <path
        d="M58.6521 28.788C58.0867 28.0272 57.7988 26.9477 57.7988 25.5598V20.8821C57.7988 19.4428 58.0764 18.353 58.6419 17.6128C59.2073 16.8623 60.1737 16.4922 61.541 16.4922C62.8261 16.4922 63.7411 16.8212 64.2757 17.4689C64.8103 18.1166 65.0879 19.0521 65.0879 20.2755V21.3756H62.785V20.2447C62.785 19.782 62.7645 19.4119 62.7233 19.1549C62.6822 18.8876 62.5691 18.6717 62.3943 18.5072C62.2196 18.3427 61.942 18.2502 61.5616 18.2502C61.1812 18.2502 60.8831 18.3427 60.6877 18.5175C60.4924 18.6923 60.369 18.939 60.3073 19.2269C60.2457 19.525 60.2148 19.9054 60.2148 20.3886V26.0739C60.2148 26.8244 60.3073 27.359 60.5027 27.688C60.698 28.0169 61.0476 28.1814 61.5616 28.1814C61.9317 28.1814 62.199 28.0992 62.3738 27.9244C62.5485 27.7496 62.6616 27.5235 62.713 27.2356C62.7644 26.9477 62.785 26.5674 62.785 26.0944V24.9121H65.0879V25.9608C65.0879 27.2253 64.8206 28.202 64.2963 28.9011C63.7617 29.6002 62.8467 29.9497 61.541 29.9497C60.2354 29.9497 59.2176 29.5693 58.6521 28.8086"
        fill="white" />
    <path d="M66.2715 16.6257H68.6566V28.1196H71.8437V29.7543H66.2715V16.6257Z" fill="white" />
    <path d="M75.0403 16.6257H72.6758V29.744H75.0403V16.6257Z" fill="white" />
    <path
        d="M76.7672 16.6257H79.2448L81.1159 25.7139L83.0384 16.6257H85.4544L85.7012 29.7543H83.9123L83.717 20.625L81.8562 29.7543H80.4169L78.5149 20.5941L78.3402 29.7543H76.541L76.7672 16.6257Z"
        fill="white" />
    <path
        d="M91.3036 25.1999L90.4092 19.6894L89.5147 25.1999H91.2933H91.3036ZM89.1138 16.6257H91.6737L94.2953 29.744H92.0746L91.5606 26.7112H89.2783L88.7437 29.744H86.4922L89.1138 16.6257Z"
        fill="white" />
    <path d="M95.9827 18.394H93.793V16.6257H100.517V18.394H98.3679V29.7543H95.9827V18.394Z" fill="white" />
    <path
        d="M101.092 16.6257H106.592V18.3118H103.467V22.0848H105.934V23.7606H103.467V28.1196H106.623V29.7543H101.092V16.6257Z"
        fill="white" />
    <path
        d="M62.1596 46.6354L61.2652 41.1249L60.3707 46.6354H62.1493H62.1596ZM59.9698 38.0613H62.5297L65.1513 51.1796H62.9306L62.4063 48.1467H60.124L59.5894 51.1796H57.3379L59.9595 38.0613H59.9698Z"
        fill="white" />
    <path
        d="M66.6189 50.2233C66.0535 49.4625 65.7656 48.383 65.7656 46.9951V42.3174C65.7656 40.8781 66.0432 39.7883 66.6087 39.0481C67.1741 38.2976 68.1405 37.9275 69.5078 37.9275C70.7929 37.9275 71.7079 38.2565 72.2425 38.9042C72.7771 39.5519 73.0547 40.4874 73.0547 41.7108V42.8109H70.7518V41.68C70.7518 41.2173 70.7313 40.8472 70.6901 40.5902C70.649 40.3229 70.5359 40.107 70.3611 39.9425C70.1864 39.778 69.9088 39.6855 69.5284 39.6855C69.148 39.6855 68.8499 39.778 68.6545 39.9528C68.4592 40.1276 68.3358 40.3743 68.2741 40.6622C68.2125 40.9603 68.1816 41.3407 68.1816 41.8239V47.5092C68.1816 48.2597 68.2741 48.7943 68.4695 49.1233C68.6648 49.4522 69.0144 49.6167 69.5284 49.6167C69.8985 49.6167 70.1658 49.5345 70.3406 49.3597C70.5153 49.1849 70.6284 48.9588 70.6798 48.6709C70.7312 48.3831 70.7518 48.0027 70.7518 47.5297V46.3475H73.0547V47.3961C73.0547 48.6606 72.7874 49.6373 72.2631 50.3364C71.7285 51.0355 70.8135 51.385 69.5078 51.385C68.2022 51.385 67.1844 51.0046 66.6189 50.2439"
        fill="white" />
    <path d="M75.5218 39.8296H73.332V38.0613H80.0557V39.8296H77.8967V51.1898H75.5218V39.8296Z" fill="white" />
    <path d="M83.058 38.0613H80.6934V51.1796H83.058V38.0613Z" fill="white" />
    <path
        d="M89.2476 49.0924C89.4326 48.7532 89.5252 48.27 89.5252 47.6326V41.5875C89.5252 40.95 89.4327 40.4668 89.2579 40.1481C89.0831 39.8192 88.7233 39.6649 88.1784 39.6649C87.6335 39.6649 87.2737 39.8294 87.0886 40.1584C86.9036 40.4874 86.811 40.9706 86.811 41.5977V47.6428C86.811 48.2802 86.9036 48.7634 87.0886 49.1027C87.2737 49.442 87.6335 49.6065 88.1784 49.6065C88.7233 49.6065 89.0625 49.442 89.2476 49.1027M85.2586 50.2747C84.6726 49.5448 84.3848 48.4756 84.3848 47.0774V42.1529C84.3848 40.765 84.6726 39.7061 85.2586 38.9967C85.8446 38.2873 86.811 37.9275 88.1784 37.9275C89.5457 37.9275 90.4916 38.2873 91.0776 38.9967C91.6636 39.7061 91.9514 40.765 91.9514 42.1529V47.0774C91.9514 48.4653 91.6533 49.5345 91.0673 50.2644C90.4813 50.9944 89.5149 51.3645 88.1784 51.3645C86.8419 51.3645 85.8446 51.0046 85.2586 50.2747Z"
        fill="white" />
    <path
        d="M93.2266 38.0613H94.9023L98.0894 45.5457V38.0613H100.063V51.1898H98.4801L95.2724 43.3456V51.1898H93.2266V38.0613Z"
        fill="white" />
    <path
        d="M118.661 120.421C117.91 120.215 114.785 115.877 117.262 113.029C117.674 112.556 116.43 111.178 116.769 111.158C118.126 111.055 118.846 111.898 119.195 113.111C119.216 113.646 119.236 114.18 119.236 114.725C119.236 116.678 119.031 118.58 118.65 120.421M110.991 134.495C110.714 134.413 110.426 134.32 110.117 134.166C108.596 133.385 108.781 134.629 108.03 134.351C107.28 134.074 108.873 132.336 106.622 133.806C104.381 135.266 104.987 133.58 104.011 131.092C103.024 128.604 105.141 125.767 106.91 125.129C109.336 124.255 110.837 124.081 111.978 123.803C115.33 122.97 116.039 120.986 116.646 122.189C116.759 122.415 116.872 122.631 116.975 122.837C117.17 123.196 117.396 123.937 117.406 124.656C115.977 128.388 113.777 131.73 110.991 134.495ZM91.3035 142.596C88.5791 142.596 85.9472 142.195 83.4593 141.465C83.0994 141.178 82.8938 140.684 83.12 140.098C83.9836 137.847 86.564 136.973 88.5894 136.777C93.1129 136.346 99.0552 139.728 100.001 139.183C100.947 138.638 102.869 136.15 105.676 136.263C107.588 136.335 107.578 136.664 108.215 136.901C103.517 140.478 97.657 142.596 91.2932 142.596M87.5202 124.399C87.1398 125.026 86.0809 129.714 85.3715 129.17C84.6621 128.625 85.6696 123.731 85.865 123.361C86.965 121.336 89.3501 121.449 87.5099 124.399M98.9113 118.868C98.3561 119.362 96.9476 119.177 96.2383 118.622C95.5392 118.077 96.6906 117.172 97.1019 117.141C98.0374 117.059 99.4459 118.375 98.901 118.868M111.217 118.93C110.919 118.817 110.652 118.529 110.426 117.85C110.2 117.162 110.775 116.771 111.341 117.049C111.916 117.336 112.657 118.2 112.657 118.652C112.657 119.105 111.526 119.053 111.217 118.93ZM112.4 119.794C113.335 119.722 114.744 121.017 114.199 121.521C113.654 122.014 112.245 121.829 111.536 121.274C110.837 120.729 111.978 119.824 112.4 119.794ZM82.4518 130.876C81.9069 133.015 81.2695 133.775 80.7349 134.454C80.2003 135.132 78.1955 135.996 76.931 135.904C75.6561 135.811 75.4917 132.418 75.4917 130.681C75.4917 130.074 74.6383 131.863 74.1963 128.234C73.9187 125.911 72.4177 128.471 72.3149 126.928C72.2121 125.386 71.4616 125.695 70.6803 124.728C69.8989 123.762 68.9325 124.821 67.8428 125.304C66.7633 125.787 67.2053 126.034 65.6632 125.551C65.6221 125.54 65.6015 125.53 65.5604 125.51C64.1519 122.168 63.3809 118.498 63.3809 114.643C63.3809 113.697 63.4323 112.772 63.5248 111.857C63.5762 111.764 63.6276 111.672 63.6996 111.6C65.18 109.852 65.1492 109.451 65.1492 109.451L66.7838 108.886C66.7838 108.886 69.3952 109.287 71.3588 110.037C72.9729 110.644 75.5225 112.021 77.0029 111.415C78.0721 110.973 78.9152 110.387 78.8124 109.502C78.689 108.382 77.8151 108.115 76.7459 108.865C76.3552 109.143 75.5122 107.179 74.8543 107.282C74.1963 107.374 75.6664 109.585 75.1113 109.688C74.5561 109.78 73.4355 107.385 73.2402 106.994C73.0551 106.603 72.1813 105.647 71.3999 106.377C69.755 107.94 67.082 107.837 66.5371 108.238C64.9025 109.461 64.4707 107.837 64.5118 106.84C64.5735 106.614 64.6454 106.387 64.7174 106.161C65.252 105.575 67.1642 105.38 67.8222 105.822C68.5419 106.305 69.0662 105.699 69.3438 105.411C69.6316 105.123 69.5288 104.66 69.3438 104.28C69.1587 103.889 69.7036 103.612 70.0737 103.509C70.4541 103.406 71.6981 102.542 72.1915 102.255C72.6953 101.967 75.2758 101.658 76.4272 102.234C77.5787 102.82 78.6376 102.347 79.2133 101.679C79.9227 100.836 80.8377 100.188 81.2386 99.9927C81.6396 99.8077 80.2414 98.4917 79.0899 99.9208C77.9385 101.34 77.3422 101.473 76.8076 101.463C76.2627 101.463 73.0448 100.651 72.6439 99.6329C72.2532 98.6151 73.6514 97.8543 74.844 97.2786C76.0365 96.7132 79.2853 96.7234 80.118 96.5384C81.8041 96.1683 83.9733 95.3253 85.0631 96.0655C86.1425 96.7954 80.5189 98.0702 82.3592 99.0675C83.0172 99.4273 85.9986 97.3609 87.0164 96.8263C89.4221 95.5926 84.693 95.1813 85.3098 92.6625C86.0089 89.825 79.5114 90.9148 76.273 91.1513C80.6218 88.3755 85.7724 86.7614 91.3035 86.7716C104.473 86.7922 115.484 95.9215 118.404 108.197C118.424 108.803 118.332 109.245 118.27 109.492C118.013 110.5 116.111 111.363 115.001 109.739C114.723 109.328 113.52 108.197 113.561 110.13C113.592 112.062 115.443 112.268 113.654 113.419C111.865 114.581 111.546 114.293 110.724 114.591C109.901 114.879 109.1 116.874 109.295 117.943C109.49 119.012 112.03 121.922 110.148 121.798C109.706 121.767 106.375 119.485 105.83 118.015C105.255 116.473 104.617 114.962 104.175 113.8C103.723 112.638 102.54 112.34 101.543 113.018C100.546 113.697 101.821 114.376 101.101 115.835C100.392 117.285 99.8777 118.58 98.829 117.378C96.1149 114.252 92.1465 115.784 91.5297 112.309C91.2007 110.428 89.5763 110.603 88.2193 109.533C86.8622 108.474 86.1014 107.888 85.865 108.659C85.6593 109.338 90.1212 112.885 90.4399 113.79C90.9128 115.136 89.1034 116.329 87.7772 116.637C86.4613 116.956 85.8752 115.887 84.5799 114.53C83.2845 113.173 82.719 112.206 82.6265 113.265C82.4929 114.797 83.8602 117.059 85.1762 117.902C86.307 118.622 87.5716 118.94 87.2015 120.102C86.8314 121.264 87.2015 120.606 85.9266 121.86C84.6518 123.114 84.4154 123.515 84.5079 125.253C84.6004 127 84.1481 127.093 83.8705 128.542C83.6032 129.992 82.9658 128.738 82.4209 130.856M67.4727 100.085C67.5343 100.013 67.596 99.9516 67.6166 99.9208C68.1203 99.345 69.1279 99.2217 69.8167 99.1189C70.5158 99.0058 71.441 99.3553 71.5438 99.818C71.6569 100.281 69.7961 101.113 69.4568 101.432C68.4904 102.316 66.9792 104.126 66.095 104.321C65.8072 104.383 65.5707 104.342 65.3754 104.239C65.9614 102.789 66.6502 101.401 67.4624 100.085M68.9017 97.2375C69.2615 96.7132 70.4644 95.2019 70.6083 95.0066C70.9167 94.6056 71.5336 94.5336 71.9654 94.4514C72.3869 94.3691 72.9523 94.6056 73.0243 94.9346C73.0962 95.2533 72.8598 96.4973 72.6439 96.7029C72.0579 97.3094 70.526 98.173 69.683 98.0291C69.0353 97.9263 68.7783 97.4225 68.9017 97.2272M157.594 113.841C152.844 107.148 131.327 80.449 91.2727 80.3873C51.2085 80.3359 29.6291 106.984 24.8485 113.656C24.6429 113.944 24.4681 114.19 24.3242 114.396C24.4681 114.612 24.6429 114.859 24.8485 115.147C29.6085 121.829 51.1159 148.539 91.1801 148.6C131.234 148.652 152.824 122.004 157.594 115.332C157.8 115.044 157.974 114.797 158.108 114.581C157.974 114.376 157.8 114.119 157.594 113.841Z"
        fill="white" />
</svg>