<svg width="180" height="180" viewBox="0 0 180 180" fill="none" xmlns="http://www.w3.org/2000/svg">
    <path d="M180 0H0V180H180V0Z" fill="#EC6411" />
    <path
        d="M25.8777 30.4464V24.9755C25.8777 23.4759 25.6927 22.297 25.3226 21.4179C24.9524 20.5389 24.2945 20.1045 23.328 20.1045C22.3102 20.1045 21.6317 20.5802 21.2924 21.5213C20.9531 22.4624 20.7887 23.9724 20.7887 26.0304C20.7887 27.4989 20.8298 28.6262 20.912 29.4018C20.9943 30.1775 21.2307 30.8083 21.6111 31.284C21.9915 31.7598 22.5775 32.008 23.3692 32.008C24.4178 32.008 25.2506 31.4805 25.8674 30.436M16.6968 48.255C15.3603 46.7968 14.6714 44.6044 14.6406 41.6673V41.1605H20.8298C20.8298 42.7118 20.9943 43.8184 21.313 44.4699C21.6317 45.1215 22.3102 45.4421 23.328 45.4421C24.0374 45.4421 24.5618 45.2249 24.9216 44.8112C25.2712 44.3872 25.5179 43.6839 25.6618 42.7118C25.8058 41.7397 25.8777 40.3332 25.8777 38.4923V35.0175C25.5076 35.638 24.9319 36.124 24.1402 36.4757C23.3486 36.8273 22.4336 37.0031 21.3849 37.0031C18.8455 37.0031 16.995 36.0723 15.8332 34.2108C14.6714 32.3493 14.0957 29.8776 14.0957 26.7957C14.0957 19.0807 17.1697 15.2231 23.3383 15.2231C26.5049 15.2231 28.8284 16.1953 30.3294 18.1499C31.8305 20.1045 32.5707 22.783 32.5707 26.1959V38.6992C32.5707 42.4015 31.8819 45.2766 30.5145 47.3449C29.1471 49.403 26.7311 50.4372 23.2869 50.4372C20.2335 50.4372 18.0436 49.7132 16.6968 48.255Z"
        fill="white" />
    <path d="M42.5619 15.3989H40.1973V28.5227H42.5619V15.3989Z" fill="white" />
    <path
        d="M43.7461 15.3989H45.4219L48.609 22.8761V15.3989H50.583V28.5227H48.9997L45.792 20.6733V28.5227H43.7461V15.3989Z"
        fill="white" />
    <path
        d="M54.8598 26.8474C55.3841 26.8474 55.7748 26.7544 56.0113 26.5682C56.2477 26.3821 56.402 26.1235 56.4636 25.8029C56.5253 25.472 56.5562 24.9859 56.5562 24.3344V19.3082C56.5562 18.7291 56.5151 18.2844 56.4431 17.9845C56.3711 17.6846 56.2066 17.457 55.9701 17.3123C55.7337 17.1675 55.343 17.0951 54.829 17.0951H54.1196V26.8474H54.8701H54.8598ZM51.7344 15.3887H54.829C55.8879 15.3887 56.7207 15.5335 57.3273 15.8127C57.9338 16.1023 58.3656 16.5366 58.6124 17.1261C58.8694 17.7156 58.9928 18.4912 58.9928 19.4634V24.2413C58.9928 25.2341 58.8694 26.0408 58.6124 26.6613C58.3554 27.2818 57.9338 27.7368 57.3375 28.0471C56.7412 28.3574 55.9393 28.5125 54.9215 28.5125H51.7344V15.3887Z"
        fill="white" />
    <path
        d="M61.2743 28.1815C60.7397 27.8403 60.3594 27.3439 60.1435 26.7027C59.9276 26.0615 59.8145 25.2548 59.8145 24.2723V15.3887H62.1482V24.5412C62.1482 25.2962 62.2408 25.8753 62.4155 26.289C62.5903 26.7027 62.9604 26.9095 63.5053 26.9095C64.0502 26.9095 64.4409 26.7027 64.6157 26.289C64.7904 25.8753 64.883 25.2962 64.883 24.5412V15.3887H67.1962V24.2723C67.1962 25.2445 67.0831 26.0511 66.8672 26.6923C66.6513 27.3335 66.2709 27.8299 65.7363 28.1712C65.2017 28.5125 64.4512 28.6883 63.5053 28.6883C62.5595 28.6883 61.809 28.5125 61.2743 28.1712"
        fill="white" />
    <path
        d="M68.8824 27.6956C68.2964 27.0234 67.9674 26.0305 67.916 24.6964L69.9722 24.2931C70.0031 25.1205 70.1367 25.7617 70.3732 26.196C70.5993 26.6304 70.9695 26.8475 71.4629 26.8475C71.8331 26.8475 72.1004 26.7338 72.2854 26.5166C72.4705 26.2994 72.5527 25.9995 72.5527 25.6169C72.5527 25.0998 72.4396 24.6654 72.2032 24.3035C71.9667 23.9415 71.6069 23.5485 71.1134 23.1038L69.4582 21.6559C68.9544 21.2009 68.574 20.7355 68.317 20.2598C68.0599 19.7841 67.9366 19.1842 67.9366 18.481C67.9366 17.4468 68.2347 16.6401 68.8413 16.0817C69.4479 15.5232 70.2806 15.2336 71.3499 15.2336C72.4705 15.2336 73.2827 15.5542 73.7659 16.1954C74.2491 16.8366 74.537 17.7053 74.6089 18.7912L72.5527 19.1532C72.5219 18.45 72.4294 17.9122 72.2649 17.5502C72.1106 17.1883 71.8022 17.0021 71.3499 17.0021C70.9798 17.0021 70.6919 17.1159 70.4863 17.3434C70.2806 17.5709 70.1676 17.8708 70.1676 18.2328C70.1676 18.6568 70.2498 19.0084 70.4246 19.2877C70.5994 19.5669 70.8666 19.8771 71.2368 20.2081L72.8714 21.6456C73.4883 22.1937 73.9715 22.7729 74.3108 23.3623C74.6604 23.9518 74.8249 24.6551 74.8249 25.4514C74.8249 26.0719 74.6912 26.6304 74.4136 27.1164C74.136 27.6025 73.7556 27.9852 73.2519 28.2644C72.7584 28.5436 72.1826 28.6781 71.5349 28.6781C70.3423 28.6781 69.4582 28.3471 68.8721 27.6749"
        fill="white" />
    <path d="M76.686 17.157H74.4961V15.3989H81.2199V17.157H79.0711V28.5227H76.686V17.157Z" fill="white" />
    <path
        d="M84.5698 21.0144C85.2484 21.0144 85.7316 20.8593 86.0194 20.549C86.3073 20.2388 86.4513 19.7217 86.4513 19.0081C86.4513 18.2945 86.3279 17.8188 86.0709 17.4982C85.8138 17.1879 85.3615 17.0328 84.7035 17.0328H83.809V21.0144H84.5698ZM81.4238 15.3884H84.5801C85.968 15.3884 86.9962 15.647 87.6747 16.1744C88.3532 16.7018 88.6925 17.6016 88.6925 18.8736C88.6925 19.701 88.5691 20.3835 88.3327 20.911C88.0859 21.4384 87.6747 21.8211 87.0784 22.0589L88.9084 28.5226H86.5129L84.9399 22.514H83.809V28.5226H81.4238V15.3988V15.3884Z"
        fill="white" />
    <path
        d="M91.4811 23.5069L88.8184 15.3989H91.0596L92.6737 20.5905L94.1953 15.3989H96.3852L93.7635 23.5069V28.5227H91.4811V23.5069Z"
        fill="white" />
    <path
        d="M96.2693 29.9086C96.5778 29.8259 96.8348 29.6604 97.0301 29.4329C97.2255 29.195 97.318 28.8951 97.318 28.5125H96.1562V26.3303H98.3152V28.3263C98.3152 29.0192 98.1713 29.557 97.8732 29.95C97.575 30.343 97.1227 30.5912 96.5058 30.7153L96.2796 29.9189L96.2693 29.9086Z"
        fill="white" />
    <path d="M104.599 15.3989H102.234V28.5227H104.599V15.3989Z" fill="white" />
    <path
        d="M105.781 15.3989H107.447L110.644 22.8761V15.3989H112.618V28.5227H111.035L107.827 20.6733V28.5227H105.781V15.3989Z"
        fill="white" />
    <path
        d="M113.77 15.3989H115.435L118.632 22.8761V15.3989H120.606V28.5227H119.023L115.815 20.6733V28.5227H113.77V15.3989Z"
        fill="white" />
    <path
        d="M126.406 26.4235C126.591 26.0926 126.683 25.6065 126.683 24.9653V18.9257C126.683 18.2845 126.591 17.8087 126.416 17.4778C126.241 17.1572 125.882 16.9917 125.337 16.9917C124.792 16.9917 124.432 17.1572 124.247 17.4881C124.062 17.8191 123.969 18.2948 123.969 18.9257V24.9653C123.969 25.6065 124.062 26.0926 124.247 26.4235C124.432 26.7545 124.792 26.9303 125.337 26.9303C125.882 26.9303 126.221 26.7648 126.406 26.4235ZM122.417 27.6025C121.831 26.8682 121.543 25.803 121.543 24.4068V19.4841C121.543 18.088 121.831 17.0435 122.417 16.3299C123.003 15.6163 123.969 15.2646 125.337 15.2646C126.704 15.2646 127.65 15.6163 128.236 16.3299C128.822 17.0435 129.11 18.0983 129.11 19.4841V24.4068C129.11 25.803 128.812 26.8682 128.226 27.6025C127.64 28.3368 126.673 28.7091 125.337 28.7091C124 28.7091 123.003 28.3471 122.417 27.6128"
        fill="white" />
    <path d="M129.418 15.3989H131.526L133.263 24.6756L134.898 15.3989H137.057L134.415 28.5227H132.06L129.418 15.3989Z"
        fill="white" />
    <path
        d="M141.292 23.9621L140.398 18.4499L139.503 23.9621H141.282H141.292ZM139.102 15.3887H141.662L144.284 28.5125H142.063L141.549 25.4823H139.267L138.732 28.5125H136.48L139.102 15.3887Z"
        fill="white" />
    <path d="M145.62 17.157H143.43V15.3989H150.153V17.157H148.005V28.5227H145.62V17.157Z" fill="white" />
    <path d="M152.796 15.3989H150.432V28.5227H152.796V15.3989Z" fill="white" />
    <path
        d="M158.636 26.4235C158.821 26.0926 158.914 25.6065 158.914 24.9653V18.9257C158.914 18.2845 158.821 17.8087 158.647 17.4778C158.472 17.1572 158.112 16.9917 157.567 16.9917C157.022 16.9917 156.662 17.1572 156.477 17.4881C156.292 17.8191 156.2 18.2948 156.2 18.9257V24.9653C156.2 25.6065 156.292 26.0926 156.477 26.4235C156.662 26.7545 157.022 26.9303 157.567 26.9303C158.112 26.9303 158.451 26.7648 158.636 26.4235ZM154.647 27.6025C154.061 26.8682 153.773 25.803 153.773 24.4068V19.4841C153.773 18.088 154.061 17.0435 154.647 16.3299C155.233 15.6163 156.2 15.2646 157.567 15.2646C158.935 15.2646 159.88 15.6163 160.466 16.3299C161.052 17.0435 161.34 18.0983 161.34 19.4841V24.4068C161.34 25.803 161.042 26.8682 160.456 27.6025C159.87 28.3368 158.904 28.7091 157.567 28.7091C156.231 28.7091 155.233 28.3471 154.647 27.6128"
        fill="white" />
    <path
        d="M162.256 15.3989H163.932L167.119 22.8761V15.3989H169.093V28.5227H167.509L164.302 20.6733V28.5227H162.256V15.3989Z"
        fill="white" />
    <path
        d="M44.2803 45.4008L43.3858 39.8886L42.4914 45.4008H44.27H44.2803ZM42.0904 36.8274H44.6504L47.272 49.9512H45.0513L44.5373 46.921H42.2549L41.7203 49.9512H39.4688L42.0904 36.8274Z"
        fill="white" />
    <path
        d="M47.9609 36.8274H49.6265L52.8238 44.3149V36.8274H54.7978V49.9512H53.2145L50.0068 42.1121V49.9512H47.9609V36.8274Z"
        fill="white" />
    <path
        d="M59.2915 48.2862C59.8261 48.2862 60.2065 48.1931 60.4429 48.0069C60.6794 47.8208 60.8336 47.5622 60.8953 47.2416C60.957 46.9107 60.9981 46.4246 60.9981 45.7731V40.747C60.9981 40.1678 60.957 39.7231 60.885 39.4232C60.8131 39.1233 60.6485 38.8958 60.4121 38.751C60.1756 38.6062 59.785 38.5338 59.2709 38.5338H58.5615V48.2862H59.3017H59.2915ZM56.166 36.8274H59.2606C60.3196 36.8274 61.1523 36.9722 61.7589 37.2514C62.3655 37.541 62.7973 37.9753 63.044 38.5648C63.301 39.1543 63.4244 39.93 63.4244 40.9021V45.68C63.4244 46.6728 63.301 47.4795 63.044 48.1C62.787 48.7205 62.3655 49.1756 61.7692 49.4858C61.1729 49.7961 60.371 49.9512 59.3531 49.9512H56.166V36.8274Z"
        fill="white" />
    <path d="M70.2806 36.8274H67.916V49.9512H70.2806V36.8274Z" fill="white" />
    <path
        d="M71.6797 36.8274H73.3452L76.5426 44.3149V36.8274H78.5166V49.9512H76.9333L73.7256 42.1121V49.9512H71.6797V36.8274Z"
        fill="white" />
    <path d="M79.873 36.8274H85.2706V38.4821H82.2583V42.3086H84.7257V43.9736H82.2583V49.9512H79.873V36.8274Z"
        fill="white" />
    <path
        d="M89.0854 42.4534C89.764 42.4534 90.2472 42.2982 90.5351 41.988C90.8229 41.6777 90.9669 41.1606 90.9669 40.447C90.9669 39.7335 90.8435 39.2577 90.5865 38.9371C90.3294 38.6269 89.8771 38.4717 89.2191 38.4717H88.3246V42.4534H89.0854ZM85.9395 36.8274H89.0957C90.4734 36.8274 91.5117 37.0859 92.1903 37.6134C92.8688 38.1408 93.2081 39.0406 93.2081 40.3126C93.2081 41.1399 93.0848 41.8225 92.8483 42.3499C92.6016 42.8774 92.1903 43.26 91.594 43.4979L93.424 49.9615H91.0285L89.4555 43.9529H88.3246V49.9615H85.9395V36.8377V36.8274Z"
        fill="white" />
    <path
        d="M98.5439 45.4008L97.6495 39.8886L96.755 45.4008H98.5337H98.5439ZM96.3541 36.8274H98.9141L101.536 49.9512H99.315L98.801 46.921H96.5186L95.984 49.9512H93.7324L96.3541 36.8274Z"
        fill="white" />
    <path
        d="M102.859 49.1238C102.273 48.4516 101.944 47.4588 101.893 46.1247L103.949 45.7213C103.98 46.5487 104.113 47.1899 104.35 47.6242C104.586 48.0586 104.946 48.2758 105.44 48.2758C105.81 48.2758 106.077 48.162 106.262 47.9448C106.447 47.7277 106.529 47.4277 106.529 47.0451C106.529 46.528 106.416 46.0936 106.18 45.7317C105.943 45.3697 105.583 44.9767 105.09 44.532L103.435 43.0842C102.931 42.6291 102.551 42.1637 102.294 41.688C102.037 41.2123 101.913 40.6125 101.913 39.9092C101.913 38.875 102.211 38.0684 102.818 37.5099C103.424 36.9514 104.257 36.6619 105.326 36.6619C106.447 36.6619 107.249 36.9825 107.742 37.6237C108.226 38.2649 108.514 39.1336 108.586 40.2195L106.529 40.5814C106.498 39.8782 106.406 39.3404 106.241 38.9784C106.087 38.6165 105.779 38.4303 105.326 38.4303C104.956 38.4303 104.668 38.5441 104.463 38.7716C104.257 38.9991 104.144 39.299 104.144 39.661C104.144 40.085 104.226 40.4366 104.401 40.7159C104.576 40.9951 104.843 41.3054 105.213 41.6363L106.848 43.0738C107.465 43.6219 107.948 44.2011 108.287 44.7906C108.637 45.38 108.801 46.0833 108.801 46.8796C108.801 47.5105 108.668 48.0586 108.39 48.5447C108.113 49.0307 107.732 49.4134 107.228 49.6926C106.735 49.9718 106.159 50.1063 105.511 50.1063C104.319 50.1063 103.435 49.7753 102.849 49.1031"
        fill="white" />
    <path d="M110.872 38.5958H108.682V36.8274H115.405V38.5958H113.257V49.9512H110.872V38.5958Z" fill="white" />
    <path
        d="M118.972 42.4531C119.651 42.4531 120.134 42.298 120.422 41.9877C120.71 41.6775 120.854 41.1604 120.854 40.4468C120.854 39.7332 120.73 39.2575 120.473 38.9369C120.216 38.6266 119.764 38.4715 119.106 38.4715H118.211V42.4531H118.972ZM115.826 36.8271H118.982C120.36 36.8271 121.398 37.0857 122.077 37.6131C122.756 38.1406 123.095 39.0403 123.095 40.3124C123.095 41.1397 122.971 41.8223 122.735 42.3497C122.488 42.8771 122.077 43.2598 121.481 43.4976L123.311 49.9613H120.915L119.342 43.9527H118.211V49.9613H115.826V36.8375V36.8271Z"
        fill="white" />
    <path
        d="M125.645 49.61C125.101 49.2687 124.73 48.7723 124.515 48.1311C124.299 47.4899 124.186 46.6833 124.186 45.7008V36.8171H126.519V45.9697C126.519 46.7246 126.612 47.3038 126.787 47.7175C126.961 48.1311 127.332 48.338 127.876 48.338C128.421 48.338 128.812 48.1311 128.987 47.7175C129.162 47.3038 129.254 46.7246 129.254 45.9697V36.8171H131.567V45.7008C131.567 46.6729 131.454 47.4796 131.238 48.1208C131.022 48.762 130.642 49.2584 130.107 49.5997C129.562 49.941 128.822 50.1168 127.876 50.1168C126.931 50.1168 126.18 49.941 125.645 49.5997"
        fill="white" />
    <path
        d="M133.459 48.9893C132.893 48.224 132.605 47.1485 132.605 45.7627V41.0778C132.605 39.6403 132.883 38.5544 133.448 37.8098C134.014 37.0652 134.98 36.6929 136.348 36.6929C137.633 36.6929 138.548 37.0135 139.082 37.665C139.617 38.3165 139.895 39.2473 139.895 40.4676V41.5742H137.592V40.4366C137.592 39.9712 137.571 39.6093 137.53 39.3404C137.489 39.0715 137.376 38.8543 137.201 38.6888C137.026 38.5234 136.749 38.4406 136.368 38.4406C135.988 38.4406 135.69 38.5337 135.494 38.7095C135.299 38.8853 135.176 39.1232 135.114 39.4231C135.052 39.723 135.021 40.1057 135.021 40.5814V46.2694C135.021 47.014 135.114 47.5518 135.309 47.8828C135.505 48.2137 135.854 48.3792 136.358 48.3792C136.728 48.3792 136.995 48.2964 137.18 48.1206C137.355 47.9448 137.468 47.7173 137.52 47.4277C137.571 47.1381 137.592 46.7658 137.592 46.2901V45.1111H139.895V46.166C139.895 47.4277 139.627 48.4102 139.103 49.1031C138.568 49.796 137.653 50.1476 136.348 50.1476C135.042 50.1476 134.024 49.765 133.459 49.01"
        fill="white" />
    <path d="M142.215 38.5958H140.025V36.8274H146.749V38.5958H144.6V49.9512H142.215V38.5958Z" fill="white" />
    <path
        d="M148.54 49.61C147.995 49.2687 147.625 48.7723 147.409 48.1311C147.193 47.4899 147.08 46.6833 147.08 45.7008V36.8171H149.414V45.9697C149.414 46.7246 149.506 47.3038 149.681 47.7175C149.856 48.1311 150.226 48.338 150.771 48.338C151.316 48.338 151.707 48.1311 151.881 47.7175C152.056 47.3038 152.149 46.7246 152.149 45.9697V36.8171H154.462V45.7008C154.462 46.6729 154.359 47.4796 154.133 48.1208C153.917 48.762 153.537 49.2584 153.002 49.5997C152.457 49.941 151.717 50.1168 150.771 50.1168C149.825 50.1168 149.075 49.941 148.54 49.5997"
        fill="white" />
    <path
        d="M158.863 42.4534C159.541 42.4534 160.025 42.2982 160.312 41.988C160.6 41.6777 160.744 41.1606 160.744 40.447C160.744 39.7335 160.621 39.2577 160.364 38.9371C160.107 38.6269 159.654 38.4717 158.996 38.4717H158.102V42.4534H158.863ZM155.717 36.8274H158.873C160.251 36.8274 161.289 37.0859 161.968 37.6134C162.646 38.1408 162.985 39.0406 162.985 40.3126C162.985 41.1399 162.862 41.8225 162.626 42.3499C162.379 42.8774 161.968 43.26 161.371 43.4979L163.201 49.9615H160.806L159.233 43.9529H158.102V49.9615H155.717V36.8377V36.8274Z"
        fill="white" />
    <path
        d="M164.166 36.8274H169.677V38.5131H166.551V42.2879H169.019V43.9633H166.551V48.3172H169.707V49.9512H164.166V36.8274Z"
        fill="white" />
    <path
        d="M133.992 144.538L114.694 155.676V133.4L133.992 122.261V144.538ZM70.2494 155.676V135.096L88.0767 145.386L70.2494 155.676ZM67.3193 155.676L48.0219 144.538V122.261L67.3193 133.4V155.676ZM88.0767 94.0591L70.2494 104.349V83.7586L88.0767 94.0488V94.0591ZM111.764 104.349L93.9369 94.0591L111.764 83.7689V104.36V104.349ZM93.9369 119.717L113.224 108.579L132.522 119.717L113.224 130.855L93.9369 119.717ZM89.5366 117.173L71.7094 106.883L89.5366 96.5928V117.173ZM110.294 106.883L92.4667 117.173V96.5928L110.294 106.883ZM89.5366 142.842L71.7094 132.551L89.5366 122.261V142.852V142.842ZM136.192 118.445L114.694 106.035V81.2145C114.694 80.6871 114.417 80.2114 113.964 79.9425L91.7368 67.1082C91.2844 66.8497 90.7292 66.8497 90.2666 67.1082L68.039 79.9425C67.5867 80.201 67.3091 80.6871 67.3091 81.2145V106.035L45.8217 118.445C45.3694 118.704 45.0918 119.19 45.0918 119.717V145.386C45.0918 145.913 45.3694 146.399 45.8217 146.658L68.0493 159.492C68.2755 159.626 68.5325 159.689 68.7793 159.689C69.026 159.689 69.283 159.626 69.5092 159.492L90.9965 147.082L112.484 159.492C112.71 159.626 112.967 159.689 113.214 159.689C113.461 159.689 113.718 159.626 113.944 159.492L136.171 146.658C136.624 146.399 136.901 145.913 136.901 145.386V119.717C136.901 119.19 136.624 118.704 136.171 118.445"
        fill="white" />
</svg>