<svg width="427" height="120" viewBox="0 0 427 120" fill="none" xmlns="http://www.w3.org/2000/svg">
    <path
        d="M100.693 74.8141C101.414 77.6034 102.65 80.2932 104.503 82.8833L104.4 83.1822H84.8379C83.4994 80.9905 82.6758 78.6993 82.2639 76.2088C81.8521 73.8179 81.6462 70.0323 81.6462 64.9517C81.6462 60.4688 80.5136 57.1813 78.1456 55.1889C75.7776 53.1965 72.1741 52.2003 67.3351 52.2003H53.2299V83.1822H35.0063V1.49365H67.8499C74.6451 1.49365 80.6166 2.09137 85.4556 3.38644C90.3976 4.6815 94.31 7.172 97.2957 10.7583C100.282 14.3447 101.723 19.5249 101.723 26.0998C101.723 30.9812 100.487 35.1653 98.1194 38.652C95.7514 42.1387 92.4567 44.6292 88.3384 46.4223C92.2508 47.9166 95.1336 50.1083 96.8839 52.9973C98.6342 55.8863 99.5608 59.6718 99.5608 64.1547C99.6638 68.4384 100.076 72.0247 100.693 74.8141ZM75.6746 37.6558C78.1456 37.058 80.1018 35.9622 81.6462 34.2687C83.0876 32.5751 83.8083 30.0846 83.8083 26.8968C83.8083 23.6093 83.0876 21.1188 81.6462 19.4253C80.2048 17.7317 78.2486 16.6359 75.7776 16.1378C73.3066 15.6397 70.2179 15.3409 66.4084 15.3409H53.2299V38.5523H66.2025C70.012 38.5523 73.2037 38.2535 75.6746 37.6558Z"
        fill="#03222B" />
    <path
        d="M181.409 48.614C183.983 51.8018 185.219 55.7866 185.219 60.4688C185.219 66.7449 183.674 71.5266 180.483 74.8141C177.291 78.2012 173.276 80.3928 168.128 81.4886C163.083 82.5844 156.905 83.1822 149.595 83.1822H116.031V1.49365H147.948C154.434 1.49365 160.097 2.09137 165.039 3.18719C169.981 4.28302 173.996 6.47466 177.188 9.76213C180.38 13.0496 182.027 17.6321 182.027 23.6093C182.027 27.893 180.998 31.4793 179.041 34.4679C176.982 37.4565 174.202 39.7478 170.496 41.3417C175.129 42.9356 178.835 45.4261 181.409 48.614ZM134.358 34.6672H147.022C151.14 34.6672 154.229 34.4679 156.494 34.1691C158.759 33.8702 160.612 32.9736 161.95 31.5789C163.392 30.1843 164.01 27.9926 164.01 25.004C164.01 22.115 163.289 19.9234 161.95 18.5287C160.509 17.134 158.656 16.2374 156.391 15.839C154.023 15.4405 150.934 15.2412 147.124 15.2412H134.358V34.6672ZM159.273 68.8369C161.744 68.4384 163.804 67.5418 165.245 66.0475C166.686 64.5532 167.407 62.2619 167.407 59.1737C167.407 55.9859 166.583 53.595 164.936 52.0011C163.289 50.4071 161.23 49.5106 158.862 49.1121C156.391 48.7136 153.302 48.5144 149.39 48.5144H134.358V69.5342H148.772C153.302 69.4346 156.802 69.2354 159.273 68.8369Z"
        fill="#03222B" />
    <path
        d="M245.353 81.4893C239.896 79.3973 235.572 76.2094 232.277 72.0254C228.983 67.7417 227.233 62.4618 227.027 56.0861L245.662 54.0937C245.662 59.6725 247.309 63.8565 250.604 66.7455C253.899 69.6345 258.326 71.0292 263.988 71.0292C269.033 71.0292 273.152 70.1326 276.137 68.3394C279.123 66.5463 280.668 63.6573 280.668 59.7721C280.668 57.5804 280.05 55.8869 278.814 54.6915C277.579 53.496 275.829 52.5994 273.769 51.9021C271.71 51.3044 268.622 50.607 264.503 49.8101C262.959 49.5112 261.209 49.2123 259.355 48.8139C253.075 47.5188 247.824 45.9249 243.5 44.0321C239.176 42.1393 235.778 39.5492 233.204 36.2617C230.63 32.9743 229.395 28.8898 229.395 23.9088C229.395 18.629 230.939 14.1461 234.028 10.5597C237.116 6.9734 241.235 4.28366 246.177 2.59011C251.222 0.996191 256.575 0.0996094 262.341 0.0996094C272.122 0.0996094 280.05 2.19163 286.124 6.37568C292.199 10.5597 295.699 17.1347 296.626 26.2997L278.197 29.0891C277.888 23.8092 276.446 19.8244 273.769 17.3339C271.092 14.8434 267.283 13.5483 262.238 13.5483C257.811 13.5483 254.31 14.3453 251.736 16.0388C249.163 17.7324 247.927 20.1233 247.927 23.2115C247.927 25.2039 248.648 26.7978 250.089 28.0929C251.531 29.3879 253.59 30.4838 256.267 31.2807C258.943 32.1773 262.444 32.9743 266.768 33.6716C273.769 34.867 279.535 36.3613 284.168 38.0549C288.801 39.848 292.508 42.4382 295.185 45.8253C297.964 49.2123 299.303 53.6953 299.303 59.274C299.303 65.4504 297.656 70.4314 294.258 74.217C290.963 78.0026 286.536 80.5927 281.285 82.1866C275.932 83.7805 270.063 84.5775 263.577 84.5775C256.781 84.6771 250.707 83.5813 245.353 81.4893Z"
        fill="#03222B" />
    <path
        d="M361.388 79.6961C355.004 76.4087 350.165 71.6269 346.871 65.3508C343.576 58.9751 341.826 51.404 341.826 42.3386C341.826 34.0701 343.473 26.6982 346.871 20.3225C350.165 13.9468 355.107 8.96581 361.491 5.37949C367.874 1.79316 375.493 0 384.347 0C393.099 0 400.615 1.79316 406.998 5.37949C413.381 8.96581 418.22 13.9468 421.618 20.3225C425.015 26.6982 426.663 34.0701 426.663 42.2389C426.663 50.607 425.015 57.8793 421.618 64.255C418.22 70.6307 413.381 75.6117 406.998 79.198C400.615 82.7843 393.099 84.5775 384.347 84.5775C375.39 84.6771 367.771 82.9836 361.388 79.6961ZM394.849 68.8375C397.835 67.6421 400.306 65.7493 402.262 63.3584C404.115 60.8679 405.556 57.8793 406.483 54.1934C407.41 50.607 407.822 46.6222 407.822 42.3386C407.822 38.1545 407.307 34.0701 406.38 30.2845C405.454 26.499 404.012 23.5104 402.262 21.2191C398.555 16.4373 392.79 13.9468 384.862 13.9468C376.625 13.9468 370.654 16.2381 366.741 20.9202C364.888 23.1119 363.447 26.1005 362.417 30.0853C361.388 34.0701 360.873 38.0549 360.873 42.2389C360.873 46.6222 361.285 50.607 362.211 54.0937C363.138 57.5804 364.476 60.569 366.124 62.8603C368.08 65.5501 370.654 67.4428 373.846 68.7379C377.037 69.9333 380.538 70.6307 384.45 70.6307C388.26 70.7303 391.76 70.1326 394.849 68.8375Z"
        fill="#03222B" />
    <path d="M18.3265 33.8702L9.16323 42.3379L0 33.8702V1.49365H18.3265V33.8702Z" fill="#03222B" />
    <path d="M0 50.8071L9.16323 42.3394L18.3265 50.8071V83.1836H0V50.8071Z" fill="#03222B" />
    <path d="M214.67 33.8731L205.507 42.3408L196.344 33.8731V1.49658H214.67V33.8731Z" fill="#03222B" />
    <path d="M196.344 50.81L205.507 42.3423L214.67 50.81V83.1865H196.344V50.81Z" fill="#03222B" />
    <path d="M329.775 33.8697L320.612 42.3374L311.449 33.8697V1.49316H329.775V33.8697Z" fill="#03222B" />
    <path d="M311.449 50.8071L320.612 42.3394L329.775 50.8071V83.1836H311.449V50.8071Z" fill="#03222B" />
    <path
        d="M246.026 118.59L253.319 96.112H247.346L243.07 111.863H243.008L238.763 96.112H232.57L240.052 118.59H246.026ZM257.114 118.59L258.56 113.906H266.263L267.709 118.59H273.902L265.288 96.112H259.598L251.046 118.59H257.114ZM262.396 101.299H262.458L265.005 109.599H259.849L262.396 101.299ZM291.25 118.59V113.969H281.253V96.112H275.594V118.59H291.25ZM302.029 119.093C308.82 119.093 311.429 116.075 311.429 110.479V96.112H305.77V110.479C305.77 113.403 304.513 114.472 302.029 114.472C299.545 114.472 298.288 113.403 298.288 110.479V96.112H292.629V110.479C292.629 116.075 295.238 119.093 302.029 119.093ZM332.243 118.59V113.969H320.674V109.347H330.482V104.726H320.674V100.733H332.054V96.112H315.015V118.59H332.243ZM346.831 118.59V110.291H355.854V105.669H346.831V100.733H357.898V96.112H341.172V118.59H346.831ZM369.664 119.093C376.455 119.093 379.064 116.075 379.064 110.479V96.112H373.405V110.479C373.405 113.403 372.148 114.472 369.664 114.472C367.181 114.472 365.923 113.403 365.923 110.479V96.112H360.264V110.479C360.264 116.075 362.874 119.093 369.664 119.093ZM388.309 118.59V105.229H388.372L396.231 118.59H401.89V96.112H396.231V109.473H396.168L388.309 96.112H382.65V118.59H388.309ZM415.956 118.59C422.213 118.59 425.671 114.598 425.671 107.367C425.671 100.136 421.898 96.112 415.642 96.112H405.676V118.59H415.956ZM411.335 113.969V100.733H414.95C418.471 100.733 419.886 103.28 419.886 107.367C419.886 111.454 418.471 113.969 414.95 113.969H411.335Z"
        fill="#74D4EF" />
</svg>