<svg width="231" height="205" viewBox="0 0 231 205" fill="none" xmlns="http://www.w3.org/2000/svg">
    <path d="M27.3921 70.0733L58.2672 102.376L27.3921 134.68L0.499999 134.68L0.5 70.0733L27.3921 70.0733Z"
        fill="#03222B" />
    <path d="M143.361 0.764604L165.63 24.0608L143.361 47.3569L91.4863 47.3569L91.4863 0.764603L143.361 0.764604Z"
        fill="#03222B" />
    <path d="M143.361 157.456L165.63 180.753L143.361 204.049L91.4863 204.049L91.4863 157.456L143.361 157.456Z"
        fill="#03222B" />
    <path d="M177.937 47.357L230.5 102.407L177.937 157.457L144.368 157.457L144.368 47.357L177.937 47.357Z"
        fill="#03222B" />
    <path d="M91.8355 47.357L144.399 102.407L91.8355 157.457L58.2671 157.457L58.2671 47.357L91.8355 47.357Z"
        fill="#03222B" />
</svg>